<?xml version="1.0" encoding="utf-8"?>
<!-- Generator: Adobe Illustrator 21.1.0, SVG Export Plug-In . SVG Version: 6.00 Build 0)  -->
<svg version="1.1" id="Layer_1" xmlns="http://www.w3.org/2000/svg" xmlns:xlink="http://www.w3.org/1999/xlink" x="0px" y="0px"
	 viewBox="0 0 52 52" style="enable-background:new 0 0 52 52;" xml:space="preserve">
<style type="text/css">
	.st0{fill:#FFFFFF;}
	.st1{fill:#A8C0B2;}
</style>
<title>comment</title>
<desc>Created with Sketch.</desc>
<g id="Group-2">
	<g id="_xF0E5_">
		<g id="XMLID_1_">
			<g>
				<path class="st0" d="M37.7,18.8c1.2,1.4,1.9,2.9,1.9,4.5c0,1.6-0.6,3.1-1.9,4.5c-1.2,1.4-2.9,2.5-5,3.3
					c-2.1,0.8-4.4,1.2-6.8,1.2c-0.7,0-1.5,0-2.3-0.1l-1-0.1l-0.8,0.7c-1.5,1.3-3.1,2.3-4.9,3c0.5-1,1-2,1.2-3.1l0.5-1.7l-1.5-0.9
					c-1.5-0.9-2.7-1.9-3.6-3.1c-0.8-1.2-1.3-2.5-1.3-3.8c0-1.6,0.6-3.1,1.9-4.5s2.9-2.5,5-3.3c2.1-0.8,4.4-1.2,6.8-1.2
					c2.4,0,4.7,0.4,6.8,1.2C34.8,16.3,36.5,17.4,37.7,18.8z"/>
				<path class="st0" d="M26,2c13.2,0,24,10.8,24,24S39.2,50,26,50S2,39.2,2,26S12.8,2,26,2z M41.8,23.4c0-2.1-0.7-4-2.1-5.7
					c-1.4-1.8-3.4-3.1-5.8-4.1s-5.1-1.5-8-1.5s-5.6,0.5-8,1.5s-4.4,2.4-5.8,4.1c-1.4,1.7-2.1,3.6-2.1,5.7c0,1.8,0.5,3.4,1.6,5
					c1.1,1.5,2.5,2.8,4.4,3.9c-0.1,0.5-0.3,0.9-0.5,1.3s-0.3,0.8-0.5,1c-0.1,0.3-0.3,0.6-0.6,0.9c-0.2,0.3-0.4,0.6-0.6,0.7
					c-0.1,0.1-0.3,0.4-0.6,0.7c-0.3,0.3-0.5,0.5-0.5,0.6c0,0-0.1,0.1-0.1,0.2c-0.1,0.1-0.1,0.1-0.1,0.1L12.4,38
					c-0.1,0.1-0.1,0.2-0.1,0.2c0,0,0,0.1,0,0.2c0,0.1,0,0.2,0,0.2v0c0.1,0.2,0.1,0.4,0.3,0.5c0.1,0.1,0.3,0.2,0.5,0.2h0.1
					c0.8-0.1,1.4-0.2,2-0.4c3.1-0.8,5.8-2.2,8.2-4.3c0.9,0.1,1.8,0.1,2.6,0.1c2.9,0,5.5-0.5,8-1.5c2.4-1,4.4-2.4,5.8-4.1
					C41.1,27.3,41.8,25.4,41.8,23.4z"/>
				<path class="st1" d="M39.6,23.4c0-1.6-0.6-3.1-1.9-4.5c-1.2-1.4-2.9-2.5-5-3.3c-2.1-0.8-4.4-1.2-6.8-1.2c-2.4,0-4.7,0.4-6.8,1.2
					c-2.1,0.8-3.8,1.9-5,3.3s-1.9,2.9-1.9,4.5c0,1.3,0.4,2.6,1.3,3.8c0.9,1.2,2,2.2,3.6,3.1l1.5,0.9l-0.5,1.7
					C17.9,34,17.5,35,17,35.9c1.8-0.8,3.4-1.8,4.9-3l0.8-0.7l1,0.1c0.8,0.1,1.6,0.1,2.3,0.1c2.4,0,4.7-0.4,6.8-1.2
					c2.1-0.8,3.8-1.9,5-3.3C38.9,26.5,39.6,25,39.6,23.4z M39.7,17.7c1.4,1.7,2.1,3.6,2.1,5.7s-0.7,4-2.1,5.7
					c-1.4,1.8-3.4,3.1-5.8,4.1c-2.4,1-5.1,1.5-8,1.5c-0.8,0-1.7-0.1-2.6-0.1c-2.3,2.1-5.1,3.5-8.2,4.3c-0.6,0.2-1.3,0.3-2,0.4h-0.1
					c-0.2,0-0.3-0.1-0.5-0.2c-0.1-0.1-0.2-0.3-0.3-0.5v0c0,0,0-0.1,0-0.2c0-0.1,0-0.2,0-0.2c0,0,0-0.1,0.1-0.2l0.1-0.2
					c0,0,0.1-0.1,0.1-0.1c0.1-0.1,0.1-0.1,0.1-0.2c0.1-0.1,0.3-0.3,0.5-0.6c0.3-0.3,0.5-0.5,0.6-0.7c0.1-0.1,0.3-0.4,0.6-0.7
					c0.2-0.3,0.4-0.6,0.6-0.9c0.1-0.3,0.3-0.6,0.5-1s0.3-0.9,0.5-1.3c-1.9-1.1-3.3-2.4-4.4-3.9c-1.1-1.6-1.6-3.2-1.6-5
					c0-2.1,0.7-4,2.1-5.7c1.4-1.8,3.3-3.1,5.8-4.1s5.1-1.5,8-1.5s5.5,0.5,8,1.5S38.3,15.9,39.7,17.7z"/>
				<path class="st1" d="M50,26C50,12.8,39.2,2,26,2S2,12.8,2,26s10.8,24,24,24S50,39.2,50,26z M26,0c14.3,0,26,11.7,26,26
					S40.3,52,26,52S0,40.3,0,26S11.7,0,26,0z"/>
			</g>
			<g>
			</g>
		</g>
	</g>
</g>
</svg>
