<?xml version="1.0" encoding="utf-8"?>
<!-- Generator: Adobe Illustrator 21.1.0, SVG Export Plug-In . SVG Version: 6.00 Build 0)  -->
<svg version="1.1" id="Layer_1" xmlns="http://www.w3.org/2000/svg" xmlns:xlink="http://www.w3.org/1999/xlink" x="0px" y="0px"
	 viewBox="0 0 52 52" style="enable-background:new 0 0 52 52;" xml:space="preserve">
<style type="text/css">
	.st0{fill:#FFFFFF;}
	.st1{fill:#A8C0B2;}
</style>
<title>message planner</title>
<desc>Created with Sketch.</desc>
<g id="Group-3">
	<g id="Shape">
		<g id="XMLID_1_">
			<g>
				<path class="st0" d="M26,2c13.2,0,24,10.8,24,24S39.2,50,26,50S2,39.2,2,26S12.8,2,26,2z M40,35.4V17.6c0-0.7-0.2-1.3-0.8-1.9
					c-0.5-0.5-1.1-0.8-1.8-0.8H13.6c-0.7,0-1.3,0.3-1.8,0.8c-0.5,0.5-0.8,1.1-0.8,1.9v17.9c0,0.7,0.2,1.3,0.8,1.9
					c0.5,0.5,1.1,0.8,1.8,0.8h23.8c0.7,0,1.3-0.3,1.8-0.8C39.8,36.8,40,36.2,40,35.4z"/>
				<path class="st0" d="M37.9,18.2c0,0.6-0.2,1.4-0.8,2.2c-0.5,0.8-1,1.4-1.6,1.9c-2.1,1.7-4.2,3.4-6.5,5.2c-0.1,0-0.2,0.2-0.6,0.5
					c-0.3,0.3-0.6,0.5-0.7,0.6c-0.2,0.1-0.4,0.3-0.7,0.5c-0.3,0.2-0.6,0.4-0.8,0.5s-0.5,0.1-0.7,0.1h0h0c-0.2,0-0.4,0-0.7-0.1
					s-0.5-0.2-0.8-0.5c-0.3-0.2-0.5-0.4-0.7-0.5c-0.2-0.1-0.4-0.4-0.7-0.6c-0.3-0.3-0.5-0.4-0.6-0.5c-2.2-1.8-4.4-3.6-6.5-5.2
					c-1.6-1.3-2.4-2.8-2.4-4.7c0-0.1,0.1-0.3,0.2-0.4c0.1-0.1,0.2-0.2,0.4-0.2h23.8c0.1,0,0.2,0.1,0.2,0c0.1,0,0.1,0,0.1,0.1
					c0,0.1,0.1,0.1,0.1,0.1c0,0,0,0.1,0,0.2c0,0.1,0,0.2,0,0.2V18V18.2z"/>
				<path class="st0" d="M37.9,22.8v12.6c0,0.1,0,0.3-0.2,0.4c-0.1,0.1-0.2,0.2-0.4,0.2H13.6c-0.1,0-0.3-0.1-0.4-0.2
					c-0.1-0.1-0.2-0.2-0.2-0.4V22.8c0.4,0.4,0.7,0.8,1.1,1.1c2.9,2.3,5.2,4.1,6.9,5.6c0.5,0.5,1,0.8,1.4,1.1
					c0.3,0.3,0.8,0.5,1.4,0.8c0.6,0.3,1.1,0.4,1.7,0.4h0h0c0.5,0,1.1-0.1,1.6-0.4c0.6-0.3,1.1-0.5,1.4-0.8c0.4-0.3,0.8-0.6,1.4-1.1
					c1.7-1.4,4-3.3,6.9-5.6C37.2,23.6,37.6,23.2,37.9,22.8z"/>
				<path class="st1" d="M37.9,35.4V22.8c-0.3,0.4-0.7,0.8-1.1,1.1c-2.9,2.3-5.2,4.1-6.9,5.6c-0.5,0.5-1,0.8-1.4,1.1
					c-0.3,0.3-0.8,0.5-1.4,0.8c-0.6,0.3-1.1,0.4-1.6,0.4h0h0c-0.5,0-1.1-0.1-1.7-0.4c-0.6-0.3-1-0.5-1.4-0.8
					c-0.4-0.3-0.8-0.6-1.4-1.1c-1.7-1.4-4-3.3-6.9-5.6c-0.4-0.3-0.8-0.7-1.1-1.1v12.6c0,0.1,0.1,0.3,0.2,0.4
					c0.1,0.1,0.2,0.2,0.4,0.2h23.8c0.1,0,0.3-0.1,0.4-0.2C37.9,35.7,37.9,35.6,37.9,35.4z M37.9,18.2V18v-0.2c0,0,0-0.1,0-0.2
					c0-0.1,0-0.2,0-0.2c0,0,0,0-0.1-0.1c0-0.1-0.1-0.2-0.1-0.1c-0.1,0-0.1,0-0.2,0H13.6c-0.1,0-0.3,0-0.4,0.2
					c-0.1,0.1-0.2,0.2-0.2,0.4c0,1.8,0.8,3.4,2.4,4.7c2.1,1.7,4.3,3.4,6.5,5.2c0.1,0,0.2,0.2,0.6,0.5c0.3,0.3,0.6,0.5,0.7,0.6
					c0.2,0.1,0.4,0.3,0.7,0.5c0.3,0.2,0.6,0.4,0.8,0.5s0.5,0.1,0.7,0.1h0h0c0.2,0,0.4,0,0.7-0.1s0.5-0.2,0.8-0.5
					c0.3-0.2,0.5-0.4,0.7-0.5c0.2-0.1,0.4-0.4,0.7-0.6c0.3-0.3,0.5-0.4,0.6-0.5c2.2-1.8,4.4-3.6,6.5-5.2c0.6-0.5,1.1-1.1,1.6-1.9
					C37.7,19.5,37.9,18.8,37.9,18.2z M40,17.6v17.9c0,0.7-0.2,1.3-0.8,1.9c-0.5,0.5-1.1,0.8-1.8,0.8H13.6c-0.7,0-1.3-0.3-1.8-0.8
					c-0.5-0.5-0.8-1.1-0.8-1.9V17.6c0-0.7,0.2-1.3,0.8-1.9c0.5-0.5,1.1-0.8,1.8-0.8h23.8c0.7,0,1.3,0.3,1.8,0.8
					C39.8,16.2,40,16.8,40,17.6z"/>
				<path class="st1" d="M50,26C50,12.8,39.2,2,26,2S2,12.8,2,26s10.8,24,24,24S50,39.2,50,26z M26,0c14.3,0,26,11.7,26,26
					S40.3,52,26,52S0,40.3,0,26S11.7,0,26,0z"/>
			</g>
			<g>
			</g>
		</g>
	</g>
</g>
</svg>
