<?xml version="1.0" encoding="UTF-8" standalone="no"?>
<svg width="27px" height="28px" viewBox="0 0 27 28" version="1.1" xmlns="http://www.w3.org/2000/svg" xmlns:xlink="http://www.w3.org/1999/xlink">
    <!-- Generator: Sketch 39.1 (31720) - http://www.bohemiancoding.com/sketch -->
    <title>Fill 12</title>
    <desc>Created with Sketch.</desc>
    <defs></defs>
    <g id="Page-1" stroke="none" stroke-width="1" fill="none" fill-rule="evenodd">
        <g id="Icon-Set" transform="translate(-173.000000, -1183.000000)" fill="#555555">
            <path d="M184.983,1190.01 L184.983,1184.11 C185.017,1183.81 184.936,1183.51 184.708,1183.28 C184.312,1182.89 183.67,1182.89 183.274,1183.28 L173.285,1194.24 C173.074,1194.45 172.984,1194.72 172.998,1195 C172.984,1195.27 173.074,1195.55 173.285,1195.76 L183.219,1206.65 C183.403,1206.88 183.67,1207.03 183.981,1207.03 C184.265,1207.03 184.518,1206.91 184.7,1206.72 C184.702,1206.72 184.706,1206.72 184.708,1206.71 C184.936,1206.49 185.017,1206.18 184.983,1205.89 C184.983,1205.89 185,1200.34 185,1200 C191.6,1200 197.569,1204.75 198.754,1211.01 C199.552,1209.17 200,1207.15 200,1205.02 C200,1196.73 193.276,1190.01 184.983,1190.01 Z" id="Fill-12"></path>
        </g>
    </g>
</svg>