<?xml version="1.0" encoding="utf-8"?>
<!-- Generator: Adobe Illustrator 16.0.0, SVG Export Plug-In . SVG Version: 6.00 Build 0)  -->
<!DOCTYPE svg PUBLIC "-//W3C//DTD SVG 1.1//EN" "http://www.w3.org/Graphics/SVG/1.1/DTD/svg11.dtd">
<svg version="1.1" xmlns="http://www.w3.org/2000/svg" xmlns:xlink="http://www.w3.org/1999/xlink" x="0px" y="0px" width="1024px"
	 height="1024px" viewBox="0 0 1024 1024" enable-background="new 0 0 1024 1024" xml:space="preserve">
<g id="Layer_1">
</g>
<g id="Layer_6">
	<g>
		<g>
			<path fill="#FFFFFF" d="M296.825,1021.5c-4.101,0-14.06-1.401-20.224-5.898c-10.437-7.672-17.578-19.603-17.578-32.539V516.8
				c0-17.67,16.745-35.388,34.773-36.434l474.873,0.04c17.631,0,36.744,14.312,36.744,31.983v187.908
				c0,17.671-17.223,36.135-36.744,36.135c-18.16,0-36.93-18.464-36.93-36.135v-146.37l-401.371-0.343v342.974l78.647-78.779
				c11.824-7.856,14.88-7.407,23.358-7.407h447.018l0.053-462.539l-147.309-146.7L607.658,325.6
				c-12.514,12.473-32.736,12.473-45.209,0l-234.91-234.15L143.684,274.431l-0.105,459.648
				c-2.129,21.798-19.707,32.775-37.365,32.856c-21.864,0.104-36.864-18.254-35.753-36.771l-0.45-470.052
				c-0.661-8.373,4.18-21.203,10.186-27.194L300.793,11.949c19.537-19.549,37.962-13.068,49.945-1.045l234.289,234.349
				l121.78-122.389c19.02-18.988,38.781-13.862,51.545,1.448l181.805,181.156c6.983,6.309,11.837,16.561,11.837,25.064v515.367
				c-1.164,17.856-11.044,27.671-16.48,31.691c-0.78,0.583-7.776,6.271-20.263,6.271H451.66l-122.35,120.683
				C312.565,1021.5,305.039,1021.5,296.825,1021.5z"/>
		</g>
	</g>
</g>
</svg>
