<?xml version="1.0" encoding="UTF-8" standalone="no"?>
<svg width="882px" height="1023px" viewBox="0 0 882 1023" version="1.1" xmlns="http://www.w3.org/2000/svg" xmlns:xlink="http://www.w3.org/1999/xlink">
    <!-- Generator: Sketch 39.1 (31720) - http://www.bohemiancoding.com/sketch -->
    <title>Shape</title>
    <desc>Created with Sketch.</desc>
    <defs></defs>
    <g id="Page-1" stroke="none" stroke-width="1" fill="none" fill-rule="evenodd">
        <g id="milieulogo-02" transform="translate(-1.000000, 0.000000)" fill="#333333">
            <g id="Layer_6">
                <path d="M227.825,1022.5 C223.724,1022.5 213.765,1021.099 207.601,1016.602 C197.164,1008.93 190.023,996.999 190.023,984.063 L190.023,517.8 C190.023,500.13 206.768,482.412 224.796,481.366 L699.669,481.406 C717.3,481.406 736.413,495.718 736.413,513.389 L736.413,701.297 C736.413,718.968 719.19,737.432 699.669,737.432 C681.509,737.432 662.739,718.968 662.739,701.297 L662.739,554.927 L261.368,554.584 L261.368,897.558 L340.015,818.779 C351.839,810.923 354.895,811.372 363.373,811.372 L810.391,811.372 L810.444,348.833 L663.135,202.133 L538.658,326.6 C526.144,339.073 505.922,339.073 493.449,326.6 L258.539,92.45 L74.684,275.431 L74.579,735.079 C72.45,756.877 54.872,767.854 37.214,767.935 C15.35,768.039 0.35,749.681 1.461,731.164 L1.011,261.112 C0.35,252.739 5.191,239.909 11.197,233.918 L231.793,12.949 C251.33,-6.6 269.755,-0.119 281.738,11.904 L516.027,246.253 L637.807,123.864 C656.827,104.876 676.588,110.002 689.352,125.312 L871.157,306.468 C878.14,312.777 882.994,323.029 882.994,331.532 L882.994,846.899 C881.83,864.755 871.95,874.57 866.514,878.59 C865.734,879.173 858.738,884.861 846.251,884.861 L382.66,884.861 L260.31,1005.544 C243.565,1022.5 236.039,1022.5 227.825,1022.5 L227.825,1022.5 Z" id="Shape"></path>
            </g>
        </g>
    </g>
</svg>