<?xml version="1.0" encoding="UTF-8" standalone="no"?>
<svg width="32px" height="32px" viewBox="0 0 32 32" version="1.1" xmlns="http://www.w3.org/2000/svg" xmlns:xlink="http://www.w3.org/1999/xlink">
    <!-- Generator: Sketch 39 (31667) - http://www.bohemiancoding.com/sketch -->
    <title>Fill 19</title>
    <desc>Created with Sketch.</desc>
    <defs></defs>
    <g id="Page-1" stroke="none" stroke-width="1" fill="none" fill-rule="evenodd">
        <g id="Icon-Set" transform="translate(-329.000000, -1129.000000)" fill="#555555">
            <path d="M342.46,1153.45 C336.17,1153.45 331.071,1148.44 331.071,1142.25 C331.071,1136.06 336.17,1131.04 342.46,1131.04 C348.75,1131.04 353.85,1136.06 353.85,1142.25 C353.85,1148.44 348.75,1153.45 342.46,1153.45 L342.46,1153.45 Z M360.688,1159.25 L352.429,1151.12 C354.591,1148.77 355.92,1145.67 355.92,1142.25 C355.92,1134.93 349.894,1129 342.46,1129 C335.026,1129 329,1134.93 329,1142.25 C329,1149.56 335.026,1155.49 342.46,1155.49 C345.672,1155.49 348.618,1154.38 350.932,1152.53 L359.224,1160.69 C359.629,1161.09 360.284,1161.09 360.688,1160.69 C361.093,1160.3 361.093,1159.65 360.688,1159.25 L360.688,1159.25 Z" id="Fill-19"></path>
        </g>
    </g>
</svg>