<?xml version="1.0" encoding="UTF-8"?>
<svg width="55px" height="55px" viewBox="0 0 73 55" version="1.1" xmlns="http://www.w3.org/2000/svg" xmlns:xlink="http://www.w3.org/1999/xlink">
    <!-- Generator: Sketch 45 (43475) - http://www.bohemiancoding.com/sketch -->
    <title>ratingscale/hatewithpassion</title>
    <desc>Created with Sketch.</desc>
    <defs></defs>
    <g id="Symbols" stroke="none" stroke-width="1" fill="none" fill-rule="evenodd">
        <g id="ratingscale/hatewithpassion">
            <g id="Group-4">
                <path d="M37.1283482,35.8398438 C37.3019602,36.3823812 37.2585578,36.9086346 36.9981399,37.4186198 C36.7377219,37.928605 36.3362502,38.2703984 35.7937128,38.4440104 C35.2511754,38.6176224 34.7194967,38.5742201 34.1986607,38.3138021 C33.6778248,38.0533841 33.330606,37.6410618 33.156994,37.0768229 C32.6144566,35.3407031 31.6107774,33.9355522 30.1459263,32.8613281 C28.6810753,31.787104 27.0372115,31.25 25.2142857,31.25 C23.3913599,31.25 21.7474962,31.787104 20.2826451,32.8613281 C18.817794,33.9355522 17.8141148,35.3407031 17.2715774,37.0768229 C17.0979654,37.6410618 16.7561719,38.0533841 16.2461868,38.3138021 C15.7362016,38.5742201 15.2099481,38.6176224 14.6674107,38.4440104 C14.1031718,38.2703984 13.6908495,37.928605 13.4304315,37.4186198 C13.1700136,36.9086346 13.1266112,36.3823812 13.3002232,35.8398438 C14.1031786,33.2139626 15.6005595,31.0980983 17.7924107,29.4921875 C19.984262,27.8862767 22.4581955,27.0833333 25.2142857,27.0833333 C27.9703759,27.0833333 30.4443095,27.8862767 32.6361607,29.4921875 C34.828012,31.0980983 36.3253928,33.2139626 37.1283482,35.8398438 Z M21.047619,16.6666667 C21.047619,17.816846 20.6407221,18.7988241 19.8269159,19.6126302 C19.0131098,20.4264364 18.0311317,20.8333333 16.8809524,20.8333333 C15.730773,20.8333333 14.748795,20.4264364 13.9349888,19.6126302 C13.1211827,18.7988241 12.7142857,17.816846 12.7142857,16.6666667 C12.7142857,15.5164873 13.1211827,14.5345093 13.9349888,13.7207031 C14.748795,12.906897 15.730773,12.5 16.8809524,12.5 C18.0311317,12.5 19.0131098,12.906897 19.8269159,13.7207031 C20.6407221,14.5345093 21.047619,15.5164873 21.047619,16.6666667 Z M37.7142857,16.6666667 C37.7142857,17.816846 37.3073887,18.7988241 36.4935826,19.6126302 C35.6797764,20.4264364 34.6977984,20.8333333 33.547619,20.8333333 C32.3974397,20.8333333 31.4154617,20.4264364 30.6016555,19.6126302 C29.7878494,18.7988241 29.3809524,17.816846 29.3809524,16.6666667 C29.3809524,15.5164873 29.7878494,14.5345093 30.6016555,13.7207031 C31.4154617,12.906897 32.3974397,12.5 33.547619,12.5 C34.6977984,12.5 35.6797764,12.906897 36.4935826,13.7207031 C37.3073887,14.5345093 37.7142857,15.5164873 37.7142857,16.6666667 Z M46.047619,25 C46.047619,22.1788053 45.4942392,19.4824347 44.3874628,16.9108073 C43.2806864,14.3391799 41.7995814,12.1256603 39.9441034,10.2701823 C38.0886254,8.41470426 35.8751059,6.93359928 33.3034784,5.82682292 C30.731851,4.72004655 28.0354804,4.16666667 25.2142857,4.16666667 C22.3930911,4.16666667 19.6967204,4.72004655 17.125093,5.82682292 C14.5534656,6.93359928 12.339946,8.41470426 10.484468,10.2701823 C8.62898998,12.1256603 7.147885,14.3391799 6.04110863,16.9108073 C4.93433226,19.4824347 4.38095238,22.1788053 4.38095238,25 C4.38095238,27.8211947 4.93433226,30.5175653 6.04110863,33.0891927 C7.147885,35.6608201 8.62898998,37.8743397 10.484468,39.7298177 C12.339946,41.5852957 14.5534656,43.0664007 17.125093,44.1731771 C19.6967204,45.2799535 22.3930911,45.8333333 25.2142857,45.8333333 C28.0354804,45.8333333 30.731851,45.2799535 33.3034784,44.1731771 C35.8751059,43.0664007 38.0886254,41.5852957 39.9441034,39.7298177 C41.7995814,37.8743397 43.2806864,35.6608201 44.3874628,33.0891927 C45.4942392,30.5175653 46.047619,27.8211947 46.047619,25 Z M50.2142857,25 C50.2142857,29.535613 49.0966754,33.7185138 46.8614211,37.5488281 C44.6261669,41.3791424 41.5934281,44.4118812 37.7631138,46.6471354 C33.9327995,48.8823896 29.7498987,50 25.2142857,50 C20.6786728,50 16.4957719,48.8823896 12.6654576,46.6471354 C8.8351433,44.4118812 5.80240453,41.3791424 3.5671503,37.5488281 C1.33189607,33.7185138 0.214285714,29.535613 0.214285714,25 C0.214285714,20.464387 1.33189607,16.2814862 3.5671503,12.4511719 C5.80240453,8.62085758 8.8351433,5.58811882 12.6654576,3.35286458 C16.4957719,1.11761035 20.6786728,0 25.2142857,0 C29.7498987,0 33.9327995,1.11761035 37.7631138,3.35286458 C41.5934281,5.58811882 44.6261669,8.62085758 46.8614211,12.4511719 C49.0966754,16.2814862 50.2142857,20.464387 50.2142857,25 Z" id="" fill="#749393"></path>
                <path d="M53.2189093,53.2768463 C53.4673621,53.2425626 53.6521923,53.1088722 53.7734041,52.8757727 L62.6281431,33.9036745 C62.7483933,33.6413105 62.7101324,33.4008138 62.5133595,33.1821772 C62.349382,33.0181997 62.1635437,32.9362122 61.9558389,32.9362122 C61.9121116,32.9362122 61.8465215,32.9471439 61.7590669,32.9690076 L55.2655916,34.5759787 L58.0207511,27.1161024 C58.2804637,26.933125 58.5567494,26.745336 58.8496094,26.5527344 C59.5722692,26.0774716 60.3535114,25.6998712 61.1933594,25.4199219 C62.0332073,25.1399726 62.8567668,25 63.6640625,25 C66.5807438,25 68.8658771,25.8072836 70.5195313,27.421875 C72.1731854,29.0364664 73,31.2760273 73,34.140625 C73,37.0182436 71.5091295,39.9479018 68.5273438,42.9296875 L56.359375,54.6484375 C56.1249988,54.8828137 55.8385434,55 55.5,55 C55.1614566,55 54.8750012,54.8828137 54.640625,54.6484375 L53.2189093,53.2768463 Z M52.3628281,52.4509475 L42.453125,42.890625 C42.322916,42.7864578 42.1438813,42.6171887 41.9160156,42.3828125 C41.6881499,42.1484363 41.3268254,41.7220083 40.8320313,41.1035156 C40.3372371,40.4850229 39.8945332,39.8502637 39.5039063,39.1992188 C39.1132793,38.5481738 38.7649755,37.7604213 38.4589844,36.8359375 C38.1529933,35.9114537 38,35.0130252 38,34.140625 C38,31.2760273 38.8268146,29.0364664 40.4804687,27.421875 C42.1341229,25.8072836 44.4192562,25 47.3359375,25 C48.1432332,25 48.9667927,25.1399726 49.8066406,25.4199219 C50.4136115,25.6222455 50.9899715,25.8755739 51.5357296,26.1799115 C51.4268203,26.2730264 51.3528292,26.3879634 51.3137544,26.5247253 L48.0178238,40.0527988 C47.9631646,40.3151627 48.0342204,40.5283302 48.2309934,40.6923077 C48.3731072,40.8125578 48.5425481,40.872682 48.739321,40.872682 C48.8267757,40.872682 48.8923657,40.8672162 48.936093,40.8562843 L55.5935449,39.2001202 L52.3632049,52.4494334 C52.3630787,52.4499382 52.3629531,52.4504429 52.3628281,52.4509475 Z" id="Combined-Shape" fill="#EF706B"></path>
            </g>
        </g>
    </g>
</svg>
