<?xml version="1.0" encoding="UTF-8"?>
<svg width="33px" height="33x" viewBox="0 0 51 50" version="1.1" xmlns="http://www.w3.org/2000/svg" xmlns:xlink="http://www.w3.org/1999/xlink">
    <!-- Generator: Sketch 45 (43475) - http://www.bohemiancoding.com/sketch -->
    <title>ratingscale/dislike</title>
    <desc>Created with Sketch.</desc>
    <defs></defs>
    <g id="Symbols" stroke="none" stroke-width="1" fill="none" fill-rule="evenodd">
        <g id="ratingscale/dislike" fill="#749393">
            <g id="Group-5">
                <path d="M37.3426339,35.8398438 C37.5162459,36.3823812 37.4728436,36.9086346 37.2124256,37.4186198 C36.9520076,37.928605 36.5505359,38.2703984 36.0079985,38.4440104 C35.4654611,38.6176224 34.9337824,38.5742201 34.4129464,38.3138021 C33.8921105,38.0533841 33.5448917,37.6410618 33.3712798,37.0768229 C32.8287423,35.3407031 31.8250631,33.9355522 30.3602121,32.8613281 C28.895361,31.787104 27.2514972,31.25 25.4285714,31.25 C23.6056456,31.25 21.9617819,31.787104 20.4969308,32.8613281 C19.0320797,33.9355522 18.0284005,35.3407031 17.4858631,37.0768229 C17.3122511,37.6410618 16.9704577,38.0533841 16.4604725,38.3138021 C15.9504873,38.5742201 15.4242339,38.6176224 14.8816964,38.4440104 C14.3174575,38.2703984 13.9051352,37.928605 13.6447173,37.4186198 C13.3842993,36.9086346 13.3408969,36.3823812 13.5145089,35.8398438 C14.3174643,33.2139626 15.8148452,31.0980983 18.0066964,29.4921875 C20.1985477,27.8862767 22.6724813,27.0833333 25.4285714,27.0833333 C28.1846616,27.0833333 30.6585952,27.8862767 32.8504464,29.4921875 C35.0422977,31.0980983 36.5396785,33.2139626 37.3426339,35.8398438 Z M21.2619048,16.6666667 C21.2619048,17.816846 20.8550078,18.7988241 20.0412016,19.6126302 C19.2273955,20.4264364 18.2454175,20.8333333 17.0952381,20.8333333 C15.9450587,20.8333333 14.9630807,20.4264364 14.1492746,19.6126302 C13.3354684,18.7988241 12.9285714,17.816846 12.9285714,16.6666667 C12.9285714,15.5164873 13.3354684,14.5345093 14.1492746,13.7207031 C14.9630807,12.906897 15.9450587,12.5 17.0952381,12.5 C18.2454175,12.5 19.2273955,12.906897 20.0412016,13.7207031 C20.8550078,14.5345093 21.2619048,15.5164873 21.2619048,16.6666667 Z M37.9285714,16.6666667 C37.9285714,17.816846 37.5216745,18.7988241 36.7078683,19.6126302 C35.8940622,20.4264364 34.9120841,20.8333333 33.7619048,20.8333333 C32.6117254,20.8333333 31.6297474,20.4264364 30.8159412,19.6126302 C30.0021351,18.7988241 29.5952381,17.816846 29.5952381,16.6666667 C29.5952381,15.5164873 30.0021351,14.5345093 30.8159412,13.7207031 C31.6297474,12.906897 32.6117254,12.5 33.7619048,12.5 C34.9120841,12.5 35.8940622,12.906897 36.7078683,13.7207031 C37.5216745,14.5345093 37.9285714,15.5164873 37.9285714,16.6666667 Z M46.2619048,25 C46.2619048,22.1788053 45.7085249,19.4824347 44.6017485,16.9108073 C43.4949721,14.3391799 42.0138672,12.1256603 40.1583891,10.2701823 C38.3029111,8.41470426 36.0893916,6.93359928 33.5177641,5.82682292 C30.9461367,4.72004655 28.2497661,4.16666667 25.4285714,4.16666667 C22.6073768,4.16666667 19.9110062,4.72004655 17.3393787,5.82682292 C14.7677513,6.93359928 12.5542317,8.41470426 10.6987537,10.2701823 C8.84327569,12.1256603 7.36217071,14.3391799 6.25539435,16.9108073 C5.14861798,19.4824347 4.5952381,22.1788053 4.5952381,25 C4.5952381,27.8211947 5.14861798,30.5175653 6.25539435,33.0891927 C7.36217071,35.6608201 8.84327569,37.8743397 10.6987537,39.7298177 C12.5542317,41.5852957 14.7677513,43.0664007 17.3393787,44.1731771 C19.9110062,45.2799535 22.6073768,45.8333333 25.4285714,45.8333333 C28.2497661,45.8333333 30.9461367,45.2799535 33.5177641,44.1731771 C36.0893916,43.0664007 38.3029111,41.5852957 40.1583891,39.7298177 C42.0138672,37.8743397 43.4949721,35.6608201 44.6017485,33.0891927 C45.7085249,30.5175653 46.2619048,27.8211947 46.2619048,25 Z M50.4285714,25 C50.4285714,29.535613 49.3109611,33.7185138 47.0757068,37.5488281 C44.8404526,41.3791424 41.8077138,44.4118812 37.9773996,46.6471354 C34.1470853,48.8823896 29.9641844,50 25.4285714,50 C20.8929585,50 16.7100576,48.8823896 12.8797433,46.6471354 C9.04942901,44.4118812 6.01669024,41.3791424 3.78143601,37.5488281 C1.54618178,33.7185138 0.428571429,29.535613 0.428571429,25 C0.428571429,20.464387 1.54618178,16.2814862 3.78143601,12.4511719 C6.01669024,8.62085758 9.04942901,5.58811882 12.8797433,3.35286458 C16.7100576,1.11761035 20.8929585,0 25.4285714,0 C29.9641844,0 34.1470853,1.11761035 37.9773996,3.35286458 C41.8077138,5.58811882 44.8404526,8.62085758 47.0757068,12.4511719 C49.3109611,16.2814862 50.4285714,20.464387 50.4285714,25 Z" id="-copy"></path>
            </g>
        </g>
    </g>
</svg>
