<?xml version="1.0" encoding="UTF-8"?>
<svg width="33px" height="33px" viewBox="0 0 50 50" version="1.1" xmlns="http://www.w3.org/2000/svg" xmlns:xlink="http://www.w3.org/1999/xlink">
    <!-- Generator: Sketch 45 (43475) - http://www.bohemiancoding.com/sketch -->
    <title>ratingscale/indifferent</title>
    <desc>Created with Sketch.</desc>
    <defs></defs>
    <g id="Symbols" stroke="none" stroke-width="1" fill="none" fill-rule="evenodd">
        <g id="ratingscale/indifferent" fill="#6390B1">
            <path d="M36.9140625,30.8268229 C36.1111071,33.4527041 34.6137262,35.5685684 32.421875,37.1744792 C30.2300238,38.78039 27.7560902,39.5833333 25,39.5833333 C22.2439098,39.5833333 19.7699762,38.78039 17.578125,37.1744792 C15.3862738,35.5685684 13.8888929,33.4527041 13.0859375,30.8268229 C12.9123255,30.2842855 12.9557279,29.7580321 13.2161458,29.2480469 C13.4765638,28.7380617 13.8888861,28.3962682 14.453125,28.2226563 C14.9956624,28.0490443 15.5219159,28.0924466 16.031901,28.3528646 C16.5418862,28.6132826 16.8836797,29.0256048 17.0572917,29.5898438 C17.5998291,31.3259635 18.6035083,32.7311144 20.0683594,33.8053385 C21.5332104,34.8795627 23.1770742,35.4166667 25,35.4166667 C26.8229258,35.4166667 28.4667896,34.8795627 29.9316406,33.8053385 C31.3964917,32.7311144 32.4001709,31.3259635 32.9427083,29.5898438 C33.1163203,29.0256048 33.4635391,28.6132826 33.984375,28.3528646 C34.5052109,28.0924466 35.0368896,28.0490443 35.5794271,28.2226563 C36.1219645,28.3962682 36.5234362,28.7380617 36.7838542,29.2480469 C37.0442721,29.7580321 37.0876745,30.2842855 36.9140625,30.8268229 Z M20.8333333,16.6666667 C20.8333333,17.816846 20.4264364,18.7988241 19.6126302,19.6126302 C18.7988241,20.4264364 17.816846,20.8333333 16.6666667,20.8333333 C15.5164873,20.8333333 14.5345093,20.4264364 13.7207031,19.6126302 C12.906897,18.7988241 12.5,17.816846 12.5,16.6666667 C12.5,15.5164873 12.906897,14.5345093 13.7207031,13.7207031 C14.5345093,12.906897 15.5164873,12.5 16.6666667,12.5 C17.816846,12.5 18.7988241,12.906897 19.6126302,13.7207031 C20.4264364,14.5345093 20.8333333,15.5164873 20.8333333,16.6666667 Z M37.5,16.6666667 C37.5,17.816846 37.093103,18.7988241 36.2792969,19.6126302 C35.4654907,20.4264364 34.4835127,20.8333333 33.3333333,20.8333333 C32.183154,20.8333333 31.2011759,20.4264364 30.3873698,19.6126302 C29.5735636,18.7988241 29.1666667,17.816846 29.1666667,16.6666667 C29.1666667,15.5164873 29.5735636,14.5345093 30.3873698,13.7207031 C31.2011759,12.906897 32.183154,12.5 33.3333333,12.5 C34.4835127,12.5 35.4654907,12.906897 36.2792969,13.7207031 C37.093103,14.5345093 37.5,15.5164873 37.5,16.6666667 Z M45.8333333,25 C45.8333333,22.1788053 45.2799535,19.4824347 44.1731771,16.9108073 C43.0664007,14.3391799 41.5852957,12.1256603 39.7298177,10.2701823 C37.8743397,8.41470426 35.6608201,6.93359928 33.0891927,5.82682292 C30.5175653,4.72004655 27.8211947,4.16666667 25,4.16666667 C22.1788053,4.16666667 19.4824347,4.72004655 16.9108073,5.82682292 C14.3391799,6.93359928 12.1256603,8.41470426 10.2701823,10.2701823 C8.41470426,12.1256603 6.93359928,14.3391799 5.82682292,16.9108073 C4.72004655,19.4824347 4.16666667,22.1788053 4.16666667,25 C4.16666667,27.8211947 4.72004655,30.5175653 5.82682292,33.0891927 C6.93359928,35.6608201 8.41470426,37.8743397 10.2701823,39.7298177 C12.1256603,41.5852957 14.3391799,43.0664007 16.9108073,44.1731771 C19.4824347,45.2799535 22.1788053,45.8333333 25,45.8333333 C27.8211947,45.8333333 30.5175653,45.2799535 33.0891927,44.1731771 C35.6608201,43.0664007 37.8743397,41.5852957 39.7298177,39.7298177 C41.5852957,37.8743397 43.0664007,35.6608201 44.1731771,33.0891927 C45.2799535,30.5175653 45.8333333,27.8211947 45.8333333,25 Z M50,25 C50,29.535613 48.8823896,33.7185138 46.6471354,37.5488281 C44.4118812,41.3791424 41.3791424,44.4118812 37.5488281,46.6471354 C33.7185138,48.8823896 29.535613,50 25,50 C20.464387,50 16.2814862,48.8823896 12.4511719,46.6471354 C8.62085758,44.4118812 5.58811882,41.3791424 3.35286458,37.5488281 C1.11761035,33.7185138 0,29.535613 0,25 C0,20.464387 1.11761035,16.2814862 3.35286458,12.4511719 C5.58811882,8.62085758 8.62085758,5.58811882 12.4511719,3.35286458 C16.2814862,1.11761035 20.464387,0 25,0 C29.535613,0 33.7185138,1.11761035 37.5488281,3.35286458 C41.3791424,5.58811882 44.4118812,8.62085758 46.6471354,12.4511719 C48.8823896,16.2814862 50,20.464387 50,25 Z" id=""></path>
        </g>
    </g>
</svg>
