<?xml version="1.0" encoding="UTF-8"?>
<svg width="45px" height="45px" viewBox="0 0 77 70" version="1.1" xmlns="http://www.w3.org/2000/svg" xmlns:xlink="http://www.w3.org/1999/xlink">
    <!-- Generator: Sketch 45 (43475) - http://www.bohemiancoding.com/sketch -->
    <title>ratingscale/like</title>
    <desc>Created with Sketch.</desc>
    <defs></defs>
    <g id="Symbols" stroke="none" stroke-width="1" fill="none" fill-rule="evenodd">
        <g id="ratingscale/like">
            <g id="Group-7">
                <path d="M36.9140625,50.8268229 C36.1111071,53.4527041 34.6137262,55.5685684 32.421875,57.1744792 C30.2300238,58.78039 27.7560902,59.5833333 25,59.5833333 C22.2439098,59.5833333 19.7699762,58.78039 17.578125,57.1744792 C15.3862738,55.5685684 13.8888929,53.4527041 13.0859375,50.8268229 C12.9123255,50.2842855 12.9557279,49.7580321 13.2161458,49.2480469 C13.4765638,48.7380617 13.8888861,48.3962682 14.453125,48.2226563 C14.9956624,48.0490443 15.5219159,48.0924466 16.031901,48.3528646 C16.5418862,48.6132826 16.8836797,49.0256048 17.0572917,49.5898438 C17.5998291,51.3259635 18.6035083,52.7311144 20.0683594,53.8053385 C21.5332104,54.8795627 23.1770742,55.4166667 25,55.4166667 C26.8229258,55.4166667 28.4667896,54.8795627 29.9316406,53.8053385 C31.3964917,52.7311144 32.4001709,51.3259635 32.9427083,49.5898438 C33.1163203,49.0256048 33.4635391,48.6132826 33.984375,48.3528646 C34.5052109,48.0924466 35.0368896,48.0490443 35.5794271,48.2226563 C36.1219645,48.3962682 36.5234362,48.7380617 36.7838542,49.2480469 C37.0442721,49.7580321 37.0876745,50.2842855 36.9140625,50.8268229 Z M20.8333333,36.6666667 C20.8333333,37.816846 20.4264364,38.7988241 19.6126302,39.6126302 C18.7988241,40.4264364 17.816846,40.8333333 16.6666667,40.8333333 C15.5164873,40.8333333 14.5345093,40.4264364 13.7207031,39.6126302 C12.906897,38.7988241 12.5,37.816846 12.5,36.6666667 C12.5,35.5164873 12.906897,34.5345093 13.7207031,33.7207031 C14.5345093,32.906897 15.5164873,32.5 16.6666667,32.5 C17.816846,32.5 18.7988241,32.906897 19.6126302,33.7207031 C20.4264364,34.5345093 20.8333333,35.5164873 20.8333333,36.6666667 Z M37.5,36.6666667 C37.5,37.816846 37.093103,38.7988241 36.2792969,39.6126302 C35.4654907,40.4264364 34.4835127,40.8333333 33.3333333,40.8333333 C32.183154,40.8333333 31.2011759,40.4264364 30.3873698,39.6126302 C29.5735636,38.7988241 29.1666667,37.816846 29.1666667,36.6666667 C29.1666667,35.5164873 29.5735636,34.5345093 30.3873698,33.7207031 C31.2011759,32.906897 32.183154,32.5 33.3333333,32.5 C34.4835127,32.5 35.4654907,32.906897 36.2792969,33.7207031 C37.093103,34.5345093 37.5,35.5164873 37.5,36.6666667 Z M45.8333333,45 C45.8333333,42.1788053 45.2799535,39.4824347 44.1731771,36.9108073 C43.0664007,34.3391799 41.5852957,32.1256603 39.7298177,30.2701823 C37.8743397,28.4147043 35.6608201,26.9335993 33.0891927,25.8268229 C30.5175653,24.7200465 27.8211947,24.1666667 25,24.1666667 C22.1788053,24.1666667 19.4824347,24.7200465 16.9108073,25.8268229 C14.3391799,26.9335993 12.1256603,28.4147043 10.2701823,30.2701823 C8.41470426,32.1256603 6.93359928,34.3391799 5.82682292,36.9108073 C4.72004655,39.4824347 4.16666667,42.1788053 4.16666667,45 C4.16666667,47.8211947 4.72004655,50.5175653 5.82682292,53.0891927 C6.93359928,55.6608201 8.41470426,57.8743397 10.2701823,59.7298177 C12.1256603,61.5852957 14.3391799,63.0664007 16.9108073,64.1731771 C19.4824347,65.2799535 22.1788053,65.8333333 25,65.8333333 C27.8211947,65.8333333 30.5175653,65.2799535 33.0891927,64.1731771 C35.6608201,63.0664007 37.8743397,61.5852957 39.7298177,59.7298177 C41.5852957,57.8743397 43.0664007,55.6608201 44.1731771,53.0891927 C45.2799535,50.5175653 45.8333333,47.8211947 45.8333333,45 Z M50,45 C50,49.535613 48.8823896,53.7185138 46.6471354,57.5488281 C44.4118812,61.3791424 41.3791424,64.4118812 37.5488281,66.6471354 C33.7185138,68.8823896 29.535613,70 25,70 C20.464387,70 16.2814862,68.8823896 12.4511719,66.6471354 C8.62085758,64.4118812 5.58811882,61.3791424 3.35286458,57.5488281 C1.11761035,53.7185138 0,49.535613 0,45 C0,40.464387 1.11761035,36.2814862 3.35286458,32.4511719 C5.58811882,28.6208576 8.62085758,25.5881188 12.4511719,23.3528646 C16.2814862,21.1176104 20.464387,20 25,20 C29.535613,20 33.7185138,21.1176104 37.5488281,23.3528646 C41.3791424,25.5881188 44.4118812,28.6208576 46.6471354,32.4511719 C48.8823896,36.2814862 50,40.464387 50,45 Z" id="-copy" fill="#A8C0B2"></path>
                <g id="Group-2" transform="translate(14.000000, 0.000000)" fill="#EF706B">
                    <path d="M45.5,53 C45.1614566,53 44.8750012,52.8828137 44.640625,52.6484375 L32.453125,40.890625 C32.322916,40.7864578 32.1438813,40.6171887 31.9160156,40.3828125 C31.6881499,40.1484363 31.3268254,39.7220083 30.8320313,39.1035156 C30.3372371,38.4850229 29.8945332,37.8502637 29.5039063,37.1992188 C29.1132793,36.5481738 28.7649755,35.7604213 28.4589844,34.8359375 C28.1529933,33.9114537 28,33.0130252 28,32.140625 C28,29.2760273 28.8268146,27.0364664 30.4804687,25.421875 C32.1341229,23.8072836 34.4192562,23 37.3359375,23 C38.1432332,23 38.9667927,23.1399726 39.8066406,23.4199219 C40.6464886,23.6998712 41.4277308,24.0774716 42.1503906,24.5527344 C42.8730505,25.0279972 43.4947891,25.4739562 44.015625,25.890625 C44.5364609,26.3072938 45.0312477,26.7499977 45.5,27.21875 C45.9687523,26.7499977 46.4635391,26.3072938 46.984375,25.890625 C47.5052109,25.4739562 48.1269495,25.0279972 48.8496094,24.5527344 C49.5722692,24.0774716 50.3535114,23.6998712 51.1933594,23.4199219 C52.0332073,23.1399726 52.8567668,23 53.6640625,23 C56.5807438,23 58.8658771,23.8072836 60.5195313,25.421875 C62.1731854,27.0364664 63,29.2760273 63,32.140625 C63,35.0182436 61.5091295,37.9479018 58.5273438,40.9296875 L46.359375,52.6484375 C46.1249988,52.8828137 45.8385434,53 45.5,53 Z" id="-copy-8"></path>
                    <path d="M17.5,30 C17.1614566,30 16.8750012,29.8828137 16.640625,29.6484375 L4.453125,17.890625 C4.32291602,17.7864578 4.14388135,17.6171887 3.91601562,17.3828125 C3.6881499,17.1484363 3.32682539,16.7220083 2.83203125,16.1035156 C2.33723711,15.4850229 1.8945332,14.8502637 1.50390625,14.1992188 C1.1132793,13.5481738 0.764975488,12.7604213 0.458984375,11.8359375 C0.152993262,10.9114537 0,10.0130252 0,9.140625 C0,6.27602734 0.826814648,4.03646641 2.48046875,2.421875 C4.13412285,0.807283594 6.41925625,0 9.3359375,0 C10.1432332,0 10.9667927,0.139972559 11.8066406,0.419921875 C12.6464886,0.699871191 13.4277308,1.07747158 14.1503906,1.55273438 C14.8730505,2.02799717 15.4947891,2.47395625 16.015625,2.890625 C16.5364609,3.30729375 17.0312477,3.74999766 17.5,4.21875 C17.9687523,3.74999766 18.4635391,3.30729375 18.984375,2.890625 C19.5052109,2.47395625 20.1269495,2.02799717 20.8496094,1.55273438 C21.5722692,1.07747158 22.3535114,0.699871191 23.1933594,0.419921875 C24.0332073,0.139972559 24.8567668,0 25.6640625,0 C28.5807438,0 30.8658771,0.807283594 32.5195313,2.421875 C34.1731854,4.03646641 35,6.27602734 35,9.140625 C35,12.0182436 33.5091295,14.9479018 30.5273438,17.9296875 L18.359375,29.6484375 C18.1249988,29.8828137 17.8385434,30 17.5,30 Z" id="-copy-12"></path>
                </g>
            </g>
        </g>
    </g>
</svg>
