<?xml version="1.0" encoding="UTF-8"?>
<svg width="45px" height="45px" viewBox="0 0 83 82" version="1.1" xmlns="http://www.w3.org/2000/svg" xmlns:xlink="http://www.w3.org/1999/xlink">
    <!-- Generator: Sketch 45 (43475) - http://www.bohemiancoding.com/sketch -->
    <title>ratingscale/loveit</title>
    <desc>Created with Sketch.</desc>
    <defs></defs>
    <g id="Symbols" stroke="none" stroke-width="1" fill="none" fill-rule="evenodd">
        <g id="ratingscale/loveit">
            <g id="Group-8">
                <path d="M36.9140625,62.8268229 C36.1111071,65.4527041 34.6137262,67.5685684 32.421875,69.1744792 C30.2300238,70.78039 27.7560902,71.5833333 25,71.5833333 C22.2439098,71.5833333 19.7699762,70.78039 17.578125,69.1744792 C15.3862738,67.5685684 13.8888929,65.4527041 13.0859375,62.8268229 C12.9123255,62.2842855 12.9557279,61.7580321 13.2161458,61.2480469 C13.4765638,60.7380617 13.8888861,60.3962682 14.453125,60.2226563 C14.9956624,60.0490443 15.5219159,60.0924466 16.031901,60.3528646 C16.5418862,60.6132826 16.8836797,61.0256048 17.0572917,61.5898438 C17.5998291,63.3259635 18.6035083,64.7311144 20.0683594,65.8053385 C21.5332104,66.8795627 23.1770742,67.4166667 25,67.4166667 C26.8229258,67.4166667 28.4667896,66.8795627 29.9316406,65.8053385 C31.3964917,64.7311144 32.4001709,63.3259635 32.9427083,61.5898438 C33.1163203,61.0256048 33.4635391,60.6132826 33.984375,60.3528646 C34.5052109,60.0924466 35.0368896,60.0490443 35.5794271,60.2226563 C36.1219645,60.3962682 36.5234362,60.7380617 36.7838542,61.2480469 C37.0442721,61.7580321 37.0876745,62.2842855 36.9140625,62.8268229 Z M20.8333333,48.6666667 C20.8333333,49.816846 20.4264364,50.7988241 19.6126302,51.6126302 C18.7988241,52.4264364 17.816846,52.8333333 16.6666667,52.8333333 C15.5164873,52.8333333 14.5345093,52.4264364 13.7207031,51.6126302 C12.906897,50.7988241 12.5,49.816846 12.5,48.6666667 C12.5,47.5164873 12.906897,46.5345093 13.7207031,45.7207031 C14.5345093,44.906897 15.5164873,44.5 16.6666667,44.5 C17.816846,44.5 18.7988241,44.906897 19.6126302,45.7207031 C20.4264364,46.5345093 20.8333333,47.5164873 20.8333333,48.6666667 Z M37.5,48.6666667 C37.5,49.816846 37.093103,50.7988241 36.2792969,51.6126302 C35.4654907,52.4264364 34.4835127,52.8333333 33.3333333,52.8333333 C32.183154,52.8333333 31.2011759,52.4264364 30.3873698,51.6126302 C29.5735636,50.7988241 29.1666667,49.816846 29.1666667,48.6666667 C29.1666667,47.5164873 29.5735636,46.5345093 30.3873698,45.7207031 C31.2011759,44.906897 32.183154,44.5 33.3333333,44.5 C34.4835127,44.5 35.4654907,44.906897 36.2792969,45.7207031 C37.093103,46.5345093 37.5,47.5164873 37.5,48.6666667 Z M45.8333333,57 C45.8333333,54.1788053 45.2799535,51.4824347 44.1731771,48.9108073 C43.0664007,46.3391799 41.5852957,44.1256603 39.7298177,42.2701823 C37.8743397,40.4147043 35.6608201,38.9335993 33.0891927,37.8268229 C30.5175653,36.7200465 27.8211947,36.1666667 25,36.1666667 C22.1788053,36.1666667 19.4824347,36.7200465 16.9108073,37.8268229 C14.3391799,38.9335993 12.1256603,40.4147043 10.2701823,42.2701823 C8.41470426,44.1256603 6.93359928,46.3391799 5.82682292,48.9108073 C4.72004655,51.4824347 4.16666667,54.1788053 4.16666667,57 C4.16666667,59.8211947 4.72004655,62.5175653 5.82682292,65.0891927 C6.93359928,67.6608201 8.41470426,69.8743397 10.2701823,71.7298177 C12.1256603,73.5852957 14.3391799,75.0664007 16.9108073,76.1731771 C19.4824347,77.2799535 22.1788053,77.8333333 25,77.8333333 C27.8211947,77.8333333 30.5175653,77.2799535 33.0891927,76.1731771 C35.6608201,75.0664007 37.8743397,73.5852957 39.7298177,71.7298177 C41.5852957,69.8743397 43.0664007,67.6608201 44.1731771,65.0891927 C45.2799535,62.5175653 45.8333333,59.8211947 45.8333333,57 Z M50,57 C50,61.535613 48.8823896,65.7185138 46.6471354,69.5488281 C44.4118812,73.3791424 41.3791424,76.4118812 37.5488281,78.6471354 C33.7185138,80.8823896 29.535613,82 25,82 C20.464387,82 16.2814862,80.8823896 12.4511719,78.6471354 C8.62085758,76.4118812 5.58811882,73.3791424 3.35286458,69.5488281 C1.11761035,65.7185138 0,61.535613 0,57 C0,52.464387 1.11761035,48.2814862 3.35286458,44.4511719 C5.58811882,40.6208576 8.62085758,37.5881188 12.4511719,35.3528646 C16.2814862,33.1176104 20.464387,32 25,32 C29.535613,32 33.7185138,33.1176104 37.5488281,35.3528646 C41.3791424,37.5881188 44.4118812,40.6208576 46.6471354,44.4511719 C48.8823896,48.2814862 50,52.464387 50,57 Z" id="-copy-2" fill="#A8C0B2"></path>
                <g id="Group-3" transform="translate(12.000000, 0.000000)" fill="#EF706B">
                    <path d="M45.5,65 C45.1614566,65 44.8750012,64.8828137 44.640625,64.6484375 L32.453125,52.890625 C32.322916,52.7864578 32.1438813,52.6171887 31.9160156,52.3828125 C31.6881499,52.1484363 31.3268254,51.7220083 30.8320313,51.1035156 C30.3372371,50.4850229 29.8945332,49.8502637 29.5039063,49.1992188 C29.1132793,48.5481738 28.7649755,47.7604213 28.4589844,46.8359375 C28.1529933,45.9114537 28,45.0130252 28,44.140625 C28,41.2760273 28.8268146,39.0364664 30.4804687,37.421875 C32.1341229,35.8072836 34.4192562,35 37.3359375,35 C38.1432332,35 38.9667927,35.1399726 39.8066406,35.4199219 C40.6464886,35.6998712 41.4277308,36.0774716 42.1503906,36.5527344 C42.8730505,37.0279972 43.4947891,37.4739562 44.015625,37.890625 C44.5364609,38.3072938 45.0312477,38.7499977 45.5,39.21875 C45.9687523,38.7499977 46.4635391,38.3072938 46.984375,37.890625 C47.5052109,37.4739562 48.1269495,37.0279972 48.8496094,36.5527344 C49.5722692,36.0774716 50.3535114,35.6998712 51.1933594,35.4199219 C52.0332073,35.1399726 52.8567668,35 53.6640625,35 C56.5807438,35 58.8658771,35.8072836 60.5195313,37.421875 C62.1731854,39.0364664 63,41.2760273 63,44.140625 C63,47.0182436 61.5091295,49.9479018 58.5273438,52.9296875 L46.359375,64.6484375 C46.1249988,64.8828137 45.8385434,65 45.5,65 Z" id="-copy-7"></path>
                    <path d="M53.5,30 C53.1614566,30 52.8750012,29.8828137 52.640625,29.6484375 L40.453125,17.890625 C40.322916,17.7864578 40.1438813,17.6171887 39.9160156,17.3828125 C39.6881499,17.1484363 39.3268254,16.7220083 38.8320313,16.1035156 C38.3372371,15.4850229 37.8945332,14.8502637 37.5039063,14.1992188 C37.1132793,13.5481738 36.7649755,12.7604213 36.4589844,11.8359375 C36.1529933,10.9114537 36,10.0130252 36,9.140625 C36,6.27602734 36.8268146,4.03646641 38.4804687,2.421875 C40.1341229,0.807283594 42.4192562,0 45.3359375,0 C46.1432332,0 46.9667927,0.139972559 47.8066406,0.419921875 C48.6464886,0.699871191 49.4277308,1.07747158 50.1503906,1.55273438 C50.8730505,2.02799717 51.4947891,2.47395625 52.015625,2.890625 C52.5364609,3.30729375 53.0312477,3.74999766 53.5,4.21875 C53.9687523,3.74999766 54.4635391,3.30729375 54.984375,2.890625 C55.5052109,2.47395625 56.1269495,2.02799717 56.8496094,1.55273438 C57.5722692,1.07747158 58.3535114,0.699871191 59.1933594,0.419921875 C60.0332073,0.139972559 60.8567668,0 61.6640625,0 C64.5807438,0 66.8658771,0.807283594 68.5195313,2.421875 C70.1731854,4.03646641 71,6.27602734 71,9.140625 C71,12.0182436 69.5091295,14.9479018 66.5273438,17.9296875 L54.359375,29.6484375 C54.1249988,29.8828137 53.8385434,30 53.5,30 Z" id="-copy-9"></path>
                    <path d="M17.5,42 C17.1614566,42 16.8750012,41.8828137 16.640625,41.6484375 L4.453125,29.890625 C4.32291602,29.7864578 4.14388135,29.6171887 3.91601562,29.3828125 C3.6881499,29.1484363 3.32682539,28.7220083 2.83203125,28.1035156 C2.33723711,27.4850229 1.8945332,26.8502637 1.50390625,26.1992188 C1.1132793,25.5481738 0.764975488,24.7604213 0.458984375,23.8359375 C0.152993262,22.9114537 0,22.0130252 0,21.140625 C0,18.2760273 0.826814648,16.0364664 2.48046875,14.421875 C4.13412285,12.8072836 6.41925625,12 9.3359375,12 C10.1432332,12 10.9667927,12.1399726 11.8066406,12.4199219 C12.6464886,12.6998712 13.4277308,13.0774716 14.1503906,13.5527344 C14.8730505,14.0279972 15.4947891,14.4739562 16.015625,14.890625 C16.5364609,15.3072938 17.0312477,15.7499977 17.5,16.21875 C17.9687523,15.7499977 18.4635391,15.3072938 18.984375,14.890625 C19.5052109,14.4739562 20.1269495,14.0279972 20.8496094,13.5527344 C21.5722692,13.0774716 22.3535114,12.6998712 23.1933594,12.4199219 C24.0332073,12.1399726 24.8567668,12 25.6640625,12 C28.5807438,12 30.8658771,12.8072836 32.5195313,14.421875 C34.1731854,16.0364664 35,18.2760273 35,21.140625 C35,24.0182436 33.5091295,26.9479018 30.5273438,29.9296875 L18.359375,41.6484375 C18.1249988,41.8828137 17.8385434,42 17.5,42 Z" id="-copy-10"></path>
                </g>
            </g>
        </g>
    </g>
</svg>
