<?xml version="1.0" encoding="UTF-8"?>
<svg width="160px" height="160px" viewBox="0 0 160 160" version="1.1" xmlns="http://www.w3.org/2000/svg" xmlns:xlink="http://www.w3.org/1999/xlink">
    <!-- Generator: Sketch 45.2 (43514) - http://www.bohemiancoding.com/sketch -->
    <title>icon-temporary</title>
    <desc>Created with Sketch.</desc>
    <defs>
        <polygon id="path-1" points="0.00072173913 0.840495484 82.7379741 0.840495484 82.7379741 108.99892 0.00072173913 108.99892 0.00072173913 0.840495484"></polygon>
    </defs>
    <g id="Symbols" stroke="none" stroke-width="1" fill="none" fill-rule="evenodd">
        <g id="icon-temporary">
            <g id="Page-1-Copy-10" transform="translate(1.000000, 1.000000)" stroke="#749393" stroke-width="1.5" fill="#FFFFFF">
                <path d="M158,79 C158,122.629545 122.629545,158 79,158 C35.3704545,158 0,122.629545 0,79 C0,35.3704545 35.3704545,0 79,0 C122.629545,0 158,35.3704545 158,79 Z" id="Stroke-1"></path>
            </g>
            <g id="Page-1" transform="translate(26.000000, 25.000000)">
                <path d="M77.0714286,34.4642857 L57.9285714,53.6071429 C58,53.7857143 58.0714286,54 58.1071429,54.2142857 C58.1428571,54.4642857 58.1785714,54.7142857 58.1785714,55 C58.1785714,55.5714286 58.0714286,56.1071429 57.8571429,56.6071429 C57.7857143,56.75 57.7142857,56.8928571 57.6428571,57 L66.3571429,69.0714286 C66.9285714,69.8928571 66.75,71 65.9642857,71.5714286 C65.6428571,71.8214286 65.2857143,71.9285714 64.9285714,71.9285714 C64.3571429,71.9285714 63.8214286,71.6428571 63.4642857,71.1785714 L54.7857143,59.0714286 L54.75,59.0714286 C54.5357143,59.1071429 54.2857143,59.1428571 54.0357143,59.1428571 C53.6785714,59.1428571 53.3571429,59.1071429 53.0357143,59.0357143 C52.75,58.9642857 52.4642857,58.8571429 52.2142857,58.75 C51.9642857,58.6428571 51.75,58.5 51.5357143,58.3214286 C51.3928571,58.25 51.25,58.1071429 51.1785714,58 C50.9642857,57.8214286 50.7857143,57.6428571 50.6428571,57.4285714 C50.3571429,57.0357143 50.1428571,56.6071429 50.0357143,56.1785714 C49.9285714,56 49.8928571,55.8214286 49.8928571,55.6428571 C49.8214286,55.1071429 49.8214286,54.5714286 49.9642857,54.0357143 C50,53.75 50.1071429,53.4642857 50.25,53.2142857 C50.3571429,53 50.4642857,52.8214286 50.6071429,52.6428571 C50.7142857,52.4285714 50.8928571,52.25 51.0714286,52.0714286 C51.2142857,51.8928571 51.3928571,51.75 51.5714286,51.6071429 C51.6071429,51.5714286 51.6785714,51.5357143 51.7142857,51.5357143 C51.9642857,51.3571429 52.25,51.2142857 52.5357143,51.1071429 C52.75,51.0357143 52.9642857,50.9642857 53.2142857,50.9285714 C53.4642857,50.8928571 53.7142857,50.8571429 53.9642857,50.8571429 L54,50.8571429 C54.3214286,50.8571429 54.6071429,50.8928571 54.8928571,50.9642857 C55.0714286,50.9642857 55.25,51.0357143 55.3928571,51.1071429 L74.5714286,31.9285714 C75.25,31.2142857 76.3928571,31.2142857 77.0714286,31.9285714 C77.7857143,32.6071429 77.7857143,33.75 77.0714286,34.4642857 M85.3571429,55 C85.3571429,54.5 85.75,54.1071429 86.25,54.1071429 L100,54.1071429 C99.8928571,46.3928571 97.8214286,39.1428571 94.2857143,32.7857143 L82.3214286,39.6785714 C82.1785714,39.7857143 82,39.8214286 81.8571429,39.8214286 C81.5357143,39.8214286 81.25,39.6428571 81.0714286,39.3571429 C80.8214286,38.9285714 81,38.3928571 81.4285714,38.1428571 L93.3928571,31.2142857 C89.5714286,24.8214286 84.1785714,19.4642857 77.7857143,15.5714286 L70.8214286,27.6428571 C70.6785714,27.9285714 70.3571429,28.0714286 70.0714286,28.0714286 C69.8928571,28.0714286 69.75,28.0357143 69.6071429,27.9642857 C69.1785714,27.7142857 69.0357143,27.1785714 69.2857143,26.75 L76.25,14.6785714 C69.9285714,11.1785714 62.6428571,9.10714286 54.8928571,9 L54.8928571,22.9285714 C54.8928571,23.3928571 54.5,23.8214286 54,23.8214286 C53.5,23.8214286 53.1071429,23.3928571 53.1071429,22.9285714 L53.1071429,9 C45.3571429,9.10714286 38.0714286,11.1785714 31.75,14.6785714 L38.75,26.8214286 C39,27.25 38.8571429,27.7857143 38.4285714,28.0357143 C38.2857143,28.1071429 38.1428571,28.1428571 38,28.1428571 C37.6785714,28.1428571 37.3928571,28 37.2142857,27.7142857 L30.2142857,15.5714286 C23.8214286,19.4642857 18.4285714,24.8214286 14.6071429,31.2142857 L26.7142857,38.2142857 C27.1428571,38.4642857 27.2857143,39 27.0357143,39.4285714 C26.8571429,39.7142857 26.5714286,39.8571429 26.25,39.8571429 C26.1071429,39.8571429 25.9642857,39.8214286 25.8214286,39.75 L13.7142857,32.75 C10.1785714,39.1071429 8.10714286,46.3571429 8,54.1071429 L21.9285714,54.1071429 C22.4285714,54.1071429 22.8214286,54.5 22.8214286,55 C22.8214286,55.5 22.4285714,55.8928571 21.9285714,55.8928571 L8,55.8928571 C8.10714286,63.6428571 10.1785714,70.8928571 13.7142857,77.25 L25.75,70.2857143 C26.1785714,70.0357143 26.7142857,70.1785714 26.9642857,70.6071429 C27.2142857,71.0357143 27.0714286,71.5714286 26.6428571,71.8214286 L14.6071429,78.7857143 C18.4285714,85.1785714 23.8214286,90.5357143 30.2142857,94.4285714 L37.1428571,82.3928571 C37.3928571,81.9642857 37.9642857,81.8214286 38.3571429,82.0714286 C38.7857143,82.3214286 38.9285714,82.8571429 38.7142857,83.2857143 L31.75,95.3214286 C38.0714286,98.8214286 45.3571429,100.892857 53.1071429,101 L53.1071429,87.25 C53.1071429,86.75 53.5,86.3571429 54,86.3571429 C54.5,86.3571429 54.8928571,86.75 54.8928571,87.25 L54.8928571,101 C62.6428571,100.892857 69.9285714,98.8214286 76.25,95.3214286 L69.3571429,83.3571429 C69.1071429,82.9285714 69.25,82.3928571 69.6785714,82.1428571 C70.1071429,81.8928571 70.6428571,82.0357143 70.8928571,82.4642857 L77.7857143,94.4285714 C78.8928571,93.75 79.9285714,93.0714286 80.9642857,92.2857143 C78.7857143,88.9285714 77.5,84.9642857 77.5,80.6785714 C77.5,68.9642857 87.0357143,59.4285714 98.75,59.4285714 C99.1071429,59.4285714 99.4285714,59.4285714 99.7857143,59.4642857 C99.9285714,58.2857143 100,57.1071429 100,55.8928571 L86.25,55.8928571 C85.75,55.8928571 85.3571429,55.5 85.3571429,55" id="Fill-1" fill="#6D9392"></path>
                <path d="M23,55 C23,55.56 22.600907,56 22.0929705,56 L7.90702948,56 C7.43537415,56 7,55.56 7,55 C7,54.44 7.43537415,54 7.90702948,54 L22.0929705,54 C22.600907,54 23,54.44 23,55" id="Fill-3" fill="#FEFEFE"></path>
                <path d="M50.72,51 C50.48,51.16 50.24,51.36 50,51.596 C50.16,51.4 50.36,51.24 50.56,51.08 C50.6,51.04 50.68,51 50.72,51" id="Fill-5" fill="#FEFEFE"></path>
                <path d="M98.5180824,100.193125 C91.5744323,100.193125 85.4625736,96.5793764 81.9907485,91.1587528 C79.9655172,88.0870661 78.8082422,84.4407933 78.8082422,80.5018069 C78.8082422,77.2819565 79.567704,74.2464073 80.9781329,71.572233 C81.2312868,71.0337844 81.5206056,70.563997 81.8460892,70.0544584 C85.3179142,64.4892848 91.4659378,60.8068745 98.5180824,60.8068745 C98.8074012,60.8068745 99.0967199,60.8068745 99.3860387,60.8393983 C109.837679,61.2730482 118.191758,69.9460459 118.191758,80.5018069 C118.191758,91.343054 109.367536,100.193125 98.5180824,100.193125 M99.5668629,59.0325237 C99.2052145,59 98.8797309,59 98.5180824,59 C86.6560135,59 77,68.64871 77,80.5018069 C77,84.834692 78.3019344,88.8459534 80.5079899,92.2464913 C84.3414634,98.097151 90.9957948,102 98.5180824,102 C110.380151,102 120,92.35129 120,80.5018069 C120,69.0064711 110.958789,59.5781998 99.5668629,59.0325237" id="Fill-7" fill="#FEFEFE"></path>
                <path d="M77.4596776,34.1066079 L58.1521576,53.4687225 C58.2242006,53.6493392 58.2962435,53.8660793 58.332265,54.0828194 C58.3682865,54.3356828 58.404308,54.5885463 58.404308,54.877533 C58.404308,55.4555066 58.2962435,55.9973568 58.0801146,56.5030837 C58.0080716,56.6475771 57.9360286,56.7920705 57.8639856,56.9004405 L66.6532298,69.1101322 C67.2295737,69.9409692 67.0494662,71.060793 66.2569934,71.6387665 C65.9328,71.89163 65.5725851,72 65.2123701,72 C64.6360262,72 64.0957039,71.7110132 63.7354889,71.2414097 L54.9822662,58.9955947 L54.9462447,58.9955947 C54.7301158,59.0317181 54.4779653,59.0678414 54.2258149,59.0678414 C53.8656,59.0678414 53.5414065,59.0317181 53.2172131,58.9594714 C52.9290411,58.8872247 52.6408692,58.7788546 52.3887188,58.6704846 C52.1365683,58.5621145 51.9204394,58.4176211 51.7043104,58.2370044 C51.5962459,58.1647577 51.45216,58.0563877 51.3440955,57.9118943 C51.1279665,57.7312775 50.9478591,57.5506608 50.8037731,57.3339207 C50.5156011,56.9365639 50.2994722,56.5030837 50.1914077,56.0696035 C50.1193647,55.8889868 50.0833432,55.70837 50.0473217,55.5277533 C49.9752788,54.9859031 49.9752788,54.4440529 50.1193647,53.9022026 C50.1914077,53.6132159 50.2994722,53.3242291 50.4075367,53.0713656 C50.5156011,52.8546256 50.6236656,52.6740088 50.7677516,52.4933921 C50.8758161,52.276652 51.0559235,52.0960352 51.236031,51.9154185 C51.45216,51.6986784 51.6682889,51.5180617 51.8844179,51.3735683 C52.1365683,51.1929515 52.4247403,51.0484581 52.7129122,50.9400881 C52.9290411,50.8678414 53.1451701,50.7955947 53.3973206,50.7594714 C53.649471,50.723348 53.9016214,50.6872247 54.1537719,50.6872247 L54.1897934,50.6872247 C54.5139868,50.6872247 54.8021588,50.723348 55.0903307,50.7955947 C55.2704382,50.7955947 55.4505456,50.8678414 55.5946316,50.9400881 L74.9381731,31.5418502 C75.6225815,30.8193833 76.7752693,30.8193833 77.4596776,31.5418502 C78.1801075,32.2281938 78.1801075,33.384141 77.4596776,34.1066079" id="Fill-9" fill="#FEFEFE"></path>
                <path d="M50.72,51 C50.48,51.16 50.24,51.36 50,51.596 C50.16,51.4 50.36,51.24 50.56,51.08 C50.6,51.04 50.68,51 50.72,51" id="Fill-11" fill="#F06666"></path>
                <g id="Group-15">
                    <mask id="mask-2" fill="white">
                        <use xlink:href="#path-1"></use>
                    </mask>
                    <g id="Clip-14"></g>
                    <path d="M82.3150696,101.1858 C73.8707217,106.298533 64.1633304,108.99892 54.2033304,108.99892 C24.3233304,108.99892 0.00072173913,84.7350417 0.00072173913,54.9191676 C0.00072173913,25.106894 24.3233304,0.839415329 54.2033304,0.839415329 C61.3485478,0.839415329 68.2772435,2.1716063 74.7728957,4.90799855 L73.6542,2.13560114 L76.0720261,3.17975081 L77.6959391,7.17992423 L73.690287,8.79655597 L71.2724609,7.79201197 L74.2315913,6.60024114 C67.880287,3.97186436 61.168113,2.63967339 54.2033304,2.63967339 C25.3337652,2.63967339 1.80506957,26.0826339 1.80506957,54.9191676 C1.80506957,83.7593018 25.3337652,107.198662 54.2033304,107.198662 C63.8024609,107.198662 73.2175478,104.570285 81.3768087,99.6375779 C81.8098522,99.3855418 82.3511565,99.4935573 82.6037652,99.9256192 C82.8563739,100.361282 82.748113,100.897759 82.3150696,101.1858" id="Fill-13" fill="#6D9392" mask="url(#mask-2)"></path>
                </g>
                <path d="M101,55 C101,55.56 100.59633,56 100.082569,56 L85.9174312,56 C85.4036697,56 85,55.56 85,55 C85,54.44 85.4036697,54 85.9174312,54 L100.082569,54 C100.59633,54 101,54.44 101,55" id="Fill-16" fill="#FEFEFE"></path>
                <path d="M94.5493988,32.71 L94.5131897,32.7505 L82.3831657,39.8527273 C82.2383296,39.9668636 82.0572845,40 81.9124484,40 C81.5865671,40 81.2968949,39.8195909 81.1158498,39.5250455 C80.8623866,39.0795455 81.0434317,38.5272727 81.4779401,38.2732273 L93.6079641,31.1268182 L93.6441731,31.1268182 C94.0786814,30.8690909 94.6218168,31.0163636 94.87528,31.4581818 C95.1287432,31.9 94.9839071,32.4559545 94.5493988,32.71" id="Fill-18" fill="#FEFEFE"></path>
                <path d="M26.5505612,72.71 L14.3795976,79.8895455 C14.2351351,79.9631818 14.054557,80 13.9100946,80 C13.585054,80 13.296129,79.8527273 13.1155509,79.5581818 C12.8627416,79.1163636 13.0433197,78.5640909 13.4767071,78.3100455 L25.6476707,71.1268182 C26.0810581,70.8690909 26.6227924,71.0163636 26.8756018,71.4581818 C27.1284111,71.9 26.9839486,72.4522727 26.5505612,72.71" id="Fill-20" fill="#FEFEFE"></path>
                <path d="M77.873412,15.346039 L70.7068966,27.5661499 C70.5598911,27.8553833 70.2291289,28 69.935118,28 C69.7513612,28 69.6043557,27.9638458 69.4573503,27.8915375 C69.0163339,27.6384583 68.8693285,27.0961456 69.126588,26.6622956 L76.2931034,14.4421846 C76.550363,14.0444887 77.1016334,13.8637179 77.5426497,14.1167971 C77.9836661,14.3698763 78.1306715,14.9121889 77.873412,15.346039" id="Fill-22" fill="#FEFEFE"></path>
                <path d="M38.8984063,83.3565267 L31.7117045,95.5652674 C31.564285,95.8550891 31.232591,96 30.937752,96 C30.7903325,96 30.606058,95.9637723 30.4586385,95.8913168 C30.0163799,95.6377228 29.8689604,95.0943071 30.1269446,94.6595745 L37.2767915,82.4508338 C37.5347757,82.0161012 38.1244538,81.8711903 38.5298575,82.1247844 C38.9721161,82.3783784 39.1195356,82.9217941 38.8984063,83.3565267" id="Fill-24" fill="#FEFEFE"></path>
                <path d="M55,8.90702948 L55,23.0929705 C55,23.568254 54.56,24 54,24 C53.44,24 53,23.568254 53,23.0929705 L53,8.90702948 C53,8.39909297 53.44,8 54,8 C54.56,8 55,8.39909297 55,8.90702948" id="Fill-26" fill="#FEFEFE"></path>
                <path d="M55,86.9176417 L55,101.082358 C55,101.599908 54.56,102 54,102 C53.44,102 53,101.599908 53,101.082358 L53,86.9176417 C53,86.4000918 53.44,86 54,86 C54.56,86 55,86.4000918 55,86.9176417" id="Fill-28" fill="#FEFEFE"></path>
                <path d="M77.5388838,95.8907504 C77.3906679,95.9672251 77.242452,96 77.094236,96 C76.7607502,96 76.4272644,95.8543339 76.2790485,95.5630016 L69.1276304,83.367104 C68.8682525,82.926464 69.0164684,82.3802159 69.4611162,82.1253002 C69.905764,81.8703844 70.4615737,82.0160506 70.7209515,82.4566907 L77.8723696,94.6525882 C78.1317475,95.0895866 77.9835316,95.6358347 77.5388838,95.8907504" id="Fill-30" fill="#FEFEFE"></path>
                <path d="M38.5445097,27.8921541 C38.3981021,27.9640514 38.2516945,28 38.1052869,28 C37.7758699,28 37.4830547,27.8562054 37.3000452,27.5686163 L30.1260732,15.346077 C29.8698599,14.9146933 30.0162675,14.3754636 30.4554903,14.1238231 C30.8947131,13.8721826 31.4803434,14.0159772 31.6999548,14.4473609 L38.8739268,26.6699001 C39.1301401,27.1012839 38.9837325,27.6405136 38.5445097,27.8921541" id="Fill-32" fill="#FEFEFE"></path>
                <path d="M26.8762403,39.5599819 C26.6965891,39.8533273 26.4091471,40 26.085775,40 C25.942054,40 25.798333,39.9633318 25.6546121,39.8936623 L13.4742602,32.703033 C13.0430973,32.4500226 12.8634461,31.8963332 13.1149578,31.4563151 C13.3664695,31.016297 13.9413534,30.8696243 14.3725163,31.1263015 L26.5528681,38.3132639 C26.984031,38.5699411 27.127752,39.1199638 26.8762403,39.5599819" id="Fill-34" fill="#FEFEFE"></path>
                <path d="M107.363636,79.2477064 C105.823691,79.2477064 104.606061,77.9954128 104.606061,76.4926606 C104.606061,74.9541284 105.823691,73.7018349 107.363636,73.7018349 C108.903581,73.7018349 110.157025,74.9541284 110.157025,76.4926606 C110.157025,77.9954128 108.903581,79.2477064 107.363636,79.2477064 M98.5179063,91.9137615 C94.8650138,91.9137615 91.4269972,90.1247706 89.2782369,87.1908257 L89.9944904,86.6899083 L90.7107438,86.153211 C90.8539945,86.3321101 90.9614325,86.5110092 91.1404959,86.6541284 C92.9311295,88.8366972 95.6528926,90.1247706 98.5179063,90.1247706 C101.490358,90.1247706 104.247934,88.7293578 106.07438,86.4036697 C106.217631,86.2247706 106.360882,86.0458716 106.46832,85.8705505 L107.220386,86.3678899 L107.972452,86.8688073 C105.823691,90.0174312 102.31405,91.9137615 98.5179063,91.9137615 M87.2369146,76.4926606 C87.2369146,76.0633028 87.3443526,75.7055046 87.4876033,75.3477064 C87.738292,74.7752294 88.2038567,74.2743119 88.7768595,74.0238532 C89.1349862,73.8091743 89.5647383,73.7018349 90.030303,73.7018349 C91.4986226,73.7018349 92.6804408,74.850367 92.7520661,76.3137615 C92.7878788,76.3853211 92.7878788,76.4211009 92.7878788,76.4926606 C92.7878788,77.0687156 92.6088154,77.6018349 92.2865014,78.0669725 C91.785124,78.7825688 90.9614325,79.2477064 90.030303,79.2477064 C88.4903581,79.2477064 87.2369146,77.9954128 87.2369146,76.4926606 M99.3774105,61.0357798 C99.0909091,61 98.8044077,61 98.5179063,61 C91.5344353,61 85.446281,64.6495413 82.0082645,70.159633 C81.6859504,70.6641284 81.399449,71.1256881 81.1487603,71.6623853 C79.7520661,74.3100917 79,77.3155963 79,80.503578 C79,84.4 80.1460055,88.0137615 82.1515152,91.0550459 C85.5895317,96.4220183 91.6418733,100 98.5179063,100 C109.261708,100 118,91.2375229 118,80.503578 C118,70.0522936 109.727273,61.4651376 99.3774105,61.0357798" id="Fill-36" fill="#E3ECE7"></path>
                <path d="M92.5483871,77.9322581 C92.0967742,78.5806452 91.3548387,79 90.516129,79 C89.1290323,79 88,77.8709677 88,76.516129 C88,76.1290323 88.0967742,75.8032258 88.2258065,75.483871 C88.4516129,74.9677419 88.8709677,74.516129 89.3870968,74.2903226 C89.7096774,74.0967742 90.0967742,74 90.516129,74 C91.8387097,74 92.9032258,75.0322581 92.9677419,76.3516129 C93,76.4193548 93,76.4483871 93,76.516129 C93,77.0322581 92.8387097,77.516129 92.5483871,77.9322581 Z" id="Fill-38" fill="#6D9392"></path>
                <path d="M110,76.516129 C110,77.8709677 108.870968,79 107.483871,79 C106.096774,79 105,77.8709677 105,76.516129 C105,75.1258065 106.096774,74 107.483871,74 C108.870968,74 110,75.1258065 110,76.516129" id="Fill-40" fill="#6D9392"></path>
                <path d="M108,86.991119 C105.931034,90.1172291 102.551724,92 98.8965517,92 C95.3793103,92 92.0689655,90.2238011 90,87.3108348 L90.6896552,86.8134991 L91.3793103,86.2806394 C91.5172414,86.4618117 91.6206897,86.6358792 91.7931034,86.7779751 C93.5172414,88.9449378 96.137931,90.2238011 98.8965517,90.2238011 C101.758621,90.2238011 104.413793,88.8419183 106.172414,86.5293073 C106.310345,86.3516874 106.448276,86.1776199 106.551724,86 L107.275862,86.4937833 L108,86.991119 Z" id="Fill-42" fill="#6D9392"></path>
            </g>
        </g>
    </g>
</svg>