<?xml version="1.0" encoding="UTF-8"?>
<svg width="160px" height="160px" viewBox="0 0 160 160" version="1.1" xmlns="http://www.w3.org/2000/svg" xmlns:xlink="http://www.w3.org/1999/xlink">
    <!-- Generator: Sketch 45.2 (43514) - http://www.bohemiancoding.com/sketch -->
    <title>icon-public</title>
    <desc>Created with Sketch.</desc>
    <defs>
        <path d="M22.6762991,101.397047 C9.23261676,88.0179149 1.26909091,69.2544642 1.26909091,47.5579071 C1.26909091,30.2139183 6.35880286,14.1756985 15.2693395,1.1479613 L137.624361,1.1479613 C145.841825,14.1756985 150.356364,30.2139183 150.356364,47.5579071 C150.356364,69.2544642 143.292773,88.0179149 130.754017,101.397047 L22.6762991,101.397047 L22.6762991,101.397047 Z" id="path-1"></path>
    </defs>
    <g id="Symbols" stroke="none" stroke-width="1" fill="none" fill-rule="evenodd">
        <g id="icon-public">
            <g id="Page-1-Copy-19" transform="translate(1.000000, 1.000000)">
                <path d="M158,78.5031447 C158,121.85829 122.629545,157.006289 79,157.006289 C35.3704545,157.006289 0,121.85829 0,78.5031447 C0,35.1479989 35.3704545,0 79,0 C122.629545,0 158,35.1479989 158,78.5031447 Z" id="Stroke-1" stroke="#749393" stroke-width="1.5" fill="#FFFFFF"></path>
                <g id="Group-8" transform="translate(2.636364, 31.574412)">
                    <mask id="mask-2" fill="white">
                        <use xlink:href="#path-1"></use>
                    </mask>
                    <g id="Clip-4"></g>
                    <polygon id="Fill-3" fill="#749393" mask="url(#mask-2)" points="-7.27272727 101.397047 156.363636 101.397047 156.363636 94.2184952 -7.27272727 94.2184952"></polygon>
                    <path d="M41.4985455,47.6982478 C41.6076364,51.8115581 41.7603636,55.8853864 42.7021818,59.183931 C45.5130909,57.3354539 48.9021818,56.0612609 51.9312727,54.4353189 C51.2149091,51.7002906 49.4730909,48.792977 50.3312727,45.7133782 C47.2512727,46.2481803 45.3785455,47.960265 41.4985455,47.6982478 M24.2367273,56.4165992 C27.1385455,58.8608962 30.6621818,62.6511717 33.4694545,65.1241828 C34.3167273,65.8743415 35.4585455,67.5900154 36.2767273,66.7178214 C36.6694545,60.2248211 37.5530909,54.2379087 37.884,47.6982478 C33.6694545,47.9064258 31.4985455,46.0794843 28.2549091,45.3221471 C28.5712727,50.6558112 26.6112727,53.7389993 24.2367273,56.4165992 M34.2767273,97.6609698 C34.084,89.43076 34.8730909,80.1129994 35.8803636,73.0528935 C32.0185455,67.4823372 27.1567273,62.9095995 23.4403636,57.2026507 C3.90945455,69.1082792 -5.40327273,33.3267867 18.2221818,35.4157453 C11.4112727,20.8073919 21.2149091,3.23070734 36.2767273,1.34633743 C53.9349091,-0.857478038 68.9894545,15.6172988 60.764,35.0173357 C77.6803636,33.9800349 78.2076364,59.8048758 61.5712727,59.183931 C58.0803636,59.0583064 56.3276364,57.7625777 53.5385455,55.61978 C50.0294545,58.49479 45.9058182,60.7668018 42.7021818,63.9397217 C43.6330909,74.1081407 45.0730909,85.0123612 44.7094545,96.4621517" id="Fill-5" fill="#749393" mask="url(#mask-2)"></path>
                    <path d="M82.0490909,64.4386311 C82.1181818,67.116231 82.22,69.7651167 82.8309091,71.9115038 C84.66,70.705507 86.8636364,69.8799735 88.8418182,68.8211371 C88.3727273,67.0408562 87.2418182,65.1493078 87.7945455,63.1429025 C85.7909091,63.4910622 84.5727273,64.6073271 82.0490909,64.4386311 M70.8127273,70.1060979 C72.7036364,71.6997365 74.9945455,74.1691584 76.8236364,75.7807433 C77.3763636,76.2652956 78.1181818,77.3779711 78.6527273,76.8108655 C78.9036364,72.5898769 79.4818182,68.6919232 79.6963636,64.4386311 C76.9509091,64.5642558 75.54,63.383384 73.4272727,62.8880639 C73.6381818,66.3588938 72.3581818,68.3688883 70.8127273,70.1060979 M77.3436364,95.6330289 C77.2272727,90.2742398 77.7327273,85.5328062 78.3909091,80.9385329 C75.8745455,77.3169534 72.7109091,74.3414436 70.2927273,70.6229537 C57.58,78.3686113 51.5181818,55.0849778 66.8963636,56.4381349 C62.4636364,46.9301427 68.8454545,35.4911201 78.6527273,34.267177 C90.1436364,32.8350559 99.94,43.5598126 94.5836364,56.1832963 C105.598182,55.5085124 105.936364,72.3135027 95.1072727,71.9115038 C92.8418182,71.8325397 91.6927273,70.9854705 89.8818182,69.5928315 C87.5945455,71.4628443 84.9181818,72.941626 82.8309091,75.0054597 C83.4381818,81.6240846 84.3763636,89.951205 84.1327273,97.4097205" id="Fill-6" fill="#749393" mask="url(#mask-2)"></path>
                    <path d="M115.838182,53.2361418 C115.936364,57.0479529 116.078182,60.8238712 116.950909,63.8819344 C119.550909,62.1662605 122.7,60.9817994 125.507273,59.481482 C124.849091,56.9438639 123.227273,54.2519069 124.02,51.3984324 C121.172727,51.8901633 119.434545,53.4802125 115.838182,53.2361418 M99.8418182,61.3120128 C102.529091,63.5840245 105.790909,67.0979257 108.394545,69.3878838 C109.18,70.0770248 110.241818,71.6742526 111.001818,70.859487 C111.361818,64.8438604 112.18,59.2912504 112.485455,53.2361418 C108.58,53.4263734 106.569091,51.7358244 103.565455,51.0359156 C103.86,55.9819379 102.038182,58.8318231 99.8418182,61.3120128 M109.14,97.6677895 C108.969091,90.0333994 109.696364,83.2819712 110.627273,76.7315425 C107.049091,71.5701636 102.54,67.3384072 99.0963636,62.0478144 C80.9981818,73.0812488 72.3654545,39.9163385 94.2563636,41.8509583 C87.9509091,28.3122092 97.0381818,12.0168961 111.001818,10.2725079 C127.361818,8.23020989 141.318182,23.5025793 133.692727,41.4848521 C149.38,40.5193369 149.856364,64.4526293 134.434545,63.8819344 C131.201818,63.7634883 129.58,62.5610808 126.994545,60.5762112 C123.743636,63.2430433 119.921818,65.346359 116.950909,68.2895653 C117.82,77.7150041 119.154545,86.6810156 118.809091,97.2945048" id="Fill-7" fill="#749393" mask="url(#mask-2)"></path>
                </g>
            </g>
        </g>
    </g>
</svg>