<?xml version="1.0" encoding="UTF-8"?>
<svg width="160px" height="160px" viewBox="0 0 160 160" version="1.1" xmlns="http://www.w3.org/2000/svg" xmlns:xlink="http://www.w3.org/1999/xlink">
    <!-- Generator: Sketch 45.2 (43514) - http://www.bohemiancoding.com/sketch -->
    <title>icon-flux</title>
    <desc>Created with Sketch.</desc>
    <defs></defs>
    <g id="Symbols" stroke="none" stroke-width="1" fill="none" fill-rule="evenodd">
        <g id="icon-flux">
            <g id="Page-1-Copy-17" transform="translate(1.000000, 1.000000)">
                <path d="M159,80 C159,123.629545 123.629545,159 80,159 C36.3704545,159 1,123.629545 1,80 C1,36.3704545 36.3704545,1 80,1 C95.9740087,1 110.840887,5.74140549 123.270025,13.8936057 C144.788385,28.0073748 159,52.3444633 159,80 Z" id="Stroke-1" stroke="#749393" stroke-width="1.5" fill="#FFFFFF"></path>
                <path d="M63.4623847,29.3358549 C65.0337074,30.7107864 64.5998619,34.0773732 64.643611,36.9687199 C66.8091926,37.6543717 70.2434988,37.070298 72.9085496,37.2661985 C74.2720639,34.0084453 72.0299213,32.8983423 73.495517,30.2137795 C74.8881974,27.6743282 89.9816449,27.8919955 91.4909897,29.9235565 C92.748777,31.6249889 91.7607759,34.4655465 92.0816028,36.9687199 C94.3711403,37.6253494 97.8710702,37.0884369 100.630911,37.2661985 C100.740284,34.3276906 100.12415,30.6817641 101.815783,29.3358549 C106.197987,28.378119 114.255117,28.378119 118.637321,29.3358549 C120.277913,30.6382307 119.745632,34.1027678 119.811256,36.9687199 C122.749738,38.0026393 127.244961,36.3592516 129.25742,37.8502723 C131.346441,39.4029653 130.435001,45.5085317 130.435001,48.4180173 L130.435001,71.6068352 C130.435001,75.4268955 131.080301,81.7174791 129.25742,83.0597605 C127.613183,84.2678137 113.978039,84.5906868 112.144222,82.7695375 C110.678626,81.3147947 111.229136,77.9808579 110.962995,76.6022987 C108.622417,64.3186101 95.9096511,54.8791069 78.8073897,56.3447331 C66.6742995,57.3822803 56.3312776,66.0236702 54.3188179,76.3084479 C54.0344486,77.7631907 54.5120432,81.4018616 53.1375916,82.7695375 C51.6209553,84.2786971 37.9056051,84.4419475 36.0280386,83.0597605 C33.3556963,81.0971274 34.8431665,64.7539446 34.8431665,60.4550164 L34.8431665,48.4180173 C34.8431665,45.8531716 34.2233873,39.1707869 36.0280386,37.8502723 C38.0842474,36.3411127 41.4529299,37.7595776 45.4669119,37.2661985 C45.6346169,33.0289426 44.4789109,29.6841225 48.1246712,28.7481534 C52.233443,27.6924672 59.5687127,29.1000487 63.4623847,29.3358549" id="Fill-3" fill="#749393"></path>
                <path d="M68.9165736,62.6136853 C74.3554303,63.5175585 88.7936509,60.3302162 94.7883827,62.6136853 C96.7684608,63.3675228 98.3016589,67.2281957 99.7876257,69.7202509 C109.063111,85.2434494 116.747267,98.3258243 126.248009,114.141775 C127.777573,116.685062 130.229964,119.887042 129.481531,122.133917 C128.257152,125.80796 112.794377,124.205141 106.545323,124.205141 L57.1559998,124.205141 C51.3828914,124.205141 35.4841361,125.818938 34.5140795,122.133917 C33.9327722,119.912658 36.5159566,116.45452 38.0455215,113.841704 C48.6144153,95.7678998 58.0679257,80.37644 68.9165736,62.6136853" id="Fill-5" fill="#749393"></path>
                <path d="M84.0506329,75.3691139 C84.0506329,76.2491139 83.276962,76.9620253 82.3129114,76.9620253 L81.7377215,76.9620253 C80.7736709,76.9620253 80,76.2491139 80,75.3691139 L80,67.4119831 C80,66.5319831 80.7736709,65.8227848 81.7377215,65.8227848 L82.3129114,65.8227848 C83.276962,65.8227848 84.0506329,66.5319831 84.0506329,67.4119831 L84.0506329,75.3691139 Z" id="Fill-7" fill="#FEFEFE"></path>
                <path d="M84.0506329,96.6312236 C84.0506329,97.5112236 83.276962,98.2278481 82.3129114,98.2278481 L81.7377215,98.2278481 C80.7736709,98.2278481 80,97.5112236 80,96.6312236 L80,88.681519 C80,87.801519 80.7736709,87.0886076 81.7377215,87.0886076 L82.3129114,87.0886076 C83.276962,87.0886076 84.0506329,87.801519 84.0506329,88.681519 L84.0506329,96.6312236 Z" id="Fill-9" fill="#FEFEFE"></path>
                <path d="M84.0506329,114.862785 C84.0506329,115.742785 83.276962,116.455696 82.3129114,116.455696 L81.7377215,116.455696 C80.7736709,116.455696 80,115.742785 80,114.862785 L80,106.905654 C80,106.025654 80.7736709,105.316456 81.7377215,105.316456 L82.3129114,105.316456 C83.276962,105.316456 84.0506329,106.025654 84.0506329,106.905654 L84.0506329,114.862785 Z" id="Fill-11" fill="#FEFEFE"></path>
            </g>
        </g>
    </g>
</svg>