<?xml version="1.0" encoding="UTF-8"?>
<svg width="160px" height="160px" viewBox="0 0 160 160" version="1.1" xmlns="http://www.w3.org/2000/svg" xmlns:xlink="http://www.w3.org/1999/xlink">
    <!-- Generator: Sketch 45.2 (43514) - http://www.bohemiancoding.com/sketch -->
    <title>icon-building</title>
    <desc>Created with Sketch.</desc>
    <defs></defs>
    <g id="Symbols" stroke="none" stroke-width="1" fill="none" fill-rule="evenodd">
        <g id="icon-building">
            <g id="Page-1-Copy-28" transform="translate(1.000000, 1.000000)">
                <g id="icon/building" stroke="#749393" stroke-width="1.5" fill="#FFFFFF">
                    <path d="M157.108289,78.6377425 C157.108289,121.974885 121.974885,157.108289 78.6377425,157.108289 C35.3005996,157.108289 0.167195767,121.974885 0.167195767,78.6377425 C0.167195767,35.3005996 35.3005996,0.167195767 78.6377425,0.167195767 C121.974885,0.167195767 157.108289,35.3005996 157.108289,78.6377425 Z" id="Stroke-1"></path>
                </g>
                <path d="M62.6331118,78.1534843 C62.1599407,81.2309023 62.1599407,86.2371245 62.6331118,89.3181545 C65.616618,89.7913256 70.5289284,89.7913256 73.5124346,89.3181545 C73.9856056,86.3382603 73.9856056,81.4223379 73.5124346,78.4388317 C70.4422406,77.788673 66.1728649,78.3376959 62.6331118,78.1534843 L62.6331118,78.1534843 Z M43.1716938,78.4388317 C43.3522935,81.9858088 42.8068825,86.2479605 43.4570413,89.3181545 C46.4441594,89.7913256 51.3492459,89.7913256 54.339976,89.3181545 C54.8275951,86.2262885 54.7842511,81.2561862 54.339976,78.1534843 C50.6954751,78.3376959 46.3321877,77.785061 43.1716938,78.4388317 L43.1716938,78.4388317 Z M62.9184593,57.2653291 C61.2208226,59.3350011 62.1888367,65.4320451 62.3477644,68.4227753 C65.4215704,68.8959464 70.4350166,68.8959464 73.5124346,68.4227753 L73.5124346,57.5506765 C70.5361524,56.8969058 66.3679125,57.4459287 62.9184593,57.2653291 L62.9184593,57.2653291 Z M43.7460007,57.2653291 C42.04114,59.4180769 43.0163781,65.6234808 43.1716938,68.7117347 L54.0474046,68.7117347 C54.5205757,65.6307048 54.5205757,60.6208705 54.0474046,57.5506765 C51.1650342,56.9005178 47.0979302,57.4423168 43.7460007,57.2653291 L43.7460007,57.2653291 Z M82.0909178,83.5895337 C81.1806956,87.1292868 70.236357,91.2361228 70.3591647,96.1845531 C70.4386286,99.283643 73.5052106,100.078281 78.3741771,99.6195584 C78.5078208,105.301223 78.0671577,111.557195 78.6595245,116.790973 L65.2084628,116.790973 C65.0531471,111.889498 65.5479901,106.337865 64.9231153,101.90595 C61.2858384,101.252179 56.4385439,101.804814 52.324484,101.620602 C51.0964063,105.633527 52.0644205,111.849766 51.7574011,116.790973 C47.2640818,115.573731 38.3027273,118.788405 35.4456409,115.931319 C33.4698808,113.951946 34.5895986,101.884278 34.5895986,97.9038617 L34.5895986,60.1260275 C34.5895986,54.5996783 33.0183817,42.3405743 37.446685,41.8059993 C47.2929778,40.6248776 59.3606462,41.8059993 70.9370836,41.8059993 C74.1987132,41.8059993 79.7973023,41.2389164 81.2348755,42.6656536 C83.3551153,44.7642215 82.0909178,58.6631704 82.0909178,62.7013785 L82.0909178,83.5895337 Z" id="Fill-3" fill="#749393"></path>
                <path d="M96.4074131,93.0352564 C98.3506653,93.9815986 103.309932,93.8804628 105.274856,93.0352564 C105.690235,92.0238984 105.690235,90.0481383 105.274856,89.0295563 C102.099914,87.9170624 93.6406265,87.3210836 96.4074131,93.0352564 M111.859519,81.8741982 L111.859519,75.2931471 L119.58196,75.2931471 C120.441614,80.4041171 118.40445,84.7710166 119.58196,88.7405968 C120.66917,92.3814857 126.181071,93.1436162 126.737318,96.1849143 C124.580958,96.5063817 121.929755,96.333006 119.870919,96.7592212 C119.376076,103.040477 120.903949,111.337225 119.014877,116.220639 C115.3776,116.878022 110.526693,116.321775 106.416246,116.502375 C106.257318,112.662826 106.762997,108.147835 106.130898,104.770622 C104.021494,103.441408 96.970884,103.26442 95.2624113,105.052357 L95.2624113,116.502375 C91.0436035,116.336223 86.1312931,116.85635 82.3820444,116.220639 C81.1033989,110.723186 82.1472649,102.899609 81.8041256,96.4702617 C79.9656212,95.830939 76.964055,96.351066 74.6559915,96.1849143 C73.9841608,95.3794399 75.9852049,94.2019302 76.9387711,93.3206039 C84.151921,86.6998208 92.8098681,79.1615915 100.120542,72.4324487 C105.162884,74.4515527 107.615427,79.0568437 111.859519,81.8741982" id="Fill-5" fill="#749393"></path>
            </g>
        </g>
    </g>
</svg>