<?xml version="1.0" encoding="utf-8"?>
<!-- Generator: Adobe Illustrator 21.1.0, SVG Export Plug-In . SVG Version: 6.00 Build 0)  -->
<svg version="1.1" id="Layer_1" xmlns="http://www.w3.org/2000/svg" xmlns:xlink="http://www.w3.org/1999/xlink" x="0px" y="0px"
	 viewBox="0 0 301.7 136.4" style="enable-background:new 0 0 301.7 136.4;" xml:space="preserve">
<style type="text/css">
	.st0{fill:#020202;}
	.st1{fill:#FFFFFF;}
</style>
<g>
	<path class="st0" d="M50.1,16.1c-12.7,0-22.9,9.9-22.9,22.1c0,1,0.1,1.9,0.2,2.9c0.1,2.7,0.1,10.4-2.6,9.8
		c-3.3-0.7-10.7-4.9-9.8-8.8c0,0,2.3-2.3,0-3.9c-2.3-1.6-7.5,0.7-7.1,7.8C8.2,53.1,18,57.7,22.2,60c2.7,1.4,4.3,3.1,5.1,5.2
		c0.3,3.2,0.7,9.4-1.8,9.1C22.2,74,14.4,70.5,15,66.5c0,0,2-2.5-0.4-3.9c-2.4-1.4-7.4,1.4-6.4,8.4c1,7.1,11.1,10.7,15.6,12.5
		c2.4,1,4.1,2.3,5.2,3.9c-0.2,2.7-1,18.5-0.1,24.3c1,6.3,1,6.3,1,6.3s-5.4,2-5.7,4.6c-0.3,2.6,2.3,3.6,4.6,3.1
		c2.3-0.5,12.2-2.4,13.3-3.4c1.1-1,0.5-17,2.1-20.5c1.3-2.9,2.8-5.8,6-7.4c3.2,1.6,4.7,4.6,6,7.4c1.6,3.5,1,19.5,2.1,20.5
		c1.1,1,11,2.9,13.3,3.4c2.3,0.5,4.9-0.5,4.5-3.1c-0.3-2.6-5.7-4.6-5.7-4.6s0,0,1-6.3c0.9-5.8,0-21.6-0.1-24.3
		c1.1-1.6,2.7-2.9,5.2-3.9C80.8,81.7,91,78.2,92,71.1c1-7.1-3.9-9.8-6.4-8.4c-2.4,1.4-0.4,3.9-0.4,3.9c0.6,4-7.2,7.5-10.5,7.8
		c-2.5,0.3-2.1-6-1.8-9.1c0.8-2,2.5-3.7,5.1-5.2c4.2-2.3,14-6.8,14.3-14c0.3-7.1-4.9-9.4-7.1-7.8c-2.3,1.6,0,3.9,0,3.9
		c1,3.9-6.5,8.1-9.7,8.8c-2.6,0.5-2.7-6.9-2.6-9.7c0.1-1,0.2-2,0.2-3C73,26,62.8,16.1,50.1,16.1"/>
	<polygon class="st1" points="45.9,40.2 42.6,40.2 42.6,43.7 37.8,43.7 37.8,40.2 34.4,40.2 34.4,35.5 37.8,35.5 37.8,32 42.6,32 
		42.6,35.5 45.9,35.5 	"/>
	<polygon class="st1" points="65.8,40.2 62.5,40.2 62.5,43.7 57.7,43.7 57.7,40.2 54.4,40.2 54.4,35.5 57.7,35.5 57.7,32 62.5,32 
		62.5,35.5 65.8,35.5 	"/>
</g>
<g>
	<path d="M125.3,44.2l-1.7-5h-10l-1.7,5h-5.8L116.4,16h4.3l10.3,28.3H125.3z M118.7,24.3l-3.6,10.3h7L118.7,24.3z"/>
	<path d="M132.8,44.2v-4.4l12.1-18.9h-11.5V16h18.1v4.4l-12.1,19h12.1v4.9H132.8z"/>
	<path d="M156.3,44.2V16h5.5v28.3H156.3z"/>
	<path d="M166.7,44.2v-4.4l12.1-18.9h-11.5V16h18.1v4.4l-12.1,19h12.1v4.9H166.7z"/>
	<path d="M206.2,44.2l-1.7-5h-10l-1.7,5H187L197.3,16h4.3L212,44.2H206.2z M199.6,24.3l-3.6,10.3h7L199.6,24.3z"/>
	<path d="M127.8,79.1c-0.6,1.1-1.4,2-2.3,2.8c-0.9,0.8-2,1.3-3.1,1.7c-1.2,0.4-2.4,0.6-3.7,0.6c-1.6,0-3-0.3-4.2-0.8
		c-1.3-0.5-2.4-1.3-3.4-2.3c-0.7-0.7-1.3-1.5-1.6-2.3c-0.4-0.8-0.7-1.7-0.8-2.6c-0.2-0.9-0.3-1.9-0.3-3c0-1.1,0-2.2,0-3.4
		c0-1.2,0-2.4,0-3.4c0-1.1,0.1-2,0.3-3c0.2-0.9,0.4-1.8,0.8-2.6c0.4-0.8,0.9-1.6,1.6-2.3c1-1,2.1-1.8,3.4-2.3
		c1.3-0.5,2.7-0.8,4.2-0.8c1.3,0,2.6,0.2,3.7,0.6c1.2,0.4,2.2,0.9,3.1,1.7c0.9,0.8,1.7,1.7,2.3,2.8c0.6,1.1,1.1,2.4,1.3,3.9h-5.6
		c-0.3-1.1-0.8-2.1-1.5-2.9c-0.7-0.8-1.8-1.2-3.2-1.2c-0.8,0-1.4,0.1-2,0.4c-0.6,0.3-1.1,0.6-1.5,1.1c-0.3,0.3-0.5,0.6-0.7,1
		c-0.2,0.4-0.3,0.8-0.4,1.4c-0.1,0.6-0.2,1.3-0.2,2.2c0,0.9-0.1,2-0.1,3.4s0,2.5,0.1,3.4c0,0.9,0.1,1.6,0.2,2.2
		c0.1,0.6,0.3,1.1,0.4,1.4c0.2,0.4,0.4,0.7,0.7,1c0.4,0.5,0.9,0.8,1.5,1.1c0.6,0.3,1.3,0.4,2,0.4c1.4,0,2.5-0.4,3.2-1.2
		c0.7-0.8,1.3-1.7,1.5-2.9h5.6C128.8,76.7,128.4,78,127.8,79.1z"/>
	<path d="M148.9,83.9V72.1h-9.6v11.8h-5.5V55.7h5.5v11.5h9.6V55.7h5.5v28.3H148.9z"/>
	<path d="M177.1,83.9l-1.7-5h-10l-1.7,5h-5.8l10.3-28.3h4.3l10.3,28.3H177.1z M170.5,64l-3.6,10.3h7L170.5,64z"/>
	<path d="M205.8,73.2c0,1.1-0.1,2.1-0.3,3c-0.2,0.9-0.5,1.8-0.8,2.6c-0.4,0.8-0.9,1.6-1.6,2.3c-1,1-2.1,1.8-3.4,2.3
		c-1.2,0.5-2.7,0.8-4.3,0.8c-1.6,0-3-0.3-4.3-0.8c-1.2-0.5-2.4-1.3-3.4-2.3c-0.7-0.7-1.3-1.5-1.6-2.3c-0.4-0.8-0.7-1.7-0.8-2.6
		c-0.2-0.9-0.3-1.9-0.3-3c0-1.1,0-2.2,0-3.4c0-1.2,0-2.4,0-3.4c0-1.1,0.1-2,0.3-3c0.2-0.9,0.4-1.8,0.8-2.6c0.4-0.8,0.9-1.6,1.6-2.3
		c1-1,2.1-1.8,3.4-2.3c1.2-0.5,2.7-0.8,4.3-0.8c1.6,0,3,0.3,4.3,0.8c1.2,0.5,2.3,1.3,3.4,2.3c0.7,0.7,1.3,1.5,1.6,2.3
		c0.4,0.8,0.7,1.7,0.8,2.6c0.2,0.9,0.3,1.9,0.3,3c0,1.1,0,2.2,0,3.4C205.9,71,205.8,72.1,205.8,73.2z M200.3,66.4
		c0-0.9-0.1-1.6-0.2-2.2c-0.1-0.6-0.3-1.1-0.4-1.4c-0.2-0.4-0.4-0.7-0.7-1c-0.4-0.4-0.9-0.8-1.5-1.1s-1.3-0.4-2-0.4
		c-0.8,0-1.5,0.1-2.1,0.4c-0.6,0.3-1.1,0.6-1.5,1.1c-0.3,0.3-0.5,0.6-0.7,1c-0.2,0.4-0.3,0.8-0.4,1.4c-0.1,0.6-0.2,1.3-0.2,2.2
		c0,0.9-0.1,2-0.1,3.4s0,2.5,0.1,3.4c0,0.9,0.1,1.6,0.2,2.2c0.1,0.6,0.2,1.1,0.4,1.4c0.2,0.4,0.4,0.7,0.7,1c0.4,0.5,0.9,0.8,1.5,1.1
		c0.6,0.3,1.3,0.4,2.1,0.4c0.8,0,1.4-0.1,2-0.4s1.1-0.6,1.5-1.1c0.3-0.3,0.5-0.6,0.7-1c0.2-0.4,0.3-0.8,0.4-1.4
		c0.1-0.6,0.2-1.3,0.2-2.2c0-0.9,0.1-2,0.1-3.4S200.3,67.3,200.3,66.4z"/>
	<path d="M231,78.3c-0.5,1.2-1.3,2.3-2.2,3.1c-0.9,0.9-2,1.5-3.3,2c-1.3,0.5-2.6,0.7-4.1,0.7c-1.5,0-2.8-0.2-4.1-0.7
		c-1.3-0.5-2.4-1.1-3.3-2c-0.9-0.9-1.7-1.9-2.2-3.1c-0.5-1.2-0.8-2.6-0.8-4.1V55.7h5.5V74c0,1.6,0.4,2.9,1.3,3.8
		c0.9,0.9,2.1,1.4,3.6,1.4c1.5,0,2.7-0.5,3.6-1.4c0.9-0.9,1.3-2.2,1.3-3.8V55.7h5.5v18.6C231.9,75.7,231.6,77.1,231,78.3z"/>
	<path d="M254.7,83.9l-11.2-17.3v17.3H238V55.7h4.9L254.1,73V55.7h5.5v28.3H254.7z"/>
	<path d="M266.2,83.9V55.7h5.5v28.3H266.2z"/>
	<path d="M128.9,107.5c-0.4,1.1-1,2-1.8,2.8c-0.8,0.8-1.8,1.4-2.9,1.9s-2.5,0.7-3.9,0.7h-5.4v10.6h-5.5V95.3h11
		c1.5,0,2.8,0.2,3.9,0.7c1.2,0.5,2.1,1.1,2.9,1.9c0.8,0.8,1.4,1.7,1.8,2.8c0.4,1.1,0.6,2.2,0.6,3.4S129.3,106.5,128.9,107.5z
		 M122.9,101.3c-0.7-0.7-1.7-1.1-3-1.1h-5.2v7.7h5.2c1.3,0,2.3-0.3,3-1.1c0.7-0.7,1.1-1.6,1.1-2.8S123.6,102,122.9,101.3z"/>
	<path d="M149.1,123.6l-5.5-11.3h-4v11.3h-5.5V95.3h11.1c1.4,0,2.7,0.2,3.8,0.7c1.1,0.5,2.1,1.1,2.9,1.9c0.8,0.8,1.4,1.7,1.8,2.7
		c0.4,1,0.6,2.2,0.6,3.4c0,1-0.1,1.9-0.4,2.7c-0.3,0.8-0.7,1.5-1.1,2.1c-0.5,0.6-1,1.2-1.6,1.6s-1.3,0.8-2,1l6.3,12.2H149.1z
		 M147.8,101.3c-0.7-0.7-1.7-1-2.9-1h-5.2v7.4h5.2c1.2,0,2.2-0.3,2.9-1c0.7-0.7,1.1-1.6,1.1-2.7S148.5,102,147.8,101.3z"/>
	<path d="M180,112.9c0,1.1-0.1,2.1-0.3,3c-0.2,0.9-0.5,1.8-0.8,2.6c-0.4,0.8-0.9,1.6-1.6,2.3c-1,1-2.1,1.8-3.4,2.3
		c-1.2,0.5-2.7,0.8-4.3,0.8c-1.6,0-3-0.3-4.3-0.8c-1.2-0.5-2.4-1.3-3.4-2.3c-0.7-0.7-1.3-1.5-1.6-2.3c-0.4-0.8-0.7-1.7-0.8-2.6
		c-0.2-0.9-0.3-1.9-0.3-3c0-1.1,0-2.2,0-3.4s0-2.4,0-3.4c0-1.1,0.1-2,0.3-3c0.2-0.9,0.4-1.8,0.8-2.6c0.4-0.8,0.9-1.6,1.6-2.3
		c1-1,2.1-1.8,3.4-2.3c1.2-0.5,2.7-0.8,4.3-0.8c1.6,0,3,0.3,4.3,0.8c1.2,0.5,2.3,1.3,3.4,2.3c0.7,0.7,1.3,1.5,1.6,2.3
		c0.4,0.8,0.7,1.7,0.8,2.6c0.2,0.9,0.3,1.9,0.3,3c0,1.1,0,2.2,0,3.4S180,111.8,180,112.9z M174.4,106.1c0-0.9-0.1-1.6-0.2-2.2
		c-0.1-0.6-0.3-1.1-0.4-1.4c-0.2-0.4-0.4-0.7-0.7-1c-0.4-0.5-0.9-0.8-1.5-1.1s-1.3-0.4-2-0.4c-0.8,0-1.5,0.1-2.1,0.4
		c-0.6,0.3-1.1,0.6-1.5,1.1c-0.3,0.3-0.5,0.6-0.7,1c-0.2,0.4-0.3,0.8-0.4,1.4c-0.1,0.6-0.2,1.3-0.2,2.2c0,0.9-0.1,2-0.1,3.4
		s0,2.5,0.1,3.4c0,0.9,0.1,1.6,0.2,2.2c0.1,0.6,0.2,1.1,0.4,1.4c0.2,0.4,0.4,0.7,0.7,1c0.4,0.5,0.9,0.8,1.5,1.1
		c0.6,0.3,1.3,0.4,2.1,0.4c0.8,0,1.4-0.1,2-0.4c0.6-0.3,1.1-0.6,1.5-1.1c0.3-0.3,0.5-0.6,0.7-1c0.2-0.4,0.3-0.8,0.4-1.4
		c0.1-0.6,0.2-1.3,0.2-2.2c0-0.9,0.1-2,0.1-3.4S174.5,107,174.4,106.1z"/>
	<path d="M197.6,118.4c-0.5,1.2-1.3,2.2-2.2,3c-0.9,0.8-2,1.4-3.2,1.8c-1.2,0.4-2.5,0.6-3.8,0.6c-1.5,0-2.9-0.2-4-0.7
		c-1.1-0.4-2.2-1.2-3.3-2.2l3.7-3.6c0.4,0.5,0.9,0.8,1.4,1.1c0.5,0.3,1.2,0.5,2.2,0.5c1.3,0,2.4-0.4,3.2-1.2c0.8-0.8,1.2-2,1.2-3.7
		V95.3h5.5v19C198.4,115.9,198.1,117.2,197.6,118.4z"/>
	<path d="M204.6,123.6V95.3h18.6v4.9h-13.1v6.6h11.2v4.9h-11.2v6.9h13.1v4.9H204.6z"/>
	<path d="M247.2,118.8c-0.6,1.1-1.4,2-2.3,2.8s-2,1.3-3.1,1.7c-1.2,0.4-2.4,0.6-3.7,0.6c-1.6,0-3-0.3-4.2-0.8
		c-1.3-0.5-2.4-1.3-3.4-2.3c-0.7-0.7-1.3-1.5-1.6-2.3c-0.4-0.8-0.7-1.7-0.8-2.6c-0.2-0.9-0.3-1.9-0.3-3c0-1.1,0-2.2,0-3.4
		s0-2.4,0-3.4c0-1.1,0.1-2,0.3-3c0.2-0.9,0.4-1.8,0.8-2.6c0.4-0.8,0.9-1.6,1.6-2.3c1-1,2.1-1.8,3.4-2.3c1.3-0.5,2.7-0.8,4.2-0.8
		c1.3,0,2.6,0.2,3.7,0.6c1.2,0.4,2.2,0.9,3.1,1.7s1.7,1.7,2.3,2.8c0.6,1.1,1.1,2.4,1.3,3.9h-5.6c-0.3-1.1-0.8-2.1-1.5-2.9
		c-0.7-0.8-1.8-1.2-3.2-1.2c-0.8,0-1.4,0.1-2,0.4s-1.1,0.6-1.5,1.1c-0.3,0.3-0.5,0.6-0.7,1c-0.2,0.4-0.3,0.8-0.4,1.4
		c-0.1,0.6-0.2,1.3-0.2,2.2c0,0.9-0.1,2-0.1,3.4s0,2.5,0.1,3.4c0,0.9,0.1,1.6,0.2,2.2c0.1,0.6,0.3,1.1,0.4,1.4
		c0.2,0.4,0.4,0.7,0.7,1c0.4,0.5,0.9,0.8,1.5,1.1c0.6,0.3,1.3,0.4,2,0.4c1.4,0,2.5-0.4,3.2-1.2c0.7-0.8,1.3-1.7,1.5-2.9h5.6
		C248.2,116.4,247.8,117.7,247.2,118.8z"/>
	<path d="M263.2,100.3v23.3h-5.5v-23.3h-7.4v-4.9h20.3v4.9H263.2z"/>
	<path d="M292.6,118.9c-0.5,1.1-1.3,2-2.2,2.7s-2,1.3-3.3,1.7c-1.3,0.4-2.6,0.6-4.1,0.6c-2.1,0-4.1-0.3-5.7-0.8
		c-1.7-0.5-3.2-1.5-4.6-2.9l3.6-3.6c0.9,0.9,1.9,1.5,3.1,1.9c1.2,0.3,2.4,0.5,3.7,0.5c1.6,0,2.9-0.3,3.7-0.9
		c0.8-0.6,1.3-1.5,1.3-2.6c0-1-0.3-1.8-0.9-2.4c-0.3-0.3-0.6-0.5-1-0.6s-0.9-0.3-1.5-0.4l-3.4-0.5c-2.4-0.3-4.2-1.1-5.5-2.3
		c-1.3-1.3-2-3.2-2-5.6c0-1.3,0.2-2.4,0.7-3.5c0.4-1,1.1-1.9,1.9-2.7s1.9-1.3,3.1-1.8c1.2-0.4,2.6-0.6,4.1-0.6c2,0,3.7,0.3,5.1,0.8
		c1.5,0.5,2.8,1.3,4,2.5l-3.5,3.5c-0.9-0.8-1.9-1.4-2.9-1.6c-1-0.2-2-0.3-2.9-0.3c-1.5,0-2.6,0.4-3.3,1.1c-0.7,0.7-1.1,1.5-1.1,2.5
		c0,0.4,0.1,0.7,0.2,1.1c0.1,0.3,0.3,0.7,0.6,1c0.3,0.3,0.7,0.5,1.1,0.7c0.4,0.2,0.9,0.3,1.5,0.4l3.3,0.5c1.3,0.2,2.4,0.5,3.2,0.8
		c0.8,0.4,1.6,0.8,2.2,1.4c0.8,0.7,1.3,1.6,1.7,2.6c0.3,1,0.5,2.1,0.5,3.4C293.4,116.6,293.1,117.9,292.6,118.9z"/>
</g>
</svg>
