<?xml version="1.0" encoding="UTF-8"?>
<svg width="50px" height="50px" viewBox="0 0 50 50" version="1.1" xmlns="http://www.w3.org/2000/svg" xmlns:xlink="http://www.w3.org/1999/xlink">
    <!-- Generator: Sketch 45.2 (43514) - http://www.bohemiancoding.com/sketch -->
    <title>message planner</title>
    <desc>Created with Sketch.</desc>
    <defs></defs>
    <g id="Symbols" stroke="none" stroke-width="1" fill="none" fill-rule="evenodd">
        <g id="message-planner">
            <g id="Group-3">
                <circle id="Oval-2-Copy-3" stroke="#A8C0B2" stroke-width="2" fill="#FFFFFF" cx="25" cy="25" r="25"></circle>
                <g id="envelope5" fill="#000000" transform="translate(10.000000, 14.000000)">
                    <path d="M28.2394452,0.700491228 C27.7323425,0.185412281 27.1227466,-0.0720263158 26.4108562,-0.0720263158 L2.58934247,-0.0720263158 C1.87725342,-0.0720263158 1.26765753,0.185412281 0.760554795,0.700491228 C0.253452055,1.21557018 0,1.83475439 0,2.55804386 L0,20.4423596 C0,21.1656491 0.253452055,21.7844298 0.760554795,22.2995088 C1.26765753,22.8149912 1.87725342,23.0722281 2.58934247,23.0722281 L26.4108562,23.0722281 C27.1227466,23.0722281 27.7323425,22.8149912 28.2394452,22.2995088 C28.7467466,21.7844298 29,21.1654474 29,20.4423596 L29,2.55804386 C29,1.83475439 28.7467466,1.21557018 28.2394452,0.700491228 L28.2394452,0.700491228 Z M26.9282877,20.4419561 C26.9282877,20.5843947 26.8770411,20.7076667 26.7745479,20.8117719 C26.6720548,20.9158772 26.5506918,20.9677281 26.4106575,20.9677281 L2.58914384,20.9677281 C2.44891096,20.9677281 2.32754795,20.9158772 2.22505479,20.8117719 C2.12256164,20.7076667 2.07131507,20.5843947 2.07131507,20.4419561 L2.07131507,7.81798246 C2.41653425,8.21241228 2.78876712,8.57415789 3.1880137,8.90281579 C6.0794726,11.1602456 8.37742466,13.0121491 10.0820685,14.4587281 C10.632274,14.9300263 11.0799863,15.2970175 11.4252055,15.5601053 C11.7704247,15.823193 12.2370068,16.0887018 12.8249521,16.3572368 C13.4128973,16.6257719 13.9658836,16.7597368 14.4837123,16.7597368 L14.5,16.7597368 L14.516089,16.7597368 C15.0337192,16.7597368 15.5871027,16.6257719 16.1748493,16.3572368 C16.7629932,16.0887018 17.229774,15.823193 17.5749932,15.5601053 C17.9200137,15.2970175 18.3679247,14.9300263 18.9181301,14.4587281 C20.622774,13.0121491 22.9205274,11.1602456 25.8119863,8.90281579 C26.2112329,8.57415789 26.5836644,8.21241228 26.9284863,7.81798246 L26.9284863,20.4419561 L26.9282877,20.4419561 Z M26.9282877,2.98535965 L26.9282877,3.16613158 C26.9282877,3.81255263 26.6776164,4.5332193 26.1760753,5.32752632 C25.6745342,6.12203509 25.1320753,6.7549386 24.5496918,7.22603509 C22.4672534,8.89192105 20.3043699,10.6286228 18.0600479,12.4367456 C17.9952945,12.4914211 17.8063973,12.6532281 17.4935548,12.9215614 C17.180911,13.1900965 16.9326233,13.395886 16.749089,13.5381228 C16.5655548,13.6807632 16.3258082,13.8532632 16.0290548,14.0558246 C15.7323014,14.258386 15.4599795,14.4092982 15.2118904,14.5077544 C14.9638014,14.6062105 14.7318014,14.6554386 14.516089,14.6554386 L14.5,14.6554386 L14.4837123,14.6554386 C14.268,14.6554386 14.0361986,14.6062105 13.787911,14.5077544 C13.5398219,14.4092982 13.2673014,14.258386 12.9707466,14.0558246 C12.6741918,13.8532632 12.4340479,13.6807632 12.2507123,13.5381228 C12.0673767,13.395886 11.819089,13.1900965 11.5062466,12.9215614 C11.1934041,12.6532281 11.0045068,12.4914211 10.9397534,12.4367456 C8.69582877,10.6286228 6.53274658,8.89192105 4.45050685,7.22603509 C2.86444521,5.95498246 2.0715137,4.39885088 2.0715137,2.55784211 C2.0715137,2.41540351 2.12276027,2.29213158 2.22525342,2.18802632 C2.32774658,2.08392105 2.44910959,2.03186842 2.58934247,2.03186842 L26.4108562,2.03186842 C26.4970616,2.08109649 26.5725411,2.09481579 26.6374932,2.07302632 C26.7022466,2.05083333 26.7507123,2.09199123 26.7828904,2.19609649 C26.8152671,2.30020175 26.844863,2.34942982 26.8718767,2.34398246 C26.8988904,2.33853509 26.9151781,2.40692982 26.9205411,2.54957018 C26.9255068,2.69200877 26.9282877,2.76363158 26.9282877,2.76363158 L26.9282877,2.98535965 L26.9282877,2.98535965 Z" id="Shape" fill="#A8C0B2"></path>
                </g>
            </g>
        </g>
    </g>
</svg>