<svg xmlns="http://www.w3.org/2000/svg" viewBox="0 0 19.05018 19.05018"><title>q1-2-8</title><g id="Layer_2" data-name="Layer 2"><g id="numbers1"><circle id="_Path_" data-name="&lt;Path&gt;" cx="9.52509" cy="9.52509" r="9.52509" style="fill:#010101"/><path d="M7.13772,10.7532a2.07879,2.07879,0,0,1,.94043-1.79395,2.33787,2.33787,0,0,1-.55664-.7168A1.65382,1.65382,0,0,1,7.28615,7.346,2.28284,2.28284,0,0,1,7.9385,5.70047a2.06829,2.06829,0,0,1,1.55762-.65625,2.12568,2.12568,0,0,1,1.585.65527A2.32378,2.32378,0,0,1,11.71194,7.345a1.79849,1.79849,0,0,1-.21289.89648,2.67907,2.67907,0,0,1-.5791.71582,2.0783,2.0783,0,0,1,.94043,1.793,2.3015,2.3015,0,0,1-.68555,1.72168,2.3625,2.3625,0,0,1-1.67871.67188,2.28685,2.28685,0,0,1-1.65234-.6709A2.26309,2.26309,0,0,1,7.13772,10.7532Zm1.10352-.01172a1.21669,1.21669,0,0,0,.38477.89941,1.17089,1.17089,0,0,0,.87012.36719,1.19059,1.19059,0,0,0,.88672-.36719,1.28017,1.28017,0,0,0,0-1.80859,1.268,1.268,0,0,0-.88672-.35645A1.24747,1.24747,0,0,0,8.626,9.8323,1.22741,1.22741,0,0,0,8.24123,10.74148Zm.14746-3.418A1.10707,1.10707,0,0,0,9.49612,8.471,1.09089,1.09089,0,0,0,10.6094,7.32351a1.133,1.133,0,0,0-.33594-.86328A1.16293,1.16293,0,0,0,9.49612,6.18a1.142,1.142,0,0,0-.76074.28027A1.11446,1.11446,0,0,0,8.38869,7.32351Z" style="fill:#fff;stroke:#fff;stroke-miterlimit:10;stroke-width:0.699999988079071px"/></g></g></svg>