<svg xmlns="http://www.w3.org/2000/svg" viewBox="0 0 19.04932 19.04932"><title>q1-2-13</title><g id="Layer_2" data-name="Layer 2"><g id="numbers1"><circle id="_Path_" data-name="&lt;Path&gt;" cx="9.52467" cy="9.52488" r="9.52466" style="fill:#010101"/><path d="M5.83772,6.88317l-1.09766.83008V6.4984l1.09766-.82031H6.94124v7.96875H5.83772Z" style="fill:#fff;stroke:#fff;stroke-miterlimit:10;stroke-width:0.699999988079071px"/><path d="M11.00667,9.03942h.38184a1.16564,1.16564,0,0,0,.87988-.32324,1.10106,1.10106,0,0,0,.31348-.81348,1.187,1.187,0,0,0-.32324-.83008A1.1309,1.1309,0,0,0,11.453,6.7484a1.00452,1.00452,0,0,0-.64648.23633,1.197,1.197,0,0,0-.41309.73145H9.286A2.35491,2.35491,0,0,1,9.97932,6.224,1.98322,1.98322,0,0,1,11.409,5.61266a2.17572,2.17572,0,0,1,1.67285.69434,2.33648,2.33648,0,0,1,.60449,1.57324,2.44384,2.44384,0,0,1-.16406.88574,1.855,1.855,0,0,1-.68359.75977,1.99155,1.99155,0,0,1,.72656.78711,2.25125,2.25125,0,0,1,.21387.96191,2.39025,2.39025,0,0,1-.67187,1.76563,2.28138,2.28138,0,0,1-1.67187.67188,2.08281,2.08281,0,0,1-1.39746-.52344,2.51693,2.51693,0,0,1-.78809-1.5166h1.10645a1.60844,1.60844,0,0,0,.41895.64648,1.0251,1.0251,0,0,0,.73047.25781,1.09462,1.09462,0,0,0,.82031-.3457,1.242,1.242,0,0,0,.34961-.9209,1.29589,1.29589,0,0,0-.34961-.94238,1.1673,1.1673,0,0,0-.84668-.32324h-.47266Z" style="fill:#fff;stroke:#fff;stroke-miterlimit:10;stroke-width:0.699999988079071px"/></g></g></svg>