<svg xmlns="http://www.w3.org/2000/svg" viewBox="0 0 19.04932 19.04887"><title>q1-2-12</title><g id="Layer_2" data-name="Layer 2"><g id="numbers1"><circle id="_Path_" data-name="&lt;Path&gt;" cx="9.52467" cy="9.52453" r="9.52455" style="fill:#010101"/><path d="M5.83772,6.805,4.74007,7.635V6.4202l1.09766-.82031H6.94124v7.96875H5.83772Z" style="fill:#fff;stroke:#fff;stroke-miterlimit:10;stroke-width:0.699999988079071px"/><path d="M9.451,12.49735l3.01953-3.89941a1.48937,1.48937,0,0,0,.23926-.4375,1.67494,1.67494,0,0,0,.043-.36133,1.20533,1.20533,0,0,0-.27148-.7832,1.01581,1.01581,0,0,0-.7959-.3457,1.03271,1.03271,0,0,0-.75977.30176,1.32269,1.32269,0,0,0-.37109.84863H9.451A2.48447,2.48447,0,0,1,10.09749,6.178a2.03564,2.03564,0,0,1,1.5-.64355,2.17166,2.17166,0,0,1,1.61621.65625,2.36,2.36,0,0,1,.17578,3.02539l-2.48535,3.21582H13.8553v1.13672H9.451Z" style="fill:#fff;stroke:#fff;stroke-miterlimit:10;stroke-width:0.699999988079071px"/></g></g></svg>