<svg xmlns="http://www.w3.org/2000/svg" viewBox="0 0 19.04932 19.04927"><title>q1-2-10</title><g id="Layer_2" data-name="Layer 2"><g id="numbers1"><circle id="_Path_" data-name="&lt;Path&gt;" cx="9.52467" cy="9.52486" r="9.52465" style="fill:#010101"/><path d="M5.83772,6.82508l-1.09766.83008V6.44031L5.83772,5.62H6.94124v7.96875H5.83772Z" style="fill:#fff;stroke:#fff;stroke-miterlimit:10;stroke-width:0.699999988079071px"/><path d="M9.51643,7.8407A2.17677,2.17677,0,0,1,10.2,6.14344a2.12943,2.12943,0,0,1,1.50488-.58887,2.16145,2.16145,0,0,1,1.53223.58984,2.27448,2.27448,0,0,1,.66211,1.7002v3.51465a2.26846,2.26846,0,0,1-.66211,1.69434,2.205,2.205,0,0,1-1.53223.60059,2.194,2.194,0,0,1-2.18848-2.292Zm3.2793.07129q-.03223-1.19971-1.09082-1.22168-1.06348.022-1.085,1.22168v3.38477q.02051,1.21,1.085,1.22168,1.05908-.01172,1.09082-1.22168Z" style="fill:#fff;stroke:#fff;stroke-miterlimit:10;stroke-width:0.699999988079071px"/></g></g></svg>