<svg xmlns="http://www.w3.org/2000/svg" viewBox="0 0 19.05018 19.05018"><title>q1-2-2</title><g id="Layer_2" data-name="Layer 2"><g id="numbers1"><circle id="_Path_" data-name="&lt;Path&gt;" cx="9.52509" cy="9.52509" r="9.52509" style="fill:#010101"/><path d="M7.24221,12.56787l3.01953-3.89941A1.48937,1.48937,0,0,0,10.501,8.231a1.67494,1.67494,0,0,0,.043-.36133,1.20533,1.20533,0,0,0-.27148-.7832,1.01581,1.01581,0,0,0-.7959-.3457,1.03271,1.03271,0,0,0-.75977.30176,1.32269,1.32269,0,0,0-.37109.84863H7.24221a2.48447,2.48447,0,0,1,.64648-1.64258,2.03564,2.03564,0,0,1,1.5-.64355,2.17166,2.17166,0,0,1,1.61621.65625,2.36,2.36,0,0,1,.17578,3.02539L8.69533,12.50244h2.95117v1.13672H7.24221Z" style="fill:#fff;stroke:#fff;stroke-miterlimit:10;stroke-width:0.699999988079071px"/></g></g></svg>