<svg xmlns="http://www.w3.org/2000/svg" viewBox="0 0 19.05018 19.05023"><title>q1-2-5</title><g id="Layer_2" data-name="Layer 2"><g id="numbers1"><circle id="_Path_" data-name="&lt;Path&gt;" cx="9.52509" cy="9.52513" r="9.5251" style="fill:#010101"/><path d="M7.43947,5.71317h4.11426V6.84989H8.47658V8.66532a1.91315,1.91315,0,0,1,1.2373-.4375,2.27831,2.27831,0,0,1,.81738.16406,1.79231,1.79231,0,0,1,.56836.415,1.93105,1.93105,0,0,1,.46387.75977,2.787,2.787,0,0,1,.10645.57324q.03076.34424.03125.84668a5.12785,5.12785,0,0,1-.10547,1.19141,1.92987,1.92987,0,0,1-.37109.72656,2.16,2.16,0,0,1-.66211.56543,1.91555,1.91555,0,0,1-1.00586.27734,2.37057,2.37057,0,0,1-1.43555-.47949A2.27559,2.27559,0,0,1,7.3008,11.68H8.40822a1.03841,1.03841,0,0,0,1.1084.93164,1.09415,1.09415,0,0,0,.63574-.165.82353.82353,0,0,0,.31836-.416,2.02711,2.02711,0,0,0,.11719-.55859c.00684-.19727.01074-.38867.01074-.5752a2.36606,2.36606,0,0,0-.208-1.11133.84023.84023,0,0,0-.3457-.32324,1.44293,1.44293,0,0,0-.56836-.09863,1.103,1.103,0,0,0-.55371.14258,1.28066,1.28066,0,0,0-.44629.51465H7.43947Z" style="fill:#fff;stroke:#fff;stroke-miterlimit:10;stroke-width:0.699999988079071px"/></g></g></svg>