<svg xmlns="http://www.w3.org/2000/svg" viewBox="0 0 19.05018 19.04932"><title>q1-2-6</title><g id="Layer_2" data-name="Layer 2"><g id="numbers1"><circle id="_Path_" data-name="&lt;Path&gt;" cx="9.52509" cy="9.52467" r="9.52488" style="fill:#010101"/><path d="M7.30764,7.79278a2.17751,2.17751,0,0,1,.68359-1.69824,2.12611,2.12611,0,0,1,1.50488-.58984,2.25759,2.25759,0,0,1,1.39453.458,2.15,2.15,0,0,1,.75781,1.34766h-1.1416a1.009,1.009,0,0,0-1.01367-.66992q-1.06055.022-1.082,1.22363v.751a4.574,4.574,0,0,1,1.47461-.24609,1.77175,1.77175,0,0,1,1.29492.52441,2.32123,2.32123,0,0,1,.50977,1.68848v.72754a2.2669,2.2669,0,0,1-.66211,1.69434,2.20067,2.20067,0,0,1-1.53223.60059,2.194,2.194,0,0,1-2.18848-2.292Zm1.10352,3.4541q.02051,1.21,1.085,1.22168,1.05908-.01172,1.09082-1.22168v-.65234q-.03223-1.19824-1.09082-1.2207-1.06348.022-1.085,1.2207Z" style="fill:#fff;stroke:#fff;stroke-miterlimit:10;stroke-width:0.699999988079071px"/></g></g></svg>