<svg xmlns="http://www.w3.org/2000/svg" viewBox="0 0 19.04932 19.04932"><title>q1-2-9</title><g id="Layer_2" data-name="Layer 2"><g id="numbers1"><circle id="_Path_" data-name="&lt;Path&gt;" cx="9.52467" cy="9.52465" r="9.52466" style="fill:#010101"/><path d="M7.3221,7.521a2.17677,2.17677,0,0,1,.68359-1.69727,2.12943,2.12943,0,0,1,1.50488-.58887,2.16145,2.16145,0,0,1,1.53223.58984,2.27448,2.27448,0,0,1,.66211,1.7002V11.0396a2.26532,2.26532,0,0,1-.66309,1.69434,2.22241,2.22241,0,0,1-2.89844.12109,2.1227,2.1227,0,0,1-.7793-1.32617h1.1416a.98736.98736,0,0,0,1.00781.66992q1.05615-.01172,1.08789-1.22363v-.751a4.5434,4.5434,0,0,1-1.47461.24609,1.68528,1.68528,0,0,1-1.28418-.53613A2.26124,2.26124,0,0,1,7.3221,8.25542Zm1.10352.72363q.02051,1.21,1.085,1.2207,1.05908-.01025,1.09082-1.2207V7.59233q-.03223-1.19971-1.09082-1.22168-1.06348.022-1.085,1.22168Z" style="fill:#fff;stroke:#fff;stroke-miterlimit:10;stroke-width:0.699999988079071px"/></g></g></svg>