<svg xmlns="http://www.w3.org/2000/svg" viewBox="0 0 27.11182 12.89844"><title>q3-1</title><g id="Layer_2" data-name="Layer 2"><g id="LEGEND_2" data-name="LEGEND 2"><g id="_Group_" data-name="&lt;Group&gt;"><g id="_Group_2" data-name="&lt;Group&gt;"><polygon points="27.112 12.898 24.112 12.898 24.112 10.898 25.112 10.898 25.112 9.898 27.112 9.898 27.112 12.898" style="fill:#4f9141"/></g><g id="_Group_3" data-name="&lt;Group&gt;"><path d="M21.47266,12.89844H17.9541v-2h3.51855Zm-6.15771,0H11.79639v-2h3.51855Zm-6.15723,0H5.63916v-2H9.15771Z" style="fill:#4f9141"/></g><g id="_Group_4" data-name="&lt;Group&gt;"><polygon points="3 12.898 0 12.898 0 9.898 2 9.898 2 10.898 3 10.898 3 12.898" style="fill:#4f9141"/></g><g id="_Group_5" data-name="&lt;Group&gt;"><rect y="5.06982" width="2" height="2.75928" style="fill:#4f9141"/></g><g id="_Group_6" data-name="&lt;Group&gt;"><polygon points="2 3 0 3 0 0 3 0 3 2 2 2 2 3" style="fill:#4f9141"/></g><g id="_Group_7" data-name="&lt;Group&gt;"><path d="M21.47266,2H17.9541V0h3.51855ZM15.31543,2H11.79688V0h3.51855ZM9.15771,2H5.63916V0H9.15771Z" style="fill:#4f9141"/></g><g id="_Group_8" data-name="&lt;Group&gt;"><polygon points="27.112 3 25.112 3 25.112 2 24.112 2 24.112 0 27.112 0 27.112 3" style="fill:#4f9141"/></g><g id="_Group_9" data-name="&lt;Group&gt;"><rect x="25.11182" y="5.06934" width="2" height="2.75928" style="fill:#4f9141"/></g></g></g></g></svg>