<svg xmlns="http://www.w3.org/2000/svg" viewBox="0 0 26.08336 12.15731"><title>q2-3</title><g id="Layer_2" data-name="Layer 2"><g id="color"><g id="_Group_" data-name="&lt;Group&gt;"><path id="_Compound_Path_" data-name="&lt;Compound Path&gt;" d="M19.07373,4.951a6.06912,6.06912,0,0,0-11.93049,0H0V7.23066H7.14573a6.07168,6.07168,0,0,0,11.92547,0h7.01217V4.951ZM18.04789,6.07865a4.88845,4.88845,0,0,1-.14968,1.152,4.527,4.527,0,1,1,.14968-1.152Z" style="fill:#6a9eba"/><path id="_Path_" data-name="&lt;Path&gt;" d="M13.10792,1.13982a4.93885,4.93885,0,1,0,4.79029,6.09084,4.88845,4.88845,0,0,0,.14968-1.152,4.99564,4.99564,0,0,0-4.94-4.93884Z" style="fill:#fff"/></g></g></g></svg>