<?xml version="1.0" encoding="UTF-8"?>
<svg width="437px" height="160px" viewBox="0 0 437 160" version="1.1" xmlns="http://www.w3.org/2000/svg" xmlns:xlink="http://www.w3.org/1999/xlink">
    <!-- Generator: Sketch 45.2 (43514) - http://www.bohemiancoding.com/sketch -->
    <title>Group 25</title>
    <desc>Created with Sketch.</desc>
    <defs>
        <rect id="path-1" x="112" y="0" width="325" height="160" rx="3"></rect>
        <path d="M17.0072244,76.0477854 C6.92446257,66.0134362 0.951818182,51.9408482 0.951818182,35.6684303 C0.951818182,22.6604387 4.76910215,10.6317739 11.4520046,0.860970974 L103.218271,0.860970974 C109.381369,10.6317739 112.767273,22.6604387 112.767273,35.6684303 C112.767273,51.9408482 107.46958,66.0134362 98.0655124,76.0477854 L17.0072244,76.0477854 L17.0072244,76.0477854 Z" id="path-2"></path>
    </defs>
    <g id="Page-1" stroke="none" stroke-width="1" fill="none" fill-rule="evenodd">
        <g id="Group-25">
            <g id="Rectangle-16-Copy-3">
                <use fill="#FFFFFF" fill-rule="evenodd" xlink:href="#path-1"></use>
                <rect stroke="#749393" stroke-width="1" x="112.5" y="0.5" width="324" height="159" rx="3"></rect>
            </g>
            <text id="Espaces-publics-et-e" font-family="AvenirNext-Bold, Avenir Next, sans-serif" font-size="24" font-weight="bold">
                <tspan x="127" y="38" fill="#3a7496">Espaces publics et </tspan>
                <tspan x="127" y="71" fill="#3a7496">espaces verts</tspan>
                <tspan x="283.072" y="71" font-size="16" fill="#3a7496"> </tspan>
                <tspan x="127" y="104" font-family="AvenirNext-Regular, Avenir Next, sans-serif" font-size="16" font-weight="300" fill="#333">Proposez des espaces publics et espaces </tspan>
                <tspan x="127" y="126" font-family="AvenirNext-Regular, Avenir Next, sans-serif" font-size="16" font-weight="300" fill="#333">verts qui auront la capacité d’améliorer </tspan>
                <tspan x="127" y="148" font-family="AvenirNext-Regular, Avenir Next, sans-serif" font-size="16" font-weight="300" fill="#333">votre qualité de vie !</tspan>
            </text>
            <g id="icon-public" transform="translate(0.000000, 20.000000)">
                <g id="Page-1-Copy-19" transform="translate(0.750000, 0.750000)">
                    <path d="M118.5,58.8773585 C118.5,91.3937178 91.9721591,117.754717 59.25,117.754717 C26.5278409,117.754717 0,91.3937178 0,58.8773585 C0,26.3609991 26.5278409,0 59.25,0 C91.9721591,0 118.5,26.3609991 118.5,58.8773585 Z" id="Stroke-1" stroke="#749393" stroke-width="1.5" fill="#FFFFFF"></path>
                    <g id="Group-8" transform="translate(1.977273, 23.680809)">
                        <mask id="mask-3" fill="white">
                            <use xlink:href="#path-2"></use>
                        </mask>
                        <g id="Clip-4"></g>
                        <polygon id="Fill-3" fill="#749393" mask="url(#mask-3)" points="-5.45454545 76.0477854 117.272727 76.0477854 117.272727 70.6638714 -5.45454545 70.6638714"></polygon>
                        <path d="M31.1239091,35.7736859 C31.2057273,38.8586686 31.3202727,41.9140398 32.0266364,44.3879483 C34.1348182,43.0015904 36.6766364,42.0459457 38.9484545,40.8264892 C38.4111818,38.7752179 37.1048182,36.5947327 37.7484545,34.2850336 C35.4384545,34.6861352 34.0339091,35.9701987 31.1239091,35.7736859 M18.1775455,42.3124494 C20.3539091,44.1456721 22.9966364,46.9883787 25.1020909,48.8431371 C25.7375455,49.4057561 26.5939091,50.6925116 27.2075455,50.038366 C27.5020909,45.1686158 28.1648182,40.6784315 28.413,35.7736859 C25.2520909,35.9298194 23.6239091,34.5596132 21.1911818,33.9916103 C21.4284545,37.9918584 19.9584545,40.3042495 18.1775455,42.3124494 M25.7075455,73.2457274 C25.563,67.07307 26.1548182,60.0847496 26.9102727,54.7896701 C24.0139091,50.6117529 20.3675455,47.1821996 17.5802727,42.901988 C2.93209091,51.8312094 -4.05245455,24.99509 13.6666364,26.561809 C8.55845455,15.605544 15.9111818,2.4230305 27.2075455,1.00975307 C40.4511818,-0.643108529 51.7420909,11.7129741 45.573,26.2630018 C58.2602727,25.4850262 58.6557273,44.8536568 46.1784545,44.3879483 C43.5602727,44.2937298 42.2457273,43.3219333 40.1539091,41.714835 C37.5220909,43.8710925 34.4293636,45.5751013 32.0266364,47.9547913 C32.7248182,55.5811055 33.8048182,63.7592709 33.5320909,72.3466137" id="Fill-5" fill="#749393" mask="url(#mask-3)"></path>
                        <path d="M61.5368182,48.3289733 C61.5886364,50.3371733 61.665,52.3238375 62.1231818,53.9336278 C63.495,53.0291303 65.1477273,52.4099802 66.6313636,51.6158528 C66.2795455,50.2806422 65.4313636,48.8619808 65.8459091,47.3571769 C64.3431818,47.6182967 63.4295455,48.4554953 61.5368182,48.3289733 M53.1095455,52.5795734 C54.5277273,53.7748024 56.2459091,55.6268688 57.6177273,56.8355575 C58.0322727,57.1989717 58.5886364,58.0334783 58.9895455,57.6081491 C59.1777273,54.4424077 59.6113636,51.5189424 59.7722727,48.3289733 C57.7131818,48.4231918 56.655,47.537538 55.0704545,47.1660479 C55.2286364,49.7691703 54.2686364,51.2766663 53.1095455,52.5795734 M58.0077273,71.7247717 C57.9204545,67.7056799 58.2995455,64.1496047 58.7931818,60.7038997 C56.9059091,57.9877151 54.5331818,55.7560827 52.7195455,52.9672153 C43.185,58.7764585 38.6386364,41.3137334 50.1722727,42.3286012 C46.8477273,35.1976071 51.6340909,26.6183401 58.9895455,25.7003827 C67.6077273,24.6262919 74.955,32.6698594 70.9377273,42.1374722 C79.1986364,41.6313843 79.4522727,54.235127 71.3304545,53.9336278 C69.6313636,53.8744048 68.7695455,53.2391029 67.4113636,52.1946236 C65.6959091,53.5971332 63.6886364,54.7062195 62.1231818,56.2540948 C62.5786364,61.2180635 63.2822727,67.4634037 63.0995455,73.0572904" id="Fill-6" fill="#749393" mask="url(#mask-3)"></path>
                        <path d="M86.8786364,39.9271063 C86.9522727,42.7859647 87.0586364,45.6179034 87.7131818,47.9114508 C89.6631818,46.6246954 92.025,45.7363495 94.1304545,44.6111115 C93.6368182,42.7078979 92.4204545,40.6889302 93.015,38.5488243 C90.8795455,38.9176224 89.5759091,40.1101594 86.8786364,39.9271063 M74.8813636,45.9840096 C76.8968182,47.6880184 79.3431818,50.3234443 81.2959091,52.0409128 C81.885,52.5577686 82.6813636,53.7556895 83.2513636,53.1446152 C83.5213636,48.6328953 84.135,44.4684378 84.3640909,39.9271063 C81.435,40.06978 79.9268182,38.8018683 77.6740909,38.2769367 C77.895,41.9864534 76.5286364,44.1238673 74.8813636,45.9840096 M81.855,73.2508421 C81.7268182,67.5250495 82.2722727,62.4614784 82.9704545,57.5486569 C80.2868182,53.6776227 76.905,50.5038054 74.3222727,46.5358608 C60.7486364,54.8109366 54.2740909,29.9372539 70.6922727,31.3882187 C65.9631818,21.2341569 72.7786364,9.01267206 83.2513636,7.70438095 C95.5213636,6.17265742 105.988636,17.6269345 100.269545,31.1136391 C112.035,30.3895026 112.392273,48.339472 100.825909,47.9114508 C98.4013636,47.8226162 97.185,46.9208106 95.2459091,45.4321584 C92.8077273,47.4322825 89.9413636,49.0097693 87.7131818,51.217174 C88.365,58.2862531 89.3659091,65.0107617 89.1068182,72.9708786" id="Fill-7" fill="#749393" mask="url(#mask-3)"></path>
                    </g>
                </g>
            </g>
        </g>
    </g>
</svg>
