<?xml version="1.0" encoding="UTF-8"?>
<svg width="437px" height="152px" viewBox="0 0 437 152" version="1.1" xmlns="http://www.w3.org/2000/svg" xmlns:xlink="http://www.w3.org/1999/xlink">
    <!-- Generator: Sketch 45.2 (43514) - http://www.bohemiancoding.com/sketch -->
    <title>Group 35</title>
    <desc>Created with Sketch.</desc>
    <defs>
        <rect id="path-1" x="112" y="0" width="325" height="152" rx="3"></rect>
    </defs>
    <g id="Page-1" stroke="none" stroke-width="1" fill="none" fill-rule="evenodd">
        <g id="Group-35">
            <g id="Rectangle-16-Copy-2">
                <use fill="#FFFFFF" fill-rule="evenodd" xlink:href="#path-1"></use>
                <rect stroke="#749393" stroke-width="1" x="112.5" y="0.5" width="324" height="151" rx="3"></rect>
            </g>
            <text id="Circulations-Donnez" font-family="AvenirNext-Bold, Avenir Next, sans-serif" font-size="24" font-weight="bold">
                <tspan x="127" y="39" fill="#3a7496">Circulations</tspan>
                <tspan x="264.496" y="39" font-size="16" fill="#3a7496"> </tspan>
                <tspan x="127" y="72" font-family="AvenirNext-Regular, Avenir Next, sans-serif" font-size="16" font-weight="300" fill="#333">Donnez votre avis sur notre proposition </tspan>
                <tspan x="127" y="94" font-family="AvenirNext-Regular, Avenir Next, sans-serif" font-size="16" font-weight="300" fill="#333">de reorganisation des flux véhicules, </tspan>
                <tspan x="127" y="116" font-family="AvenirNext-Regular, Avenir Next, sans-serif" font-size="16" font-weight="300" fill="#333">piétons, bicyclettes, bus, néobus et petit </tspan>
                <tspan x="127" y="138" font-family="AvenirNext-Regular, Avenir Next, sans-serif" font-size="16" font-weight="300" fill="#333">train autour de l’entrée nord ! </tspan>
            </text>
            <g id="icon-flux" transform="translate(0.000000, 16.000000)">
                <g id="Page-1-Copy-17" transform="translate(0.750000, 0.750000)">
                    <path d="M119.25,60 C119.25,92.7221591 92.7221591,119.25 60,119.25 C27.2778409,119.25 0.75,92.7221591 0.75,60 C0.75,27.2778409 27.2778409,0.75 60,0.75 C71.9805065,0.75 83.1306654,4.30605412 92.4525185,10.4202042 C108.591288,21.0055311 119.25,39.2583474 119.25,60 Z" id="Stroke-1" stroke="#749393" stroke-width="1.5" fill="#FFFFFF"></path>
                    <path d="M47.5967885,22.0018912 C48.7752805,23.0330898 48.4498964,25.5580299 48.4827083,27.7265399 C50.1068945,28.2407788 52.6826241,27.8027235 54.6814122,27.9496489 C55.7040479,25.506334 54.022441,24.6737567 55.1216377,22.6603346 C56.166148,20.7557462 67.4862337,20.9189966 68.6182423,22.4426674 C69.5615827,23.7187417 68.820582,25.8491599 69.0612021,27.7265399 C70.7783552,28.2190121 73.4033026,27.8163277 75.473183,27.9496489 C75.5552126,25.7457679 75.0931125,23.0113231 76.3618371,22.0018912 C79.64849,21.2835893 85.6913376,21.2835893 88.9779905,22.0018912 C90.2084346,22.978673 89.8092239,25.5770758 89.8584416,27.7265399 C92.0623037,28.5019795 95.4337205,27.2694387 96.9430653,28.3877042 C98.5098308,29.552224 97.8262507,34.1313988 97.8262507,36.313513 L97.8262507,53.7051264 C97.8262507,56.5701716 98.3102254,61.2881093 96.9430653,62.2948204 C95.7098869,63.2008603 85.4835293,63.4430151 84.1081662,62.0771531 C83.0089695,60.986096 83.4218519,58.4856434 83.2222465,57.451724 C81.4668129,48.2389576 71.9322384,41.1593302 59.1055423,42.2585498 C50.0057246,43.0367103 42.2484582,49.5177527 40.7391134,57.2313359 C40.5258364,58.322393 40.8840324,61.0513962 39.8531937,62.0771531 C38.7157165,63.2090228 28.4292039,63.3314606 27.0210289,62.2948204 C25.0167722,60.8228456 26.1323749,48.5654584 26.1323749,45.3412623 L26.1323749,36.313513 C26.1323749,34.3898787 25.6675404,29.3780902 27.0210289,28.3877042 C28.5631855,27.2558345 31.0896974,28.3196832 34.100184,27.9496489 C34.2259627,24.771707 33.3591832,22.2630919 36.0935034,21.561115 C39.1750823,20.7693504 44.6765345,21.8250366 47.5967885,22.0018912" id="Fill-3" fill="#749393"></path>
                    <path d="M51.6874302,46.960264 C55.7665727,47.6381689 66.5952382,45.2476622 71.091287,46.960264 C72.5763456,47.5256421 73.7262442,50.4211468 74.8407193,52.2901882 C81.797333,63.932587 87.5604502,73.7443682 94.6860064,85.6063314 C95.8331801,87.5137965 97.6724728,89.9152815 97.1111479,91.6004377 C96.192864,94.3559701 84.5957828,93.1538554 79.9089925,93.1538554 L42.8669998,93.1538554 C38.5371686,93.1538554 26.6131021,94.3642038 25.8855596,91.6004377 C25.4495791,89.9344933 27.3869674,87.3408896 28.5341411,85.3812779 C36.4608115,71.8259248 43.5509442,60.28233 51.6874302,46.960264" id="Fill-5" fill="#749393"></path>
                    <path d="M63.0379747,56.5268354 C63.0379747,57.1868354 62.4577215,57.721519 61.7346835,57.721519 L61.3032911,57.721519 C60.5802532,57.721519 60,57.1868354 60,56.5268354 L60,50.5589873 C60,49.8989873 60.5802532,49.3670886 61.3032911,49.3670886 L61.7346835,49.3670886 C62.4577215,49.3670886 63.0379747,49.8989873 63.0379747,50.5589873 L63.0379747,56.5268354 Z" id="Fill-7" fill="#FEFEFE"></path>
                    <path d="M63.0379747,72.4734177 C63.0379747,73.1334177 62.4577215,73.6708861 61.7346835,73.6708861 L61.3032911,73.6708861 C60.5802532,73.6708861 60,73.1334177 60,72.4734177 L60,66.5111392 C60,65.8511392 60.5802532,65.3164557 61.3032911,65.3164557 L61.7346835,65.3164557 C62.4577215,65.3164557 63.0379747,65.8511392 63.0379747,66.5111392 L63.0379747,72.4734177 Z" id="Fill-9" fill="#FEFEFE"></path>
                    <path d="M63.0379747,86.1470886 C63.0379747,86.8070886 62.4577215,87.3417722 61.7346835,87.3417722 L61.3032911,87.3417722 C60.5802532,87.3417722 60,86.8070886 60,86.1470886 L60,80.1792405 C60,79.5192405 60.5802532,78.9873418 61.3032911,78.9873418 L61.7346835,78.9873418 C62.4577215,78.9873418 63.0379747,79.5192405 63.0379747,80.1792405 L63.0379747,86.1470886 Z" id="Fill-11" fill="#FEFEFE"></path>
                </g>
            </g>
        </g>
    </g>
</svg>
