<?xml version="1.0" encoding="UTF-8"?>
<svg width="436px" height="124px" viewBox="0 0 436 124" version="1.1" xmlns="http://www.w3.org/2000/svg" xmlns:xlink="http://www.w3.org/1999/xlink">
    <!-- Generator: Sketch 45.2 (43514) - http://www.bohemiancoding.com/sketch -->
    <title>Group 23</title>
    <desc>Created with Sketch.</desc>
    <defs>
        <rect id="path-1" x="111" y="0" width="325" height="124" rx="3"></rect>
    </defs>
    <g id="Page-1" stroke="none" stroke-width="1" fill="none" fill-rule="evenodd">
        <g id="Group-23">
            <g id="Rectangle-16-Copy-5">
                <use fill="#FFFFFF" fill-rule="evenodd" xlink:href="#path-1"></use>
                <rect stroke="#749393" stroke-width="1" x="111.5" y="0.5" width="324" height="123" rx="3"></rect>
            </g>
            <text id="Bâti-Partagez-vos-op" font-family="AvenirNext-Bold, Avenir Next, sans-serif" font-size="24" font-weight="bold">
                <tspan x="127" y="33" fill="#3a7496">Bâti</tspan>
                <tspan x="172.336" y="33" font-family="AvenirNext-Regular, Avenir Next, sans-serif" font-size="16" font-weight="300" fill="#3a7496"></tspan>
                <tspan x="127" y="66" font-family="AvenirNext-Regular, Avenir Next, sans-serif" font-size="16" font-weight="300" fill="#333">Partagez vos opinions au sujet des </tspan>
                <tspan x="127" y="88" font-family="AvenirNext-Regular, Avenir Next, sans-serif" font-size="16" font-weight="300" fill="#333">bâtiments neufs ou à rénover que nous </tspan>
                <tspan x="127" y="110" font-family="AvenirNext-Regular, Avenir Next, sans-serif" font-size="16" font-weight="300" fill="#333">suggérons pour l’entrée nord ! </tspan>
                <tspan x="127" y="132" font-family="AvenirNext-Regular, Avenir Next, sans-serif" font-size="16" font-weight="300" fill="#333"></tspan>
            </text>
            <g id="icon-building">
                <g id="Page-1-Copy-28" transform="translate(0.750000, 0.750000)">
                    <g id="icon/building" stroke="#749393" stroke-width="1.5" fill="#FFFFFF">
                        <path d="M117.831217,58.9783069 C117.831217,91.481164 91.481164,117.831217 58.9783069,117.831217 C26.4754497,117.831217 0.125396825,91.481164 0.125396825,58.9783069 C0.125396825,26.4754497 26.4754497,0.125396825 58.9783069,0.125396825 C91.481164,0.125396825 117.831217,26.4754497 117.831217,58.9783069 Z" id="Stroke-1"></path>
                    </g>
                    <path d="M46.9748339,58.6151132 C46.6199556,60.9231767 46.6199556,64.6778434 46.9748339,66.9886159 C49.2124635,67.3434942 52.8966963,67.3434942 55.1343259,66.9886159 C55.4892042,64.7536952 55.4892042,61.0667534 55.1343259,58.8291238 C52.8316804,58.3415048 49.6296487,58.753272 46.9748339,58.6151132 L46.9748339,58.6151132 Z M32.3787704,58.8291238 C32.5142201,61.4893566 32.1051619,64.6859704 32.592781,66.9886159 C34.8331196,67.3434942 38.5119344,67.3434942 40.754982,66.9886159 C41.1206963,64.6697164 41.0881884,60.9421397 40.754982,58.6151132 C38.0216063,58.753272 34.7491407,58.3387958 32.3787704,58.8291238 L32.3787704,58.8291238 Z M47.1888444,42.9489968 C45.9156169,44.5012508 46.6416275,49.0740339 46.7608233,51.3170815 C49.0661778,51.6719598 52.8262624,51.6719598 55.1343259,51.3170815 L55.1343259,43.1630074 C52.9021143,42.6726794 49.7759344,43.0844466 47.1888444,42.9489968 L47.1888444,42.9489968 Z M32.8095005,42.9489968 C31.530855,44.5635577 32.2622836,49.2176106 32.3787704,51.5338011 L40.5355534,51.5338011 C40.8904317,49.2230286 40.8904317,45.4656529 40.5355534,43.1630074 C38.3737757,42.6753884 35.3234476,43.0817376 32.8095005,42.9489968 L32.8095005,42.9489968 Z M61.5681884,62.6921503 C60.8855217,65.3469651 52.6772677,68.4270921 52.7693735,72.1384148 C52.8289714,74.4627323 55.1289079,75.0587111 58.7806328,74.7146688 C58.8808656,78.9759175 58.5503683,83.6678963 58.9946434,87.5932296 L48.9063471,87.5932296 C48.7898603,83.9171238 49.1609926,79.7533989 48.6923365,76.4294624 C45.9643788,75.9391344 42.3289079,76.3536106 39.243363,76.2154519 C38.3223048,79.225145 39.0483153,83.8873249 38.8180508,87.5932296 C35.4480614,86.6802984 28.7270455,89.0913037 26.5842307,86.9484889 C25.1024106,85.4639598 25.9421989,76.4132085 25.9421989,73.4278963 L25.9421989,45.0945206 C25.9421989,40.9497587 24.7637862,31.7554307 28.0850138,31.3544995 C35.4697333,30.4686582 44.5204847,31.3544995 53.2028127,31.3544995 C55.6490349,31.3544995 59.8479767,30.9291873 60.9261566,31.9992402 C62.5163365,33.5731661 61.5681884,43.9973778 61.5681884,47.0260339 L61.5681884,62.6921503 Z" id="Fill-3" fill="#749393"></path>
                    <path d="M72.3055598,69.7764423 C73.7629989,70.4861989 77.4824487,70.4103471 78.9561418,69.7764423 C79.2676762,69.0179238 79.2676762,67.5361037 78.9561418,66.7721672 C76.5749354,65.9377968 70.2304698,65.4908127 72.3055598,69.7764423 M83.8946392,61.4056487 L83.8946392,56.4698603 L89.6864698,56.4698603 C90.3312106,60.3030878 88.8033376,63.5782624 89.6864698,66.5554476 C90.5018772,69.2861143 94.6358032,69.8577122 95.0529884,72.1386857 C93.4357185,72.3797862 91.4473164,72.2497545 89.9031894,72.5694159 C89.5320571,77.2803577 90.6779619,83.5029185 89.2611577,87.1654794 C86.5332,87.6585164 82.8950201,87.2413312 79.8121841,87.376781 C79.6929884,84.4971196 80.0722476,81.1108762 79.5981735,78.5779661 C78.0161206,77.5810561 72.728163,77.4483153 71.4468085,78.7892677 L71.4468085,87.376781 C68.2827026,87.2521672 64.5984698,87.6422624 61.7865333,87.1654794 C60.8275492,83.0423894 61.6104487,77.1747069 61.3530942,72.3526963 C59.9742159,71.8732042 57.7230413,72.2632995 55.9919937,72.1386857 C55.4881206,71.5345799 56.9889037,70.6514476 57.7040783,69.9904529 C63.1139407,65.0248656 69.6074011,59.3711937 75.0904063,54.3243365 C78.872163,55.8386646 80.7115704,59.2926328 83.8946392,61.4056487" id="Fill-5" fill="#749393"></path>
                </g>
            </g>
        </g>
    </g>
</svg>
