<?xml version="1.0" encoding="UTF-8"?>
<svg width="160px" height="160px" viewBox="0 0 160 160" version="1.1" xmlns="http://www.w3.org/2000/svg" xmlns:xlink="http://www.w3.org/1999/xlink">
    <!-- Generator: Sketch 45.2 (43514) - http://www.bohemiancoding.com/sketch -->
    <title>icon/public</title>
    <desc>Created with Sketch.</desc>
    <defs>
        <path d="M22.6762991,102.038801 C9.23261676,88.5749903 1.26909091,69.6927836 1.26909091,47.8589065 C1.26909091,30.4051456 6.35880286,14.2654182 15.2693395,1.15522688 L137.624361,1.15522688 C145.841825,14.2654182 150.356364,30.4051456 150.356364,47.8589065 C150.356364,69.6927836 143.292773,88.5749903 130.754017,102.038801 L22.6762991,102.038801 L22.6762991,102.038801 Z" id="path-1"></path>
    </defs>
    <g id="Symbols" stroke="none" stroke-width="1" fill="none" fill-rule="evenodd">
        <g id="icon/public">
            <g id="Page-1-Copy-19">
                <path d="M160,79.633157 C160,123.518871 124.181818,159.097002 80,159.097002 C35.8181818,159.097002 0,123.518871 0,79.633157 C0,35.7474427 35.8181818,0.169312169 80,0.169312169 C124.181818,0.169312169 160,35.7474427 160,79.633157 Z" id="Stroke-1" stroke="#749393" stroke-width="1.5" fill="#FFFFFF"></path>
                <g id="Group-8" transform="translate(3.636364, 31.774250)">
                    <mask id="mask-2" fill="white">
                        <use xlink:href="#path-1"></use>
                    </mask>
                    <g id="Clip-4"></g>
                    <polygon id="Fill-3" fill="#749393" mask="url(#mask-2)" points="-7.27272727 102.038801 156.363636 102.038801 156.363636 94.8148148 -7.27272727 94.8148148"></polygon>
                    <path d="M41.4985455,48.0001354 C41.6076364,52.1394794 41.7603636,56.2390914 42.7021818,59.5585129 C45.5130909,57.6983365 48.9021818,56.416079 51.9312727,54.7798462 C51.2149091,52.0275076 49.4730909,49.1017933 50.3312727,46.0027034 C47.2512727,46.5408903 45.3785455,48.2638109 41.4985455,48.0001354 M24.2367273,56.7736663 C27.1385455,59.2334335 30.6621818,63.0476981 33.4694545,65.5363612 C34.3167273,66.2912677 35.4585455,68.0178004 36.2767273,67.1400861 C36.6694545,60.6059908 37.5530909,54.5811866 37.884,48.0001354 C33.6694545,48.209631 31.4985455,46.3711266 28.2549091,45.6089961 C28.5712727,50.9764176 26.6112727,54.0791196 24.2367273,56.7736663 M34.2767273,98.2790772 C34.084,89.9967774 34.8730909,80.6200437 35.8803636,73.5152536 C32.0185455,67.9094406 27.1567273,63.3077616 23.4403636,57.5646928 C3.90945455,69.5456734 -5.40327273,33.5377157 18.2221818,35.6398956 C11.4112727,20.9390843 21.2149091,3.25115485 36.2767273,1.35485855 C53.9349091,-0.862905115 68.9894545,15.7161425 60.764,35.2389644 C77.6803636,34.1950984 78.2076364,60.1833877 61.5712727,59.5585129 C58.0803636,59.4320931 56.3276364,58.1281637 53.5385455,55.9718039 C50.0294545,58.8650102 45.9058182,61.1514018 42.7021818,64.3444035 C43.6330909,74.5771795 45.0730909,85.5504141 44.7094545,97.0726716" id="Fill-5" fill="#749393" mask="url(#mask-2)"></path>
                    <path d="M82.0490909,64.8464705 C82.1181818,67.5410173 82.22,70.2066681 82.8309091,72.3666399 C84.66,71.1530102 86.8636364,70.3222519 88.8418182,69.2567139 C88.3727273,67.4651654 87.2418182,65.5616451 87.7945455,63.5425411 C85.7909091,63.8929044 84.5727273,65.0162342 82.0490909,64.8464705 M70.8127273,70.5498074 C72.7036364,72.1535323 74.9945455,74.6385834 76.8236364,76.2603683 C77.3763636,76.7479873 78.1181818,77.8677051 78.6527273,77.2970102 C78.9036364,73.0493065 79.4818182,69.1266822 79.6963636,64.8464705 C76.9509091,64.9728903 75.54,63.7845446 73.4272727,63.2860896 C73.6381818,66.7788868 72.3581818,68.8016028 70.8127273,70.5498074 M77.3436364,96.2383012 C77.2272727,90.8455958 77.7327273,86.0741531 78.3909091,81.4508021 C75.8745455,77.8063012 72.7109091,74.8119591 70.2927273,71.0699344 C57.58,78.8646152 51.5181818,55.4336169 66.8963636,56.7953383 C62.4636364,47.227169 68.8454545,35.7157474 78.6527273,34.4840578 C90.1436364,33.0428727 99.94,43.8355076 94.5836364,56.5388868 C105.598182,55.8598321 105.936364,72.7711831 95.1072727,72.3666399 C92.8418182,72.287176 91.6927273,71.4347457 89.8818182,70.0332924 C87.5945455,71.9151407 84.9181818,73.4032818 82.8309091,75.4801778 C83.4381818,82.1406928 84.3763636,90.5205164 84.1327273,98.0262377" id="Fill-6" fill="#749393" mask="url(#mask-2)"></path>
                    <path d="M115.838182,53.5730794 C115.936364,57.4090159 116.078182,61.2088325 116.950909,64.2862504 C119.550909,62.5597178 122.7,61.3677601 125.507273,59.8579471 C124.849091,57.3042681 123.227273,54.5952734 124.02,51.723739 C121.172727,52.218582 119.434545,53.8186949 115.838182,53.5730794 M99.8418182,61.7000635 C102.529091,63.986455 105.790909,67.5225961 108.394545,69.8270476 C109.18,70.5205503 110.241818,72.1278871 111.001818,71.3079647 C111.361818,65.2542646 112.18,59.6665115 112.485455,53.5730794 C108.58,53.764515 106.569091,52.0632663 103.565455,51.3589277 C103.86,56.336254 102.038182,59.2041764 99.8418182,61.7000635 M109.14,98.28594 C108.969091,90.603231 109.696364,83.8090723 110.627273,77.2171852 C107.049091,72.0231393 102.54,67.7645996 99.0963636,62.440522 C80.9981818,73.5437884 72.3654545,40.1689735 94.2563636,42.1158377 C87.9509091,28.4914004 97.0381818,12.0929524 111.001818,10.3375238 C127.361818,8.28229982 141.318182,23.6513298 133.692727,41.7474145 C149.38,40.7757884 149.856364,64.8605573 134.434545,64.2862504 C131.201818,64.1670547 129.58,62.957037 126.994545,60.9596049 C123.743636,63.6433157 119.921818,65.7599436 116.950909,68.7217778 C117.82,78.2068713 119.154545,87.2296296 118.809091,97.9102928" id="Fill-7" fill="#749393" mask="url(#mask-2)"></path>
                </g>
            </g>
        </g>
    </g>
</svg>