<?xml version="1.0" encoding="UTF-8"?>
<svg width="562px" height="132px" viewBox="0 0 562 132" version="1.1" xmlns="http://www.w3.org/2000/svg" xmlns:xlink="http://www.w3.org/1999/xlink">
    <!-- Generator: Sketch 45.2 (43514) - http://www.bohemiancoding.com/sketch -->
    <title>Group 5</title>
    <desc>Created with Sketch.</desc>
    <defs>
        <path d="M115,1.24660671e-13 L559,5.68878169e-15 L559,4.88498131e-15 C560.656854,3.548385e-14 562,1.34314575 562,3 L562,129 L562,129 C562,130.656854 560.656854,132 559,132 L115,132 L115,132 C113.343146,132 112,130.656854 112,129 L112,3 L112,3 C112,1.34314575 113.343146,1.28646144e-13 115,1.28341782e-13 Z" id="path-1"></path>
        <polygon id="path-2" points="0.000541304348 0.630371613 62.0534806 0.630371613 62.0534806 81.7491899 0.000541304348 81.7491899 0.000541304348 0.630371613"></polygon>
    </defs>
    <g id="Page-1" stroke="none" stroke-width="1" fill="none" fill-rule="evenodd">
        <g id="mobile/landing" transform="translate(-79.000000, -1617.000000)">
            <g id="Group-6" transform="translate(79.000000, 1617.000000)">
                <g id="Group-5">
                    <g id="theme-immediat">
                        <g id="Rectangle-16-Copy">
                            <use fill="#FFFFFF" fill-rule="evenodd" xlink:href="#path-1"></use>
                            <path stroke="#749393" stroke-width="1" d="M115,0.5 C113.619288,0.5 112.5,1.61928813 112.5,3 L112.5,129 C112.5,130.380712 113.619288,131.5 115,131.5 L559,131.5 C560.380712,131.5 561.5,130.380712 561.5,129 L561.5,3 C561.5,1.61928813 560.380712,0.5 559,0.5 L115,0.5 Z"></path>
                        </g>
                        <text id="Usage-immédiat-du-CH" font-family="AvenirNext-Bold, Avenir Next" font-size="24" font-weight="bold">
                            <tspan x="130" y="36" fill="#477393">Usage immédiat du CHT Gaston-</tspan>
                            <tspan x="130" y="69" fill="#477393">Bourret et de son parking</tspan>
                            <tspan x="427.096" y="69" font-family="AvenirNext-Regular, Avenir Next" font-size="16" font-weight="normal" fill="#477393"></tspan>
                            <tspan x="130" y="102" font-family="AvenirNext-Regular, Avenir Next" font-size="16" font-weight="normal" fill="#4A4A4A">Prenez part à la première étape de la transformation de </tspan>
                            <tspan x="130" y="124" font-family="AvenirNext-Regular, Avenir Next" font-size="16" font-weight="normal" fill="#4A4A4A">l’entrée nord !</tspan>
                            <tspan x="231.904" y="124" font-family="AvenirNext-Regular, Avenir Next" font-size="16" font-weight="normal" fill="#477393"></tspan>
                        </text>
                        <g id="icon-temporary" transform="translate(0.000000, 7.000000)" stroke-width="1" fill-rule="evenodd">
                            <g id="Page-1-Copy-10" transform="translate(0.750000, 0.750000)" stroke="#749393" fill="#FFFFFF">
                                <path d="M118.5,59.25 C118.5,91.9721591 91.9721591,118.5 59.25,118.5 C26.5278409,118.5 0,91.9721591 0,59.25 C0,26.5278409 26.5278409,0 59.25,0 C91.9721591,0 118.5,26.5278409 118.5,59.25 Z" id="Stroke-1" stroke-width="1.5"></path>
                            </g>
                            <g id="Page-1" transform="translate(19.500000, 18.750000)">
                                <path d="M57.8035714,25.8482143 L43.4464286,40.2053571 C43.5,40.3392857 43.5535714,40.5 43.5803571,40.6607143 C43.6071429,40.8482143 43.6339286,41.0357143 43.6339286,41.25 C43.6339286,41.6785714 43.5535714,42.0803571 43.3928571,42.4553571 C43.3392857,42.5625 43.2857143,42.6696429 43.2321429,42.75 L49.7678571,51.8035714 C50.1964286,52.4196429 50.0625,53.25 49.4732143,53.6785714 C49.2321429,53.8660714 48.9642857,53.9464286 48.6964286,53.9464286 C48.2678571,53.9464286 47.8660714,53.7321429 47.5982143,53.3839286 L41.0892857,44.3035714 L41.0625,44.3035714 C40.9017857,44.3303571 40.7142857,44.3571429 40.5267857,44.3571429 C40.2589286,44.3571429 40.0178571,44.3303571 39.7767857,44.2767857 C39.5625,44.2232143 39.3482143,44.1428571 39.1607143,44.0625 C38.9732143,43.9821429 38.8125,43.875 38.6517857,43.7410714 C38.5446429,43.6875 38.4375,43.5803571 38.3839286,43.5 C38.2232143,43.3660714 38.0892857,43.2321429 37.9821429,43.0714286 C37.7678571,42.7767857 37.6071429,42.4553571 37.5267857,42.1339286 C37.4464286,42 37.4196429,41.8660714 37.4196429,41.7321429 C37.3660714,41.3303571 37.3660714,40.9285714 37.4732143,40.5267857 C37.5,40.3125 37.5803571,40.0982143 37.6875,39.9107143 C37.7678571,39.75 37.8482143,39.6160714 37.9553571,39.4821429 C38.0357143,39.3214286 38.1696429,39.1875 38.3035714,39.0535714 C38.4107143,38.9196429 38.5446429,38.8125 38.6785714,38.7053571 C38.7053571,38.6785714 38.7589286,38.6517857 38.7857143,38.6517857 C38.9732143,38.5178571 39.1875,38.4107143 39.4017857,38.3303571 C39.5625,38.2767857 39.7232143,38.2232143 39.9107143,38.1964286 C40.0982143,38.1696429 40.2857143,38.1428571 40.4732143,38.1428571 L40.5,38.1428571 C40.7410714,38.1428571 40.9553571,38.1696429 41.1696429,38.2232143 C41.3035714,38.2232143 41.4375,38.2767857 41.5446429,38.3303571 L55.9285714,23.9464286 C56.4375,23.4107143 57.2946429,23.4107143 57.8035714,23.9464286 C58.3392857,24.4553571 58.3392857,25.3125 57.8035714,25.8482143 M64.0178571,41.25 C64.0178571,40.875 64.3125,40.5803571 64.6875,40.5803571 L75,40.5803571 C74.9196429,34.7946429 73.3660714,29.3571429 70.7142857,24.5892857 L61.7410714,29.7589286 C61.6339286,29.8392857 61.5,29.8660714 61.3928571,29.8660714 C61.1517857,29.8660714 60.9375,29.7321429 60.8035714,29.5178571 C60.6160714,29.1964286 60.75,28.7946429 61.0714286,28.6071429 L70.0446429,23.4107143 C67.1785714,18.6160714 63.1339286,14.5982143 58.3392857,11.6785714 L53.1160714,20.7321429 C53.0089286,20.9464286 52.7678571,21.0535714 52.5535714,21.0535714 C52.4196429,21.0535714 52.3125,21.0267857 52.2053571,20.9732143 C51.8839286,20.7857143 51.7767857,20.3839286 51.9642857,20.0625 L57.1875,11.0089286 C52.4464286,8.38392857 46.9821429,6.83035714 41.1696429,6.75 L41.1696429,17.1964286 C41.1696429,17.5446429 40.875,17.8660714 40.5,17.8660714 C40.125,17.8660714 39.8303571,17.5446429 39.8303571,17.1964286 L39.8303571,6.75 C34.0178571,6.83035714 28.5535714,8.38392857 23.8125,11.0089286 L29.0625,20.1160714 C29.25,20.4375 29.1428571,20.8392857 28.8214286,21.0267857 C28.7142857,21.0803571 28.6071429,21.1071429 28.5,21.1071429 C28.2589286,21.1071429 28.0446429,21 27.9107143,20.7857143 L22.6607143,11.6785714 C17.8660714,14.5982143 13.8214286,18.6160714 10.9553571,23.4107143 L20.0357143,28.6607143 C20.3571429,28.8482143 20.4642857,29.25 20.2767857,29.5714286 C20.1428571,29.7857143 19.9285714,29.8928571 19.6875,29.8928571 C19.5803571,29.8928571 19.4732143,29.8660714 19.3660714,29.8125 L10.2857143,24.5625 C7.63392857,29.3303571 6.08035714,34.7678571 6,40.5803571 L16.4464286,40.5803571 C16.8214286,40.5803571 17.1160714,40.875 17.1160714,41.25 C17.1160714,41.625 16.8214286,41.9196429 16.4464286,41.9196429 L6,41.9196429 C6.08035714,47.7321429 7.63392857,53.1696429 10.2857143,57.9375 L19.3125,52.7142857 C19.6339286,52.5267857 20.0357143,52.6339286 20.2232143,52.9553571 C20.4107143,53.2767857 20.3035714,53.6785714 19.9821429,53.8660714 L10.9553571,59.0892857 C13.8214286,63.8839286 17.8660714,67.9017857 22.6607143,70.8214286 L27.8571429,61.7946429 C28.0446429,61.4732143 28.4732143,61.3660714 28.7678571,61.5535714 C29.0892857,61.7410714 29.1964286,62.1428571 29.0357143,62.4642857 L23.8125,71.4910714 C28.5535714,74.1160714 34.0178571,75.6696429 39.8303571,75.75 L39.8303571,65.4375 C39.8303571,65.0625 40.125,64.7678571 40.5,64.7678571 C40.875,64.7678571 41.1696429,65.0625 41.1696429,65.4375 L41.1696429,75.75 C46.9821429,75.6696429 52.4464286,74.1160714 57.1875,71.4910714 L52.0178571,62.5178571 C51.8303571,62.1964286 51.9375,61.7946429 52.2589286,61.6071429 C52.5803571,61.4196429 52.9821429,61.5267857 53.1696429,61.8482143 L58.3392857,70.8214286 C59.1696429,70.3125 59.9464286,69.8035714 60.7232143,69.2142857 C59.0892857,66.6964286 58.125,63.7232143 58.125,60.5089286 C58.125,51.7232143 65.2767857,44.5714286 74.0625,44.5714286 C74.3303571,44.5714286 74.5714286,44.5714286 74.8392857,44.5982143 C74.9464286,43.7142857 75,42.8303571 75,41.9196429 L64.6875,41.9196429 C64.3125,41.9196429 64.0178571,41.625 64.0178571,41.25" id="Fill-1" fill="#6D9392"></path>
                                <path d="M17.25,41.25 C17.25,41.67 16.9506803,42 16.5697279,42 L5.93027211,42 C5.57653061,42 5.25,41.67 5.25,41.25 C5.25,40.83 5.57653061,40.5 5.93027211,40.5 L16.5697279,40.5 C16.9506803,40.5 17.25,40.83 17.25,41.25" id="Fill-3" fill="#FEFEFE"></path>
                                <path d="M38.04,38.25 C37.86,38.37 37.68,38.52 37.5,38.697 C37.62,38.55 37.77,38.43 37.92,38.31 C37.95,38.28 38.01,38.25 38.04,38.25" id="Fill-5" fill="#FEFEFE"></path>
                                <path d="M73.8885618,75.1448441 C68.6808242,75.1448441 64.0969302,72.4345323 61.4930614,68.3690646 C59.9741379,66.0652996 59.1061817,63.330595 59.1061817,60.3763552 C59.1061817,57.9614674 59.675778,55.6848054 60.7335997,53.6791747 C60.9234651,53.2753383 61.1404542,52.9229977 61.3845669,52.5408438 C63.9884357,48.3669636 68.5994533,45.6051559 73.8885618,45.6051559 C74.1055509,45.6051559 74.3225399,45.6051559 74.539529,45.6295487 C82.378259,45.9547861 88.6438183,52.4595344 88.6438183,60.3763552 C88.6438183,68.5072905 82.0256518,75.1448441 73.8885618,75.1448441 M74.6751472,44.2743928 C74.4039108,44.25 74.1597981,44.25 73.8885618,44.25 C64.9920101,44.25 57.75,51.4865325 57.75,60.3763552 C57.75,63.626019 58.7264508,66.6344651 60.3809924,69.1848685 C63.2560976,73.5728633 68.2468461,76.5 73.8885618,76.5 C82.7851135,76.5 90,69.2634675 90,60.3763552 C90,51.7548533 83.2190917,44.6836499 74.6751472,44.2743928" id="Fill-7" fill="#FEFEFE"></path>
                                <path d="M58.0947582,25.5799559 L43.6141182,40.1015419 C43.6681504,40.2370044 43.7221827,40.3995595 43.7491988,40.5621145 C43.7762149,40.7517621 43.803231,40.9414097 43.803231,41.1581498 C43.803231,41.59163 43.7221827,41.9980176 43.5600859,42.3773128 C43.5060537,42.4856828 43.4520215,42.5940529 43.3979892,42.6753304 L49.9899224,51.8325991 C50.4221803,52.4557269 50.2870997,53.2955947 49.6927451,53.7290749 C49.4496,53.9187225 49.1794388,54 48.9092776,54 C48.4770197,54 48.0717779,53.7832599 47.8016167,53.4310573 L41.2366997,44.246696 L41.2096836,44.246696 C41.0475868,44.2737885 40.858474,44.3008811 40.6693612,44.3008811 C40.3992,44.3008811 40.1560549,44.2737885 39.9129098,44.2196035 C39.6967809,44.1654185 39.4806519,44.084141 39.2915391,44.0028634 C39.1024262,43.9215859 38.9403295,43.8132159 38.7782328,43.6777533 C38.6971844,43.6235683 38.58912,43.5422907 38.5080716,43.4339207 C38.3459749,43.2984581 38.2108943,43.1629956 38.1028298,43.0004405 C37.8867009,42.7024229 37.7246041,42.3773128 37.6435558,42.0522026 C37.5895235,41.9167401 37.5625074,41.7812775 37.5354913,41.645815 C37.4814591,41.2394273 37.4814591,40.8330396 37.5895235,40.426652 C37.6435558,40.2099119 37.7246041,39.9931718 37.8056525,39.8035242 C37.8867009,39.6409692 37.9677492,39.5055066 38.0758137,39.3700441 C38.1568621,39.207489 38.2919427,39.0720264 38.4270232,38.9365639 C38.58912,38.7740088 38.7512167,38.6385463 38.9133134,38.5301762 C39.1024262,38.3947137 39.3185552,38.2863436 39.5346841,38.2050661 C39.6967809,38.1508811 39.8588776,38.096696 40.0479904,38.0696035 C40.2371033,38.042511 40.4262161,38.0154185 40.6153289,38.0154185 L40.642345,38.0154185 C40.8854901,38.0154185 41.1016191,38.042511 41.317748,38.096696 C41.4528286,38.096696 41.5879092,38.1508811 41.6959737,38.2050661 L56.2036298,23.6563877 C56.7169361,23.1145374 57.5814519,23.1145374 58.0947582,23.6563877 C58.6350806,24.1711454 58.6350806,25.0381057 58.0947582,25.5799559" id="Fill-9" fill="#FEFEFE"></path>
                                <path d="M38.04,38.25 C37.86,38.37 37.68,38.52 37.5,38.697 C37.62,38.55 37.77,38.43 37.92,38.31 C37.95,38.28 38.01,38.25 38.04,38.25" id="Fill-11" fill="#F06666"></path>
                                <g id="Group-15">
                                    <mask id="mask-3" fill="white">
                                        <use xlink:href="#path-2"></use>
                                    </mask>
                                    <g id="Clip-14"></g>
                                    <path d="M61.7363022,75.8893499 C55.4030413,79.7238996 48.1224978,81.7491899 40.6524978,81.7491899 C18.2424978,81.7491899 0.000541304348,63.5512812 0.000541304348,41.1893757 C0.000541304348,18.8301705 18.2424978,0.629561497 40.6524978,0.629561497 C46.0114109,0.629561497 51.2079326,1.62870472 56.0796717,3.68099892 L55.24065,1.60170085 L57.0540196,2.38481311 L58.2719543,5.38494317 L55.2677152,6.59741698 L53.4543457,5.84400898 L55.6736935,4.95018085 C50.9102152,2.97889827 45.8760848,1.97975505 40.6524978,1.97975505 C19.0003239,1.97975505 1.35380217,19.5619754 1.35380217,41.1893757 C1.35380217,62.8194763 19.0003239,80.3989963 40.6524978,80.3989963 C47.8518457,80.3989963 54.9131609,78.4277138 61.0326065,74.7281834 C61.3573891,74.5391563 61.7633674,74.6201679 61.9528239,74.9442144 C62.1422804,75.2709612 62.0610848,75.6733189 61.7363022,75.8893499" id="Fill-13" fill="#6D9392" mask="url(#mask-3)"></path>
                                </g>
                                <path d="M75.75,41.25 C75.75,41.67 75.4472477,42 75.0619266,42 L64.4380734,42 C64.0527523,42 63.75,41.67 63.75,41.25 C63.75,40.83 64.0527523,40.5 64.4380734,40.5 L75.0619266,40.5 C75.4472477,40.5 75.75,40.83 75.75,41.25" id="Fill-16" fill="#FEFEFE"></path>
                                <path d="M70.9120491,24.5325 L70.8848923,24.562875 L61.7873743,29.8895455 C61.6787472,29.9751477 61.5429634,30 61.4343363,30 C61.1899254,30 60.9726712,29.8646932 60.8368873,29.6437841 C60.64679,29.3096591 60.7825738,28.8954545 61.108455,28.7049205 L70.2059731,23.3451136 L70.2331298,23.3451136 C70.5590111,23.1518182 70.9663626,23.2622727 71.15646,23.5936364 C71.3465574,23.925 71.2379303,24.3419659 70.9120491,24.5325" id="Fill-18" fill="#FEFEFE"></path>
                                <path d="M19.9129209,54.5325 L10.7846982,59.9171591 C10.6763513,59.9723864 10.5409178,60 10.4325709,60 C10.1887905,60 9.97209678,59.8895455 9.8366632,59.6686364 C9.6470562,59.3372727 9.78248978,58.9230682 10.1075303,58.7325341 L19.235753,53.3451136 C19.5607936,53.1518182 19.9670943,53.2622727 20.1567013,53.5936364 C20.3463083,53.925 20.2379615,54.3392045 19.9129209,54.5325" id="Fill-20" fill="#FEFEFE"></path>
                                <path d="M58.405059,11.5095292 L53.0301724,20.6746124 C52.9199183,20.8915375 52.6718466,21 52.4513385,21 C52.3135209,21 52.2032668,20.9728844 52.0930127,20.9186531 C51.7622505,20.7288437 51.6519964,20.3221092 51.844941,19.9967217 L57.2198276,10.8316385 C57.4127722,10.5333665 57.826225,10.3977884 58.1569873,10.5875978 C58.4877495,10.7774072 58.5980036,11.1841417 58.405059,11.5095292" id="Fill-22" fill="#FEFEFE"></path>
                                <path d="M29.1738047,62.5173951 L23.7837784,71.6739505 C23.6732137,71.8913168 23.4244433,72 23.203314,72 C23.0927493,72 22.9545435,71.9728292 22.8439789,71.9184876 C22.512285,71.7282921 22.4017203,71.3207303 22.5952084,70.9946809 L27.9575937,61.8381254 C28.1510818,61.5120759 28.5933404,61.4033928 28.8973931,61.5935883 C29.2290871,61.7837838 29.3396517,62.1913456 29.1738047,62.5173951" id="Fill-24" fill="#FEFEFE"></path>
                                <path d="M41.25,6.68027211 L41.25,17.3197279 C41.25,17.6761905 40.92,18 40.5,18 C40.08,18 39.75,17.6761905 39.75,17.3197279 L39.75,6.68027211 C39.75,6.29931973 40.08,6 40.5,6 C40.92,6 41.25,6.29931973 41.25,6.68027211" id="Fill-26" fill="#FEFEFE"></path>
                                <path d="M41.25,65.1882312 L41.25,75.8117688 C41.25,76.1999312 40.92,76.5 40.5,76.5 C40.08,76.5 39.75,76.1999312 39.75,75.8117688 L39.75,65.1882312 C39.75,64.8000688 40.08,64.5 40.5,64.5 C40.92,64.5 41.25,64.8000688 41.25,65.1882312" id="Fill-28" fill="#FEFEFE"></path>
                                <path d="M58.1541629,71.9180628 C58.0430009,71.9754188 57.931839,72 57.820677,72 C57.5705627,72 57.3204483,71.8907504 57.2092864,71.6722512 L51.8457228,62.525328 C51.6511894,62.194848 51.7623513,61.785162 52.0958371,61.5939751 C52.429323,61.4027883 52.8461802,61.5120379 53.0407136,61.842518 L58.4042772,70.9894412 C58.5988106,71.31719 58.4876487,71.726876 58.1541629,71.9180628" id="Fill-30" fill="#FEFEFE"></path>
                                <path d="M28.9083823,20.9191155 C28.7985766,20.9730385 28.6887709,21 28.5789652,21 C28.3319024,21 28.112291,20.8921541 27.9750339,20.6764622 L22.5945549,11.5095578 C22.4023949,11.18602 22.5122006,10.7815977 22.8416177,10.5928673 C23.1710348,10.4041369 23.6102576,10.5119829 23.7749661,10.8355207 L29.1554451,20.0024251 C29.3476051,20.3259629 29.2377994,20.7303852 28.9083823,20.9191155" id="Fill-32" fill="#FEFEFE"></path>
                                <path d="M20.1571802,29.6699864 C20.0224418,29.8899955 19.8068604,30 19.5643312,30 C19.4565405,30 19.3487498,29.9724989 19.2409591,29.9202467 L10.1056952,24.5272748 C9.78232301,24.337517 9.6475846,23.9222499 9.83621837,23.5922363 C10.0248521,23.2622227 10.456015,23.1522182 10.7793872,23.3447261 L19.9146511,28.7349479 C20.2380233,28.9274559 20.345814,29.3399728 20.1571802,29.6699864" id="Fill-34" fill="#FEFEFE"></path>
                                <path d="M80.5227273,59.4357798 C79.3677686,59.4357798 78.4545455,58.4965596 78.4545455,57.3694954 C78.4545455,56.2155963 79.3677686,55.2763761 80.5227273,55.2763761 C81.677686,55.2763761 82.6177686,56.2155963 82.6177686,57.3694954 C82.6177686,58.4965596 81.677686,59.4357798 80.5227273,59.4357798 M73.8884298,68.9353211 C71.1487603,68.9353211 68.5702479,67.593578 66.9586777,65.3931193 L67.4958678,65.0174312 L68.0330579,64.6149083 C68.1404959,64.7490826 68.2210744,64.8832569 68.3553719,64.9905963 C69.6983471,66.6275229 71.7396694,67.593578 73.8884298,67.593578 C76.1177686,67.593578 78.1859504,66.5470183 79.5557851,64.8027523 C79.6632231,64.668578 79.7706612,64.5344037 79.8512397,64.4029128 L80.4152893,64.7759174 L80.9793388,65.1516055 C79.3677686,67.5130734 76.7355372,68.9353211 73.8884298,68.9353211 M65.427686,57.3694954 C65.427686,57.0474771 65.5082645,56.7791284 65.6157025,56.5107798 C65.803719,56.081422 66.1528926,55.7057339 66.5826446,55.5178899 C66.8512397,55.3568807 67.1735537,55.2763761 67.5227273,55.2763761 C68.6239669,55.2763761 69.5103306,56.1377752 69.5640496,57.2353211 C69.5909091,57.2889908 69.5909091,57.3158257 69.5909091,57.3694954 C69.5909091,57.8015367 69.4566116,58.2013761 69.214876,58.5502294 C68.838843,59.0869266 68.2210744,59.4357798 67.5227273,59.4357798 C66.3677686,59.4357798 65.427686,58.4965596 65.427686,57.3694954 M74.5330579,45.7768349 C74.3181818,45.75 74.1033058,45.75 73.8884298,45.75 C68.6508264,45.75 64.0847107,48.487156 61.5061983,52.6197248 C61.2644628,52.9980963 61.0495868,53.3442661 60.8615702,53.746789 C59.8140496,55.7325688 59.25,57.9866972 59.25,60.3776835 C59.25,63.3 60.1095041,66.0103211 61.6136364,68.2912844 C64.1921488,72.3165138 68.731405,75 73.8884298,75 C81.946281,75 88.5,68.4281422 88.5,60.3776835 C88.5,52.5392202 82.2954545,46.0988532 74.5330579,45.7768349" id="Fill-36" fill="#E3ECE7"></path>
                                <path d="M69.4112903,58.4491935 C69.0725806,58.9354839 68.516129,59.25 67.8870968,59.25 C66.8467742,59.25 66,58.4032258 66,57.3870968 C66,57.0967742 66.0725806,56.8524194 66.1693548,56.6129032 C66.3387097,56.2258065 66.6532258,55.8870968 67.0403226,55.7177419 C67.2822581,55.5725806 67.5725806,55.5 67.8870968,55.5 C68.8790323,55.5 69.6774194,56.2741935 69.7258065,57.2637097 C69.75,57.3145161 69.75,57.3362903 69.75,57.3870968 C69.75,57.7741935 69.6290323,58.1370968 69.4112903,58.4491935 Z" id="Fill-38" fill="#6D9392"></path>
                                <path d="M82.5,57.3870968 C82.5,58.4032258 81.6532258,59.25 80.6129032,59.25 C79.5725806,59.25 78.75,58.4032258 78.75,57.3870968 C78.75,56.3443548 79.5725806,55.5 80.6129032,55.5 C81.6532258,55.5 82.5,56.3443548 82.5,57.3870968" id="Fill-40" fill="#6D9392"></path>
                                <path d="M81,65.2433393 C79.4482759,67.5879218 76.9137931,69 74.1724138,69 C71.5344828,69 69.0517241,67.6678508 67.5,65.4831261 L68.0172414,65.1101243 L68.5344828,64.7104796 C68.637931,64.8463588 68.7155172,64.9769094 68.8448276,65.0834813 C70.137931,66.7087034 72.1034483,67.6678508 74.1724138,67.6678508 C76.3189655,67.6678508 78.3103448,66.6314387 79.6293103,64.8969805 C79.7327586,64.7637655 79.8362069,64.6332149 79.9137931,64.5 L80.4568966,64.8703375 L81,65.2433393 Z" id="Fill-42" fill="#6D9392"></path>
                            </g>
                        </g>
                    </g>
                </g>
            </g>
        </g>
    </g>
</svg>