<?xml version="1.0" encoding="UTF-8"?>
<svg width="160px" height="160px" viewBox="0 0 160 160" version="1.1" xmlns="http://www.w3.org/2000/svg" xmlns:xlink="http://www.w3.org/1999/xlink">
    <!-- Generator: Sketch 45.2 (43514) - http://www.bohemiancoding.com/sketch -->
    <title>icon/building</title>
    <desc>Created with Sketch.</desc>
    <defs></defs>
    <g id="Symbols" stroke="none" stroke-width="1" fill="none" fill-rule="evenodd">
        <g id="icon/building">
            <g id="Page-1-Copy-28">
                <g id="icon/building" stroke="#749393" stroke-width="1.5" fill="#FFFFFF">
                    <path d="M159.097002,79.633157 C159.097002,123.518871 123.518871,159.097002 79.633157,159.097002 C35.7474427,159.097002 0.169312169,123.518871 0.169312169,79.633157 C0.169312169,35.7474427 35.7474427,0.169312169 79.633157,0.169312169 C123.518871,0.169312169 159.097002,35.7474427 159.097002,79.633157 Z" id="Stroke-1"></path>
                </g>
                <path d="M63.6331118,79.1534843 C63.1599407,82.2309023 63.1599407,87.2371245 63.6331118,90.3181545 C66.616618,90.7913256 71.5289284,90.7913256 74.5124346,90.3181545 C74.9856056,87.3382603 74.9856056,82.4223379 74.5124346,79.4388317 C71.4422406,78.788673 67.1728649,79.3376959 63.6331118,79.1534843 L63.6331118,79.1534843 Z M44.1716938,79.4388317 C44.3522935,82.9858088 43.8068825,87.2479605 44.4570413,90.3181545 C47.4441594,90.7913256 52.3492459,90.7913256 55.339976,90.3181545 C55.8275951,87.2262885 55.7842511,82.2561862 55.339976,79.1534843 C51.6954751,79.3376959 47.3321877,78.785061 44.1716938,79.4388317 L44.1716938,79.4388317 Z M63.9184593,58.2653291 C62.2208226,60.3350011 63.1888367,66.4320451 63.3477644,69.4227753 C66.4215704,69.8959464 71.4350166,69.8959464 74.5124346,69.4227753 L74.5124346,58.5506765 C71.5361524,57.8969058 67.3679125,58.4459287 63.9184593,58.2653291 L63.9184593,58.2653291 Z M44.7460007,58.2653291 C43.04114,60.4180769 44.0163781,66.6234808 44.1716938,69.7117347 L55.0474046,69.7117347 C55.5205757,66.6307048 55.5205757,61.6208705 55.0474046,58.5506765 C52.1650342,57.9005178 48.0979302,58.4423168 44.7460007,58.2653291 L44.7460007,58.2653291 Z M83.0909178,84.5895337 C82.1806956,88.1292868 71.236357,92.2361228 71.3591647,97.1845531 C71.4386286,100.283643 74.5052106,101.078281 79.3741771,100.619558 C79.5078208,106.301223 79.0671577,112.557195 79.6595245,117.790973 L66.2084628,117.790973 C66.0531471,112.889498 66.5479901,107.337865 65.9231153,102.90595 C62.2858384,102.252179 57.4385439,102.804814 53.324484,102.620602 C52.0964063,106.633527 53.0644205,112.849766 52.7574011,117.790973 C48.2640818,116.573731 39.3027273,119.788405 36.4456409,116.931319 C34.4698808,114.951946 35.5895986,102.884278 35.5895986,98.9038617 L35.5895986,61.1260275 C35.5895986,55.5996783 34.0183817,43.3405743 38.446685,42.8059993 C48.2929778,41.6248776 60.3606462,42.8059993 71.9370836,42.8059993 C75.1987132,42.8059993 80.7973023,42.2389164 82.2348755,43.6656536 C84.3551153,45.7642215 83.0909178,59.6631704 83.0909178,63.7013785 L83.0909178,84.5895337 Z" id="Fill-3" fill="#749393"></path>
                <path d="M97.4074131,94.0352564 C99.3506653,94.9815986 104.309932,94.8804628 106.274856,94.0352564 C106.690235,93.0238984 106.690235,91.0481383 106.274856,90.0295563 C103.099914,88.9170624 94.6406265,88.3210836 97.4074131,94.0352564 M112.859519,82.8741982 L112.859519,76.2931471 L120.58196,76.2931471 C121.441614,81.4041171 119.40445,85.7710166 120.58196,89.7405968 C121.66917,93.3814857 127.181071,94.1436162 127.737318,97.1849143 C125.580958,97.5063817 122.929755,97.333006 120.870919,97.7592212 C120.376076,104.040477 121.903949,112.337225 120.014877,117.220639 C116.3776,117.878022 111.526693,117.321775 107.416246,117.502375 C107.257318,113.662826 107.762997,109.147835 107.130898,105.770622 C105.021494,104.441408 97.970884,104.26442 96.2624113,106.052357 L96.2624113,117.502375 C92.0436035,117.336223 87.1312931,117.85635 83.3820444,117.220639 C82.1033989,111.723186 83.1472649,103.899609 82.8041256,97.4702617 C80.9656212,96.830939 77.964055,97.351066 75.6559915,97.1849143 C74.9841608,96.3794399 76.9852049,95.2019302 77.9387711,94.3206039 C85.151921,87.6998208 93.8098681,80.1615915 101.120542,73.4324487 C106.162884,75.4515527 108.615427,80.0568437 112.859519,82.8741982" id="Fill-5" fill="#749393"></path>
            </g>
        </g>
    </g>
</svg>