<?xml version="1.0" encoding="UTF-8"?>
<svg width="562px" height="121px" viewBox="0 0 562 121" version="1.1" xmlns="http://www.w3.org/2000/svg" xmlns:xlink="http://www.w3.org/1999/xlink">
    <!-- Generator: Sketch 45.2 (43514) - http://www.bohemiancoding.com/sketch -->
    <title>Group 9</title>
    <desc>Created with Sketch.</desc>
    <defs>
        <rect id="path-1" x="111" y="0" width="450" height="112" rx="3"></rect>
    </defs>
    <g id="Page-1" stroke="none" stroke-width="1" fill="none" fill-rule="evenodd">
        <g id="mobile/landing" transform="translate(-78.000000, -2049.000000)">
            <g id="Group-6" transform="translate(79.000000, 1617.000000)">
                <g id="Group-2" transform="translate(0.000000, 433.000000)">
                    <g id="Group-9">
                        <g id="Rectangle-16-Copy-5">
                            <use fill="#FFFFFF" fill-rule="evenodd" xlink:href="#path-1"></use>
                            <rect stroke="#749393" stroke-width="1" x="111.5" y="0.5" width="449" height="111" rx="3"></rect>
                        </g>
                        <text id="Bâti-Partagez-vos-op" font-family=".SFNSDisplay, .SF NS Display" font-size="24" font-weight="normal">
                            <tspan x="129" y="42" fill="#477393">Bâti</tspan>
                            <tspan x="168.632812" y="42" font-family=".SFNSText, .SF NS Text" font-size="16" fill="#477393"></tspan>
                            <tspan x="129" y="70" font-family=".SFNSText, .SF NS Text" font-size="16" fill="#4A4A4A">Partagez vos opinions au sujet des bâtiments neufs ou à </tspan>
                            <tspan x="129" y="88" font-family=".SFNSText, .SF NS Text" font-size="16" fill="#4A4A4A">rénover que nous suggérons pour l’entrée nord ! </tspan>
                            <tspan x="129" y="106" font-family=".SFNSText, .SF NS Text" font-size="16" fill="#4A4A4A"></tspan>
                        </text>
                        <g id="icon/building">
                            <g id="Page-1-Copy-28">
                                <g id="icon/building" stroke="#749393" stroke-width="1.5" fill="#FFFFFF">
                                    <path d="M119.322751,59.7248677 C119.322751,92.6391534 92.6391534,119.322751 59.7248677,119.322751 C26.810582,119.322751 0.126984127,92.6391534 0.126984127,59.7248677 C0.126984127,26.810582 26.810582,0.126984127 59.7248677,0.126984127 C92.6391534,0.126984127 119.322751,26.810582 119.322751,59.7248677 Z" id="Stroke-1"></path>
                                </g>
                                <path d="M47.7248339,59.3651132 C47.3699556,61.6731767 47.3699556,65.4278434 47.7248339,67.7386159 C49.9624635,68.0934942 53.6466963,68.0934942 55.8843259,67.7386159 C56.2392042,65.5036952 56.2392042,61.8167534 55.8843259,59.5791238 C53.5816804,59.0915048 50.3796487,59.503272 47.7248339,59.3651132 L47.7248339,59.3651132 Z M33.1287704,59.5791238 C33.2642201,62.2393566 32.8551619,65.4359704 33.342781,67.7386159 C35.5831196,68.0934942 39.2619344,68.0934942 41.504982,67.7386159 C41.8706963,65.4197164 41.8381884,61.6921397 41.504982,59.3651132 C38.7716063,59.503272 35.4991407,59.0887958 33.1287704,59.5791238 L33.1287704,59.5791238 Z M47.9388444,43.6989968 C46.6656169,45.2512508 47.3916275,49.8240339 47.5108233,52.0670815 C49.8161778,52.4219598 53.5762624,52.4219598 55.8843259,52.0670815 L55.8843259,43.9130074 C53.6521143,43.4226794 50.5259344,43.8344466 47.9388444,43.6989968 L47.9388444,43.6989968 Z M33.5595005,43.6989968 C32.280855,45.3135577 33.0122836,49.9676106 33.1287704,52.2838011 L41.2855534,52.2838011 C41.6404317,49.9730286 41.6404317,46.2156529 41.2855534,43.9130074 C39.1237757,43.4253884 36.0734476,43.8317376 33.5595005,43.6989968 L33.5595005,43.6989968 Z M62.3181884,63.4421503 C61.6355217,66.0969651 53.4272677,69.1770921 53.5193735,72.8884148 C53.5789714,75.2127323 55.8789079,75.8087111 59.5306328,75.4646688 C59.6308656,79.7259175 59.3003683,84.4178963 59.7446434,88.3432296 L49.6563471,88.3432296 C49.5398603,84.6671238 49.9109926,80.5033989 49.4423365,77.1794624 C46.7143788,76.6891344 43.0789079,77.1036106 39.993363,76.9654519 C39.0723048,79.975145 39.7983153,84.6373249 39.5680508,88.3432296 C36.1980614,87.4302984 29.4770455,89.8413037 27.3342307,87.6984889 C25.8524106,86.2139598 26.6921989,77.1632085 26.6921989,74.1778963 L26.6921989,45.8445206 C26.6921989,41.6997587 25.5137862,32.5054307 28.8350138,32.1044995 C36.2197333,31.2186582 45.2704847,32.1044995 53.9528127,32.1044995 C56.3990349,32.1044995 60.5979767,31.6791873 61.6761566,32.7492402 C63.2663365,34.3231661 62.3181884,44.7473778 62.3181884,47.7760339 L62.3181884,63.4421503 Z" id="Fill-3" fill="#749393"></path>
                                <path d="M73.0555598,70.5264423 C74.5129989,71.2361989 78.2324487,71.1603471 79.7061418,70.5264423 C80.0176762,69.7679238 80.0176762,68.2861037 79.7061418,67.5221672 C77.3249354,66.6877968 70.9804698,66.2408127 73.0555598,70.5264423 M84.6446392,62.1556487 L84.6446392,57.2198603 L90.4364698,57.2198603 C91.0812106,61.0530878 89.5533376,64.3282624 90.4364698,67.3054476 C91.2518772,70.0361143 95.3858032,70.6077122 95.8029884,72.8886857 C94.1857185,73.1297862 92.1973164,72.9997545 90.6531894,73.3194159 C90.2820571,78.0303577 91.4279619,84.2529185 90.0111577,87.9154794 C87.2832,88.4085164 83.6450201,87.9913312 80.5621841,88.126781 C80.4429884,85.2471196 80.8222476,81.8608762 80.3481735,79.3279661 C78.7661206,78.3310561 73.478163,78.1983153 72.1968085,79.5392677 L72.1968085,88.126781 C69.0327026,88.0021672 65.3484698,88.3922624 62.5365333,87.9154794 C61.5775492,83.7923894 62.3604487,77.9247069 62.1030942,73.1026963 C60.7242159,72.6232042 58.4730413,73.0132995 56.7419937,72.8886857 C56.2381206,72.2845799 57.7389037,71.4014476 58.4540783,70.7404529 C63.8639407,65.7748656 70.3574011,60.1211937 75.8404063,55.0743365 C79.622163,56.5886646 81.4615704,60.0426328 84.6446392,62.1556487" id="Fill-5" fill="#749393"></path>
                            </g>
                        </g>
                    </g>
                </g>
            </g>
        </g>
    </g>
</svg>