<?xml version="1.0" encoding="UTF-8"?>
<svg width="563px" height="121px" viewBox="0 0 563 121" version="1.1" xmlns="http://www.w3.org/2000/svg" xmlns:xlink="http://www.w3.org/1999/xlink">
    <!-- Generator: Sketch 45.2 (43514) - http://www.bohemiancoding.com/sketch -->
    <title>Group 8</title>
    <desc>Created with Sketch.</desc>
    <defs>
        <rect id="path-1" x="112" y="0" width="450" height="120" rx="3"></rect>
        <path d="M17.0072244,76.5291005 C6.92446257,66.4312427 0.951818182,52.2695877 0.951818182,35.8941799 C0.951818182,22.8038592 4.76910215,10.6990636 11.4520046,0.866420157 L103.218271,0.866420157 C109.381369,10.6990636 112.767273,22.8038592 112.767273,35.8941799 C112.767273,52.2695877 107.46958,66.4312427 98.0655124,76.5291005 L17.0072244,76.5291005 L17.0072244,76.5291005 Z" id="path-2"></path>
    </defs>
    <g id="Page-1" stroke="none" stroke-width="1" fill="none" fill-rule="evenodd">
        <g id="mobile/landing" transform="translate(-78.000000, -1914.000000)">
            <g id="Group-6" transform="translate(79.000000, 1617.000000)">
                <g id="Group-3" transform="translate(0.000000, 298.000000)">
                    <g id="Group-8">
                        <g id="Rectangle-16-Copy-3">
                            <use fill="#FFFFFF" fill-rule="evenodd" xlink:href="#path-1"></use>
                            <rect stroke="#749393" stroke-width="1" x="112.5" y="0.5" width="449" height="119" rx="3"></rect>
                        </g>
                        <text id="Espaces-publics-et-e" font-family=".SFNSDisplay, .SF NS Display" font-size="24" font-weight="normal">
                            <tspan x="130" y="51" fill="#477393">Espaces publics et espaces verts</tspan>
                            <tspan x="472.949219" y="51" font-family=".SFNSText, .SF NS Text" font-size="16" fill="#477393"> </tspan>
                            <tspan x="130" y="79" font-family=".SFNSText, .SF NS Text" font-size="16" fill="#4A4A4A">Proposez des espaces publics et espaces verts qui auront </tspan>
                            <tspan x="130" y="97" font-family=".SFNSText, .SF NS Text" font-size="16" fill="#4A4A4A">la capacité d’améliorer votre qualité de vie !</tspan>
                        </text>
                        <g id="icon/public">
                            <g id="Page-1-Copy-19">
                                <path d="M120,59.7248677 C120,92.6391534 93.1363636,119.322751 60,119.322751 C26.8636364,119.322751 0,92.6391534 0,59.7248677 C0,26.810582 26.8636364,0.126984127 60,0.126984127 C93.1363636,0.126984127 120,26.810582 120,59.7248677 Z" id="Stroke-1" stroke="#749393" stroke-width="1.5" fill="#FFFFFF"></path>
                                <g id="Group-8" transform="translate(2.727273, 23.830688)">
                                    <mask id="mask-3" fill="white">
                                        <use xlink:href="#path-2"></use>
                                    </mask>
                                    <g id="Clip-4"></g>
                                    <polygon id="Fill-3" fill="#749393" mask="url(#mask-3)" points="-5.45454545 76.5291005 117.272727 76.5291005 117.272727 71.1111111 -5.45454545 71.1111111"></polygon>
                                    <path d="M31.1239091,36.0001016 C31.2057273,39.1046095 31.3202727,42.1793185 32.0266364,44.6688847 C34.1348182,43.2737524 36.6766364,42.3120593 38.9484545,41.0848847 C38.4111818,39.0206307 37.1048182,36.826345 37.7484545,34.5020275 C35.4384545,34.9056677 34.0339091,36.1978582 31.1239091,36.0001016 M18.1775455,42.5802497 C20.3539091,44.4250751 22.9966364,47.2857735 25.1020909,49.1522709 C25.7375455,49.7184508 26.5939091,51.0133503 27.2075455,50.3550646 C27.5020909,45.4544931 28.1648182,40.9358899 28.413,36.0001016 C25.2520909,36.1572233 23.6239091,34.778345 21.1911818,34.2067471 C21.4284545,38.2323132 19.9584545,40.5593397 18.1775455,42.5802497 M25.7075455,73.7093079 C25.563,67.4975831 26.1548182,60.4650328 26.9102727,55.1364402 C24.0139091,50.9320804 20.3675455,47.4808212 17.5802727,43.1735196 C2.93209091,52.159255 -4.05245455,25.1532868 13.6666364,26.7299217 C8.55845455,15.7043132 15.9111818,2.43836614 27.2075455,1.01614392 C40.4511818,-0.647178836 51.7420909,11.7871069 45.573,26.4292233 C58.2602727,25.6463238 58.6557273,45.1375407 46.1784545,44.6688847 C43.5602727,44.5740698 42.2457273,43.5961228 40.1539091,41.9788529 C37.5220909,44.1487577 34.4293636,45.8635513 32.0266364,48.2583026 C32.7248182,55.9328847 33.8048182,64.1628106 33.5320909,72.8045037" id="Fill-5" fill="#749393" mask="url(#mask-3)"></path>
                                    <path d="M61.5368182,48.6348529 C61.5886364,50.655763 61.665,52.6550011 62.1231818,54.2749799 C63.495,53.3647577 65.1477273,52.7416889 66.6313636,51.9425354 C66.2795455,50.5988741 65.4313636,49.1712339 65.8459091,47.6569058 C64.3431818,47.9196783 63.4295455,48.7621757 61.5368182,48.6348529 M53.1095455,52.9123556 C54.5277273,54.1151492 56.2459091,55.9789376 57.6177273,57.1952762 C58.0322727,57.5609905 58.5886364,58.4007788 58.9895455,57.9727577 C59.1777273,54.7869799 59.6113636,51.8450116 59.7722727,48.6348529 C57.7131818,48.7296677 56.655,47.8384085 55.0704545,47.4645672 C55.2286364,50.0841651 54.2686364,51.6012021 53.1095455,52.9123556 M58.0077273,72.1787259 C57.9204545,68.1341968 58.2995455,64.5556148 58.7931818,61.0881016 C56.9059091,58.3547259 54.5331818,56.1089693 52.7195455,53.3024508 C43.185,59.1484614 38.6386364,41.5752127 50.1722727,42.5965037 C46.8477273,35.4203767 51.6340909,26.7868106 58.9895455,25.8630434 C67.6077273,24.7821545 74.955,32.8766307 70.9377273,42.4041651 C79.1986364,41.8948741 79.4522727,54.5783873 71.3304545,54.2749799 C69.6313636,54.215382 68.7695455,53.5760593 67.4113636,52.5249693 C65.6959091,53.9363556 63.6886364,55.0524614 62.1231818,56.6101333 C62.5786364,61.6055196 63.2822727,67.8903873 63.0995455,73.5196783" id="Fill-6" fill="#749393" mask="url(#mask-3)"></path>
                                    <path d="M86.8786364,40.1798095 C86.9522727,43.0567619 87.0586364,45.9066243 87.7131818,48.2146878 C89.6631818,46.9197884 92.025,46.0258201 94.1304545,44.8934603 C93.6368182,42.9782011 92.4204545,40.946455 93.015,38.7928042 C90.8795455,39.1639365 89.5759091,40.3640212 86.8786364,40.1798095 M74.8813636,46.2750476 C76.8968182,47.9898413 79.3431818,50.6419471 81.2959091,52.3702857 C81.885,52.8904127 82.6813636,54.0959153 83.2513636,53.4809735 C83.5213636,48.9406984 84.135,44.7498836 84.3640909,40.1798095 C81.435,40.3233862 79.9268182,39.0474497 77.6740909,38.5191958 C77.895,42.2521905 76.5286364,44.4031323 74.8813636,46.2750476 M81.855,73.714455 C81.7268182,67.9524233 82.2722727,62.8568042 82.9704545,57.9128889 C80.2868182,54.0173545 76.905,50.8234497 74.3222727,46.8303915 C60.7486364,55.1578413 54.2740909,30.1267302 70.6922727,31.5868783 C65.9631818,21.3685503 72.7786364,9.06971429 83.2513636,7.75314286 C95.5213636,6.21172487 105.988636,17.7384974 100.269545,31.3105608 C112.035,30.5818413 112.392273,48.645418 100.825909,48.2146878 C98.4013636,48.125291 97.185,47.2177778 95.2459091,45.7197037 C92.8077273,47.7324868 89.9413636,49.3199577 87.7131818,51.5413333 C88.365,58.6551534 89.3659091,65.4222222 89.1068182,73.4327196" id="Fill-7" fill="#749393" mask="url(#mask-3)"></path>
                                </g>
                            </g>
                        </g>
                    </g>
                </g>
            </g>
        </g>
    </g>
</svg>