<?xml version="1.0" encoding="UTF-8"?>
<svg width="400px" height="1246px" viewBox="0 0 452 1246" version="1.1" xmlns="http://www.w3.org/2000/svg" xmlns:xlink="http://www.w3.org/1999/xlink">
    <!-- Generator: Sketch 45.2 (43514) - http://www.bohemiancoding.com/sketch -->
    <title>timeline-mobile</title>
    <desc>Created with Sketch.</desc>
    <defs></defs>
    <g id="Symbols" stroke="none" stroke-width="1" fill="none" fill-rule="evenodd">
        <g id="timeline-mobile">
            <g id="Group-11">
                <path d="M367,951 L372,951" id="Stroke-175-Copy" stroke="#477393" stroke-width="0.972"></path>
                <path d="M373.226079,465.536541 C375.044178,465.357233 375.044178,462.126503 372.681132,462.664429 C370.863034,463.024633 371.58963,465.536541 373.226079,465.536541 M372.499483,461.050651 C377.043925,460.331829 377.225574,467.510524 372.681132,466.971011 C369.044936,466.612393 369.228192,461.588577 372.499483,461.050651" id="Fill-311-Copy" fill="#A7A7A7"></path>
                <path d="M376,473 L376,482 L367.043672,482 C367.043672,479.00052 366.86821,475.823132 367.220687,473 L376,473 Z" id="Fill-313-Copy" fill="#A7A7A7"></path>
                <path d="M390,473 L390,482 L381.04368,482 C381.04368,479.00052 380.868187,475.823132 381.220725,473 L390,473 Z" id="Fill-315-Copy" fill="#A7A7A7"></path>
                <path d="M376,487 L376,496 L367.043672,496 C367.043672,493.00052 366.86821,489.824692 367.220687,487 L376,487 Z" id="Fill-317-Copy" fill="#A7A7A7"></path>
                <path d="M390,487 L390,496 L381.04368,496 C381.04368,493.00052 380.868187,489.824692 381.220725,487 L390,487 Z" id="Fill-319-Copy" fill="#A7A7A7"></path>
                <path d="M376,379 L376,436" id="Stroke-349-Copy" stroke="#477393" stroke-width="0.972" stroke-dasharray="4.861,4.861"></path>
                <polygon id="Fill-351-Copy" fill="#477393" points="370 426.545071 371.597204 426 375.500784 436.909456 379.402796 426 381 426.545071 375.500784 442"></polygon>
                <path d="M244,134 C260.01699,134 273,146.984216 273,162.999223 C273,179.015784 260.01699,192 244,192 C227.98301,192 215,179.015784 215,162.999223 C215,146.984216 227.98301,134 244,134 Z" id="Stroke-1-Copy" stroke="#635D58" stroke-width="1.645"></path>
                <path d="M244,451 C260.01699,451 273,463.984216 273,479.999223 C273,496.015784 260.01699,509 244,509 C227.98301,509 215,496.015784 215,479.999223 C215,463.984216 227.98301,451 244,451 Z" id="Stroke-3-Copy" stroke="#635D58" stroke-width="1.645"></path>
                <path d="M288,481 C288,456.949241 268.344158,437.886344 244,437.886344 L244,207" id="Stroke-5-Copy" stroke="#020202" stroke-width="2"></path>
                <path d="M288,481 C288,505.344158 268.571493,525 244.508894,525 C220.447872,525 201.017789,505.344158 201.017789,481 L134,481" id="Stroke-7-Copy" stroke="#020202" stroke-width="2"></path>
                <path d="M244,1135 C260.01699,1135 273,1147.98422 273,1163.99922 C273,1180.01734 260.01699,1193 244,1193 C227.98301,1193 215,1180.01734 215,1163.99922 C215,1147.98422 227.98301,1135 244,1135 Z" id="Stroke-9-Copy" stroke="#635D58" stroke-width="1.645"></path>
                <path d="M333,481 L289,481" id="Stroke-11-Copy" stroke="#020202" stroke-width="2" stroke-linecap="square"></path>
                <polyline id="Stroke-13-Copy" stroke="#020202" stroke-width="2" points="201 163 195.675628 163 130 163"></polyline>
                <path d="M244,828 C260.01699,828 273,840.984216 273,856.999223 C273,873.015784 260.01699,886 244,886 C227.98301,886 215,873.015784 215,856.999223 C215,840.984216 227.98301,828 244,828 Z" id="Stroke-15-Copy" stroke="#635D58" stroke-width="1.645"></path>
                <path d="M130,857.643761 L201.817027,857.643761 C201.817027,880.838931 220.669949,901 244.908514,901 C269.147078,901 288,881.373804 288,857.28718 C288,833.200556 269.147078,814.109232 244.908514,814.109232 L244.908514,524" id="Stroke-17-Copy" stroke="#000000" stroke-width="2"></path>
                <polyline id="Stroke-19-Copy" stroke="#020202" stroke-width="2" points="132 393 157 393 157 480.791964 157 565 132 565"></polyline>
                <path d="M245,207 C220.674887,207 201,187.325113 201,163" id="Stroke-21-Copy" stroke="#635D58" stroke-width="1.928" stroke-linecap="square"></path>
                <path d="M244,207 C268.325113,207 288,187.431766 288,163.016719 C288,138.601672 268.325113,119.033438 244,119.033438 L244,79" id="Stroke-23-Copy" stroke="#020202" stroke-width="2" stroke-linecap="square"></path>
                <path d="M244,1208 C268.325113,1208 288,1188.42208 288,1164.21333 C288,1140.00615 268.325113,1120.42665 244,1120.42665 L244,1121.49543 L244,899" id="Stroke-25-Copy" stroke="#020202" stroke-width="2" stroke-linecap="square"></path>
                <path d="M250,1207.36292 C250,1198.87903 236,1198.87903 236,1207.36292 C236,1217.54569 250,1217.54569 250,1207.36292" id="Fill-27-Copy" fill="#635D58"></path>
                <path d="M252,205.363534 C252,196.878822 238,196.878822 238,205.363534 C238,215.545489 252,215.545489 252,205.363534" id="Fill-29-Copy" fill="#635D58"></path>
                <path d="M252,79.363534 C252,70.878822 238,70.878822 238,79.363534 C238,89.5454887 252,89.5454887 252,79.363534" id="Fill-31-Copy" fill="#635D58"></path>
                <path d="M252,523.363534 C252,514.878822 238,514.878822 238,523.363534 C238,533.545489 252,533.545489 252,523.363534" id="Fill-33-Copy" fill="#635D58"></path>
                <path d="M252,898.36292 C252,889.879027 238,889.879027 238,898.36292 C238,908.545693 252,908.545693 252,898.36292" id="Fill-35-Copy" fill="#635D58"></path>
                <path d="M136.362608,1140.36463 C136.015498,1139.81797 135.668389,1139.27291 135.321279,1138.91115 C135.321279,1138.72786 134.974169,1138.72786 134.974169,1138.72786 C133.237085,1139.27291 132.020665,1138.72786 130.804245,1137.27277 C130.457135,1137.81943 130.110025,1138.36449 129.762915,1138.72786 C129.93647,1139.09123 130.110025,1139.4562 130.28358,1139.63789 C130.457135,1139.81797 130.804245,1140.36463 130.979335,1140.36463 L136.362608,1140.36463 Z M142.962301,1138.91115 C142.094527,1138.72786 141.747417,1139.09123 141.051662,1140.36463 L142.094527,1140.36463 L142.788746,1140.36463 C142.441636,1142.18308 142.094527,1143.81825 141.573862,1145.45502 C141.051662,1147.45516 141.573862,1149.09193 142.962301,1150.36533 C144.525831,1152.00049 146.089361,1153.63726 147.477799,1155.27242 C147.824909,1155.6374 148,1156.18245 148,1156.54582 L148,1165.99986 C148,1167.27326 147.305781,1168 146.262915,1168 C144.178721,1168 143.484502,1165.09144 146.957135,1160.72779 C145.22005,1156.90919 145.915806,1158.54596 144.352276,1154.72898 L142.788746,1154.72898 L142.788746,1155.6374 L142.788746,1165.63649 C142.788746,1166.7266 142.441636,1167.27326 141.573862,1167.45495 C140.530997,1167.63663 139.489668,1167.09158 139.314577,1165.99986 L139.314577,1165.09144 L139.314577,1145.27333 C139.314577,1144.72828 138.967467,1144.18322 138.967467,1143.63656 L137.926138,1143.63656 C137.752583,1144.18322 137.579028,1144.72828 137.579028,1145.27333 L137.579028,1165.63649 C137.579028,1166.54491 137.405473,1167.27326 136.536163,1167.63663 C135.321279,1168.18329 134.104859,1167.27326 134.104859,1165.99986 L134.104859,1155.6374 L134.104859,1154.54568 L132.367774,1154.54568 L132.367774,1155.45571 L132.367774,1165.99986 C132.367774,1167.27326 131.673555,1168 130.457135,1168 C129.242251,1168 128.895141,1167.27326 128.895141,1165.99986 L128.895141,1164.72646 L128.895141,1147.09179 C128.895141,1146.00007 128.72005,1144.90996 128.025831,1144.00154 C127.678721,1143.63656 127.505166,1143.27319 127.158056,1143.09151 L127.158056,1143.45488 L127.158056,1163.99972 C127.158056,1164.72646 127.158056,1165.45481 126.463837,1165.81818 C125.941636,1165.99986 125.247417,1166.18315 124.553197,1165.99986 C124.204552,1165.81818 123.683887,1165.09144 123.683887,1164.54638 L123.683887,1153.81894 L123.683887,1152.91052 C123.163223,1152.91052 124.204552,1152.91052 123.683887,1152.91052 L123.683887,1153.81894 L123.683887,1164.3647 C123.683887,1165.63649 122.989668,1166.36323 122.121893,1166.54491 C121.079028,1166.54491 120.209718,1165.81818 120.209718,1164.3647 L120.209718,1142.90982 C120.209718,1142.90982 119.515498,1141.63642 119.168389,1141.09137 C117.953505,1139.09123 116.737085,1137.27277 115.520665,1135.27263 C115.173555,1134.72758 115,1134.18252 115,1133.45578 L115,1125.27354 C115,1124.00014 115.694219,1123.2734 116.56353,1123.2734 C117.606395,1123.2734 118.474169,1124.00014 118.474169,1125.27354 L118.474169,1133.63586 C118.474169,1134.00084 118.647724,1134.54589 118.821279,1134.90926 C119.341944,1136.00098 120.037699,1136.91101 120.905473,1137.81943 C121.079028,1137.99951 121.426138,1138.36449 121.773248,1138.36449 L123.683887,1138.36449 L123.683887,1136.00098 C121.773248,1136.00098 120.037699,1134.54589 120.384809,1132.18238 C120.558364,1129.81887 125.420972,1129.09053 125.420972,1129.09053 L125.420972,1127.092 C125.420972,1127.092 125.768082,1125.27354 126.635856,1125.27354 C127.505166,1125.27354 127.158056,1127.092 127.158056,1127.092 L127.158056,1134.90926 L128.895141,1132.72744 L128.895141,1124.36512 C128.895141,1122.91003 129.589361,1122 130.804245,1122 C132.020665,1122 132.367774,1122.72835 132.367774,1124.36512 L132.367774,1130.90898 L132.367774,1131.81901 C133.06353,1131.81901 133.584194,1131.81901 134.104859,1131.63733 L134.104859,1126.91031 C134.104859,1125.81859 134.625524,1124.91017 135.494834,1124.91017 C136.536163,1124.72688 137.405473,1125.45683 137.579028,1126.91031 L137.579028,1134.90926 C137.579028,1135.81929 137.752583,1136.54603 138.446803,1137.27277 C138.967467,1136.72772 139.314577,1136.18266 139.314577,1135.45432 L139.314577,1126.54533 C139.314577,1125.27354 140.010332,1124.5468 140.878107,1124.5468 C141.920972,1124.5468 142.788746,1125.27354 142.788746,1126.54533 L142.788746,1131.09067 L144.525831,1131.09067 L144.525831,1129.09053 C144.525831,1128.00203 145.22005,1127.27368 146.089361,1127.27368 C146.957135,1127.27368 148,1128.00203 148,1128.91045 L148,1134.90926 C145.568696,1135.45432 143.831611,1136.54603 142.962301,1138.91115 L142.962301,1138.91115 Z" id="Fill-37-Copy" fill="#000000"></path>
                <path d="M160.136242,1174.52771 L154.531096,1174.52771 C154.350388,1174.52771 154.16968,1174.70764 153.987372,1174.70764 C152.541708,1176.32865 151.094445,1178.12958 149.647182,1179.93052 C151.275153,1181.37 152.903124,1182.81106 154.350388,1184.25054 C155.434636,1185.33174 155.615344,1186.41294 155.07322,1187.49255 C154.350388,1188.93361 152.361,1189.47342 151.094445,1188.39222 C148.743642,1186.41294 146.573547,1184.25054 144.042036,1181.91139 C142.77708,1180.83019 142.77708,1179.38912 143.861328,1178.12958 C146.573547,1174.70764 149.285766,1171.2873 152.178693,1167.86536 C152.361,1167.50549 152.541708,1167.14403 152.541708,1166.78575 L152.541708,1158.86226 C152.541708,1158.50239 152.361,1157.96259 151.999584,1157.78106 C149.468073,1155.08045 146.754255,1152.19991 144.042036,1149.31937 C143.138496,1148.41969 142.77708,1147.33849 143.138496,1145.89902 C143.68062,1143.91656 144.042036,1142.11721 144.58416,1140.13475 C144.945576,1138.51534 146.392839,1137.61407 147.840102,1137.97553 C149.285766,1138.3354 150.190905,1139.77488 149.829489,1141.21595 C149.468073,1142.65542 149.105058,1144.09808 148.743642,1145.53756 C148.743642,1145.89902 148.743642,1146.43723 148.92435,1146.61876 C150.008598,1147.8783 151.275153,1149.13943 152.541708,1150.39897 C152.722416,1150.57891 153.26454,1150.75884 153.445248,1150.75884 L163.211476,1150.75884 C163.211476,1150.75884 163.934308,1150.21904 164.115016,1149.85917 C165.381571,1148.05823 166.465819,1146.43723 167.551666,1144.63789 C167.732374,1144.27642 167.913082,1143.91656 168.635914,1143.37675 L168.635914,1126.63011 C167.913082,1125.37057 168.635914,1124.4693 169.90087,1124.10943 C171.167426,1123.74956 172.433981,1124.28937 172.976105,1125.5505 C173.156813,1125.91037 172.253273,1126.81004 172.253273,1126.81004 L172.253273,1145.35762 C172.253273,1146.07736 171.891857,1146.7971 171.530441,1147.33849 C169.360346,1150.57891 167.369359,1153.64098 165.381571,1156.88139 C165.018556,1157.24285 165.018556,1157.96259 165.018556,1158.32087 L165.018556,1192.17403 C165.018556,1194.1549 163.392184,1195.41444 161.402797,1194.87464 C160.31695,1194.51477 159.594118,1193.43357 159.594118,1191.99409 L159.594118,1175.42738 C160.136242,1175.42738 160.136242,1175.06751 160.136242,1174.52771" id="Fill-39-Copy" fill="#000000"></path>
                <path d="M178.678289,1142.21985 C180.285895,1142.21985 181.8935,1142.04161 183.321079,1142.21985 C184.393342,1142.39808 184.750237,1141.68514 185.107132,1140.97063 C185.464026,1140.25769 184.750237,1140.07945 184.57179,1139.72298 C184.57179,1139.54475 184.393342,1139.36494 184.214895,1139.18828 C183.142632,1140.61416 181.713474,1141.14886 179.929,1140.61416 C179.750553,1140.61416 179.570526,1140.61416 179.393658,1140.79397 C179.213631,1141.14886 179.036763,1141.68514 178.678289,1142.21985 M191.892868,1154.88397 L190.286842,1154.88397 L190.286842,1155.95338 L190.286842,1165.9424 L190.286842,1166.83358 C190.106816,1167.72633 189.393026,1168.26103 188.320763,1168.26103 C187.250079,1168.26103 186.714737,1167.54809 186.714737,1166.83358 L186.714737,1164.15848 L186.714737,1145.07475 L186.714737,1144.182 C186.000948,1145.25141 184.928684,1146.14259 184.928684,1147.74985 L184.928684,1168.26103 C184.928684,1168.26103 185.285579,1169.68691 184.750237,1169.86514 C184.214895,1170.04495 183.499526,1170.04495 183.142632,1169.86514 C182.428842,1169.68848 182.250395,1168.97397 181.356579,1168.26103 L181.356579,1157.91553 L181.356579,1156.66631 L181.356579,1157.7373 L181.356579,1168.08122 C180.642789,1168.97397 180.464342,1169.68691 179.570526,1169.86514 C178.499842,1170.22319 176,1168.26103 176,1168.26103 L176,1163.08749 L176,1147.21357 C177.250711,1146.85552 177.250711,1146.3224 177.070684,1146.14259 C176.535342,1145.60788 176,1144.182 176,1144.182 L176,1140.97063 C176,1140.97063 176.535342,1139.1867 177.250711,1138.47376 C177.427579,1138.29553 177.786053,1137.40278 177.786053,1137.40278 L177.786053,1129.19925 C177.786053,1127.95003 178.499842,1126.88063 179.750553,1126.88063 C180.999684,1126.88063 181.356579,1127.77338 181.356579,1129.19925 L181.356579,1133.48004 C182.071947,1133.48004 182.607289,1133.65827 183.142632,1133.65827 L183.142632,1127.77338 L183.142632,1125.63141 C183.142632,1124.562 183.856421,1124.0273 185.107132,1124.0273 C186.000948,1124.0273 186.714737,1124.74023 186.714737,1125.98788 L186.714737,1134.19298 L188.50079,1136.51161 L188.50079,1135.61886 L188.50079,1129.19925 C187.250079,1127.95003 187.963868,1127.2371 189.036132,1127.2371 C190.106816,1127.2371 190.286842,1129.19925 190.286842,1129.19925 L190.286842,1130.98318 C190.286842,1130.98318 193.500474,1130.80494 194.571158,1132.05259 C195.286526,1132.7671 195.464974,1133.65827 195.464974,1134.72768 C195.286526,1136.86808 193.678921,1137.93906 192.071316,1137.93906 L192.071316,1138.83181 L194.392711,1138.83181 C194.571158,1138.83181 194.929632,1138.652 194.929632,1138.47376 C195.643421,1137.40278 196.357211,1136.33495 197.251026,1135.26396 C197.607921,1134.72768 197.251026,1134.01474 197.429474,1133.48004 L197.429474,1126.52416 C197.251026,1125.27494 197.786369,1124.38219 198.857053,1124.0273 C199.929316,1123.84906 201,1124.562 201,1125.63141 L201,1135.61886 C201,1135.9769 200.821553,1136.51161 200.464658,1137.04789 C199.037079,1139.1867 197.607921,1141.32867 196.178763,1143.29083 C195.821868,1143.64572 195.643421,1144.35866 195.643421,1144.89494 L195.643421,1166.47711 C195.643421,1167.54809 195.108079,1168.26103 194.035816,1168.43926 C192.965132,1168.43926 192.249763,1167.72475 192.071316,1166.47711 L192.071316,1156.13161 C191.892868,1155.59691 191.892868,1155.24044 191.892868,1154.88397" id="Fill-41-Copy" fill="#000000"></path>
                <path d="M152,1142.3081 C152,1138.86747 154.8671,1136 158.5,1136 C162.1329,1136 165,1138.86747 165,1142.49915 C165,1145.93978 162.1329,1149 158.5,1149 C154.8671,1148.80895 152,1145.93978 152,1142.3081" id="Fill-43-Copy" fill="#000000"></path>
                <path d="M170.000442,1155.45713 L170.000442,1159.59817 L170.000442,1166.97468 C170.000442,1168.23514 169.199204,1168.77465 168,1168.77465 L168,1167.51579 L168,1158.33771 C168,1157.97804 168.199867,1157.43694 168.399735,1157.2571 C170.799912,1154.01843 173.399956,1150.59834 175.600265,1147.35967 C175.600265,1147.35967 175.800133,1147.17984 176,1147 L176,1147.71935 L176,1166.97468 C176,1168.0553 175.400398,1168.77465 174.401061,1168.95449 C173.599823,1169.13592 172.600486,1168.77465 172.200752,1167.87546 C172.000884,1167.51579 172.000884,1167.15611 172.000884,1166.79644 L172.000884,1156.53775 L172.000884,1155.45872 C171.401282,1155.45713 170.799912,1155.45713 170.000442,1155.45713" id="Fill-45-Copy" fill="#000000"></path>
                <path d="M151.983729,1129.23088 C152.339969,1129.23088 152.515735,1129.06177 152.870406,1129.06177 C153.935988,1128.89116 154.645329,1129.56912 155,1130.41469 L155,1130.75442 C155,1132.10735 154.824234,1133.29265 153.226646,1133.96912 C152.339969,1134.30884 151.629058,1135.32204 150.919717,1136 C150.386141,1135.66177 149.6768,1135.32204 149.144794,1134.81469 C148.967458,1134.64558 148.790123,1134.47646 149.6768,1134.30884 L149.6768,1126.69265 C148.790123,1125.67646 149.499464,1125 150.565046,1125 C151.451723,1125 152.161065,1125.67646 152.161065,1126.69265 C151.983729,1127.70735 151.983729,1128.55442 151.983729,1129.23088" id="Fill-47-Copy" fill="#000000"></path>
                <path d="M161.515732,1128.69848 C161.86385,1127.5106 162.561628,1127 163.431925,1127 C164.303762,1127.1697 164.8244,1127.67879 165,1128.35909 L165,1136 C163.257866,1134.30152 161.341672,1133.28483 159.07736,1133.28483 C159.07736,1132.09544 158.9033,1130.73636 159.07736,1129.54697 C159.07736,1128.69848 160.121716,1128.35909 161.515732,1128.69848" id="Fill-49-Copy" fill="#000000"></path>
                <path d="M125.361743,1108 C125.533396,1108.17227 126.048354,1108.34762 126.220007,1108.69524 C126.393178,1109.0444 126.220007,1109.56583 125.876701,1109.91191 C125.361743,1110.60869 125.190091,1111.30392 125.533396,1112.0007 C126.048354,1112.86975 126.736484,1113.7388 127.423094,1114.60939 C127.938052,1115.30463 128.454529,1115.82759 128.624663,1116.52283 C129.312793,1117.91331 128.969487,1119.13152 128.281358,1120.34819 C127.938052,1121.04343 127.079789,1121.21878 126.564831,1120.69735 C125.876701,1120.17438 125.876701,1119.65295 126.393178,1119.13152 C126.908136,1118.26247 126.736484,1117.39188 126.220007,1116.69511 C125.533396,1115.82606 124.846785,1114.95701 124.158655,1114.08796 C123.128739,1112.86975 122.785434,1111.47927 123.128739,1110.08572 C123.472045,1109.21667 124.331827,1108.17381 125.361743,1108" id="Fill-51-Copy" fill="#000000"></path>
                <path d="M192,1111.48127 C191.840311,1111.66209 191.679208,1112.02533 191.359829,1112.20614 C189.922625,1112.7486 189.603246,1113.47187 189.762936,1115.10083 C189.922625,1116.18574 190.082314,1117.45306 190.082314,1118.53957 C190.242004,1120.34774 189.283868,1122.15752 187.84525,1122.88239 C187.364769,1123.06161 186.885701,1123.06161 186.406633,1122.70158 C185.767875,1122.15912 185.927565,1121.25343 186.566322,1120.8918 C187.524458,1120.34934 188.004939,1119.44526 187.84525,1118.35875 C187.84525,1117.09142 187.524458,1116.00492 187.524458,1114.73919 C187.366182,1112.56778 188.643697,1110.39637 190.401693,1110.03473 C191.359829,1109.85231 192,1110.39637 192,1111.48127" id="Fill-53-Copy" fill="#000000"></path>
                <path d="M149.527043,1106 C151.353798,1106 152.848683,1107.41834 153.346489,1109.37013 C153.512424,1110.25817 153.678359,1111.14463 153.844294,1112.03266 C154.177633,1113.45101 154.67397,1114.51633 156.168856,1114.69362 C156.834065,1114.69362 157,1115.2255 157,1115.93467 C156.834065,1116.64541 156.334791,1117 155.67105,1117 C154.177633,1117 152.68128,1115.75738 152.184943,1114.16018 C151.851604,1113.09642 151.685668,1112.03266 151.519733,1111.14463 C151.353798,1110.43546 151.021928,1109.72472 150.855993,1109.19284 C150.524122,1108.48367 150.024848,1108.30638 149.361107,1108.30638 C148.531431,1108.30638 148.032157,1108.12751 148.032157,1107.41834 C147.866222,1106.70917 148.364028,1106.17729 149.029237,1106 L149.527043,1106 Z" id="Fill-55-Copy" fill="#000000"></path>
                <path d="M143.973027,1119.86445 C143.789537,1118.75651 143.789537,1117.83458 143.606047,1116.72663 C143.422557,1115.98909 142.872087,1115.43593 142.136503,1115.43593 C141.402543,1115.43593 140.852073,1115.06716 141.035563,1114.1436 C141.035563,1113.40606 141.769523,1112.85127 142.686973,1113.03566 C144.708611,1113.22168 146.360022,1115.06716 146.360022,1117.27979 L146.360022,1120.23322 C146.360022,1121.70994 146.543512,1123.18502 148.380036,1123.73818 C148.930506,1123.92256 149.11562,1124.47735 148.930506,1125.03051 C148.747016,1125.76805 148.013056,1126.13845 147.279096,1125.95244 C145.626062,1125.58366 144.523498,1124.29297 144.156517,1122.63186 C143.973027,1121.70994 143.973027,1120.97076 143.973027,1119.86445 C143.789537,1119.86445 143.973027,1119.86445 143.973027,1119.86445" id="Fill-57-Copy" fill="#000000"></path>
                <path d="M174.85561,1110.82373 C174.85561,1112.25099 174.278048,1113.32302 173.121221,1114.21506 C172.351139,1114.93027 171.388536,1115.6439 170.61675,1116.35753 C169.846668,1117.07274 169.269107,1118.14319 169.846668,1119.21364 C170.231709,1119.92885 170.039189,1120.46407 169.461627,1120.82089 C168.689841,1121.17929 167.919759,1120.9993 167.534718,1120.28567 C166.572116,1118.8584 166.957157,1116.71435 168.3048,1115.46391 C169.076586,1114.75028 170.039189,1114.03665 171.003495,1113.14461 C171.388536,1112.78621 171.773577,1112.25099 172.158618,1111.71577 C172.54366,1111.00056 172.351139,1110.46533 171.966098,1109.93169 C171.388536,1109.39488 171.388536,1108.85966 171.966098,1108.32444 C172.54366,1107.78763 173.506262,1107.96604 173.893007,1108.50126 C174.470569,1109.21648 174.663089,1110.11009 174.85561,1110.82373 C175.04813,1110.82373 175.04813,1110.82373 174.85561,1110.82373" id="Fill-59-Copy" fill="#000000"></path>
                <path d="M149,1167 L149,1158 C149.904,1158.65402 150.81,1159.14598 150.584,1160.12701 C150.356,1161.4365 150.356,1162.90949 150.584,1164.21752 C150.81,1165.52701 150.356,1166.34598 149,1167" id="Fill-61-Copy" fill="#000000"></path>
                <path d="M197,1117.62023 C197,1116.64752 197.666339,1116 198.500737,1116 C199.333661,1116 200,1116.64752 200,1117.45835 C200,1118.26775 199.333661,1118.91526 198.500737,1118.91526 C197.666339,1119.24046 197,1118.59151 197,1117.62023" id="Fill-63-Copy" fill="#000000"></path>
                <path d="M160.5,1117 C161.332515,1117 162,1117.63128 162,1118.42179 C162,1119.36872 161.332515,1120 160.5,1120 C159.667485,1120 159,1119.36872 159,1118.42179 C159,1117.63128 159.667485,1117 160.5,1117" id="Fill-65-Copy" fill="#000000"></path>
                <path d="M178,1114.42113 C178,1113.63239 178.666339,1113 179.500737,1113 C180.333661,1113 181,1113.63239 181,1114.57887 C181,1115.52536 180.333661,1116 179.332678,1116 C178.499754,1115.84225 178,1115.20987 178,1114.42113" id="Fill-67-Copy" fill="#000000"></path>
                <path d="M163.5,1113 C162.667485,1113 162,1112.52654 162,1111.57821 C162,1110.63128 162.667485,1110 163.5,1110 C164.332515,1110 165,1110.63128 165,1111.42039 C165,1112.36872 164.332515,1113 163.5,1113" id="Fill-69-Copy" fill="#000000"></path>
                <path d="M135.5,1119 C136.332515,1119 137,1119.63128 137,1120.42179 C137,1121.21089 136.332515,1122 135.5,1122 C134.667485,1122 134,1121.36872 134,1120.57961 C134,1119.63128 134.667485,1119 135.5,1119" id="Fill-71-Copy" fill="#000000"></path>
                <path d="M121,1118.42113 C121,1119.36901 120.332515,1120 119.5,1120 C118.667485,1120 118,1119.36901 118,1118.57887 C118,1117.79013 118.667485,1117 119.5,1117 C120.332515,1117 121,1117.47324 121,1118.42113" id="Fill-73-Copy" fill="#000000"></path>
                <path d="M136,1141 L131.135755,1141 C130.973709,1141 130.649618,1140.64587 130.486138,1140.29485 C130.324092,1140.11856 130.162046,1139.76443 130,1139.41186 C130.324092,1138.883 130.649618,1138.53042 130.973709,1138 C131.945985,1139.41186 133.243786,1139.94072 134.864245,1139.41186 C135.027725,1139.41186 135.189771,1139.41186 135.189771,1139.58814 C135.351816,1139.94072 135.675908,1140.29485 136,1141" id="Fill-75-Copy" fill="#FFFFFF"></path>
                <path d="M178,1142.97284 C178.320742,1142.44849 178.64007,1141.9226 178.798322,1141.57458 C178.959399,1141.39825 179.119063,1141.39825 179.278728,1141.39825 C180.876784,1141.9226 181.994435,1141.39825 183.113498,1140 C183.273162,1140.17323 183.432827,1140.34956 183.432827,1140.52435 C183.592491,1140.87546 184.231149,1141.22347 183.91182,1141.74936 C183.592491,1142.44849 183.273162,1143.14762 182.313763,1142.97284 C180.715707,1142.79805 179.438392,1142.97284 178,1142.97284" id="Fill-77-Copy" fill="#FFFFFF"></path>
                <path d="M374.5,442 C396.314073,442 414,459.68434 414,481.5 C414,503.31566 396.314073,521 374.5,521 C352.68434,521 335,503.31566 335,481.5 C335,459.68434 352.68434,442 374.5,442 Z" id="Stroke-79-Copy" stroke="#000000" stroke-width="1.5"></path>
                <path d="M95.5,442 C117.31566,442 135,459.68434 135,481.5 C135,503.31566 117.31566,521 95.5,521 C73.6843396,521 56,503.31566 56,481.5 C56,459.68434 73.6843396,442 95.5,442 Z" id="Stroke-81-Copy" stroke="#000000" stroke-width="1.5"></path>
                <path d="M95.5,355 C117.31566,355 135,372.68434 135,394.5 C135,416.314073 117.31566,434 95.5,434 C73.6843396,434 56,416.314073 56,394.5 C56,372.68434 73.6843396,355 95.5,355 Z" id="Stroke-83-Copy" stroke="#000000" stroke-width="1.5"></path>
                <path d="M91.5,123 C113.31566,123 131,140.685927 131,162.5 C131,184.31566 113.31566,202 91.5,202 C69.6843396,202 52,184.31566 52,162.5 C52,140.685927 69.6843396,123 91.5,123 Z" id="Stroke-85-Copy" stroke="#000000" stroke-width="1.5"></path>
                <path d="M94.5,527 C116.31566,527 134,544.68434 134,566.5 C134,588.31566 116.31566,606 94.5,606 C72.6843396,606 55,588.31566 55,566.5 C55,544.68434 72.6843396,527 94.5,527 Z" id="Stroke-87-Copy" stroke="#000000" stroke-width="1.5"></path>
                <path d="M94.5,817 C116.31566,817 134,834.685927 134,856.5 C134,878.31566 116.31566,896 94.5,896 C72.6843396,896 55,878.31566 55,856.5 C55,834.685927 72.6843396,817 94.5,817 Z" id="Stroke-89-Copy" stroke="#000000" stroke-width="1.5"></path>
                <text id="1-copy" font-family="AvenirNext-Bold, Avenir Next" font-size="36" font-weight="bold" fill="#6390B1">
                    <tspan x="232" y="177">1</tspan>
                </text>
                <text id="2-copy" font-family="AvenirNext-Bold, Avenir Next" font-size="36" font-weight="bold" fill="#6390B1">
                    <tspan x="232" y="494">2</tspan>
                </text>
                <text id="4-copy" font-family="AvenirNext-Bold, Avenir Next" font-size="36" font-weight="bold" fill="#6390B1">
                    <tspan x="231" y="1178">4</tspan>
                </text>
                <text id="3-copy" font-family="AvenirNext-Bold, Avenir Next" font-size="36" font-weight="bold" fill="#6390B1">
                    <tspan x="234" y="871">3</tspan>
                </text>
                <path d="M42.5751435,565 L35.4187782,565 L32.018595,565 C24.5046487,565 22,570.70014 22,577.666044 L22,579.24965 L22,590.333489 L22,609.333956 C22,616.29986 24.681857,622 32.018595,622 L38.8173793,622 L224,622" id="Stroke-165-Copy" stroke="#477393" stroke-width="0.972" stroke-dasharray="4.926,4.926"></path>
                <path d="M226,620 L231,620" id="Stroke-167-Copy" stroke="#477393" stroke-width="0.972"></path>
                <polygon id="Fill-169-Copy" fill="#477393" points="220.546679 627 220 625.402796 230.909456 621.499216 220 617.595635 220.546679 616 236 621.499216"></polygon>
                <path d="M42.639236,854 L35.3446184,854 L31.9632265,854.179356 C24.4908066,854.179356 22,863.872536 22,875.898936 L22,878.589281 L22,897.615341 L22,930.283595 C22,942.308407 24.668609,952 31.9632265,952 L38.7244369,952 L359,952" id="Stroke-173-Copy" stroke="#477393" stroke-width="0.972" stroke-dasharray="4.842000000000001,4.842"></path>
                <polygon id="Fill-177-Copy" fill="#477393" points="357.545071 957 357 955.401455 367.907848 951.5 357 947.596977 357.545071 946 373 951.5"></polygon>
                <path d="M91,216 L91,221" id="Stroke-195-Copy" stroke="#477393"></path>
                <path d="M91,221 L91,234.912792 C91,242.660289 97.4485761,249 105.329113,249 L230,249" id="Stroke-197-Copy" stroke="#477393" stroke-dasharray="5.143,5.143"></path>
                <path d="M233,249 L238,249" id="Stroke-199-Copy" stroke="#000000"></path>
                <polygon id="Fill-201-Copy" fill="#477393" points="226.702818 254 226 252.280918 236.901458 248.49924 226 244.719082 226.702818 243 242 248.49924"></polygon>
                <path d="M91.6678796,125.01172 C91.6740369,126.142057 91.3353844,127.840898 92.2081841,128.212675 C92.3821284,128.211008 92.5560726,128.211008 92.7300168,128.209341 C93.9476263,128.202672 93.2410741,126.322111 93.408861,125.00005 C94.2785821,124.995048 94.8034934,125.368493 95.5008095,125.553548 C95.5054275,126.495496 95.5115849,127.437444 95.6886077,128.191002 C96.7353517,128.372723 97.2541056,127.80422 97.0740041,126.673883 C98.9981658,128.357719 100.574439,130.233279 100.766855,133.625958 C101.639655,133.997736 102.34005,134.746292 101.824374,135.881631 C95.5577647,135.921643 89.4650993,135.959988 83.1984897,136 C82.8459832,135.059719 82.8382866,133.740992 84.2313796,133.921046 C84.2113683,130.14992 85.9431138,128.442744 87.4993758,126.547178 C88.0242871,127.109013 87.682556,128.431074 88.9001654,128.045959 C89.5928636,127.664178 89.4127621,126.345451 89.4066048,125.403504 C90.2778652,125.396835 90.7981585,125.016721 91.6678796,125.01172" id="Fill-203-Copy" fill="#A7A7A7"></path>
                <path d="M101.860489,138.206042 C103.950726,150.561052 81.8058664,149.309604 85.3942137,138.125548 C90.7006967,138.268311 96.9180181,137.718524 101.860489,138.206042" id="Fill-205-Copy" fill="#A7A7A7"></path>
                <path d="M91.2330958,153.730435 C92.5177497,154.645188 94.3437356,154.633774 95.618694,153.704346 C95.4296317,152.598815 95.2389535,151.493285 94.8689086,150.57364 C91.9408674,149.854556 91.2201685,151.517744 91.2330958,153.730435 M115,155.617012 C112.624602,155.814311 110.624097,157.487282 108.612281,157.130186 C106.60208,156.957345 105.674544,154.749545 103.845326,154.392449 C103.302378,155.318616 103.861486,157.157906 103.686967,158.450953 C100.763773,158.651514 98.5774376,159.771719 95.6542442,159.973911 C95.6445487,158.313984 95.0902892,157.210084 95.0789778,155.365903 C94.7121647,155.000654 92.5242133,155.750719 91.7889712,155.202845 C91.9828812,157.045396 91.2605664,158.340074 91.268646,160 C88.3438366,159.832051 86.1461897,158.739565 83.2213803,158.573246 C83.2133008,157.28183 83.2052212,155.806158 83.1971416,154.516373 C81.3727715,155.080552 80.1026609,156.562746 78.4625054,157.30955 C76.2680904,156.954084 74.0720595,156.598618 72.0586271,155.873012 C71.6901981,155.321877 73.1429073,153.838053 74.0526685,153.096141 C76.5977374,150.867144 82.6008683,146.221633 87.9043072,147.111927 C90.8307325,147.648387 94.8689086,150.389385 98.5031055,147.048335 C106.542292,147.001048 111.685755,151.579705 115,155.617012" id="Fill-207-Copy" fill="#A7A7A7"></path>
                <path d="M71,158.269063 C78.2359089,159.682046 85.1195309,161.462373 92.3554398,162.875357 C92.7233146,165.424205 91.6882772,169.439204 92.9321926,171.253365 C94.1636377,170.881188 93.6242959,168.880133 93.6149431,167.422037 C93.6071492,165.963942 93.5962376,164.143336 93.5900025,162.867301 C100.631062,161.185254 107.495979,159.503208 114.890885,158 C114.926737,164.376954 114.964148,170.753907 115,177.130861 C111.302547,177.881659 107.781238,178.632458 104.083785,179.383256 C100.562476,180.134054 96.871258,181.977216 93.346831,181.999773 C89.8208453,182.020718 85.5824919,180.590011 82.0533886,179.882714 C78.5227265,178.993356 74.9905055,177.921938 71.2868176,177.398312 C71.0732632,171.02297 71.0358522,164.646016 71,158.269063" id="Fill-209-Copy" fill="#A7A7A7"></path>
                <path d="M68.7514003,160 C69.2581906,164.250308 68.8013655,169.392365 68.9883783,174 C63.3308855,172.796373 67.1525126,162.846076 68.7514003,160" id="Fill-211-Copy" fill="#A7A7A7"></path>
                <path d="M83.2860142,188 C82.9385004,188.001396 82.9400381,188.318288 83.118408,188.790135 C83.123021,189.578874 83.1260964,190.211261 83.132247,191 L92,190.952536 C91.9969247,190.479293 91.995387,190.163797 91.9923116,189.689158 C89.2060504,189.073523 86.2460323,188.457887 83.2860142,188" id="Fill-213-Copy" fill="#A7A7A7"></path>
                <path d="M94,181.910591 C94.0015904,182.221458 94.0047712,182.687758 94.0079519,183 L103,182.953232 C102.992048,181.863824 102.805973,180.9326 102.619898,180 C99.7460682,180.481431 96.6909348,180.964237 94,181.910591" id="Fill-215-Copy" fill="#A7A7A7"></path>
                <path d="M96.9142114,466.990993 C100.957106,467.171368 105,464.644521 105,459.230076 C105,456.701632 103.944589,454.535535 102.363803,452.912159 C100.781463,451.287187 98.4965514,450.746061 96.0359971,451.106812 C94.1023714,451.287187 92.3443885,452.190658 91.1148885,453.453284 C89.8838342,454.717506 89.0056199,456.521257 89.0056199,458.687354 C88.8284227,463.92302 92.871317,466.810618 96.9142114,466.990993" id="Fill-217-Copy" fill="#A7A7A7"></path>
                <path d="M115.435761,464.765114 C114.011509,464.765114 112.407651,464.059762 111.337887,463.000173 C110.269698,461.942145 109.557572,460.529881 109.913635,459.117616 C110.447729,457.352676 112.763714,457.88325 114.367572,459.295515 C115.969855,460.882557 117.039619,463.176511 115.435761,464.765114 M109.735604,463.707086 C108.66584,462.294821 108.131745,460.529881 109.199934,459.117616 C109.021902,460.529881 109.377965,461.942145 110.269698,463.176511 C111.159855,464.412438 112.407651,465.11779 114.187965,465.11779 C112.585682,465.824702 110.803792,465.11779 109.735604,463.707086 M111.159855,457 L109.377965,457 C108.66584,457 108.131745,457.177899 108.131745,457.177899 C105.993793,459.295515 102.964107,462.118483 99.7579659,465.11779 C96.7282805,468.117096 93.3441078,471.117963 90.6720608,473.588256 C88.890171,475.176858 87.1098566,476.411224 86.0400925,477.999827 C84.9703284,479.412091 84.6142656,481.177032 85.5044227,484 C88.890171,482.058722 92.2759192,479.588429 95.6600919,477.294475 C99.0458402,475.00052 102.608044,472.530228 105.993793,470.234713 C107.41962,469.353023 109.199934,467.942319 110.981824,466.88273 C112.763714,466.00104 114.545603,465.646804 116.505525,466.706392 C117.395682,464.2361 117.039619,461.942145 115.793399,460.177205 C114.723635,458.412264 112.763714,457.177899 111.159855,457" id="Fill-219-Copy" fill="#A7A7A7"></path>
                <path d="M84.5314631,484.903659 C85.0753506,483.101166 86.16473,481.660446 87.4338008,480.578312 L87.4338008,482.380806 L87.4338008,484.183299 C88.8857719,483.101166 90.7003346,481.480356 92.3319971,479.857952 C94.1465598,478.235549 95.7798267,476.613145 97.4130935,475.172425 C97.956981,474.632155 98.6821644,474.090291 99.2276563,473.550021 C99.7715438,473.009751 100.134135,472.467888 99.9528396,472.107708 C97.7756852,472.467888 95.7798267,472.287798 93.965264,472.107708 C92.1523056,471.927618 90.5174344,471.927618 88.704476,472.467888 C85.8021383,473.369931 83.2607879,475.712695 81.2649294,478.595729 C79.4503667,481.660446 78.1812958,485.263839 78,488.868827 C78,491.75186 78.3625917,494.456398 79.087775,496.979251 C79.8145627,499.502105 80.9023377,501.664779 81.9917171,503.827452 C86.16473,504.547812 86.7086175,502.925409 86.3460258,500.582645 C85.8021383,498.059791 84.3501673,494.816578 83.9875756,491.93195 C83.624984,489.048917 83.9875756,486.706153 84.5314631,484.903659" id="Fill-221-Copy" fill="#A7A7A7"></path>
                <path d="M111.368452,468.651476 C111.723467,468.834002 111.723467,469.016528 111.545959,469.199054 C111.368452,469.564106 111.190944,469.930773 111.190944,470.295825 C111.190944,471.575123 111.545959,472.670279 112.255991,473.76705 C112.967593,474.862206 114.03264,475.592311 115.099257,475.957363 C113.500116,476.32403 111.900975,475.227258 111.190944,473.582909 C110.480912,471.940175 110.124326,469.930773 111.368452,468.651476 M114.210147,468.286423 C115.276765,468.46895 116.51932,469.564106 117.051843,471.025929 C117.585938,472.487753 117.763446,474.313013 116.874336,475.592311 C114.742671,476.139889 112.967593,474.313013 112.433498,472.305227 C111.723467,470.113299 112.078483,468.103897 114.210147,468.286423 M106.750106,484.542547 C108.170169,483.629917 110.480912,482.533146 112.967593,481.255463 C115.454273,479.976166 117.585938,478.514342 118.295969,477.23666 C119.716032,475.227258 118.828493,472.121085 117.051843,469.930773 C115.276765,467.738845 112.788514,466.277022 110.835928,467.372178 C108.525185,468.834002 106.216012,470.295825 104.084347,471.756033 C101.952683,473.217857 99.821018,474.862206 97.6893533,476.506556 C95.5592595,478.14929 93.2485161,479.611114 91.1168514,481.071322 C88.9851867,482.533146 86.8550928,484.177495 84.7234281,486.004371 C85.6109672,487.831246 86.4985063,490.570752 86.3209985,492.76268 C86.3209985,494.954607 85.2559516,496.598957 82.4126847,496.049763 C80.9926222,495.867237 80.28102,495.137133 79.7484966,494.040362 C79.2159731,492.945206 78.8609575,491.483382 78.5059418,490.2057 C77.439324,490.570752 76.5517849,491.11833 75.6642458,491.848434 C74.7751359,492.578538 73.8875968,493.492784 72.820979,494.405414 C71.9334399,494.954607 70.6893143,495.502185 69.6242673,496.232289 C68.5576496,496.964009 67.4926026,497.694113 67.1360161,498.606743 C66.7810005,500.068567 67.1360161,501.712916 68.0251261,502.990598 C68.9126652,504.269896 70.1567908,505 71.4009164,505 C71.9334399,505 72.4659633,504.817474 73.1775655,504.452422 L73.3535024,504.269896 L73.3535024,499.155936 L73.3535024,494.040362 C73.3535024,494.040362 73.8875968,493.492784 74.9526437,493.127732 C75.8401828,492.76268 77.2618162,492.76268 78.6834496,494.040362 C79.7484966,495.137133 80.1050831,496.049763 79.9260044,496.781483 C79.9260044,497.511587 79.5709887,497.876639 79.5709887,497.876639 L82.0576691,497.876639 L83.3017947,497.876639 C86.1434907,496.049763 89.1642653,494.405414 92.0059613,492.76268 C96.979322,490.2057 101.776746,487.282053 106.750106,484.542547" id="Fill-223-Copy" fill="#A7A7A7"></path>
                <path d="M76.8744671,494 C75.7489342,495.8 74.1430602,496.945981 72.6963524,498.254019 C71.2496447,499.563505 69.802937,500.87299 69,503 C70.2861203,502.344534 71.8934154,501.363505 73.4992894,500.217524 C75.1065846,499.071543 76.7138797,497.92701 78,496.781029 C77.6774041,496.454019 77.6774041,495.8 77.6774041,495.145981 C77.3562293,494.654019 77.1956419,494.163505 76.8744671,494" id="Fill-225-Copy" fill="#A7A7A7"></path>
                <path d="M107,486.188285 C107,486 107,486 107,486.188285 C107,486 106.825815,486 106.825815,486 C103.68895,488.261087 100.550544,490.145604 97.4121369,492.028454 C94.2752718,493.912971 90.9626805,495.797488 88,497.87029 L88,499 L96.7153983,499 L96.7153983,497.49372 C96.7153983,497.117149 96.5412137,496.174058 96.5412137,495.420918 C96.5412137,494.666111 96.7153983,494.102922 97.5878631,494.102922 C98.110417,494.289541 98.4587863,495.042681 98.4587863,495.609203 C98.4587863,496.362343 98.2846017,497.117149 98.2846017,497.682005 L98.2846017,499 L98.9813403,499 L107,499 L107,486.188285 Z" id="Fill-227-Copy" fill="#A7A7A7"></path>
                <path d="M94.7231765,358 C94.7231765,359.137064 94.3752666,360.844336 95.2450414,361.223357 L95.7684457,361.223357 C96.9861303,361.223357 96.2903105,359.328251 96.4642655,358 C97.3340402,358 97.8574445,358.379021 98.5532643,358.568532 C98.5532643,359.517762 98.5532643,360.465315 98.7272192,361.223357 C99.7724884,361.412868 100.294353,360.844336 100.120398,359.707272 C102.035442,361.412868 103.602576,363.309651 103.774992,366.724196 C104.646306,367.103217 105.342126,367.861259 104.820261,369 L86.1932263,369 C85.8453164,368.05077 85.8453164,366.724196 87.2384954,366.913706 C87.2384954,363.12014 88.9795843,361.412868 90.5451789,359.517762 C91.0670437,360.086294 90.7191338,361.412868 91.9383579,361.033847 C92.6341777,360.654825 92.4602228,359.328251 92.4602228,358.379021 C93.3315369,358.379021 93.8534018,358 94.7231765,358" id="Fill-229-Copy" fill="#A7A7A7"></path>
                <path d="M104.870373,371.236249 C106.882372,383.625768 84.7520068,382.248648 88.4088624,371.064299 C93.7138099,371.236249 99.9325669,370.720399 104.870373,371.236249" id="Fill-231-Copy" fill="#A7A7A7"></path>
                <path d="M94.2446034,386.743821 C95.524399,387.663129 97.3503699,387.663129 98.6301654,386.743821 C98.4475683,385.639023 98.2649712,384.535853 97.899777,383.616545 C94.9766077,382.879471 94.2446034,384.535853 94.2446034,386.743821 M118,388.767927 C115.623006,388.951788 113.614438,390.608171 111.604254,390.23882 C109.59407,390.054959 108.681085,387.846991 106.853498,387.479268 C106.304091,388.400203 106.853498,390.23882 106.669285,391.527479 C103.746116,391.711341 101.553335,392.814511 98.6301654,393 C98.6301654,391.343618 98.0823741,390.23882 98.0823741,388.400203 C97.715564,388.03248 95.524399,388.767927 94.7923947,388.216342 C94.9766077,390.054959 94.2446034,391.343618 94.2446034,393 C91.3214341,392.814511 89.1286531,391.711341 86.2038679,391.527479 L86.2038679,387.479268 C84.377897,388.03248 83.0981015,389.503373 81.4531118,390.23882 C79.2619467,389.871097 77.0691657,389.503373 75.0573659,388.767927 C74.6921718,388.216342 76.1545644,386.743821 77.0691657,386.006747 C79.6271409,383.798779 85.6560766,379.20061 90.9562399,380.119918 C93.8794093,380.671503 97.899777,383.431056 101.553335,380.119918 C109.59407,380.119918 114.710021,384.719715 118,388.767927" id="Fill-233-Copy" fill="#A7A7A7"></path>
                <path d="M75,390 C82.2458271,391.464659 89.1369415,393.297104 96.3812061,394.763384 C96.7343561,397.328158 95.6749059,401.359212 96.9109312,403.191656 C98.1485191,402.825491 97.6187939,400.809964 97.6187939,399.343685 L97.6187939,394.763384 C104.686483,393.114021 111.577598,391.464659 119,390 L119,409.238237 C115.288799,409.970566 111.754173,410.702896 108.042972,411.435226 C104.509908,412.169176 100.798707,414 97.2656439,414 C93.7310178,414 89.4900916,412.535341 85.9554656,411.803011 C82.4224022,410.885979 78.8877761,409.785864 75.176575,409.238237 C75,402.825491 75,396.412746 75,390" id="Fill-235-Copy" fill="#A7A7A7"></path>
                <path d="M73.7801313,396 C74.2602153,400.253442 73.7801313,405.392365 73.9401593,410 C68.3349304,408.760327 72.178435,398.835106 73.7801313,396" id="Fill-237-Copy" fill="#A7A7A7"></path>
                <path d="M86.2884705,418 C85.9402558,418 85.9402558,418.315642 86.1143631,418.789106 L86.1143631,421 L95,421 L95,419.73743 C92.212742,419.106145 89.2498358,418.473464 86.2884705,418" id="Fill-239-Copy" fill="#A7A7A7"></path>
                <path d="M97,413.894369 L97,415 L106,415 C106,413.894369 105.820127,412.946487 105.640255,412 C102.7607,412.473243 99.6996816,412.946487 97,413.894369" id="Fill-241-Copy" fill="#A7A7A7"></path>
                <path d="M78.0613001,410.116108 C79.3080446,409.676217 80,410.555998 80,411.583708 C79.8616089,413.491198 76.3993823,413.637828 77.0913377,410.997187 C77.0913377,410.849259 77.506511,410.262738 78.0613001,410.116108" id="Fill-243-Copy" fill="#A7A7A7"></path>
                <path d="M114.120072,410.077163 C115.240144,409.786633 115.799562,410.368979 115.939416,410.95004 C116.498833,413.420834 113,413.711365 113,411.531101 C113,410.65951 113.420801,410.222429 114.120072,410.077163" id="Fill-245-Copy" fill="#A7A7A7"></path>
                <path d="M111.846866,428.459726 C112.204758,427.945747 111.846866,426.230968 111.66792,425.201494 C111.129499,422.80141 110.771607,420.743979 110.234769,418.515221 C110.055823,417.314421 110.234769,415.943811 109.34004,415.256989 C101.817977,414.914337 91.9696176,414.914337 84.6280844,415.256989 C83.9107172,416.115137 83.5528254,419.202042 83.1949336,421.602126 C83.014404,422.80141 82.6565122,423.658042 82.4791499,424.858842 C82.2986204,425.888315 81.7617827,427.772905 82.1212581,428.2884 C82.8370417,429.660526 85.7017599,428.459726 87.6717485,428.802378 C87.3138567,427.258926 86.9543813,425.201494 87.3138567,423.315389 C88.5664781,422.630084 91.6117258,422.458758 92.6854012,423.488231 C93.0432931,425.201494 92.6854012,427.430252 92.3275094,428.802378 L101.639031,428.802378 C101.281139,427.430252 100.563772,425.201494 101.281139,423.315389 C102.535344,422.630084 105.757954,422.458758 106.652684,423.488231 C107.191105,425.545663 106.473738,427.430252 106.115846,428.631052 C108.264781,428.459726 110.952137,429.660526 111.846866,428.459726" id="Fill-247-Copy" fill="#A7A7A7"></path>
                <path d="M79.0858585,423.983649 C73.7036134,424.316999 75.2742612,419.480461 75.0501663,416.144001 C75.7224511,414.809122 78.4135736,414.642447 79.3099534,415.643975 C80.8806012,417.645556 79.3099534,422.148743 79.0858585,423.983649" id="Fill-249-Copy" fill="#A7A7A7"></path>
                <path d="M113.474331,423.983737 C113.0538,421.827223 112.351674,415.357682 114.315394,415.026137 C115.297874,414.858897 115.578228,415.523455 116,416.186546 C115.718405,419.504937 116.700885,424.315283 113.474331,423.983737" id="Fill-251-Copy" fill="#A7A7A7"></path>
                <path d="M73.9108729,394.880732 C74.7642811,398.919958 69.213352,398.919958 69,395.553606 C69,392.635836 73.2708168,391.962963 73.9108729,394.880732" id="Fill-253-Copy" fill="#FFFFFF"></path>
                <path d="M73.8773054,408.819904 C74.9356112,413.243522 68.7936916,412.801356 69.0053528,409.040987 C69.2170139,406.8282 73.242322,405.943867 73.8773054,408.819904" id="Fill-255-Copy" fill="#FFFFFF"></path>
                <path d="M75.0613001,179.116108 C76.3080446,178.676217 77,179.555998 77,180.583708 C76.8616089,182.491198 73.3993823,182.637828 74.0913377,179.997187 C74.0913377,179.849259 74.5077357,179.262738 75.0613001,179.116108" id="Fill-257-Copy" fill="#A7A7A7"></path>
                <path d="M111.119289,179.077266 C112.239816,178.786746 112.799461,179.367787 112.939372,179.950112 C113.499017,182.420819 110,182.71134 110,180.531153 C110,179.658307 110.419733,179.222527 111.119289,179.077266" id="Fill-259-Copy" fill="#A7A7A7"></path>
                <path d="M107.846866,196.459667 C108.204758,195.945633 107.846866,194.230668 107.66792,193.202599 C107.131082,190.802255 106.771607,188.744601 106.234769,186.514085 C106.055823,185.314672 106.234769,183.942397 105.34004,183.257017 C97.8179771,182.914328 87.9696176,182.914328 80.6280844,183.257017 C79.9107172,184.113741 79.5528254,187.200981 79.1949336,189.601325 C79.0159876,190.802255 78.6580958,191.658979 78.4791499,192.858393 C78.2986204,193.887978 77.7617827,195.774288 78.1212581,196.288322 C78.8370417,197.660597 81.7017599,196.459667 83.6717485,196.802357 C83.3138567,195.258737 82.9559649,193.202599 83.3138567,191.31629 C84.5664781,190.629394 87.6117258,190.458049 88.6854012,191.487634 C89.0432931,193.202599 88.6854012,195.431598 88.3275094,196.802357 L97.6390312,196.802357 C97.2811394,195.431598 96.5653557,193.202599 97.2811394,191.31629 C98.5353443,190.629394 101.757954,190.458049 102.654268,191.487634 C103.191105,193.545289 102.473738,195.431598 102.115846,196.631012 C104.264781,196.459667 106.952137,197.660597 107.846866,196.459667" id="Fill-261-Copy" fill="#A7A7A7"></path>
                <path d="M76.0866859,191.983647 C70.704125,192.31702 72.2748649,187.480169 72.0487736,184.14497 C72.7230811,182.810005 75.4143616,182.641843 76.310794,183.643436 C77.8795508,185.645146 76.310794,190.148624 76.0866859,191.983647" id="Fill-263-Copy" fill="#A7A7A7"></path>
                <path d="M110.473832,191.983736 C110.053218,189.827133 109.352194,183.357323 111.316302,183.025763 C112.297735,182.859984 112.578145,183.523102 113,184.187688 C112.71959,187.50475 113.701024,192.315296 110.473832,191.983736" id="Fill-265-Copy" fill="#A7A7A7"></path>
                <path d="M86.8801738,194.089127 C90.9201835,193.235719 90.9201835,198.786648 87.5528473,199 C84.6359445,199 83.963271,194.729183 86.8801738,194.089127" id="Fill-267-Copy" fill="#FFFFFF"></path>
                <path d="M98.81937,194.122695 C103.243647,193.064389 102.80161,199.206308 99.0403883,198.994647 C96.82825,198.782986 95.9441771,194.757678 98.81937,194.122695" id="Fill-269-Copy" fill="#FFFFFF"></path>
                <path d="M73.0613001,583.116108 C74.3080446,582.676217 75,583.555998 75,584.583708 C74.8616089,586.491198 71.3993823,586.637828 72.0913377,583.997187 C72.0913377,583.703926 72.5077357,583.262738 73.0613001,583.116108" id="Fill-271-Copy" fill="#A7A7A7"></path>
                <path d="M108.120072,582.077163 C109.240144,581.786633 109.799562,582.368979 109.939416,582.95004 C110.498833,585.420834 107,585.711365 107,583.531101 C107,582.65951 107.420801,582.222429 108.120072,582.077163" id="Fill-273-Copy" fill="#A7A7A7"></path>
                <path d="M106.846167,598.459726 C107.205637,597.945747 106.846167,596.230968 106.667224,595.20301 C106.130396,592.80141 105.77251,590.743979 105.234097,588.515221 C105.056738,587.314421 105.234097,585.943811 104.339382,585.256989 C96.8174428,584.914337 86.9692448,584.914337 79.627832,585.256989 C78.9104765,586.115137 78.5525905,589.202042 78.1947046,591.602126 C78.0157616,592.80141 77.6578756,593.658042 77.4789327,594.858842 C77.2999897,595.888315 76.7615772,597.774421 77.1210467,598.2884 C77.8368186,599.660526 80.7014898,598.459726 82.6714462,598.802378 C82.3135602,597.258926 81.9556743,595.20301 82.3135602,593.315389 C83.5677446,592.630084 86.6113588,592.458758 87.6850167,593.488231 C88.0429026,595.20301 87.6850167,597.430252 87.3271307,598.802378 L96.6400834,598.802378 C96.2821975,597.430252 95.564842,595.20301 96.2821975,593.315389 C97.5347983,592.630084 100.757355,592.458758 101.653654,593.488231 C102.190483,595.545663 101.474711,597.430252 101.116825,598.631052 C103.265724,598.459726 105.951453,599.660526 106.846167,598.459726" id="Fill-275-Copy" fill="#A7A7A7"></path>
                <path d="M76.0859659,596.983649 C70.7043533,597.316999 72.2748165,592.480461 72.048765,589.144001 C72.7229537,587.809122 75.4137601,587.642447 76.3100345,588.643975 C77.8804977,590.47888 76.3100345,595.148743 76.0859659,596.983649" id="Fill-277-Copy" fill="#A7A7A7"></path>
                <path d="M108.474527,595.983737 C108.053822,593.827223 107.351406,587.357682 109.315938,587.026137 C110.298825,586.858897 110.579295,587.523455 111,588.186546 C110.71953,591.504937 111.702416,596.315283 108.474527,595.983737" id="Fill-279-Copy" fill="#A7A7A7"></path>
                <path d="M83.8807325,596.089127 C87.9199575,595.235719 87.9199575,600.786648 84.5536058,601 C81.6358363,601 80.962963,596.729183 83.8807325,596.089127" id="Fill-281-Copy" fill="#FFFFFF"></path>
                <path d="M97.8196333,596.122695 C102.24455,595.064389 101.800493,601.206308 98.0406835,600.994647 C95.8282252,600.571325 94.9440243,596.757678 97.8196333,596.122695" id="Fill-283-Copy" fill="#FFFFFF"></path>
                <path d="M78.0613001,498.116108 C79.3080446,497.676217 80,498.555998 80,499.583708 C79.8616089,501.491198 76.3993823,501.637828 77.0913377,498.997187 C77.0913377,498.849259 77.5077357,498.262738 78.0613001,498.116108" id="Fill-285-Copy" fill="#A7A7A7"></path>
                <path d="M112.120072,494.077266 C113.240144,493.786746 113.799562,494.367787 113.939416,494.950112 C114.498833,497.420819 111,497.71134 111,495.531153 C111,494.658307 111.420801,494.222527 112.120072,494.077266" id="Fill-287-Copy" fill="#A7A7A7"></path>
                <path d="M109.846167,511.459667 C110.205637,510.945633 109.846167,509.230668 109.667224,508.202599 C109.130396,505.802255 108.77251,503.744601 108.234097,501.514085 C108.056738,500.314672 108.234097,498.942397 107.339382,498.257017 C99.8174428,497.914328 89.9692448,497.914328 82.627832,498.257017 C81.9104765,499.113741 81.5525905,502.200981 81.1947046,504.601325 C81.0157616,505.802255 80.6578756,506.658979 80.4789327,507.858393 C80.2999897,508.887978 79.7615772,510.774288 80.1210467,511.288322 C80.8368186,512.660597 83.7014898,511.459667 85.6714462,511.802357 C85.3135602,510.258737 84.9556743,508.202599 85.3135602,506.31629 C86.5677446,505.629394 89.6113588,505.458049 90.6850167,506.487634 C91.0429026,508.202599 90.6850167,510.431598 90.3271307,511.802357 L99.6400834,511.802357 C99.2821975,510.431598 98.564842,508.202599 99.2821975,506.31629 C100.534798,505.629394 103.757355,505.458049 104.653654,506.487634 C105.190483,508.545289 104.474711,510.431598 104.116825,511.631012 C106.265724,511.459667 108.951453,512.660597 109.846167,511.459667" id="Fill-289-Copy" fill="#A7A7A7"></path>
                <path d="M79.0859659,511.983648 C73.7043533,512.317016 75.2748165,507.480227 75.048765,504.143596 C75.7229537,502.810123 78.4137601,502.641964 79.3100345,503.643544 C80.8804977,505.645228 79.3100345,510.148648 79.0859659,511.983648" id="Fill-291-Copy" fill="#A7A7A7"></path>
                <path d="M111.474527,506.983736 C111.053822,504.827133 110.351406,498.357323 112.315938,498.025763 C113.298825,497.859984 113.579295,498.523102 114,499.187688 C113.71953,502.50475 114.702416,507.315296 111.474527,506.983736" id="Fill-293-Copy" fill="#A7A7A7"></path>
                <path d="M87.8807325,509.089127 C91.9199575,508.235719 91.9199575,513.786648 88.5536058,514 C85.6358363,514 84.962963,509.729183 87.8807325,509.089127" id="Fill-295-Copy" fill="#FFFFFF"></path>
                <path d="M101.819633,502.122695 C106.24455,501.064389 105.800493,507.206308 102.040684,506.994647 C99.8282252,506.782986 98.9440243,502.757678 101.819633,502.122695" id="Fill-297-Copy" fill="#FFFFFF"></path>
                <path d="M98.2997792,540.216408 C96.7019033,535.263363 88.359359,534.161785 84.2767705,537.831549 C83.3899338,538.564852 83.035199,539.849756 81.9709949,540.216408 C83.035199,538.198201 84.6330749,536.546645 85.697279,534.528437 C83.5673011,534.528437 81.0825885,534.711763 78.7752432,534.528437 C78.2431411,534.528437 77,534.896711 77,533.978459 C77,532.878504 78.9526106,533.245156 80.0183843,533.245156 C87.2951549,533.245156 95.2829645,532.693555 102.737102,533.245156 C103.091837,533.245156 104.157611,532.878504 103.980243,533.795133 C104.157611,534.896711 102.737102,534.345111 102.205,534.528437 C100.25239,534.711763 97.4129424,534.528437 95.4603318,534.528437 C96.1698013,536.179993 97.9450445,538.198201 99.0092486,539.848134 C99.3655529,540.216408 98.8318812,540.033082 98.6545139,540.399734 C102.027633,547.004335 97.9450445,554.158913 92.0872128,554.892217 C84.2767705,555.993795 78.9526106,548.470942 82.3257296,540.58306 C82.3257296,540.216408 82.503097,540.216408 82.6804643,540.033082 C87.6498896,540.216408 92.9740496,540.216408 98.2997792,540.216408" id="Fill-299-Copy" fill="#A7A7A7"></path>
                <path d="M102.832719,535 L103.332351,535 C103.332351,537.892944 103.165807,541.127563 104,543 L102,543 C102.999263,541.127563 102.499632,537.552775 102.832719,535" id="Fill-301-Copy" fill="#A7A7A7"></path>
                <path d="M88.6381032,557.290326 C91.1520857,559.766543 92.2288262,564.188696 92.4098711,557.643848 C98.6956216,555.344391 104.800327,559.943304 110.727164,559.943304 C115.216759,559.943304 121.323053,555.16763 124.195949,558.352456 C127.967717,562.774608 117.551285,565.250826 111.983362,565.957869 C108.751552,566.311391 104.979784,565.604347 102.465801,565.957869 C101.927431,571.618912 101.747974,577.810238 101.747974,584 L80.7356538,584 C81.6345257,580.9935 78.9410863,579.579412 78.401128,576.748108 C77.3227994,571.618912 78.7600415,565.781108 78.7600415,560.475152 C80.7356538,558.174131 84.8663352,557.820609 88.6381032,557.290326" id="Fill-303-Copy" fill="#A7A7A7"></path>
                <path d="M358.818875,498.091297 C358.63719,497.182873 354.273541,496.817896 354.273541,498.454666 C354.453618,498.454666 354.453618,498.636351 354.453618,498.636351 C355.363649,499.181405 358.998951,499.544775 358.818875,498.091297 M358.818875,494.272702 C358.63719,493.364278 354.273541,492.999301 354.273541,494.636071 C354.453618,494.636071 354.453618,494.817756 354.453618,494.817756 C355.363649,495.364418 358.998951,495.727787 358.818875,494.272702 M358.818875,490.454107 C358.63719,489.545683 354.273541,489.182314 354.273541,490.819084 C354.453618,490.819084 354.453618,491.000769 354.453618,491.000769 C355.363649,491.545823 358.998951,491.909193 358.818875,490.454107 M380.272143,498.272981 L392.454666,498.272981 L392.454666,486.092066 L380.272143,486.092066 C380.090458,489.909053 380.272143,494.272702 380.272143,498.272981 M365.000979,498.272981 L377.181894,498.272981 L377.181894,486.092066 L365.000979,486.092066 C364.817686,489.909053 365.000979,494.272702 365.000979,498.272981 M358.818875,486.635512 C358.63719,485.727088 354.273541,485.363719 354.273541,487.000489 C354.453618,487.000489 354.453618,487.182174 354.453618,487.182174 C355.363649,487.545544 358.998951,488.090598 358.818875,486.635512 M358.818875,482.818525 C358.63719,481.910101 354.273541,481.545124 354.273541,483.181894 C354.453618,483.181894 354.453618,483.363579 354.453618,483.363579 C355.363649,483.726949 358.998951,484.273611 358.818875,482.818525 M358.818875,478.99993 C358.63719,478.091506 354.273541,477.726529 354.273541,479.364907 C354.453618,479.364907 354.453618,479.544984 354.453618,479.544984 C355.363649,479.909962 358.998951,480.455016 358.818875,478.99993 M358.818875,475.181335 C358.63719,474.272912 354.273541,473.909542 354.273541,475.546312 C354.453618,475.546312 354.453618,475.727997 354.453618,475.727997 C355.363649,476.091367 358.998951,476.636421 358.818875,475.181335 M380.272143,483.00021 L392.454666,483.00021 L392.454666,470.819294 L380.272143,470.819294 C380.090458,474.636281 380.272143,478.99993 380.272143,483.00021 M365.000979,483.00021 L377.181894,483.00021 L377.181894,470.819294 L365.000979,470.819294 C364.817686,474.636281 365.000979,478.99993 365.000979,483.00021 M358.818875,471.364348 C358.63719,470.455925 354.273541,470.090947 354.273541,471.727718 C354.453618,471.727718 354.453618,471.909402 354.453618,471.909402 C355.363649,472.272772 358.998951,472.819434 358.818875,471.364348 M351.181685,457 L397,457 L397,503 L361.727438,503 L361.727438,466.272352 L395.36323,466.272352 C395.726599,463.910451 395.36323,461.181964 395.544914,458.63677 L352.635163,458.63677 L352.635163,466.272352 L360.272352,466.272352 L360.272352,503 L351,503 L351,457.546662 C351.181685,457.183293 351.181685,457 351.181685,457" id="Fill-305-Copy" fill="#A7A7A7"></path>
                <path d="M357.165894,465.536541 C359.023851,465.357233 359.023851,462.126503 356.609,462.664429 C354.751043,463.024633 355.493568,465.536541 357.165894,465.536541 M356.423368,461.050651 C361.067439,460.331829 361.251428,467.510524 356.609,466.971011 C353.44998,466.612393 352.893086,461.588577 356.423368,461.050651" id="Fill-307-Copy" fill="#A7A7A7"></path>
                <path d="M363.165563,465.536541 C365.023325,465.357233 365.023325,462.126503 362.608727,462.664429 C360.750964,463.024633 361.493412,465.536541 363.165563,465.536541 M362.423115,461.050651 C367.0667,460.331829 367.252311,467.510524 362.608727,466.971011 C359.450038,466.612393 358.893202,461.588577 362.423115,461.050651" id="Fill-309-Copy" fill="#A7A7A7"></path>
                <path d="M95.6222829,837.526354 C96.1545579,837.526354 96.688403,837.526354 97.043253,837.695823 C97.398103,838.034763 97.398103,838.544673 97.398103,839.222552 L113.377343,839.222552 C115.153164,839.222552 117.816109,838.882113 117.995104,839.900431 C118.170959,841.42716 113.554768,840.91875 113.022493,840.91875 L77.3349475,840.91875 C75.9139774,840.91875 72.1849123,841.25619 72.0074873,840.240871 C71.8300623,838.882113 74.8494274,839.222552 76.4462524,839.222552 L92.4270629,839.222552 C92.7819129,839.053082 92.4270629,838.204233 92.7819129,837.865293 C93.1367629,837.526354 93.6690379,837.526354 94.3787379,837.526354 C93.3141879,835.491215 96.3335531,835.491215 95.6222829,837.526354" id="Fill-321-Copy" fill="#A7A7A7"></path>
                <path d="M74.1790412,843 L117,843 L117,868 L74,868 L74,843.520481 C74.1790412,843.173494 74.1790412,843 74.1790412,843" id="Fill-323-Copy" fill="#A7A7A7"></path>
                <path d="M101.660953,871.73673 C102.015911,872.723325 103.082355,873.545488 103.969749,874.697971 C104.679664,875.686021 106.101065,876.837049 105.568629,877.989532 C103.969749,878.153965 103.082355,876.343752 102.19339,875.191269 C101.305996,874.040241 100.417031,872.723325 99.3521579,871.73673 C96.1559683,872.230028 92.9582081,871.077545 90.4719339,871.73673 C89.2280115,872.065595 88.3406173,874.203218 87.4532232,875.191269 C86.3867796,876.343752 85.6768642,877.989532 84.0779842,877.989532 C83.5455477,876.672617 84.9653783,875.686021 85.6768642,874.697971 C86.5642584,873.709921 87.4532232,872.723325 88.1631385,871.73673 L75.5527178,871.73673 C74.3087954,871.73673 72.7114859,872.065595 72,871.241977 C72,870.914567 72,870.584247 72.3565283,870.419814 C84.9653783,869.926517 99.5296367,870.090949 113.20493,870.090949 C113.916416,870.090949 118,869.596197 118,870.914567 C118,872.230028 111.962579,871.73673 110.363698,871.73673 L101.660953,871.73673 Z" id="Fill-325-Copy" fill="#A7A7A7"></path>
                <text id="Phases-Concertation-Copy" font-family="AvenirNext-Bold, Avenir Next" font-size="24" font-weight="bold" fill="#000000">
                    <tspan x="242" y="24">Phases</tspan>
                    <tspan x="242" y="57">Concertation</tspan>
                </text>
                <text id="Workshop-1-Copy" font-family="AvenirNext-Bold, Avenir Next" font-size="16" font-weight="bold" letter-spacing="-0.576000035" fill="#6390B1">
                    <tspan x="47.8400002" y="90">Workshop 1</tspan>
                </text>
                <text id="(techniciens)-copy" font-family="AvenirNext-Bold, Avenir Next" font-size="12" font-weight="bold" fill="#000000">
                    <tspan x="49.998" y="108">(techniciens)</tspan>
                </text>
                <text id="Workshop-2-Copy" font-family="AvenirNext-Bold, Avenir Next" font-size="16" font-weight="bold" letter-spacing="-0.576000035" fill="#6390B1">
                    <tspan x="51.8400002" y="303">Workshop 2</tspan>
                </text>
                <text id="(techniciens,-archit-copy" font-family="AvenirNext-Bold, Avenir Next" font-size="12" font-weight="bold" fill="#000000">
                    <tspan x="64.5656975" y="327">(techniciens</tspan>
                    <tspan x="134.465698" y="327" letter-spacing="-0.271395">,</tspan>
                    <tspan x="137.434303" y="327"> </tspan>
                    <tspan x="37.047116" y="343">a</tspan>
                    <tspan x="43.839116" y="343" letter-spacing="-0.162837">r</tspan>
                    <tspan x="48.212279" y="343">chitectes</tspan>
                    <tspan x="100.136279" y="343" letter-spacing="-0.271395">,</tspan>
                    <tspan x="103.104884" y="343"> tudiants)</tspan>
                </text>
                <text id="Exposition--Copy" font-family="AvenirNext-Bold, Avenir Next" font-size="16" font-weight="bold" fill="#6390B1">
                    <tspan x="57.608" y="915">Exposition </tspan>
                </text>
                <text id="interactive-copy" font-family="AvenirNext-Bold, Avenir Next" font-size="16" font-weight="bold" fill="#6390B1">
                    <tspan x="56.819512" y="937">inte</tspan>
                    <tspan x="86.899512" y="937" letter-spacing="-0.199024">r</tspan>
                    <tspan x="92.780488" y="937">active</tspan>
                </text>
                <text id="Geste-urbain--Copy" font-family="AvenirNext-Bold, Avenir Next" font-size="16" font-weight="bold" fill="#6390B1">
                    <tspan x="97" y="1216">Geste urbain </tspan>
                </text>
                <text id="de-lentre-nord-nalis-copy" font-family="AvenirNext-Bold, Avenir Next" font-size="16" font-weight="bold" fill="#6390B1">
                    <tspan x="47" y="1240">de l</tspan>
                    <tspan x="75.832" y="1240" letter-spacing="-0.74634"></tspan>
                    <tspan x="78.92566" y="1240">ent</tspan>
                    <tspan x="104.26966" y="1240" letter-spacing="-0.2226581">r</tspan>
                    <tspan x="110.095002" y="1240">e no</tspan>
                    <tspan x="153.135002" y="1240" letter-spacing="-0.223902">r</tspan>
                    <tspan x="158.9591" y="1240">d nalis</tspan>
                </text>
                <text id="Suggestions-Copy" font-family="AvenirNext-Regular, Avenir Next" font-size="10" font-weight="normal" fill="#477393">
                    <tspan x="93" y="265">Suggestions</tspan>
                </text>
                <text id="Suggestions-Copy-2" font-family="AvenirNext-Regular, Avenir Next" font-size="10" font-weight="normal" fill="#477393">
                    <tspan x="22" y="638">Suggestions</tspan>
                </text>
                <text id="Suggestions-Copy-3" font-family="AvenirNext-Regular, Avenir Next" font-size="10" font-weight="normal" fill="#477393">
                    <tspan x="22" y="965">Suggestions</tspan>
                </text>
                <polyline id="Stroke-341-Copy" stroke="#477393" stroke-width="0.972" stroke-dasharray="4.861,4.861" points="375 549 375 1015 247 1015"></polyline>
                <polygon id="Fill-343-Copy" fill="#477393" points="257.454929 1009 258 1010.51608 247.090544 1014.49916 258 1018.48224 257.454929 1020 242 1014.49916"></polygon>
                <text id="Web-App-Copy" font-family="AvenirNext-Bold, Avenir Next" font-size="12" font-weight="bold" letter-spacing="-0.432000041" fill="#6390B1">
                    <tspan x="349.398" y="536">Web App</tspan>
                </text>
                <g id="Group-347-Copy" transform="translate(288.000000, 255.000000)" font-size="16" font-family="AvenirNext-Bold, Avenir Next" letter-spacing="-0.703999996" fill="#000000" font-weight="bold">
                    <text id="Public-+-Parties">
                        <tspan x="30.0159998" y="12.6029919">P</tspan>
                        <tspan x="38.8639998" y="12.6029919" letter-spacing="-0.938666642">ublic + Parties</tspan>
                    </text>
                </g>
                <text id="prenantes-copy" font-family="AvenirNext-Bold, Avenir Next" font-size="16" font-weight="bold" fill="#000000">
                    <tspan x="331.629418" y="285">p</tspan>
                    <tspan x="342.141418" y="285" letter-spacing="-0.162837">r</tspan>
                    <tspan x="348.026582" y="285">enantes</tspan>
                </text>
                <path d="M96,763 L96,820" id="Stroke-353-Copy" stroke="#000000" stroke-width="0.972" stroke-dasharray="4.861,4.861"></path>
                <polygon id="Fill-355-Copy" fill="#000000" points="91 803.546679 92.5972044 803 96.4992155 813.909456 100.402796 803 102 803.546679 96.4992155 819"></polygon>
                <text id="Suggestions-Copy-4" font-family="AvenirNext-Regular, Avenir Next" font-size="10" font-weight="normal" fill="#477393">
                    <tspan x="271" y="1028">Suggestions</tspan>
                </text>
                <text id="Public-+-Parties-Copy" font-family="AvenirNext-Bold, Avenir Next" font-size="16" font-weight="bold" letter-spacing="-0.703999996" fill="#000000">
                    <tspan x="46.336" y="673">Public + Parties</tspan>
                </text>
                <text id="prenantes-copy-2" font-family="AvenirNext-Bold, Avenir Next" font-size="16" font-weight="bold" fill="#000000">
                    <tspan x="57.6294185" y="688">p</tspan>
                    <tspan x="68.1414185" y="688" letter-spacing="-0.162837">r</tspan>
                    <tspan x="74.0265815" y="688">enantes</tspan>
                </text>
                <g id="Group-Copy" transform="translate(55.000000, 697.000000)" fill="#000000">
                    <path d="M54.67,44.1274429 L54.67,52.8347286 L54.67,73.0920143 C54.67,75.0468714 53.4254286,76.2914429 51.8257143,76.1123 C50.5827143,75.9347286 49.5172857,74.8677286 49.3381429,73.6247286 L49.3381429,70.7820143 L49.3381429,57.4531571 L49.3381429,56.5653 L47.5624286,56.5653 L47.5624286,56.7428714 L47.5624286,72.5593 C47.0281429,74.3365857 45.9627143,75.5795857 44.363,75.5795857 C42.7632857,75.5795857 40.4548571,72.7368714 40.4548571,72.7368714 L40.4548571,62.9625857 L40.4548571,45.0153 C40.4548571,44.8377286 40.4548571,44.6601571 40.2757143,44.4825857 C40.0981429,44.6601571 40.0981429,44.8377286 39.9205714,45.1928714 C38.8551429,47.6820143 37.6105714,49.9904429 36.3675714,52.6571571 C35.8332857,53.9001571 34.4127143,54.4344429 33.3457143,54.0777286 C31.9235714,53.5450143 31.2132857,52.1228714 31.9235714,50.7023 C32.9905714,48.2147286 34.4127143,45.7271571 35.4781429,43.0604429 C36.9002857,40.0385857 38.4984286,37.0198714 39.9205714,33.6428714 C40.6308571,32.3983 41.5202857,31.6880143 43.2975714,31.8655857 L51.6497143,31.8655857 C53.4254286,31.5104429 54.3148571,32.3983 55.0251429,33.6428714 C57.6902857,39.1507286 60.1778571,44.8377286 63.0221429,50.5231571 C63.7324286,51.9468714 63.3772857,53.1898714 62.1342857,53.9001571 C60.8897143,54.6120143 59.29,54.0777286 58.5797143,52.6571571 C57.8694286,51.0574429 57.1575714,49.4577286 56.2697143,48.0355857 C55.7354286,46.4374429 55.3802857,45.3704429 54.67,44.1274429 C54.8475714,44.1274429 54.67,44.1274429 54.67,44.1274429" id="Fill-91"></path>
                    <path d="M33.5240714,44.6598429 C33.1673571,44.1271286 32.9913571,43.5928429 32.8122143,44.1271286 L33.3465,44.1271286 L33.5240714,44.6598429 C32.8122143,45.9044143 32.4570714,47.3249857 31.7467857,48.5679857 C31.3916429,49.2798429 31.2140714,50.3452714 31.2140714,51.0571286 C31.2140714,51.9465571 31.5692143,52.8344143 32.1019286,53.5447 C32.2795,53.8998429 31.5692143,54.6117 31.5692143,54.6117 L31.5692143,72.0247 C31.5692143,73.0917 31.0365,74.1571286 29.9695,74.6898429 C29.0816429,75.2241286 28.0146429,75.0465571 27.3043571,74.1571286 C26.5940714,73.4468429 26.4165,72.9125571 26.4165,71.8487 L26.4165,62.7847 L26.4165,54.7877 L24.6392143,54.7877 L24.6392143,56.7425571 L24.6392143,72.0247 C24.6392143,72.5589857 24.6392143,72.9125571 24.4600714,73.4468429 C24.1049286,74.6898429 22.8619286,75.5792714 21.6173571,75.4017 C20.3743571,75.2241286 19.4849286,74.1571286 19.3073571,72.7365571 L19.3073571,70.6041286 L19.3073571,44.6598429 L19.3073571,44.1271286 L19.1297857,44.1271286 C18.9522143,44.3031286 18.9522143,44.4822714 18.7746429,44.6598429 C17.7092143,47.1474143 16.6422143,49.4574143 15.5767857,51.7674143 C15.0425,53.0104143 14.1546429,53.5447 13.0892143,53.1895571 C11.8446429,52.8344143 11.1327857,51.5898429 11.4895,50.1692714 C11.8446429,49.2798429 12.1997857,48.3919857 12.7325,47.5041286 C14.6873571,42.8825571 16.8197857,38.2625571 18.9522143,33.4649857 C19.4849286,32.0428429 20.3743571,31.5101286 21.7965,31.5101286 L29.9695,31.5101286 C29.9695,31.5101286 32.4570714,30.9774143 32.9913571,32.3979857 C33.8792143,34.3528429 34.7686429,36.3092714 35.6565,38.2625571 C35.8340714,38.7968429 35.8340714,39.1504143 35.6565,39.6847 C34.9446429,41.2844143 34.2343571,42.8825571 33.5240714,44.6598429" id="Fill-93"></path>
                    <path d="M53.9595571,29.9108857 C54.6698429,28.1336 55.2041286,26.5354571 55.7352714,24.7581714 C56.2695571,23.1584571 57.3349857,22.6241714 59.1122714,22.8033143 L65.3319857,22.8033143 C68.5298429,22.2706 69.5968429,23.3360286 69.7744143,28.6663143 C71.5517,32.3984571 72.9738429,35.5963143 74.7495571,39.3284571 C76.8819857,41.1057429 77.0595571,43.7708857 75.2822714,44.4811714 C74.0392714,45.0154571 72.7947,44.6603143 72.2619857,43.2381714 C71.1965571,40.7490286 70.1295571,38.4406 69.0641286,35.9530286 C68.8865571,35.7738857 68.8865571,35.5963143 68.5298429,35.4203143 L68.5298429,37.1976 L68.5298429,63.4954571 C68.5298429,64.0297429 68.5298429,64.7400286 68.3522714,65.2727429 C67.9971286,66.6948857 66.9317,67.4051714 65.3319857,67.2276 C64.0874143,67.0500286 63.1995571,65.9830286 63.1995571,64.5624571 L63.1995571,57.2757429 L63.1995571,55.1448857 C63.1995571,54.2554571 63.1995571,53.5451714 63.7322714,52.6573143 C64.2665571,51.5903143 64.2665571,50.3457429 63.7322714,49.2803143 C61.2447,43.5933143 58.9347,37.9078857 56.4471286,32.2208857 C56.0919857,30.9778857 55.2041286,30.2676 53.9595571,29.9108857" id="Fill-95"></path>
                    <path d="M8.46795714,35.9525571 C7.40252857,38.0849857 6.5131,40.2174143 5.2701,42.3498429 C5.09252857,42.5274143 5.09252857,42.8825571 4.91338571,43.0601286 C4.38067143,44.3031286 3.13767143,44.6598429 1.8931,44.1271286 C0.827671429,43.5928429 0.472528571,42.3498429 1.00367143,41.2844143 C2.07067143,38.9744143 3.13767143,36.4852714 4.38067143,34.1752714 C5.62524286,31.5101286 6.86824286,28.8449857 8.29038571,26.1782714 C8.8231,25.1128429 9.53495714,24.5801286 10.7779571,24.5801286 L18.5973857,24.5801286 C19.1301,24.5801286 19.4852429,24.7577 19.6628143,25.4679857 C20.0195286,26.5349857 20.3746714,27.4228429 20.9073857,28.4898429 C21.0849571,29.0225571 21.2625286,29.2001286 20.5506714,29.3777 C19.4852429,29.7328429 18.5973857,30.6207 18.0631,31.6877 C15.2203857,37.3731286 12.7328143,43.0601286 9.8901,48.5679857 C8.64552857,51.5898429 10.2452429,54.4341286 13.6206714,54.7877 L13.6206714,54.9668429 L13.6206714,62.6071286 C13.6206714,63.8517 12.5552429,64.7395571 11.4882429,64.9187 C10.2452429,65.0947 9.00067143,64.3844143 8.46795714,63.1414143 C8.29038571,62.6071286 8.29038571,62.0744143 8.29038571,61.7177 L8.29038571,37.0195571 C8.46795714,36.6628429 8.46795714,36.3092714 8.46795714,35.9525571" id="Fill-97"></path>
                    <path d="M31.3910143,23.8692143 C31.3910143,26.8895 28.9034429,29.3786429 25.8831571,29.3786429 C22.8613,29.3786429 20.3737286,26.8895 20.3737286,23.8692143 C20.3737286,20.8473571 22.8613,18.3597857 25.8831571,18.3597857 C28.9034429,18.1822143 31.3910143,20.6713571 31.3910143,23.8692143" id="Fill-99"></path>
                    <path d="M63.1994,21.0255571 C60.1791143,21.0255571 57.6915429,18.5379857 57.6915429,15.5177 C57.6915429,12.4958429 60.1791143,10.0082714 63.1994,10.0082714 C66.2196857,10.0082714 68.7088286,12.4958429 68.7088286,15.5177 C68.7088286,18.7155571 66.2196857,21.2031286 63.1994,21.0255571" id="Fill-101"></path>
                    <path d="M42.5866571,24.2235714 C42.5866571,21.2032857 45.0742286,18.7157143 48.0945143,18.7157143 C51.1163714,18.7157143 53.6039429,21.2032857 53.6039429,24.2235714 C53.6039429,27.2454286 51.1163714,29.733 48.0945143,29.733 C45.0742286,29.733 42.5866571,27.2454286 42.5866571,24.2235714" id="Fill-103"></path>
                    <path d="M45.7846714,14.9838857 L45.7846714,15.8717429 C45.6071,16.5836 45.4295286,16.9387429 44.7192429,17.2938857 C43.6522429,17.8281714 42.5868143,18.5384571 41.8749571,19.4263143 C41.1646714,20.4933143 40.2768143,20.4933143 39.2098143,20.3157429 C36.5446714,19.7830286 34.7673857,17.2938857 34.9449571,14.2736 C35.1225286,11.6084571 37.4341,9.47445714 40.0976714,9.29845714 C42.7643857,9.12088571 45.2519571,11.0757429 45.7846714,13.7408857 L45.7846714,14.9838857 Z" id="Fill-105"></path>
                    <path d="M31.7469429,28.1337571 C32.4572286,26.3564714 33.1675143,24.7583286 33.8793714,22.9810429 C34.4120857,21.7364714 35.2999429,21.0261857 36.7220857,21.0261857 L41.1645143,21.0261857 C40.2766571,23.6913286 40.6318,26.1789 42.5866571,28.4904714 C40.4542286,28.8440429 39.5663714,30.4437571 38.8545143,32.2210429 C38.3218,33.4656143 37.7890857,34.5310429 37.2548,35.9531857 C36.5445143,34.1759 35.6566571,32.5761857 34.9448,30.9780429 C34.2345143,29.7334714 33.3466571,28.4904714 31.7469429,28.1337571" id="Fill-107"></path>
                    <path d="M18.9522143,18.1819 C18.9522143,21.0261857 16.6422143,23.1586143 13.9770714,23.1586143 C11.1327857,23.1586143 9.00035714,20.8470429 9.00035714,18.1819 C9.00035714,15.3391857 11.3119286,13.2067571 13.9770714,13.2067571 C16.6422143,13.2067571 18.9522143,15.3391857 18.9522143,18.1819" id="Fill-109"></path>
                    <path d="M34.5898143,10.5411429 C32.9901,14.63 33.1676714,15.3402857 35.3001,19.2484286 C34.5898143,19.6051429 33.7019571,20.1362857 32.9901,20.6705714 C32.1022429,18.5381429 30.5025286,16.7608571 28.0149571,16.0505714 C25.5273857,15.3402857 23.2173857,16.0505714 21.0849571,17.6487143 C21.2625286,17.2935714 21.2625286,17.1175714 21.2625286,16.9384286 C21.9728143,15.3402857 22.8622429,13.563 23.5725286,11.9632857 C24.2828143,10.5411429 25.1722429,10.0084286 26.9495286,10.5411429 C29.2579571,10.5411429 31.2143857,10.3635714 33.5243857,10.3635714 C33.7019571,10.3635714 34.2346714,10.5411429 34.5898143,10.5411429" id="Fill-111"></path>
                    <path d="M52.8930286,5.03344286 C55.9133143,5.03344286 58.2248857,7.69858571 57.8697429,10.7188714 C57.8697429,10.8964429 57.6906,11.0755857 57.6906,11.2515857 C57.3354571,11.9634429 56.8027429,12.6737286 56.4476,13.3840143 C55.9133143,14.4510143 54.8478857,14.8061571 53.7808857,14.8061571 C51.1157429,15.1613 48.6281714,13.5631571 48.0954571,10.8964429 C47.5611714,8.2313 49.1608857,5.74372857 51.6484571,5.03344286 L52.8930286,5.03344286 Z" id="Fill-113"></path>
                    <path d="M29.7919286,9.8307 C27.1267857,9.8307 24.9943571,7.5207 24.9943571,5.03312857 C24.9943571,2.36798571 27.1267857,0.235557143 29.7919286,0.235557143 C32.4570714,0.235557143 34.5895,2.36798571 34.5895,5.03312857 C34.5895,7.69827143 32.4570714,9.8307 29.7919286,9.8307" id="Fill-115"></path>
                    <path d="M56.4471286,52.4786429 C57.8692714,54.4335 59.4674143,55.1437857 61.7789857,54.6110714 L61.7789857,54.9662143 L61.7789857,64.0302143 C61.7789857,65.8059286 60.3568429,67.0489286 58.5795571,66.6953571 C57.3349857,66.5177857 56.4471286,65.6283571 56.4471286,64.2062143 L56.4471286,53.0113571 L56.4471286,52.4786429 Z" id="Fill-117"></path>
                    <path d="M35.1231571,54.6117 C37.0780143,54.2549857 38.4985857,54.0774143 40.4550143,53.8998429 L40.4550143,54.9668429 L40.4550143,64.5619857 C40.4550143,66.1617 39.3880143,67.0495571 37.7883,67.0495571 C36.3677286,67.0495571 34.9455857,66.1617 35.1231571,64.2052714 C35.3007286,61.3641286 35.1231571,58.5198429 35.1231571,55.6771286 L35.1231571,54.6117 Z" id="Fill-119"></path>
                    <path d="M55.7359,15.5178571 C55.7359,17.4711429 56.4477571,19.0708571 57.5131857,20.3154286 C56.6237571,20.8481429 55.9134714,21.2032857 55.0256143,21.736 C54.4913286,20.493 53.6034714,19.2484286 52.3604714,18.3605714 C51.1159,17.4711429 49.6937571,16.9384286 48.2731857,16.9384286 C48.0956143,15.6938571 48.2731857,15.5178571 49.3386143,15.5178571 C51.6486143,15.3402857 53.6034714,15.5178571 55.7359,15.5178571" id="Fill-121"></path>
                    <path d="M17.3532857,52.1225571 L17.3532857,64.5619857 C15.9311429,64.3844143 14.8657143,63.4949857 15.576,62.2519857 L15.576,54.4341286 C14.8657143,54.2549857 15.0432857,54.0774143 15.0432857,53.8998429 C15.7535714,53.1895571 16.4654286,52.6568429 17.3532857,52.1225571" id="Fill-123"></path>
                </g>
                <g id="Group-Copy-2" transform="translate(337.000000, 295.000000)" fill="#000000">
                    <path d="M54.67,44.1274429 L54.67,52.8347286 L54.67,73.0920143 C54.67,75.0468714 53.4254286,76.2914429 51.8257143,76.1123 C50.5827143,75.9347286 49.5172857,74.8677286 49.3381429,73.6247286 L49.3381429,70.7820143 L49.3381429,57.4531571 L49.3381429,56.5653 L47.5624286,56.5653 L47.5624286,56.7428714 L47.5624286,72.5593 C47.0281429,74.3365857 45.9627143,75.5795857 44.363,75.5795857 C42.7632857,75.5795857 40.4548571,72.7368714 40.4548571,72.7368714 L40.4548571,62.9625857 L40.4548571,45.0153 C40.4548571,44.8377286 40.4548571,44.6601571 40.2757143,44.4825857 C40.0981429,44.6601571 40.0981429,44.8377286 39.9205714,45.1928714 C38.8551429,47.6820143 37.6105714,49.9904429 36.3675714,52.6571571 C35.8332857,53.9001571 34.4127143,54.4344429 33.3457143,54.0777286 C31.9235714,53.5450143 31.2132857,52.1228714 31.9235714,50.7023 C32.9905714,48.2147286 34.4127143,45.7271571 35.4781429,43.0604429 C36.9002857,40.0385857 38.4984286,37.0198714 39.9205714,33.6428714 C40.6308571,32.3983 41.5202857,31.6880143 43.2975714,31.8655857 L51.6497143,31.8655857 C53.4254286,31.5104429 54.3148571,32.3983 55.0251429,33.6428714 C57.6902857,39.1507286 60.1778571,44.8377286 63.0221429,50.5231571 C63.7324286,51.9468714 63.3772857,53.1898714 62.1342857,53.9001571 C60.8897143,54.6120143 59.29,54.0777286 58.5797143,52.6571571 C57.8694286,51.0574429 57.1575714,49.4577286 56.2697143,48.0355857 C55.7354286,46.4374429 55.3802857,45.3704429 54.67,44.1274429 C54.8475714,44.1274429 54.67,44.1274429 54.67,44.1274429" id="Fill-91"></path>
                    <path d="M33.5240714,44.6598429 C33.1673571,44.1271286 32.9913571,43.5928429 32.8122143,44.1271286 L33.3465,44.1271286 L33.5240714,44.6598429 C32.8122143,45.9044143 32.4570714,47.3249857 31.7467857,48.5679857 C31.3916429,49.2798429 31.2140714,50.3452714 31.2140714,51.0571286 C31.2140714,51.9465571 31.5692143,52.8344143 32.1019286,53.5447 C32.2795,53.8998429 31.5692143,54.6117 31.5692143,54.6117 L31.5692143,72.0247 C31.5692143,73.0917 31.0365,74.1571286 29.9695,74.6898429 C29.0816429,75.2241286 28.0146429,75.0465571 27.3043571,74.1571286 C26.5940714,73.4468429 26.4165,72.9125571 26.4165,71.8487 L26.4165,62.7847 L26.4165,54.7877 L24.6392143,54.7877 L24.6392143,56.7425571 L24.6392143,72.0247 C24.6392143,72.5589857 24.6392143,72.9125571 24.4600714,73.4468429 C24.1049286,74.6898429 22.8619286,75.5792714 21.6173571,75.4017 C20.3743571,75.2241286 19.4849286,74.1571286 19.3073571,72.7365571 L19.3073571,70.6041286 L19.3073571,44.6598429 L19.3073571,44.1271286 L19.1297857,44.1271286 C18.9522143,44.3031286 18.9522143,44.4822714 18.7746429,44.6598429 C17.7092143,47.1474143 16.6422143,49.4574143 15.5767857,51.7674143 C15.0425,53.0104143 14.1546429,53.5447 13.0892143,53.1895571 C11.8446429,52.8344143 11.1327857,51.5898429 11.4895,50.1692714 C11.8446429,49.2798429 12.1997857,48.3919857 12.7325,47.5041286 C14.6873571,42.8825571 16.8197857,38.2625571 18.9522143,33.4649857 C19.4849286,32.0428429 20.3743571,31.5101286 21.7965,31.5101286 L29.9695,31.5101286 C29.9695,31.5101286 32.4570714,30.9774143 32.9913571,32.3979857 C33.8792143,34.3528429 34.7686429,36.3092714 35.6565,38.2625571 C35.8340714,38.7968429 35.8340714,39.1504143 35.6565,39.6847 C34.9446429,41.2844143 34.2343571,42.8825571 33.5240714,44.6598429" id="Fill-93"></path>
                    <path d="M53.9595571,29.9108857 C54.6698429,28.1336 55.2041286,26.5354571 55.7352714,24.7581714 C56.2695571,23.1584571 57.3349857,22.6241714 59.1122714,22.8033143 L65.3319857,22.8033143 C68.5298429,22.2706 69.5968429,23.3360286 69.7744143,28.6663143 C71.5517,32.3984571 72.9738429,35.5963143 74.7495571,39.3284571 C76.8819857,41.1057429 77.0595571,43.7708857 75.2822714,44.4811714 C74.0392714,45.0154571 72.7947,44.6603143 72.2619857,43.2381714 C71.1965571,40.7490286 70.1295571,38.4406 69.0641286,35.9530286 C68.8865571,35.7738857 68.8865571,35.5963143 68.5298429,35.4203143 L68.5298429,37.1976 L68.5298429,63.4954571 C68.5298429,64.0297429 68.5298429,64.7400286 68.3522714,65.2727429 C67.9971286,66.6948857 66.9317,67.4051714 65.3319857,67.2276 C64.0874143,67.0500286 63.1995571,65.9830286 63.1995571,64.5624571 L63.1995571,57.2757429 L63.1995571,55.1448857 C63.1995571,54.2554571 63.1995571,53.5451714 63.7322714,52.6573143 C64.2665571,51.5903143 64.2665571,50.3457429 63.7322714,49.2803143 C61.2447,43.5933143 58.9347,37.9078857 56.4471286,32.2208857 C56.0919857,30.9778857 55.2041286,30.2676 53.9595571,29.9108857" id="Fill-95"></path>
                    <path d="M8.46795714,35.9525571 C7.40252857,38.0849857 6.5131,40.2174143 5.2701,42.3498429 C5.09252857,42.5274143 5.09252857,42.8825571 4.91338571,43.0601286 C4.38067143,44.3031286 3.13767143,44.6598429 1.8931,44.1271286 C0.827671429,43.5928429 0.472528571,42.3498429 1.00367143,41.2844143 C2.07067143,38.9744143 3.13767143,36.4852714 4.38067143,34.1752714 C5.62524286,31.5101286 6.86824286,28.8449857 8.29038571,26.1782714 C8.8231,25.1128429 9.53495714,24.5801286 10.7779571,24.5801286 L18.5973857,24.5801286 C19.1301,24.5801286 19.4852429,24.7577 19.6628143,25.4679857 C20.0195286,26.5349857 20.3746714,27.4228429 20.9073857,28.4898429 C21.0849571,29.0225571 21.2625286,29.2001286 20.5506714,29.3777 C19.4852429,29.7328429 18.5973857,30.6207 18.0631,31.6877 C15.2203857,37.3731286 12.7328143,43.0601286 9.8901,48.5679857 C8.64552857,51.5898429 10.2452429,54.4341286 13.6206714,54.7877 L13.6206714,54.9668429 L13.6206714,62.6071286 C13.6206714,63.8517 12.5552429,64.7395571 11.4882429,64.9187 C10.2452429,65.0947 9.00067143,64.3844143 8.46795714,63.1414143 C8.29038571,62.6071286 8.29038571,62.0744143 8.29038571,61.7177 L8.29038571,37.0195571 C8.46795714,36.6628429 8.46795714,36.3092714 8.46795714,35.9525571" id="Fill-97"></path>
                    <path d="M31.3910143,23.8692143 C31.3910143,26.8895 28.9034429,29.3786429 25.8831571,29.3786429 C22.8613,29.3786429 20.3737286,26.8895 20.3737286,23.8692143 C20.3737286,20.8473571 22.8613,18.3597857 25.8831571,18.3597857 C28.9034429,18.1822143 31.3910143,20.6713571 31.3910143,23.8692143" id="Fill-99"></path>
                    <path d="M63.1994,21.0255571 C60.1791143,21.0255571 57.6915429,18.5379857 57.6915429,15.5177 C57.6915429,12.4958429 60.1791143,10.0082714 63.1994,10.0082714 C66.2196857,10.0082714 68.7088286,12.4958429 68.7088286,15.5177 C68.7088286,18.7155571 66.2196857,21.2031286 63.1994,21.0255571" id="Fill-101"></path>
                    <path d="M42.5866571,24.2235714 C42.5866571,21.2032857 45.0742286,18.7157143 48.0945143,18.7157143 C51.1163714,18.7157143 53.6039429,21.2032857 53.6039429,24.2235714 C53.6039429,27.2454286 51.1163714,29.733 48.0945143,29.733 C45.0742286,29.733 42.5866571,27.2454286 42.5866571,24.2235714" id="Fill-103"></path>
                    <path d="M45.7846714,14.9838857 L45.7846714,15.8717429 C45.6071,16.5836 45.4295286,16.9387429 44.7192429,17.2938857 C43.6522429,17.8281714 42.5868143,18.5384571 41.8749571,19.4263143 C41.1646714,20.4933143 40.2768143,20.4933143 39.2098143,20.3157429 C36.5446714,19.7830286 34.7673857,17.2938857 34.9449571,14.2736 C35.1225286,11.6084571 37.4341,9.47445714 40.0976714,9.29845714 C42.7643857,9.12088571 45.2519571,11.0757429 45.7846714,13.7408857 L45.7846714,14.9838857 Z" id="Fill-105"></path>
                    <path d="M31.7469429,28.1337571 C32.4572286,26.3564714 33.1675143,24.7583286 33.8793714,22.9810429 C34.4120857,21.7364714 35.2999429,21.0261857 36.7220857,21.0261857 L41.1645143,21.0261857 C40.2766571,23.6913286 40.6318,26.1789 42.5866571,28.4904714 C40.4542286,28.8440429 39.5663714,30.4437571 38.8545143,32.2210429 C38.3218,33.4656143 37.7890857,34.5310429 37.2548,35.9531857 C36.5445143,34.1759 35.6566571,32.5761857 34.9448,30.9780429 C34.2345143,29.7334714 33.3466571,28.4904714 31.7469429,28.1337571" id="Fill-107"></path>
                    <path d="M18.9522143,18.1819 C18.9522143,21.0261857 16.6422143,23.1586143 13.9770714,23.1586143 C11.1327857,23.1586143 9.00035714,20.8470429 9.00035714,18.1819 C9.00035714,15.3391857 11.3119286,13.2067571 13.9770714,13.2067571 C16.6422143,13.2067571 18.9522143,15.3391857 18.9522143,18.1819" id="Fill-109"></path>
                    <path d="M34.5898143,10.5411429 C32.9901,14.63 33.1676714,15.3402857 35.3001,19.2484286 C34.5898143,19.6051429 33.7019571,20.1362857 32.9901,20.6705714 C32.1022429,18.5381429 30.5025286,16.7608571 28.0149571,16.0505714 C25.5273857,15.3402857 23.2173857,16.0505714 21.0849571,17.6487143 C21.2625286,17.2935714 21.2625286,17.1175714 21.2625286,16.9384286 C21.9728143,15.3402857 22.8622429,13.563 23.5725286,11.9632857 C24.2828143,10.5411429 25.1722429,10.0084286 26.9495286,10.5411429 C29.2579571,10.5411429 31.2143857,10.3635714 33.5243857,10.3635714 C33.7019571,10.3635714 34.2346714,10.5411429 34.5898143,10.5411429" id="Fill-111"></path>
                    <path d="M52.8930286,5.03344286 C55.9133143,5.03344286 58.2248857,7.69858571 57.8697429,10.7188714 C57.8697429,10.8964429 57.6906,11.0755857 57.6906,11.2515857 C57.3354571,11.9634429 56.8027429,12.6737286 56.4476,13.3840143 C55.9133143,14.4510143 54.8478857,14.8061571 53.7808857,14.8061571 C51.1157429,15.1613 48.6281714,13.5631571 48.0954571,10.8964429 C47.5611714,8.2313 49.1608857,5.74372857 51.6484571,5.03344286 L52.8930286,5.03344286 Z" id="Fill-113"></path>
                    <path d="M29.7919286,9.8307 C27.1267857,9.8307 24.9943571,7.5207 24.9943571,5.03312857 C24.9943571,2.36798571 27.1267857,0.235557143 29.7919286,0.235557143 C32.4570714,0.235557143 34.5895,2.36798571 34.5895,5.03312857 C34.5895,7.69827143 32.4570714,9.8307 29.7919286,9.8307" id="Fill-115"></path>
                    <path d="M56.4471286,52.4786429 C57.8692714,54.4335 59.4674143,55.1437857 61.7789857,54.6110714 L61.7789857,54.9662143 L61.7789857,64.0302143 C61.7789857,65.8059286 60.3568429,67.0489286 58.5795571,66.6953571 C57.3349857,66.5177857 56.4471286,65.6283571 56.4471286,64.2062143 L56.4471286,53.0113571 L56.4471286,52.4786429 Z" id="Fill-117"></path>
                    <path d="M35.1231571,54.6117 C37.0780143,54.2549857 38.4985857,54.0774143 40.4550143,53.8998429 L40.4550143,54.9668429 L40.4550143,64.5619857 C40.4550143,66.1617 39.3880143,67.0495571 37.7883,67.0495571 C36.3677286,67.0495571 34.9455857,66.1617 35.1231571,64.2052714 C35.3007286,61.3641286 35.1231571,58.5198429 35.1231571,55.6771286 L35.1231571,54.6117 Z" id="Fill-119"></path>
                    <path d="M55.7359,15.5178571 C55.7359,17.4711429 56.4477571,19.0708571 57.5131857,20.3154286 C56.6237571,20.8481429 55.9134714,21.2032857 55.0256143,21.736 C54.4913286,20.493 53.6034714,19.2484286 52.3604714,18.3605714 C51.1159,17.4711429 49.6937571,16.9384286 48.2731857,16.9384286 C48.0956143,15.6938571 48.2731857,15.5178571 49.3386143,15.5178571 C51.6486143,15.3402857 53.6034714,15.5178571 55.7359,15.5178571" id="Fill-121"></path>
                    <path d="M17.3532857,52.1225571 L17.3532857,64.5619857 C15.9311429,64.3844143 14.8657143,63.4949857 15.576,62.2519857 L15.576,54.4341286 C14.8657143,54.2549857 15.0432857,54.0774143 15.0432857,53.8998429 C15.7535714,53.1895571 16.4654286,52.6568429 17.3532857,52.1225571" id="Fill-123"></path>
                </g>
            </g>
        </g>
    </g>
</svg>
