<?xml version="1.0" encoding="UTF-8"?>
<svg width="953px" height="1246px" viewBox="0 0 953 1246" version="1.1" xmlns="http://www.w3.org/2000/svg" xmlns:xlink="http://www.w3.org/1999/xlink">
    <!-- Generator: Sketch 45.2 (43514) - http://www.bohemiancoding.com/sketch -->
    <title>timeline-desktop</title>
    <desc>Created with Sketch.</desc>
    <defs></defs>
    <g id="Symbols" stroke="none" stroke-width="1" fill="none" fill-rule="evenodd">
        <g id="timeline-desktop">
            <text id="Votre-participation" font-family="AvenirNext-Regular, Avenir Next" font-size="16" font-weight="normal" fill="#4A4A4A">
                <tspan x="702" y="152">Votre participation peut </tspan>
                <tspan x="702" y="174">influencer les futurs </tspan>
                <tspan x="702" y="196">aménagements de votre ville, et </tspan>
                <tspan x="702" y="218">en l'occurence la vision urbaine </tspan>
                <tspan x="702" y="240">de l'entrée nord. La période de </tspan>
                <tspan x="702" y="262">concertation se déroulera du 31 </tspan>
                <tspan x="702" y="284">Juillet à fin Septembre. </tspan>
            </text>
            <text id="L'engagement-civique" font-family="AvenirNext-Regular, Avenir Next" font-size="16" font-weight="normal" fill="#4A4A4A">
                <tspan x="700" y="536">L'engagement civique est </tspan>
                <tspan x="700" y="558">crucial. Vous pouvez donner </tspan>
                <tspan x="700" y="580">votre avis sur l'avenir de votre </tspan>
                <tspan x="700" y="602">ville durant des consultations </tspan>
                <tspan x="700" y="624">publiques ou bien en utilisant ce </tspan>
                <tspan x="700" y="646">site web initié par la municipalité </tspan>
                <tspan x="700" y="668">de Nouméa. </tspan>
            </text>
            <path d="M690,126.5 C688.619288,126.5 687.5,127.619288 687.5,129 L687.5,296.756468 C687.5,298.13718 688.619288,299.256468 690,299.256468 L700.210699,299.256468 C700.536467,299.256468 700.86064,299.301949 701.173831,299.391594 C703.032199,299.923517 704.107496,301.861231 703.575573,303.7196 L696.806395,327.368933 C696.530755,328.331931 696.85652,329.366485 697.634188,329.997813 C698.706133,330.868042 700.280577,330.704519 701.150806,329.632573 L724.760271,300.550504 C725.424866,299.731858 726.423121,299.256468 727.477572,299.256468 L950,299.256468 C951.380712,299.256468 952.5,298.13718 952.5,296.756468 L952.5,129 C952.5,127.619288 951.380712,126.5 950,126.5 L690,126.5 Z" id="Rectangle-26" stroke="#979797"></path>
            <path d="M690,482.5 C688.619288,482.5 687.5,483.619288 687.5,485 L687.5,618.939987 C687.5,620.320699 688.619288,621.439987 690,621.439987 L696.604593,621.439987 C697.087033,621.439987 697.564263,621.539725 698.006322,621.732939 C699.777526,622.507093 700.585794,624.570513 699.81164,626.341717 L692.530742,642.999842 C692.152041,643.866279 692.294593,644.872237 692.899111,645.599345 C693.78181,646.661045 695.358057,646.806155 696.419758,645.923456 L724.895547,622.248657 C725.524092,621.726084 726.315717,621.439987 727.133122,621.439987 L950,621.439987 C951.380712,621.439987 952.5,620.320699 952.5,618.939987 L952.5,485 C952.5,483.619288 951.380712,482.5 950,482.5 L690,482.5 Z" id="Rectangle-26-Copy" stroke="#979797" transform="translate(820.000000, 564.500000) scale(1, -1) translate(-820.000000, -564.500000) "></path>
            <path d="M3,670.5 C1.61928813,670.5 0.5,671.619288 0.5,673 L0.5,806.939987 C0.5,808.320699 1.61928813,809.439987 3,809.439987 L9.60459283,809.439987 C10.0870327,809.439987 10.5642632,809.539725 11.0063225,809.732939 C12.7775259,810.507093 13.5857943,812.570513 12.8116404,814.341717 L5.53074188,830.999842 C5.15204132,831.866279 5.29459327,832.872237 5.89911128,833.599345 C6.78181013,834.661045 8.35805727,834.806155 9.4197578,833.923456 L37.8955472,810.248657 C38.5240922,809.726084 39.3157169,809.439987 40.133122,809.439987 L263,809.439987 C264.380712,809.439987 265.5,808.320699 265.5,806.939987 L265.5,673 C265.5,671.619288 264.380712,670.5 263,670.5 L3,670.5 Z" id="Rectangle-26-Copy-2" stroke="#979797" transform="translate(133.000000, 752.500000) scale(1, -1) rotate(-180.000000) translate(-133.000000, -752.500000) "></path>
            <path d="M621,951 L625.726154,951" id="Stroke-175" stroke="#477393" stroke-width="0.972"></path>
            <path d="M627.388211,465.764499 C629.29768,465.576181 629.29768,462.183109 626.815876,462.748065 C624.906407,463.12637 625.669519,465.764499 627.388211,465.764499 M626.625098,461.053196 C631.397927,460.298254 631.588705,467.837673 626.815876,467.27105 C622.996938,466.894412 623.189404,461.618152 626.625098,461.053196" id="Fill-311" fill="#A7A7A7"></path>
            <path d="M630.452308,474 L630.452308,483.452244 L621.045867,483.452244 C621.045867,480.302042 620.861587,476.964992 621.231778,474 L630.452308,474 Z" id="Fill-313" fill="#A7A7A7"></path>
            <path d="M644.452308,474 L644.452308,483.452244 L635.045875,483.452244 C635.045875,480.302042 634.861563,476.964992 635.231818,474 L644.452308,474 Z" id="Fill-315" fill="#A7A7A7"></path>
            <path d="M630.452308,488 L630.452308,497.452244 L621.045867,497.452244 C621.045867,494.302042 620.861587,490.966631 621.231778,488 L630.452308,488 Z" id="Fill-317" fill="#A7A7A7"></path>
            <path d="M644.452308,488 L644.452308,497.452244 L635.045875,497.452244 C635.045875,494.302042 634.861563,490.966631 635.231818,488 L644.452308,488 Z" id="Fill-319" fill="#A7A7A7"></path>
            <path d="M631,379 L631,435.713464" id="Stroke-349" stroke="#477393" stroke-width="0.972" stroke-dasharray="4.861,4.861"></path>
            <polygon id="Fill-351" fill="#477393" points="626 427.536682 627.601225 427 631.514633 437.741546 635.426467 427 637.027692 427.536682 631.514633 442.75374"></polygon>
            <path d="M499.144615,135 C515.241478,135 528.289231,148.048877 528.289231,164.143638 C528.289231,180.239961 515.241478,193.288838 499.144615,193.288838 C483.047753,193.288838 470,180.239961 470,164.143638 C470,148.048877 483.047753,135 499.144615,135 Z" id="Stroke-1" stroke="#635D58" stroke-width="1.645"></path>
            <path d="M499.144615,452 C515.241478,452 528.289231,465.048877 528.289231,481.143638 C528.289231,497.239961 515.241478,510.288838 499.144615,510.288838 C483.047753,510.288838 470,497.239961 470,481.143638 C470,465.048877 483.047753,452 499.144615,452 Z" id="Stroke-3" stroke="#635D58" stroke-width="1.645"></path>
            <path d="M542.110769,482.115075 C542.110769,458.054215 522.405444,438.983312 498,438.983312 L498,208" id="Stroke-5" stroke="#020202" stroke-width="2"></path>
            <path d="M542.387692,482 C542.387692,506.405279 522.910274,526.110472 498.787099,526.110472 C474.665503,526.110472 455.186505,506.405279 455.186505,482 L388,482" id="Stroke-7" stroke="#020202" stroke-width="2"></path>
            <path d="M499.144615,1135 C515.241478,1135 528.289231,1148.04888 528.289231,1164.14364 C528.289231,1180.24152 515.241478,1193.28884 499.144615,1193.28884 C483.047753,1193.28884 470,1180.24152 470,1164.14364 C470,1148.04888 483.047753,1135 499.144615,1135 Z" id="Stroke-9" stroke="#635D58" stroke-width="1.645"></path>
            <path d="M588.110769,482 L544,482" id="Stroke-11" stroke="#020202" stroke-width="2" stroke-linecap="square"></path>
            <polyline id="Stroke-13" stroke="#020202" stroke-width="2" points="455.892308 163 450.576012 163 385 163"></polyline>
            <path d="M499.144615,828 C515.241478,828 528.289231,841.048877 528.289231,857.143638 C528.289231,873.239961 515.241478,886.288838 499.144615,886.288838 C483.047753,886.288838 470,873.239961 470,857.143638 C470,841.048877 483.047753,828 499.144615,828 Z" id="Stroke-15" stroke="#635D58" stroke-width="1.645"></path>
            <path d="M385,857.213993 L456.60724,857.213993 C456.60724,880.379285 475.405091,900.514384 499.572851,900.514384 C523.740611,900.514384 542.538462,880.913469 542.538462,856.857871 C542.538462,832.802273 523.740611,813.735541 499.572851,813.735541 L499.572851,524" id="Stroke-17" stroke="#000000" stroke-width="2"></path>
            <polyline id="Stroke-19" stroke="#020202" stroke-width="2" points="387 393 412.206154 393 412.206154 480.646885 412.206154 564.715765 387 564.715765"></polyline>
            <path d="M500.110769,207.110472 C475.724418,207.110472 456,187.386187 456,163" id="Stroke-21" stroke="#635D58" stroke-width="1.928" stroke-linecap="square"></path>
            <path d="M498,207.605293 C522.386351,207.605293 542.110769,188.097401 542.110769,163.757641 C542.110769,139.417881 522.386351,119.909989 498,119.909989 L498,80" id="Stroke-23" stroke="#020202" stroke-width="2" stroke-linecap="square"></path>
            <path d="M498,1207.7733 C522.386351,1207.7733 542.110769,1188.20974 542.110769,1164.01875 C542.110769,1139.82933 522.386351,1120.2642 498,1120.2642 L498,1121.33219 L498,899" id="Stroke-25" stroke="#020202" stroke-width="2" stroke-linecap="square"></path>
            <path d="M504.178462,1208.44399 C504.178462,1199.852 490,1199.852 490,1208.44399 C490,1218.75649 504.178462,1218.75649 504.178462,1208.44399" id="Fill-27" fill="#635D58"></path>
            <path d="M506.178462,206.444608 C506.178462,197.851797 492,197.851797 492,206.444608 C492,216.756285 506.178462,216.756285 506.178462,206.444608" id="Fill-29" fill="#635D58"></path>
            <path d="M506.178462,80.4446082 C506.178462,71.8517973 492,71.8517973 492,80.4446082 C492,90.7562852 506.178462,90.7562852 506.178462,80.4446082" id="Fill-31" fill="#635D58"></path>
            <path d="M506.178462,524.444608 C506.178462,515.851797 492,515.851797 492,524.444608 C492,534.756285 506.178462,534.756285 506.178462,524.444608" id="Fill-33" fill="#635D58"></path>
            <path d="M506.178462,899.443986 C506.178462,890.852005 492,890.852005 492,899.443986 C492,909.756492 506.178462,909.756492 506.178462,899.443986" id="Fill-35" fill="#635D58"></path>
            <path d="M390.416388,1141.23921 C390.068405,1140.69628 389.720421,1140.15495 389.372437,1139.79566 C389.372437,1139.61362 389.024454,1139.61362 389.024454,1139.61362 C387.282996,1140.15495 386.063514,1139.61362 384.844032,1138.16847 C384.496048,1138.7114 384.148064,1139.25273 383.800081,1139.61362 C383.974073,1139.9745 384.148064,1140.33699 384.322056,1140.51743 C384.496048,1140.69628 384.844032,1141.23921 385.019563,1141.23921 L390.416388,1141.23921 Z M397.032696,1139.79566 C396.162737,1139.61362 395.814753,1139.9745 395.117246,1141.23921 L396.162737,1141.23921 L396.858704,1141.23921 C396.51072,1143.04524 396.162737,1144.66924 395.640761,1146.29483 C395.117246,1148.28131 395.640761,1149.9069 397.032696,1151.17161 C398.600162,1152.7956 400.167627,1154.42119 401.559562,1156.04519 C401.907545,1156.40767 402.083077,1156.94901 402.083077,1157.30989 L402.083077,1166.69937 C402.083077,1167.96407 401.38711,1168.68585 400.341619,1168.68585 C398.252178,1168.68585 397.556211,1165.79715 401.037586,1161.4633 C399.296129,1157.67078 399.993636,1159.29637 398.42617,1155.50546 L396.858704,1155.50546 L396.858704,1156.40767 L396.858704,1166.33848 C396.858704,1167.42114 396.51072,1167.96407 395.640761,1168.14451 C394.595271,1168.32496 393.55132,1167.78363 393.375788,1166.69937 L393.375788,1165.79715 L393.375788,1146.11439 C393.375788,1145.57306 393.027805,1145.03172 393.027805,1144.4888 L391.983854,1144.4888 C391.809862,1145.03172 391.635871,1145.57306 391.635871,1146.11439 L391.635871,1166.33848 C391.635871,1167.2407 391.461879,1167.96407 390.59038,1168.32496 C389.372437,1168.86789 388.152955,1167.96407 388.152955,1166.69937 L388.152955,1156.40767 L388.152955,1155.32341 L386.411497,1155.32341 L386.411497,1156.22723 L386.411497,1166.69937 C386.411497,1167.96407 385.71553,1168.68585 384.496048,1168.68585 C383.278105,1168.68585 382.930122,1167.96407 382.930122,1166.69937 L382.930122,1165.43466 L382.930122,1147.92042 C382.930122,1146.83616 382.75459,1145.7535 382.058623,1144.85128 C381.710639,1144.4888 381.536648,1144.12791 381.188664,1143.94746 L381.188664,1144.30835 L381.188664,1164.71289 C381.188664,1165.43466 381.188664,1166.15803 380.492697,1166.51892 C379.969182,1166.69937 379.273215,1166.88141 378.577247,1166.69937 C378.227724,1166.51892 377.705749,1165.79715 377.705749,1165.25581 L377.705749,1154.60164 L377.705749,1153.69942 C377.183773,1153.69942 378.227724,1153.69942 377.705749,1153.69942 L377.705749,1154.60164 L377.705749,1165.07537 C377.705749,1166.33848 377.009782,1167.06025 376.139823,1167.2407 C375.094332,1167.2407 374.222833,1166.51892 374.222833,1165.07537 L374.222833,1143.76702 C374.222833,1143.76702 373.526866,1142.50232 373.178883,1141.96098 C371.96094,1139.9745 370.741458,1138.16847 369.521975,1136.18199 C369.173992,1135.64066 369,1135.09932 369,1134.37755 L369,1126.25118 C369,1124.98648 369.695967,1124.2647 370.567466,1124.2647 C371.612956,1124.2647 372.482915,1124.98648 372.482915,1126.25118 L372.482915,1134.5564 C372.482915,1134.91888 372.656907,1135.46021 372.830899,1135.8211 C373.352874,1136.90536 374.050381,1137.80918 374.92034,1138.7114 C375.094332,1138.89024 375.442316,1139.25273 375.790299,1139.25273 L377.705749,1139.25273 L377.705749,1136.90536 C375.790299,1136.90536 374.050381,1135.46021 374.398365,1133.11284 C374.572357,1130.76548 379.447206,1130.0421 379.447206,1130.0421 L379.447206,1128.05722 C379.447206,1128.05722 379.79519,1126.25118 380.665149,1126.25118 C381.536648,1126.25118 381.188664,1128.05722 381.188664,1128.05722 L381.188664,1135.8211 L382.930122,1133.65418 L382.930122,1125.34896 C382.930122,1123.90382 383.626089,1123 384.844032,1123 C386.063514,1123 386.411497,1123.72337 386.411497,1125.34896 L386.411497,1131.84814 L386.411497,1132.75196 C387.109004,1132.75196 387.63098,1132.75196 388.152955,1132.57151 L388.152955,1127.87678 C388.152955,1126.79252 388.674931,1125.8903 389.546429,1125.8903 C390.59038,1125.70826 391.461879,1126.43323 391.635871,1127.87678 L391.635871,1135.8211 C391.635871,1136.72492 391.809862,1137.44669 392.505829,1138.16847 C393.027805,1137.62714 393.375788,1137.0858 393.375788,1136.36243 L393.375788,1127.51429 C393.375788,1126.25118 394.073295,1125.52941 394.943254,1125.52941 C395.988745,1125.52941 396.858704,1126.25118 396.858704,1127.51429 L396.858704,1132.02858 L398.600162,1132.02858 L398.600162,1130.0421 C398.600162,1128.96104 399.296129,1128.23766 400.167627,1128.23766 C401.037586,1128.23766 402.083077,1128.96104 402.083077,1129.86326 L402.083077,1135.8211 C399.645652,1136.36243 397.904194,1137.44669 397.032696,1139.79566 L397.032696,1139.79566 Z" id="Fill-37" fill="#000000"></path>
            <path d="M415.097575,1174.45073 L409.505077,1174.45073 C409.324776,1174.45073 409.144476,1174.63039 408.96258,1174.63039 C407.520178,1176.24892 406.076181,1178.04712 404.632183,1179.84531 C406.256481,1181.28259 407.880779,1182.72146 409.324776,1184.15875 C410.406578,1185.2383 410.586878,1186.31785 410.045977,1187.39581 C409.324776,1188.83469 407.339878,1189.37367 406.076181,1188.29411 C403.730682,1186.31785 401.565484,1184.15875 399.039685,1181.82316 C397.777583,1180.74361 397.777583,1179.30474 398.859384,1178.04712 C401.565484,1174.63039 404.271583,1171.21525 407.157982,1167.79853 C407.339878,1167.43921 407.520178,1167.0783 407.520178,1166.72056 L407.520178,1158.80915 C407.520178,1158.44983 407.339878,1157.91085 406.979278,1157.7296 C404.453479,1155.0331 401.745784,1152.15695 399.039685,1149.28079 C398.138183,1148.38249 397.777583,1147.30294 398.138183,1145.86566 C398.679084,1143.88621 399.039685,1142.08961 399.580585,1140.11016 C399.941186,1138.49322 401.385183,1137.59333 402.829181,1137.95424 C404.271583,1138.31356 405.17468,1139.75084 404.814079,1141.18972 C404.453479,1142.627 404.091283,1144.06746 403.730682,1145.50474 C403.730682,1145.86566 403.730682,1146.40305 403.910982,1146.5843 C404.992784,1147.84192 406.256481,1149.10113 407.520178,1150.35875 C407.700479,1150.53841 408.241379,1150.71807 408.42168,1150.71807 L418.165871,1150.71807 C418.165871,1150.71807 418.887072,1150.17909 419.067372,1149.81977 C420.331069,1148.02158 421.412871,1146.40305 422.496268,1144.60644 C422.676568,1144.24553 422.856868,1143.88621 423.578069,1143.34723 L423.578069,1126.6261 C422.856868,1125.36848 423.578069,1124.46859 424.840171,1124.10926 C426.103868,1123.74994 427.367566,1124.28893 427.908466,1125.54814 C428.088767,1125.90746 427.187265,1126.80576 427.187265,1126.80576 L427.187265,1145.32508 C427.187265,1146.04373 426.826665,1146.76237 426.466064,1147.30294 C424.300866,1150.53841 422.314372,1153.59582 420.331069,1156.8313 C419.968873,1157.19221 419.968873,1157.91085 419.968873,1158.26858 L419.968873,1192.07016 C419.968873,1194.04802 418.346171,1195.30564 416.361273,1194.76666 C415.277876,1194.40734 414.556675,1193.32778 414.556675,1191.8905 L414.556675,1175.34903 C415.097575,1175.34903 415.097575,1174.98971 415.097575,1174.45073" id="Fill-39" fill="#000000"></path>
            <path d="M433.700375,1142.09541 C435.321237,1142.09541 436.942099,1141.9184 438.38145,1142.09541 C439.462555,1142.27243 439.822393,1141.56436 440.18223,1140.85473 C440.542068,1140.14666 439.822393,1139.96964 439.642474,1139.6156 C439.642474,1139.43859 439.462555,1139.26 439.282636,1139.08455 C438.201531,1140.50069 436.760588,1141.03174 434.961399,1140.50069 C434.78148,1140.50069 434.599969,1140.50069 434.421643,1140.67928 C434.240132,1141.03174 434.061805,1141.56436 433.700375,1142.09541 M447.023923,1154.67305 L445.404654,1154.67305 L445.404654,1155.73515 L445.404654,1165.65596 L445.404654,1166.54105 C445.223143,1167.4277 444.503467,1167.95875 443.422362,1167.95875 C442.342849,1167.95875 441.803092,1167.25068 441.803092,1166.54105 L441.803092,1163.88422 L441.803092,1144.93083 L441.803092,1144.04417 C441.083417,1145.10628 440.002312,1145.99136 440.002312,1147.58765 L440.002312,1167.95875 C440.002312,1167.95875 440.362149,1169.37489 439.822393,1169.55191 C439.282636,1169.73049 438.561368,1169.73049 438.201531,1169.55191 C437.481855,1169.37646 437.301937,1168.66682 436.40075,1167.95875 L436.40075,1157.68391 L436.40075,1156.44322 L436.40075,1157.50689 L436.40075,1167.78017 C435.681075,1168.66682 435.501156,1169.37489 434.599969,1169.55191 C433.520456,1169.90751 431,1167.95875 431,1167.95875 L431,1162.82055 L431,1147.05503 C432.261024,1146.69943 432.261024,1146.16995 432.079513,1145.99136 C431.539757,1145.46031 431,1144.04417 431,1144.04417 L431,1140.85473 C431,1140.85473 431.539757,1139.08299 432.261024,1138.37492 C432.439351,1138.1979 432.800781,1137.31125 432.800781,1137.31125 L432.800781,1129.16375 C432.800781,1127.92306 433.520456,1126.86095 434.78148,1126.86095 C436.040912,1126.86095 436.40075,1127.74761 436.40075,1129.16375 L436.40075,1133.4153 C437.122018,1133.4153 437.661774,1133.59231 438.201531,1133.59231 L438.201531,1127.74761 L438.201531,1125.62027 C438.201531,1124.55816 438.921206,1124.02711 440.18223,1124.02711 C441.083417,1124.02711 441.803092,1124.73518 441.803092,1125.9743 L441.803092,1134.12337 L443.603873,1136.42616 L443.603873,1135.53951 L443.603873,1129.16375 C442.342849,1127.92306 443.062524,1127.21499 444.14363,1127.21499 C445.223143,1127.21499 445.404654,1129.16375 445.404654,1129.16375 L445.404654,1130.93549 C445.404654,1130.93549 448.644785,1130.75847 449.724298,1131.99759 C450.445566,1132.70723 450.625485,1133.59231 450.625485,1134.65442 C450.445566,1136.78019 448.824704,1137.84386 447.203842,1137.84386 L447.203842,1138.73052 L449.54438,1138.73052 C449.724298,1138.73052 450.085728,1138.55193 450.085728,1138.37492 C450.805404,1137.31125 451.525079,1136.25071 452.426266,1135.18704 C452.786103,1134.65442 452.426266,1133.94635 452.606185,1133.4153 L452.606185,1126.50692 C452.426266,1125.26623 452.966022,1124.37958 454.045535,1124.02711 C455.126641,1123.85009 456.206154,1124.55816 456.206154,1125.62027 L456.206154,1135.53951 C456.206154,1135.89511 456.026235,1136.42616 455.666397,1136.95878 C454.227046,1139.08299 452.786103,1141.21033 451.34516,1143.15909 C450.985323,1143.51155 450.805404,1144.21962 450.805404,1144.75224 L450.805404,1166.18701 C450.805404,1167.25068 450.265647,1167.95875 449.184542,1168.13577 C448.105029,1168.13577 447.383761,1167.42613 447.203842,1166.18701 L447.203842,1155.91217 C447.023923,1155.38112 447.023923,1155.02708 447.023923,1154.67305" id="Fill-41" fill="#000000"></path>
            <path d="M407,1143.11546 C407,1139.7799 409.77956,1137 413.301538,1137 C416.823517,1137 419.603077,1139.7799 419.603077,1143.30068 C419.603077,1146.63623 416.823517,1149.60299 413.301538,1149.60299 C409.77956,1149.41777 407,1146.63623 407,1143.11546" id="Fill-43" fill="#000000"></path>
            <path d="M424.969666,1156.47837 L424.969666,1160.6298 L424.969666,1168.02484 C424.969666,1169.28845 424.180755,1169.82932 423,1169.82932 L423,1168.5673 L423,1159.36618 C423,1159.0056 423.196792,1158.46314 423.393585,1158.28285 C425.756836,1155.03605 428.31688,1151.60737 430.483338,1148.36058 C430.483338,1148.36058 430.680131,1148.18029 430.876923,1148 L430.876923,1148.72116 L430.876923,1168.02484 C430.876923,1169.10816 430.286546,1169.82932 429.302583,1170.00961 C428.513672,1170.19149 427.52971,1169.82932 427.136125,1168.92788 C426.939332,1168.5673 426.939332,1168.20672 426.939332,1167.84614 L426.939332,1157.5617 L426.939332,1156.47996 C426.348955,1156.47837 425.756836,1156.47837 424.969666,1156.47837" id="Fill-45" fill="#000000"></path>
            <path d="M407.133681,1130.24151 C407.507824,1130.24151 407.692424,1130.07197 408.064919,1130.07197 C409.184053,1129.90093 409.929043,1130.58059 410.301538,1131.42829 L410.301538,1131.76887 C410.301538,1133.12519 410.116939,1134.31347 408.439062,1134.99163 C407.507824,1135.33222 406.761185,1136.34796 406.016195,1137.02762 C405.455804,1136.68854 404.710813,1136.34796 404.152071,1135.83934 C403.965823,1135.6698 403.779575,1135.50026 404.710813,1135.33222 L404.710813,1127.6969 C403.779575,1126.67816 404.524566,1126 405.6437,1126 C406.574938,1126 407.319928,1126.67816 407.319928,1127.6969 C407.133681,1128.71414 407.133681,1129.56335 407.133681,1130.24151" id="Fill-47" fill="#000000"></path>
            <path d="M415.642163,1129.78383 C416.007777,1128.53625 416.740623,1128 417.654658,1128 C418.570311,1128.17823 419.117114,1128.7129 419.301538,1129.42738 L419.301538,1137.45224 C417.471851,1135.66841 415.459356,1134.60064 413.081248,1134.60064 C413.081248,1133.35149 412.898441,1131.92411 413.081248,1130.67496 C413.081248,1129.78383 414.178089,1129.42738 415.642163,1129.78383" id="Fill-49" fill="#000000"></path>
            <path d="M379.480436,1109 C379.660715,1109.16701 380.201553,1109.337 380.381833,1109.67401 C380.563707,1110.0125 380.381833,1110.51801 380.021274,1110.85352 C379.480436,1111.52902 379.300157,1112.20303 379.660715,1112.87852 C380.201553,1113.72103 380.924266,1114.56354 381.645383,1115.40754 C382.186221,1116.08155 382.728654,1116.58855 382.907338,1117.26255 C383.630051,1118.61057 383.269492,1119.79157 382.54678,1120.97109 C382.186221,1121.64509 381.284824,1121.81509 380.743987,1121.30958 C380.021274,1120.80258 380.021274,1120.29708 380.563707,1119.79157 C381.104545,1118.94906 380.924266,1118.10506 380.381833,1117.42957 C379.660715,1116.58706 378.939598,1115.74455 378.216885,1114.90204 C377.135209,1113.72103 376.774651,1112.37302 377.135209,1111.02202 C377.495768,1110.17951 378.39876,1109.1685 379.480436,1109" id="Fill-51" fill="#000000"></path>
            <path d="M446.301538,1111.43604 C446.133824,1111.61133 445.964625,1111.96347 445.629195,1112.13877 C444.119762,1112.66466 443.784333,1113.36584 443.952047,1114.94505 C444.119762,1115.99683 444.287477,1117.22545 444.287477,1118.27878 C444.455192,1120.03173 443.448903,1121.78624 441.937986,1122.48898 C441.433357,1122.66272 440.930213,1122.66272 440.427069,1122.31368 C439.756209,1121.78779 439.923924,1120.90976 440.594783,1120.55917 C441.601072,1120.03329 442.105701,1119.15681 441.937986,1118.10348 C441.937986,1116.87486 441.601072,1115.82153 441.601072,1114.59446 C441.434841,1112.48936 442.77656,1110.38426 444.622906,1110.03367 C445.629195,1109.85682 446.301538,1110.38426 446.301538,1111.43604" id="Fill-53" fill="#000000"></path>
            <path d="M403.603786,1107 C405.522348,1107 407.092361,1108.4219 407.615184,1110.37859 C407.789459,1111.26886 407.963733,1112.15755 408.138008,1113.04781 C408.488099,1114.46971 409.00938,1115.53771 410.579393,1115.71545 C411.278033,1115.71545 411.452308,1116.24867 411.452308,1116.95962 C411.278033,1117.67214 410.753667,1118.02762 410.056569,1118.02762 C408.488099,1118.02762 406.916544,1116.78188 406.395263,1115.18066 C406.045171,1114.11424 405.870897,1113.04781 405.696622,1112.15755 C405.522348,1111.44659 405.173799,1110.73407 404.999524,1110.20086 C404.650975,1109.4899 404.12661,1109.31217 403.429512,1109.31217 C402.558139,1109.31217 402.033773,1109.13286 402.033773,1108.4219 C401.859499,1107.71095 402.382322,1107.17774 403.080963,1107 L403.603786,1107 Z" id="Fill-55" fill="#000000"></path>
            <path d="M398.927289,1119.65482 C398.746621,1118.58071 398.746621,1117.68693 398.565954,1116.61283 C398.385287,1115.89781 397.843286,1115.36154 397.119019,1115.36154 C396.39635,1115.36154 395.854349,1115.00403 396.035016,1114.10868 C396.035016,1113.39366 396.757684,1112.85582 397.66102,1113.03457 C399.651556,1113.21491 401.27756,1115.00403 401.27756,1117.14909 L401.27756,1120.01233 C401.27756,1121.44394 401.458227,1122.87398 403.266497,1123.41024 C403.808498,1123.589 403.990764,1124.12684 403.808498,1124.66311 C403.627831,1125.37813 402.905163,1125.73722 402.182494,1125.55688 C400.554891,1125.19937 399.46929,1123.94809 399.107956,1122.33772 C398.927289,1121.44394 398.927289,1120.72734 398.927289,1119.65482 C398.746621,1119.65482 398.927289,1119.65482 398.927289,1119.65482" id="Fill-57" fill="#000000"></path>
            <path d="M428.734754,1111.73749 C428.734754,1113.12117 428.166078,1114.16046 427.027048,1115.02526 C426.268814,1115.71862 425.32102,1116.41046 424.561108,1117.1023 C423.802873,1117.79567 423.234197,1118.83343 423.802873,1119.87119 C424.181991,1120.56455 423.992432,1121.08343 423.423756,1121.42935 C422.663844,1121.7768 421.905609,1121.60231 421.526492,1120.91047 C420.578698,1119.5268 420.957816,1117.44822 422.284727,1116.23597 C423.044639,1115.54413 423.992432,1114.8523 424.941903,1113.9875 C425.32102,1113.64005 425.700138,1113.12117 426.079255,1112.60229 C426.458372,1111.90892 426.268814,1111.39004 425.889696,1110.87269 C425.32102,1110.35229 425.32102,1109.83341 425.889696,1109.31453 C426.458372,1108.79412 427.406166,1108.96708 427.786961,1109.48596 C428.355637,1110.17933 428.545195,1111.04565 428.734754,1111.73749 C428.924313,1111.73749 428.924313,1111.73749 428.734754,1111.73749" id="Fill-59" fill="#000000"></path>
            <path d="M404,1168.45224 L404,1159 C404.712074,1159.68688 405.425723,1160.20357 405.247705,1161.23389 C405.068111,1162.60918 405.068111,1164.15618 405.247705,1165.52995 C405.425723,1166.90524 405.068111,1167.76536 404,1168.45224" id="Fill-61" fill="#000000"></path>
            <path d="M451,1118.70164 C451,1117.68006 451.699827,1117 452.576159,1117 C453.450942,1117 454.150769,1117.68006 454.150769,1118.53163 C454.150769,1119.3817 453.450942,1120.06176 452.576159,1120.06176 C451.699827,1120.40329 451,1119.72173 451,1118.70164" id="Fill-63" fill="#000000"></path>
            <path d="M414.575385,1118 C415.449739,1118 416.150769,1118.66301 416.150769,1119.49323 C416.150769,1120.48774 415.449739,1121.15075 414.575385,1121.15075 C413.701031,1121.15075 413,1120.48774 413,1119.49323 C413,1118.66301 413.701031,1118 414.575385,1118" id="Fill-65" fill="#000000"></path>
            <path d="M432,1114.49254 C432,1113.66416 432.699827,1113 433.576159,1113 C434.450942,1113 435.150769,1113.66416 435.150769,1114.65821 C435.150769,1115.65226 434.450942,1116.15075 433.399654,1116.15075 C432.52487,1115.98507 432,1115.32091 432,1114.49254" id="Fill-67" fill="#000000"></path>
            <path d="M417.575385,1113.15075 C416.701031,1113.15075 416,1112.65349 416,1111.65752 C416,1110.66301 416.701031,1110 417.575385,1110 C418.449739,1110 419.150769,1110.66301 419.150769,1111.49176 C419.150769,1112.48774 418.449739,1113.15075 417.575385,1113.15075" id="Fill-69" fill="#000000"></path>
            <path d="M389.575385,1120 C390.449739,1120 391.150769,1120.66301 391.150769,1121.49323 C391.150769,1122.32199 390.449739,1123.15075 389.575385,1123.15075 C388.701031,1123.15075 388,1122.48774 388,1121.65898 C388,1120.66301 388.701031,1120 389.575385,1120" id="Fill-71" fill="#000000"></path>
            <path d="M375.150769,1119.49254 C375.150769,1120.48805 374.449739,1121.15075 373.575385,1121.15075 C372.701031,1121.15075 372,1120.48805 372,1119.65821 C372,1118.82984 372.701031,1118 373.575385,1118 C374.449739,1118 375.150769,1118.49702 375.150769,1119.49254" id="Fill-73" fill="#000000"></path>
            <path d="M391.301538,1142.15075 L386.192834,1142.15075 C386.022645,1142.15075 385.682265,1141.77882 385.510569,1141.41017 C385.340379,1141.22502 385.17019,1140.85309 385,1140.4828 C385.340379,1139.92737 385.682265,1139.55707 386.022645,1139 C387.043783,1140.4828 388.406807,1141.03824 390.108704,1140.4828 C390.2804,1140.4828 390.45059,1140.4828 390.45059,1140.66795 C390.62078,1141.03824 390.961159,1141.41017 391.301538,1142.15075" id="Fill-75" fill="#FFFFFF"></path>
            <path d="M432,1143.12222 C432.336861,1142.57153 432.672238,1142.01921 432.838443,1141.6537 C433.007615,1141.46852 433.175304,1141.46852 433.342992,1141.46852 C435.021361,1142.01921 436.195181,1141.46852 437.370484,1140 C437.538173,1140.18194 437.705861,1140.36713 437.705861,1140.55069 C437.87355,1140.91945 438.544304,1141.28495 438.208927,1141.83727 C437.87355,1142.57153 437.538173,1143.30578 436.530558,1143.12222 C434.852189,1142.93865 433.510681,1143.12222 432,1143.12222" id="Fill-77" fill="#FFFFFF"></path>
            <path d="M629.384615,442 C651.134966,442 668.769231,459.632562 668.769231,481.38435 C668.769231,503.136137 651.134966,520.7687 629.384615,520.7687 C607.632681,520.7687 590,503.136137 590,481.38435 C590,459.632562 607.632681,442 629.384615,442 Z" id="Stroke-79" stroke="#000000" stroke-width="1.5"></path>
            <path d="M350.384615,442 C372.136549,442 389.769231,459.632562 389.769231,481.38435 C389.769231,503.136137 372.136549,520.7687 350.384615,520.7687 C328.632681,520.7687 311,503.136137 311,481.38435 C311,459.632562 328.632681,442 350.384615,442 Z" id="Stroke-81" stroke="#000000" stroke-width="1.5"></path>
            <path d="M350.384615,357 C372.136549,357 389.769231,374.632562 389.769231,396.38435 C389.769231,418.134554 372.136549,435.7687 350.384615,435.7687 C328.632681,435.7687 311,418.134554 311,396.38435 C311,374.632562 328.632681,357 350.384615,357 Z" id="Stroke-83" stroke="#000000" stroke-width="1.5"></path>
            <path d="M345.384615,124 C367.136549,124 384.769231,141.634146 384.769231,163.38435 C384.769231,185.136137 367.136549,202.7687 345.384615,202.7687 C323.632681,202.7687 306,185.136137 306,163.38435 C306,141.634146 323.632681,124 345.384615,124 Z" id="Stroke-85" stroke="#000000" stroke-width="1.5"></path>
            <path d="M348.384615,527 C370.136549,527 387.769231,544.632562 387.769231,566.38435 C387.769231,588.136137 370.136549,605.7687 348.384615,605.7687 C326.632681,605.7687 309,588.136137 309,566.38435 C309,544.632562 326.632681,527 348.384615,527 Z" id="Stroke-87" stroke="#000000" stroke-width="1.5"></path>
            <path d="M348.384615,817 C370.136549,817 387.769231,834.634146 387.769231,856.38435 C387.769231,878.136137 370.136549,895.7687 348.384615,895.7687 C326.632681,895.7687 309,878.136137 309,856.38435 C309,834.634146 326.632681,817 348.384615,817 Z" id="Stroke-89" stroke="#000000" stroke-width="1.5"></path>
            <text id="1" font-family="AvenirNext-Bold, Avenir Next" font-size="36" font-weight="bold" fill="#6390B1">
                <tspan x="487" y="178">1</tspan>
            </text>
            <text id="2" font-family="AvenirNext-Bold, Avenir Next" font-size="36" font-weight="bold" fill="#6390B1">
                <tspan x="487" y="495">2</tspan>
            </text>
            <text id="4" font-family="AvenirNext-Bold, Avenir Next" font-size="36" font-weight="bold" fill="#6390B1">
                <tspan x="486" y="1178">4</tspan>
            </text>
            <text id="3" font-family="AvenirNext-Bold, Avenir Next" font-size="36" font-weight="bold" fill="#6390B1">
                <tspan x="488" y="871">3</tspan>
            </text>
            <path d="M296.539415,565 L289.395477,565 L286.001198,565 C278.500299,565 276,570.671486 276,577.602373 L276,579.178018 L276,590.206139 L276,609.111091 C276,616.041978 278.6772,621.713464 286.001198,621.713464 L292.788176,621.713464 L477.649231,621.713464" id="Stroke-165" stroke="#477393" stroke-width="0.972" stroke-dasharray="4.926,4.926"></path>
            <path d="M481,620 L485.726154,620" id="Stroke-167" stroke="#477393" stroke-width="0.972"></path>
            <polygon id="Fill-169" fill="#477393" points="475.538268 627.027618 475 625.426403 485.741619 621.513023 475 617.599642 475.538268 616 490.753846 621.513023"></polygon>
            <path d="M310.726154,863 L306,863" id="Stroke-171" stroke="#000000" stroke-width="0.972"></path>
            <path d="M296.647339,855 L289.349858,855 L285.967138,855.178758 C278.491785,855.178758 276,864.839613 276,876.825907 L276,879.507281 L276,898.469892 L276,931.029203 C276,943.013915 278.669657,952.673188 285.967138,952.673188 L292.731003,952.673188 L613.132308,952.673188" id="Stroke-173" stroke="#477393" stroke-width="0.972" stroke-dasharray="4.842000000000001,4.842"></path>
            <polygon id="Fill-177" fill="#477393" points="612.536685 957.027618 612 955.425059 622.740035 951.513809 612 947.600986 612.536685 946 627.753846 951.513809"></polygon>
            <path d="M296.48,488 L289.356727,488 L285.972267,488 C278.493067,488 276,494.38192 276,502.180998 L276,503.954015 L276,516.363564 L276,571.494822" id="Stroke-181" stroke="#477393" stroke-width="0.972" stroke-dasharray="4.877,4.877"></path>
            <path d="M276,576 L276,580.726122" id="Stroke-183" stroke="#000000" stroke-width="0.972"></path>
            <polygon id="Fill-185" fill="#477393" points="270 570.536682 271.601225 570 275.514633 580.741546 279.42804 570 281.027692 570.536682 275.514633 585.75374"></polygon>
            <path d="M296.48,403 L289.017938,403 L285.719712,403 C278.429544,403 276,409.359229 276,417.130579 L276,418.897292 L276,431.26272 L276,480.193326" id="Stroke-189" stroke="#477393" stroke-width="0.972" stroke-dasharray="4.606,4.606"></path>
            <path d="M276,485 L276,489.726122" id="Stroke-191" stroke="#000000" stroke-width="0.972"></path>
            <polygon id="Fill-193" fill="#477393" points="270 478.536682 271.601225 478 275.514633 488.741546 279.42804 478 281.027692 478.536682 275.514633 493.75374"></polygon>
            <path d="M346,217 L346,221.726122" id="Stroke-195" stroke="#477393"></path>
            <path d="M346,222 L346,236.090047 C346,243.93625 352.431589,250.356732 360.291367,250.356732 L484.633846,250.356732" id="Stroke-197" stroke="#477393" stroke-dasharray="5.143,5.143"></path>
            <path d="M487,250 L491.726154,250" id="Stroke-199" stroke="#000000"></path>
            <polygon id="Fill-201" fill="#477393" points="481.692006 256.027618 481 254.304219 491.733743 250.513047 481 246.723399 481.692006 245 496.753846 250.513047"></polygon>
            <path d="M346.624365,126.011749 C346.630491,127.144925 346.293539,128.84803 347.161957,129.220742 C347.335028,129.21907 347.508099,129.21907 347.68117,129.217399 C348.892667,129.210713 348.189661,127.325431 348.356606,126.00005 C349.221961,125.995036 349.744237,126.369418 350.438052,126.554938 C350.442647,127.499251 350.448774,128.443564 350.624908,129.199014 C351.666397,129.381191 352.182547,128.811261 352.003349,127.678085 C353.917851,129.366149 355.486211,131.246418 355.677661,134.647615 C356.546079,135.020326 357.242958,135.770763 356.729871,136.908952 C350.494722,136.949064 344.432643,136.987506 338.197493,137.027618 C337.846756,136.084976 337.839098,134.762939 339.225198,134.943444 C339.205287,131.16285 340.928339,129.451388 342.476788,127.551063 C342.999064,128.114308 342.659048,129.439688 343.870545,129.053607 C344.559766,128.670867 344.380568,127.348829 344.374442,126.404517 C345.241329,126.397831 345.75901,126.016763 346.624365,126.011749" id="Fill-203" fill="#A7A7A7"></path>
            <path d="M356.187018,138.216396 C358.317735,151.192236 335.744007,149.877904 339.401848,138.131857 C344.811099,138.281793 351.148829,137.70438 356.187018,138.216396" id="Fill-205" fill="#A7A7A7"></path>
            <path d="M346.025282,154.524894 C347.296055,155.411711 349.102311,155.400646 350.363494,154.499601 C350.176474,153.427833 349.987856,152.356064 349.62181,151.464504 C346.725406,150.76738 346.012494,152.379776 346.025282,154.524894 M369.535385,156.353856 C367.185653,156.54513 365.206764,158.16701 363.216685,157.82082 C361.228205,157.653257 360.31069,155.512881 358.501237,155.16669 C357.964156,156.064573 358.517222,157.847693 358.344589,159.101251 C355.45298,159.295687 353.290268,160.381683 350.39866,160.577699 C350.389069,158.968466 349.840798,157.898278 349.829609,156.110416 C349.46676,155.756321 347.302449,156.48348 346.575151,155.952338 C346.766966,157.738619 346.052456,158.993758 346.060448,160.602992 C343.167241,160.440172 340.99334,159.381049 338.100133,159.21981 C338.092141,157.967832 338.084149,156.537226 338.076156,155.28683 C336.271499,155.833779 335.015112,157.270708 333.392678,157.994705 C331.221974,157.650095 329.049671,157.305485 327.057994,156.602038 C326.693546,156.067735 328.130558,154.629225 329.030489,153.909971 C331.548059,151.749045 337.486326,147.245403 342.732461,148.108509 C345.627266,148.628585 349.62181,151.285876 353.216739,148.046859 C361.169062,148.001016 366.25695,152.439845 369.535385,156.353856" id="Fill-207" fill="#A7A7A7"></path>
            <path d="M325,159.264922 C332.254125,160.656158 339.155077,162.409083 346.409202,163.800319 C346.778003,166.309937 345.74036,170.26314 346.987406,172.049379 C348.221952,171.682931 347.681252,169.712674 347.671876,168.27702 C347.664062,166.841367 347.653123,165.048782 347.646872,163.792387 C354.705658,162.136229 361.587857,160.480072 369.001379,159 C369.037322,165.278804 369.074827,171.557608 369.110769,177.836413 C365.404008,178.575655 361.873834,179.314898 358.167073,180.054141 C354.636899,180.793384 350.936388,182.608177 347.403089,182.630386 C343.868226,182.651009 339.619203,181.242323 336.081215,180.545912 C332.541665,179.670242 329.000552,178.615314 325.28754,178.099748 C325.073448,171.82253 325.035942,165.543726 325,159.264922" id="Fill-209" fill="#A7A7A7"></path>
            <path d="M322.889676,160 C323.421936,164.304459 322.942152,169.512028 323.138563,174.178366 C317.196745,172.959404 321.210434,162.882337 322.889676,160" id="Fill-211" fill="#A7A7A7"></path>
            <path d="M338.300388,189 C337.93541,189.001466 337.937025,189.334281 338.124359,189.829839 C338.129204,190.658211 338.132434,191.322375 338.138893,192.150748 L347.452308,192.100899 C347.449078,191.603875 347.447463,191.272526 347.444233,190.774037 C344.517944,190.127466 341.409166,189.480896 338.300388,189" id="Fill-213" fill="#A7A7A7"></path>
            <path d="M349,183.006597 C349.00167,183.333085 349.005011,183.822816 349.008352,184.150748 L358.452308,184.10163 C358.443956,182.95748 358.248529,181.979462 358.053103,181 C355.034845,181.505622 351.826172,182.012689 349,183.006597" id="Fill-215" fill="#A7A7A7"></path>
            <path d="M351.792454,467.744872 C355.77315,467.922471 359.753846,465.434515 359.753846,460.103404 C359.753846,457.613877 358.714672,455.481118 357.158206,453.882728 C355.60021,452.282767 353.350451,451.74997 350.927751,452.105168 C349.023873,452.282767 347.292936,453.172333 346.082352,454.415525 C344.870237,455.660289 344.005533,457.436278 344.005533,459.569036 C343.831062,464.724119 347.811758,467.567273 351.792454,467.744872" id="Fill-217" fill="#A7A7A7"></path>
            <path d="M368.967518,465.702233 C367.565178,465.702233 365.985995,465.002593 364.932688,463.951585 C363.880933,462.902125 363.179763,461.501296 363.530348,460.100468 C364.056226,458.34982 366.336579,458.876098 367.915763,460.276926 C369.493396,461.851117 370.546702,464.126495 368.967518,465.702233 M363.355056,464.652773 C362.30175,463.251945 361.775872,461.501296 362.827627,460.100468 C362.652335,461.501296 363.00292,462.902125 363.880933,464.126495 C364.757396,465.352413 365.985995,466.052053 367.738919,466.052053 C366.161287,466.753241 364.406811,466.052053 363.355056,464.652773 M364.757396,458 L363.00292,458 C362.30175,458 361.775872,458.176458 361.775872,458.176458 C359.670811,460.276926 356.687736,463.077035 353.53092,466.052053 C350.547845,469.027072 347.215737,472.003638 344.584798,474.453926 C342.830322,476.029665 341.077397,477.254035 340.024091,478.829773 C338.970785,480.230601 338.6202,481.981249 339.496662,484.781358 C342.830322,482.8558 346.163982,480.405511 349.496091,478.130133 C352.82975,475.854755 356.337151,473.404466 359.670811,471.12754 C361.074702,470.25299 362.827627,468.853709 364.582103,467.802701 C366.336579,466.928151 368.091056,466.576783 370.020824,467.627791 C370.897287,465.177503 370.546702,462.902125 369.319654,461.151476 C368.266348,459.400828 366.336579,458.176458 364.757396,458" id="Fill-219" fill="#A7A7A7"></path>
            <path d="M339.547906,484.705056 C340.093163,482.930305 341.185285,481.511759 342.45755,480.446281 L342.45755,482.221032 L342.45755,483.995783 C343.913177,482.930305 345.732307,481.334441 347.368078,479.737008 C349.187208,478.139576 350.824587,476.542143 352.461966,475.123597 C353.007222,474.591643 353.734231,474.058119 354.281097,473.526164 C354.826353,472.99421 355.189858,472.460686 355.008105,472.10605 C352.82547,472.460686 350.824587,472.283368 349.005456,472.10605 C347.187934,471.928732 345.548947,471.928732 343.731424,472.460686 C340.82178,473.348846 338.274032,475.655552 336.273149,478.494212 C334.454018,481.511759 333.181752,485.059692 333,488.609194 C333,491.447855 333.363504,494.110766 334.090513,496.594789 C334.819131,499.078813 335.909644,501.208201 337.001766,503.337588 C341.185285,504.046861 341.730541,502.449428 341.367037,500.142722 C340.82178,497.658699 339.366154,494.465402 339.002649,491.625173 C338.639145,488.786513 339.002649,486.479807 339.547906,484.705056" id="Fill-221" fill="#A7A7A7"></path>
            <path d="M366.35795,468.643174 C366.712882,468.824782 366.712882,469.006391 366.535416,469.187999 C366.35795,469.551216 366.180484,469.91604 366.180484,470.279257 C366.180484,471.552124 366.535416,472.641775 367.245279,473.733033 C367.956713,474.822683 369.021508,475.549117 370.087873,475.912334 C368.48911,476.277158 366.890348,475.1859 366.180484,473.549817 C365.470621,471.915341 365.114119,469.91604 366.35795,468.643174 M369.198973,468.279957 C370.265339,468.461565 371.507599,469.551216 372.039997,471.005691 C372.573965,472.460166 372.751431,474.276251 371.862531,475.549117 C369.731371,476.093943 367.956713,474.276251 367.422745,472.278558 C366.712882,470.097649 367.067813,468.098348 369.198973,468.279957 M361.740698,484.454362 C363.160425,483.546319 365.470621,482.455061 367.956713,481.183802 C370.442805,479.910935 372.573965,478.45646 373.283828,477.185201 C374.703554,475.1859 373.816225,472.095342 372.039997,469.91604 C370.265339,467.735131 367.777677,466.280656 365.825553,467.370307 C363.515356,468.824782 361.20673,470.279257 359.07557,471.732125 C356.94441,473.1866 354.81325,474.822683 352.68209,476.458767 C350.5525,478.093243 348.242303,479.547718 346.111143,481.000586 C343.979983,482.455061 341.850393,484.091145 339.719233,485.908837 C340.606562,487.726529 341.493891,490.452263 341.316425,492.633172 C341.316425,494.814081 340.251631,496.450164 337.409037,495.903732 C335.98931,495.722123 335.277877,494.995689 334.745479,493.904431 C334.213082,492.81478 333.85815,491.360305 333.503219,490.089046 C332.436853,490.452263 331.549524,490.997088 330.662195,491.723522 C329.773296,492.449956 328.885967,493.359606 327.819601,494.267648 C326.932272,494.814081 325.688441,495.358906 324.623646,496.08534 C323.557281,496.813381 322.492486,497.539815 322.135984,498.447858 C321.781052,499.902333 322.135984,501.538416 323.024883,502.809675 C323.912212,504.082542 325.156044,504.808976 326.399875,504.808976 C326.932272,504.808976 327.46467,504.627367 328.176103,504.26415 L328.351999,504.082542 L328.351999,498.99429 L328.351999,493.904431 C328.351999,493.904431 328.885967,493.359606 329.950761,492.996389 C330.83809,492.633172 332.259387,492.633172 333.680684,493.904431 C334.745479,494.995689 335.101981,495.903732 334.922945,496.631773 C334.922945,497.358207 334.568013,497.721424 334.568013,497.721424 L337.054105,497.721424 L338.297936,497.721424 C341.13896,495.903732 344.159019,494.267648 347.000043,492.633172 C351.972226,490.089046 356.768515,487.180096 361.740698,484.454362" id="Fill-223" fill="#A7A7A7"></path>
            <path d="M331.27021,494 C330.088111,495.890449 328.401532,497.094014 326.882118,498.467781 C325.362704,499.843067 323.84329,501.218354 323,503.452244 C324.350756,502.763841 326.038828,501.733516 327.725408,500.529951 C329.41348,499.326385 331.101552,498.124339 332.452308,496.920774 C332.113499,496.577332 332.113499,495.890449 332.113499,495.203565 C331.776183,494.686883 331.607525,494.171721 331.27021,494" id="Fill-225" fill="#A7A7A7"></path>
            <path d="M360.904615,486.182535 C360.904615,486 360.904615,486 360.904615,486.182535 C360.904615,486 360.731305,486 360.731305,486 C357.610188,488.192035 354.487537,490.019001 351.364886,491.844351 C348.243768,493.671316 344.947807,495.498282 342,497.507782 L342,498.602992 L350.671645,498.602992 L350.671645,497.142712 C350.671645,496.777642 350.498335,495.863352 350.498335,495.133212 C350.498335,494.401456 350.671645,493.855467 351.53973,493.855467 C352.05966,494.036386 352.406281,494.766526 352.406281,495.315747 C352.406281,496.045887 352.23297,496.777642 352.23297,497.325247 L352.23297,498.602992 L352.926211,498.602992 L360.904615,498.602992 L360.904615,486.182535 Z" id="Fill-227" fill="#A7A7A7"></path>
            <path d="M349.679384,359 C349.679384,360.139918 349.333221,361.851477 350.198629,362.23145 L350.719406,362.23145 C351.930977,362.23145 351.238651,360.331586 351.411732,359 C352.277141,359 352.797917,359.379973 353.490244,359.569959 C353.490244,360.521573 353.490244,361.471505 353.663326,362.23145 C354.703347,362.421437 355.222592,361.851477 355.04951,360.711559 C356.95494,362.421437 358.514207,364.322982 358.685757,367.7461 C359.552697,368.126073 360.245023,368.886018 359.725778,370.027618 L341.192256,370.027618 C340.846093,369.076005 340.846093,367.7461 342.232278,367.936086 C342.232278,364.132996 343.964626,362.421437 345.522361,360.521573 C346.041606,361.091532 345.695443,362.421437 346.908546,362.041464 C347.600873,361.661491 347.427791,360.331586 347.427791,359.379973 C348.294731,359.379973 348.813976,359 349.679384,359" id="Fill-229" fill="#A7A7A7"></path>
            <path d="M359.197094,371.24812 C361.248057,384.260205 338.689104,382.813885 342.416781,371.06753 C347.824466,371.24812 354.163659,370.706349 359.197094,371.24812" id="Fill-231" fill="#A7A7A7"></path>
            <path d="M349.036665,387.537871 C350.302633,388.429104 352.108874,388.429104 353.374841,387.537871 C353.194217,386.466813 353.013593,385.397332 352.652345,384.506099 C349.76076,383.791534 349.036665,385.397332 349.036665,387.537871 M372.535385,389.500162 C370.184074,389.678409 368.197209,391.284207 366.208745,390.926136 C364.220281,390.747889 363.31716,388.607351 361.509321,388.250858 C360.96585,389.143669 361.509321,390.926136 361.327098,392.175441 C358.435514,392.353687 356.266426,393.423168 353.374841,393.602992 C353.374841,391.997194 352.832969,390.926136 352.832969,389.143669 C352.470122,388.787175 350.302633,389.500162 349.578538,388.965422 C349.76076,390.747889 349.036665,391.997194 349.036665,393.602992 C346.145081,393.423168 343.975993,392.353687 341.08281,392.175441 L341.08281,388.250858 C339.276569,388.787175 338.010601,390.213149 336.383386,390.926136 C334.215896,390.569643 332.046808,390.213149 330.056746,389.500162 C329.695498,388.965422 331.142089,387.537871 332.046808,386.823306 C334.577145,384.682768 340.540938,380.225022 345.783833,381.116256 C348.675417,381.650996 352.652345,384.326275 356.266426,381.116256 C364.220281,381.116256 369.280953,385.575579 372.535385,389.500162" id="Fill-233" fill="#A7A7A7"></path>
            <path d="M330,390 C337.264068,391.442116 344.172531,393.246357 351.435033,394.690069 C351.789072,397.215368 350.726955,401.184379 351.966092,402.98862 C353.206795,402.628091 352.675736,400.643585 352.675736,399.199874 L352.675736,394.690069 C359.761219,393.066093 366.669681,391.442116 374.110769,390 L374.110769,408.942136 C370.390225,409.663194 366.846701,410.384253 363.126157,411.105311 C359.584199,411.827964 355.863655,413.63061 352.321697,413.63061 C348.778173,413.63061 344.52657,412.188493 340.983046,411.467435 C337.441088,410.564517 333.897564,409.481335 330.17702,408.942136 C330,402.628091 330,396.314045 330,390" id="Fill-235" fill="#A7A7A7"></path>
            <path d="M327.919851,397 C328.424062,401.307633 327.919851,406.512028 328.087921,411.178366 C322.200994,409.922899 326.237659,399.871226 327.919851,397" id="Fill-237" fill="#A7A7A7"></path>
            <path d="M341.302968,419 C340.937253,419 340.937253,419.331503 341.120111,419.828758 L341.120111,422.150748 L350.452308,422.150748 L350.452308,420.824735 C347.524972,420.161728 344.413161,419.497255 341.302968,419" id="Fill-239" fill="#A7A7A7"></path>
            <path d="M352,413.98956 L352,415.150748 L361.452308,415.150748 C361.452308,413.98956 361.263395,412.994047 361.074483,412 C358.050213,412.497024 354.835358,412.994047 352,413.98956" id="Fill-241" fill="#A7A7A7"></path>
            <path d="M332.114637,411.121942 C333.424039,410.659947 334.150769,411.583937 334.150769,412.663288 C334.005423,414.666628 330.369197,414.820627 331.095928,412.047295 C331.095928,411.891933 331.531966,411.27594 332.114637,411.121942" id="Fill-243" fill="#A7A7A7"></path>
            <path d="M369.176363,411.081041 C370.352726,410.775911 370.940258,411.38752 371.08714,411.997779 C371.674672,414.592729 368,414.897858 368,412.608038 C368,411.69265 368.441949,411.233605 369.176363,411.081041" id="Fill-245" fill="#A7A7A7"></path>
            <path d="M365.779519,428.631208 C366.136604,428.110681 365.779519,426.374055 365.600977,425.331466 C365.063771,422.900803 364.706687,420.817159 364.17106,418.560006 C363.992518,417.343908 364.17106,415.955835 363.278349,415.260264 C355.77326,414.913245 345.947122,414.913245 338.622154,415.260264 C337.906406,416.129344 337.549322,419.255578 337.192237,421.68624 C337.012115,422.900803 336.655031,423.768349 336.478069,424.984447 C336.297947,426.027037 335.76232,427.935637 336.120984,428.457699 C336.835153,429.847307 339.693407,428.631208 341.658951,428.978226 C341.301866,427.41511 340.943202,425.331466 341.301866,423.421331 C342.551661,422.727294 345.590038,422.553785 346.661291,423.596375 C347.018375,425.331466 346.661291,427.588619 346.304206,428.978226 L355.594717,428.978226 C355.237633,427.588619 354.521885,425.331466 355.237633,423.421331 C356.489008,422.727294 359.704347,422.553785 360.597057,423.596375 C361.134264,425.680019 360.418515,427.588619 360.061431,428.804717 C362.205517,428.631208 364.886809,429.847307 365.779519,428.631208" id="Fill-247" fill="#A7A7A7"></path>
            <path d="M333.862079,424.435071 C328.774616,424.785172 330.25924,419.705601 330.047419,416.201487 C330.682883,414.799531 333.226615,414.62448 334.073901,415.676334 C335.558525,417.778493 334.073901,422.507963 333.862079,424.435071" id="Fill-249" fill="#A7A7A7"></path>
            <path d="M368.498169,424.435164 C368.056504,422.170287 367.319091,415.375655 369.381501,415.02745 C370.413357,414.851806 370.707801,415.549758 371.150769,416.246169 C370.855023,419.731307 371.886879,424.783369 368.498169,424.435164" id="Fill-251" fill="#A7A7A7"></path>
            <path d="M327.641908,394.777714 C328.448576,398.595688 323.201667,398.595688 323,395.413731 C323,392.655784 327.036907,392.019767 327.641908,394.777714" id="Fill-253" fill="#FFFFFF"></path>
            <path d="M327.610179,409.720218 C328.610522,413.901529 322.804991,413.483583 323.00506,409.929191 C323.205128,407.83761 327.009973,407.001718 327.610179,409.720218" id="Fill-255" fill="#FFFFFF"></path>
            <path d="M329.114637,179.121942 C330.424039,178.659947 331.150769,179.583937 331.150769,180.663288 C331.005423,182.666628 327.369197,182.820627 328.095928,180.047295 C328.095928,179.891933 328.533253,179.27594 329.114637,179.121942" id="Fill-257" fill="#A7A7A7"></path>
            <path d="M365.175541,179.081149 C366.352381,178.77603 366.940152,179.386268 367.087094,179.997855 C367.674865,182.592713 364,182.897832 364,180.608092 C364,179.691386 364.440828,179.233708 365.175541,179.081149" id="Fill-259" fill="#A7A7A7"></path>
            <path d="M362.779519,197.631149 C363.136604,197.110566 362.779519,195.373752 362.600977,194.332585 C362.065351,191.901659 361.706687,189.81779 361.17106,187.558856 C360.992518,186.344161 361.17106,184.954403 360.278349,184.260292 C352.77326,183.913236 342.947122,183.913236 335.622154,184.260292 C334.906406,185.127931 334.549322,188.254503 334.192237,190.685429 C334.013695,191.901659 333.656611,192.769298 333.478069,193.983993 C333.297947,195.026696 332.76232,196.937038 333.120984,197.457621 C333.835153,198.84738 336.693407,197.631149 338.658951,197.978205 C338.301866,196.414919 337.944782,194.332585 338.301866,192.422243 C339.551661,191.726596 342.590038,191.553068 343.661291,192.595771 C344.018375,194.332585 343.661291,196.589982 343.304206,197.978205 L352.594717,197.978205 C352.237633,196.589982 351.523465,194.332585 352.237633,192.422243 C353.489008,191.726596 356.704347,191.553068 357.598637,192.595771 C358.134264,194.67964 357.418515,196.589982 357.061431,197.804677 C359.205517,197.631149 361.886809,198.84738 362.779519,197.631149" id="Fill-261" fill="#A7A7A7"></path>
            <path d="M330.862861,193.43507 C325.775099,193.785194 327.259811,188.705295 327.046102,185.202504 C327.683479,183.800458 330.22736,183.623846 331.074695,184.675768 C332.557532,186.778062 331.074695,191.507837 330.862861,193.43507" id="Fill-263" fill="#A7A7A7"></path>
            <path d="M364.497646,193.435163 C364.055893,191.170192 363.319638,184.375278 365.382454,184.027058 C366.413211,183.852948 366.707713,184.549388 367.150769,185.247369 C366.856267,188.731111 367.887024,193.783383 364.497646,193.435163" id="Fill-265" fill="#A7A7A7"></path>
            <path d="M340.777198,195.084245 C344.59594,194.277583 344.59594,199.524456 341.41303,199.726122 C338.655884,199.726122 338.020052,195.689242 340.777198,195.084245" id="Fill-267" fill="#FFFFFF"></path>
            <path d="M353.719725,195.115974 C357.901687,194.115638 357.48386,199.92113 353.928638,199.721062 C351.837657,199.520995 351.002004,195.716176 353.719725,195.115974" id="Fill-269" fill="#FFFFFF"></path>
            <path d="M328.114637,584.121942 C329.424039,583.659947 330.150769,584.583937 330.150769,585.663288 C330.005423,587.666628 326.369197,587.820627 327.095928,585.047295 C327.095928,584.739298 327.533253,584.27594 328.114637,584.121942" id="Fill-271" fill="#A7A7A7"></path>
            <path d="M362.176363,582.081041 C363.352726,581.775911 363.940258,582.38752 364.08714,582.997779 C364.674672,585.592729 361,585.897858 361,583.608038 C361,582.69265 361.441949,582.233605 362.176363,582.081041" id="Fill-273" fill="#A7A7A7"></path>
            <path d="M360.778822,599.631208 C361.137481,599.110681 360.778822,597.374055 360.600283,596.333001 C360.064665,593.900803 359.707587,591.817159 359.170389,589.560006 C358.99343,588.343908 359.170389,586.955835 358.277693,586.260264 C350.772727,585.913245 340.94675,585.913245 333.621903,586.260264 C332.906166,587.129344 332.549087,590.255578 332.192009,592.68624 C332.01347,593.900803 331.656391,594.768349 331.477852,595.984447 C331.299313,597.027037 330.762115,598.937172 331.120774,599.457699 C331.83493,600.847307 334.693138,599.631208 336.658649,599.978226 C336.301571,598.41511 335.944492,596.333001 336.301571,594.421331 C337.552925,593.727294 340.589672,593.553785 341.660907,594.596375 C342.017985,596.333001 341.660907,598.588619 341.303828,599.978226 L350.595767,599.978226 C350.238689,598.588619 349.522952,596.333001 350.238689,594.421331 C351.488463,593.727294 354.703749,593.553785 355.598025,594.596375 C356.133643,596.680019 355.419486,598.588619 355.062408,599.804717 C357.206458,599.631208 359.886126,600.847307 360.778822,599.631208" id="Fill-275" fill="#A7A7A7"></path>
            <path d="M330.862181,598.435071 C325.775315,598.785172 327.259765,593.705601 327.046094,590.201487 C327.683358,588.799531 330.226791,588.62448 331.073977,589.676334 C332.558427,591.603442 331.073977,596.507963 330.862181,598.435071" id="Fill-277" fill="#A7A7A7"></path>
            <path d="M363.498376,596.435164 C363.056527,594.170287 362.31881,587.375655 364.382072,587.02745 C365.414355,586.851806 365.708921,587.549758 366.150769,588.246169 C365.856204,591.731307 366.888487,596.783369 363.498376,596.435164" id="Fill-279" fill="#A7A7A7"></path>
            <path d="M337.777726,597.084245 C341.595726,596.277583 341.595726,601.524456 338.413747,601.726122 C335.655781,601.726122 335.019761,597.689242 337.777726,597.084245" id="Fill-281" fill="#FFFFFF"></path>
            <path d="M351.719973,597.115974 C355.902541,596.115638 355.482805,601.92113 351.928917,601.721062 C349.837633,601.320928 349.001859,597.716176 351.719973,597.115974" id="Fill-283" fill="#FFFFFF"></path>
            <path d="M332.114637,499.121942 C333.424039,498.659947 334.150769,499.583937 334.150769,500.663288 C334.005423,502.666628 330.369197,502.820627 331.095928,500.047295 C331.095928,499.891933 331.533253,499.27594 332.114637,499.121942" id="Fill-285" fill="#A7A7A7"></path>
            <path d="M367.176363,494.081149 C368.352726,493.77603 368.940258,494.386268 369.08714,494.997855 C369.674672,497.592713 366,497.897832 366,495.608092 C366,494.691386 366.441949,494.233708 367.176363,494.081149" id="Fill-287" fill="#A7A7A7"></path>
            <path d="M364.778822,512.631149 C365.137481,512.110566 364.778822,510.373752 364.600283,509.332585 C364.064665,506.901659 363.707587,504.81779 363.170389,502.558856 C362.99343,501.344161 363.170389,499.954403 362.277693,499.260292 C354.772727,498.913236 344.94675,498.913236 337.621903,499.260292 C336.906166,500.127931 336.549087,503.254503 336.192009,505.685429 C336.01347,506.901659 335.656391,507.769298 335.477852,508.983993 C335.299313,510.026696 334.762115,511.937038 335.120774,512.457621 C335.83493,513.84738 338.693138,512.631149 340.658649,512.978205 C340.301571,511.414919 339.944492,509.332585 340.301571,507.422243 C341.552925,506.726596 344.589672,506.553068 345.660907,507.595771 C346.017985,509.332585 345.660907,511.589982 345.303828,512.978205 L354.595767,512.978205 C354.238689,511.589982 353.522952,509.332585 354.238689,507.422243 C355.488463,506.726596 358.703749,506.553068 359.598025,507.595771 C360.133643,509.67964 359.419486,511.589982 359.062408,512.804677 C361.206458,512.631149 363.886126,513.84738 364.778822,512.631149" id="Fill-289" fill="#A7A7A7"></path>
            <path d="M333.862181,513.43507 C328.775315,513.78519 330.259765,508.705356 330.046094,505.201061 C330.683358,503.800582 333.226791,503.623973 334.073977,504.675881 C335.558427,506.778148 334.073977,511.507863 333.862181,513.43507" id="Fill-291" fill="#A7A7A7"></path>
            <path d="M366.498376,508.435163 C366.056527,506.170192 365.31881,499.375278 367.382072,499.027058 C368.414355,498.852948 368.708921,499.549388 369.150769,500.247369 C368.856204,503.731111 369.888487,508.783383 366.498376,508.435163" id="Fill-293" fill="#A7A7A7"></path>
            <path d="M342.777726,510.084245 C346.595726,509.277583 346.595726,514.524456 343.413747,514.726122 C340.655781,514.726122 340.019761,510.689242 342.777726,510.084245" id="Fill-295" fill="#FFFFFF"></path>
            <path d="M356.719973,502.115974 C360.902541,501.115638 360.482805,506.92113 356.928917,506.721062 C354.837633,506.520995 354.001859,502.716176 356.719973,502.115974" id="Fill-297" fill="#FFFFFF"></path>
            <path d="M352.127439,541.234527 C350.542492,536.269046 342.267449,535.164702 338.217893,538.843679 C337.338232,539.578824 336.986367,540.866954 335.930774,541.234527 C336.986367,539.211252 338.571314,537.555549 339.626908,535.532275 C337.514164,535.532275 335.049556,535.716061 332.760879,535.532275 C332.233083,535.532275 331,535.901474 331,534.980916 C331,533.878199 332.936812,534.245771 333.993962,534.245771 C341.211855,534.245771 349.135034,533.692786 356.528859,534.245771 C356.880724,534.245771 357.937874,533.878199 357.761942,534.79713 C357.937874,535.901474 356.528859,535.348488 356.001062,535.532275 C354.064251,535.716061 351.247778,535.532275 349.310966,535.532275 C350.014695,537.187977 351.775575,539.211252 352.831168,540.865328 C353.184589,541.234527 352.655236,541.05074 352.479304,541.418313 C355.82513,548.039496 351.775575,555.212037 345.96514,555.947182 C338.217893,557.051526 332.936812,549.509786 336.282638,541.602099 C336.282638,541.234527 336.45857,541.234527 336.634503,541.05074 C341.56372,541.234527 346.844801,541.234527 352.127439,541.234527" id="Fill-299" fill="#A7A7A7"></path>
            <path d="M357.655927,535 L358.049482,535 C358.049482,537.848418 357.918297,541.033253 358.575385,542.87687 L357,542.87687 C357.787112,541.033253 357.393556,537.513485 357.655927,535" id="Fill-301" fill="#A7A7A7"></path>
            <path d="M343.6973,557.287975 C346.225272,559.74414 347.308005,564.130483 347.490057,557.638634 C353.810785,555.357798 359.949462,559.91947 365.909279,559.91947 C370.423857,559.91947 376.564131,555.182469 379.453013,558.341504 C383.24577,562.727846 372.771374,565.184012 367.172467,565.88533 C363.922674,566.235989 360.129917,565.534671 357.601945,565.88533 C357.060579,571.500531 356.880124,577.64172 356.880124,583.781358 L335.750877,583.781358 C336.654751,580.799204 333.946323,579.396567 333.40336,576.588191 C332.319031,571.500531 333.764271,565.71 333.764271,560.44701 C335.750877,558.164623 339.904544,557.813964 343.6973,557.287975" id="Fill-303" fill="#A7A7A7"></path>
            <path d="M612.765528,498.810666 C612.585083,497.908447 608.251206,497.545962 608.251206,499.171554 C608.430054,499.171554 608.430054,499.351998 608.430054,499.351998 C609.333877,499.89333 612.944377,500.254218 612.765528,498.810666 M612.765528,495.01815 C612.585083,494.115931 608.251206,493.753446 608.251206,495.379038 C608.430054,495.379038 608.430054,495.559482 608.430054,495.559482 C609.333877,496.102411 612.944377,496.463298 612.765528,495.01815 M612.765528,491.225634 C612.585083,490.323415 608.251206,489.962527 608.251206,491.588119 C608.430054,491.588119 608.430054,491.768563 608.430054,491.768563 C609.333877,492.309895 612.944377,492.670782 612.765528,491.225634 M634.072426,498.99111 L646.171832,498.99111 L646.171832,486.893383 L634.072426,486.893383 C633.891981,490.684302 634.072426,495.01815 634.072426,498.99111 M618.905454,498.99111 L631.003262,498.99111 L631.003262,486.893383 L618.905454,486.893383 C618.723412,490.684302 618.905454,495.01815 618.905454,498.99111 M612.765528,487.433118 C612.585083,486.530899 608.251206,486.170011 608.251206,487.795603 C608.430054,487.795603 608.430054,487.976047 608.430054,487.976047 C609.333877,488.336935 612.944377,488.878266 612.765528,487.433118 M612.765528,483.642199 C612.585083,482.739979 608.251206,482.377495 608.251206,484.003087 C608.430054,484.003087 608.430054,484.183531 608.430054,484.183531 C609.333877,484.544419 612.944377,485.087347 612.765528,483.642199 M612.765528,479.849683 C612.585083,478.947463 608.251206,478.584979 608.251206,480.212168 C608.430054,480.212168 608.430054,480.391015 608.430054,480.391015 C609.333877,480.753499 612.944377,481.294831 612.765528,479.849683 M612.765528,476.057167 C612.585083,475.154947 608.251206,474.794059 608.251206,476.419652 C608.430054,476.419652 608.430054,476.600095 608.430054,476.600095 C609.333877,476.960983 612.944377,477.502315 612.765528,476.057167 M634.072426,483.822643 L646.171832,483.822643 L646.171832,471.724916 L634.072426,471.724916 C633.891981,475.515835 634.072426,479.849683 634.072426,483.822643 M618.905454,483.822643 L631.003262,483.822643 L631.003262,471.724916 L618.905454,471.724916 C618.723412,475.515835 618.905454,479.849683 618.905454,483.822643 M612.765528,472.266248 C612.585083,471.364028 608.251206,471.001543 608.251206,472.627136 C608.430054,472.627136 608.430054,472.807579 608.430054,472.807579 C609.333877,473.168467 612.944377,473.711396 612.765528,472.266248 M605.180445,458 L650.686154,458 L650.686154,503.685846 L615.654247,503.685846 L615.654247,467.209027 L649.060551,467.209027 C649.421441,464.863256 649.060551,462.153404 649.240996,459.625592 L606.624006,459.625592 L606.624006,467.209027 L614.209089,467.209027 L614.209089,503.685846 L605,503.685846 L605,458.542929 C605.180445,458.182041 605.180445,458 605.180445,458" id="Fill-305" fill="#A7A7A7"></path>
            <path d="M612.325,465.764499 C614.276332,465.576181 614.276332,462.183109 611.740119,462.748065 C609.788787,463.12637 610.56863,465.764499 612.325,465.764499 M611.545158,461.053196 C616.422623,460.298254 616.615859,467.837673 611.740119,467.27105 C608.422338,466.894412 607.837456,461.618152 611.545158,461.053196" id="Fill-307" fill="#A7A7A7"></path>
            <path d="M618.324652,465.764499 C620.275779,465.576181 620.275779,462.183109 617.739832,462.748065 C615.788705,463.12637 616.568466,465.764499 618.324652,465.764499 M617.544892,461.053196 C622.421846,460.298254 622.616787,467.837673 617.739832,467.27105 C614.422398,466.894412 613.837578,461.618152 617.544892,461.053196" id="Fill-309" fill="#A7A7A7"></path>
            <path d="M350.461114,837.442747 C350.989758,837.442747 351.51996,837.442747 351.872389,837.602934 C352.224818,837.923308 352.224818,838.405287 352.224818,839.046035 L368.095036,839.046035 C369.858741,839.046035 372.503517,838.724243 372.681291,839.686783 C372.855946,841.129884 368.271251,840.649323 367.742608,840.649323 L332.298549,840.649323 C330.887273,840.649323 327.183651,840.968279 327.007436,840.008575 C326.831222,838.724243 329.829987,839.046035 331.415917,839.046035 L347.287694,839.046035 C347.640123,838.885848 347.287694,838.083495 347.640123,837.763121 C347.992552,837.442747 348.521196,837.442747 349.226053,837.442747 C348.168767,835.519084 351.167531,835.519084 350.461114,837.442747" id="Fill-321" fill="#A7A7A7"></path>
            <path d="M328.177107,844 L370.535385,844 L370.535385,869.205984 L328,869.205984 L328,844.52477 C328.177107,844.174923 328.177107,844 328.177107,844" id="Fill-323" fill="#A7A7A7"></path>
            <path d="M356.458584,872.71 C356.81112,873.68141 357.870288,874.490918 358.751627,875.625663 C359.456699,876.598506 360.868402,877.731818 360.339599,878.866563 C358.751627,879.028465 357.870288,877.246113 356.987388,876.111368 C356.106048,874.978056 355.223149,873.68141 354.165541,872.71 C350.991158,873.195705 347.815216,872.06096 345.345905,872.71 C344.110469,873.033803 343.229129,875.138525 342.34779,876.111368 C341.288622,877.246113 340.583551,878.866563 338.995579,878.866563 C338.466775,877.569917 339.876919,876.598506 340.583551,875.625663 C341.46489,874.65282 342.34779,873.68141 343.052862,872.71 L330.528479,872.71 C329.293043,872.71 327.706632,873.033803 327,872.222862 C327,871.900491 327,871.575255 327.354096,871.413353 C339.876919,870.927648 354.341809,871.08955 367.9238,871.08955 C368.630431,871.08955 372.686154,870.602412 372.686154,871.900491 C372.686154,873.195705 366.689924,872.71 365.101953,872.71 L356.458584,872.71 Z" id="Fill-325" fill="#A7A7A7"></path>
            <text id="Phases-Concertation" font-family="AvenirNext-Bold, Avenir Next" font-size="24" font-weight="bold" fill="#000000">
                <tspan x="497" y="24">Phases</tspan>
                <tspan x="497" y="57">Concertation</tspan>
            </text>
            <text id="Workshop-1" font-family="AvenirNext-Bold, Avenir Next" font-size="16" font-weight="bold" letter-spacing="-0.576000035" fill="#6390B1">
                <tspan x="302.615385" y="91">Workshop 1</tspan>
            </text>
            <text id="(techniciens)" font-family="AvenirNext-Bold, Avenir Next" font-size="12" font-weight="bold" fill="#000000">
                <tspan x="305.074923" y="109">(techniciens)</tspan>
            </text>
            <text id="Workshop-2" font-family="AvenirNext-Bold, Avenir Next" font-size="16" font-weight="bold" letter-spacing="-0.576000035" fill="#6390B1">
                <tspan x="306.615385" y="304">Workshop 2</tspan>
            </text>
            <text id="(techniciens,-archit" font-family="AvenirNext-Bold, Avenir Next" font-size="12" font-weight="bold" fill="#000000">
                <tspan x="318.390313" y="328">(techniciens</tspan>
                <tspan x="388.290313" y="328" letter-spacing="-0.271395">,</tspan>
                <tspan x="391.258918" y="328"> </tspan>
                <tspan x="290.871731" y="344">a</tspan>
                <tspan x="297.663731" y="344" letter-spacing="-0.162837">r</tspan>
                <tspan x="302.036894" y="344">chitectes</tspan>
                <tspan x="353.960894" y="344" letter-spacing="-0.271395">,</tspan>
                <tspan x="356.929499" y="344"> étudiants)</tspan>
            </text>
            <text id="Exposition-" font-family="AvenirNext-Bold, Avenir Next" font-size="16" font-weight="bold" fill="#6390B1">
                <tspan x="312.595692" y="916">Exposition </tspan>
            </text>
            <text id="interactive" font-family="AvenirNext-Bold, Avenir Next" font-size="16" font-weight="bold" fill="#6390B1">
                <tspan x="311.656435" y="938">inte</tspan>
                <tspan x="341.736435" y="938" letter-spacing="-0.199024">r</tspan>
                <tspan x="347.617411" y="938">active</tspan>
            </text>
            <text id="Geste-urbain-" font-family="AvenirNext-Bold, Avenir Next" font-size="16" font-weight="bold" fill="#6390B1">
                <tspan x="352" y="1217">Geste urbain </tspan>
            </text>
            <text id="de-l’entrée-nord-ﬁnalisé" font-family="AvenirNext-Bold, Avenir Next" font-size="16" font-weight="bold" fill="#6390B1">
                <tspan x="301" y="1240">de l</tspan>
                <tspan x="329.832" y="1240" letter-spacing="-0.74634">’</tspan>
                <tspan x="332.92566" y="1240">ent</tspan>
                <tspan x="358.26966" y="1240" letter-spacing="-0.2226581">r</tspan>
                <tspan x="364.095002" y="1240">ée no</tspan>
                <tspan x="407.135002" y="1240" letter-spacing="-0.223902">r</tspan>
                <tspan x="412.9591" y="1240">d ﬁnalisé</tspan>
            </text>
            <text id="Suggestions" font-family="AvenirNext-Regular, Avenir Next" font-size="10" font-weight="normal" fill="#477393">
                <tspan x="347" y="266">Suggestions</tspan>
            </text>
            <text id="Suggestions" font-family="AvenirNext-Regular, Avenir Next" font-size="10" font-weight="normal" fill="#477393">
                <tspan x="276" y="639">Suggestions</tspan>
            </text>
            <text id="Suggestions" font-family="AvenirNext-Regular, Avenir Next" font-size="10" font-weight="normal" fill="#477393">
                <tspan x="276" y="966">Suggestions</tspan>
            </text>
            <polyline id="Stroke-341" stroke="#477393" stroke-width="0.972" stroke-dasharray="4.861,4.861" points="629.606154 549 629.606154 1015.3107 502 1015.3107"></polyline>
            <polygon id="Fill-343" fill="#477393" points="512.217161 1009 512.753846 1010.51989 502.012228 1014.51297 512.753846 1018.50605 512.217161 1020.02762 497 1014.51297"></polygon>
            <text id="Web-App" font-family="AvenirNext-Bold, Avenir Next" font-size="12" font-weight="bold" letter-spacing="-0.432000041" fill="#6390B1">
                <tspan x="604.358" y="537">Web App</tspan>
            </text>
            <g id="Group-347" transform="translate(542.000000, 256.000000)" font-size="16" font-family="AvenirNext-Bold, Avenir Next" letter-spacing="-0.703999996" fill="#000000" font-weight="bold">
                <text id="Public-+-Parties">
                    <tspan x="30.0159998" y="12.6029919">P</tspan>
                    <tspan x="38.8639998" y="12.6029919" letter-spacing="-0.938666642">ublic + Parties</tspan>
                </text>
            </g>
            <text id="prenantes" font-family="AvenirNext-Bold, Avenir Next" font-size="16" font-weight="bold" fill="#000000">
                <tspan x="586.603265" y="286">p</tspan>
                <tspan x="597.115265" y="286" letter-spacing="-0.162837">r</tspan>
                <tspan x="603.000428" y="286">enantes</tspan>
            </text>
            <path d="M350,764 L350,820.713464" id="Stroke-353" stroke="#000000" stroke-width="0.972" stroke-dasharray="4.861,4.861"></path>
            <polygon id="Fill-355" fill="#000000" points="344 809.538265 345.601225 809 349.51306 819.741546 353.426467 809 355.027692 809.538265 349.51306 824.75374"></polygon>
            <text id="Suggestions" font-family="AvenirNext-Regular, Avenir Next" font-size="10" font-weight="normal" fill="#477393">
                <tspan x="525" y="1029">Suggestions</tspan>
            </text>
            <text id="Public-+-Parties" font-family="AvenirNext-Bold, Avenir Next" font-size="16" font-weight="bold" letter-spacing="-0.703999996" fill="#000000">
                <tspan x="301.139077" y="673">Public + Parties</tspan>
            </text>
            <text id="prenantes" font-family="AvenirNext-Bold, Avenir Next" font-size="16" font-weight="bold" fill="#000000">
                <tspan x="312.603265" y="689">p</tspan>
                <tspan x="323.115265" y="689" letter-spacing="-0.162837">r</tspan>
                <tspan x="329.000428" y="689">enantes</tspan>
            </text>
            <g id="Group" transform="translate(309.000000, 697.000000)" fill="#000000">
                <path d="M54.8076308,44.2382346 L54.8076308,52.9673819 L54.8076308,73.2755281 C54.8076308,75.2352933 53.5599262,76.4829895 51.9561846,76.3033969 C50.7100554,76.1253796 49.6419446,75.0557007 49.4623508,73.8095799 L49.4623508,70.9597283 L49.4623508,57.5974061 L49.4623508,56.7073198 L47.6821662,56.7073198 L47.6821662,56.8853371 L47.6821662,72.7414763 C47.1465354,74.5232243 46.0784246,75.7693451 44.4746831,75.7693451 C42.8709415,75.7693451 40.5567015,72.9194936 40.5567015,72.9194936 L40.5567015,63.1206673 L40.5567015,45.1283209 C40.5567015,44.9503037 40.5567015,44.7722864 40.3771077,44.5942692 C40.1990892,44.7722864 40.1990892,44.9503037 40.0210708,45.3063382 C38.95296,47.8017306 37.7052554,50.115955 36.4591262,52.7893647 C35.9234954,54.0354855 34.4993477,54.5711127 33.4296615,54.2135028 C32.0039385,53.679451 31.2918646,52.2537375 32.0039385,50.8295994 C33.0736246,48.3357824 34.4993477,45.8419654 35.5674585,43.1685557 C36.9931815,40.1391115 38.5953477,37.1128181 40.0210708,33.7273394 C40.7331446,32.4796432 41.6248123,31.7675741 43.4065723,31.9455914 L51.7797415,31.9455914 C53.5599262,31.5895568 54.4515938,32.4796432 55.1636677,33.7273394 C57.83552,39.2490252 60.3293538,44.9503037 63.1808,50.6500068 C63.8928738,52.0772956 63.5368369,53.3234165 62.2907077,54.0354855 C61.0430031,54.7491299 59.4392615,54.2135028 58.7271877,52.7893647 C58.0151138,51.1856339 57.3014646,49.5819032 56.4113723,48.1561898 C55.8757415,46.5540344 55.5197046,45.4843555 54.8076308,44.2382346 C54.9856492,44.2382346 54.8076308,44.2382346 54.8076308,44.2382346" id="Fill-91"></path>
                <path d="M33.6084677,44.7719713 C33.2508554,44.2379196 33.0744123,43.7022924 32.8948185,44.2379196 L33.4304492,44.2379196 L33.6084677,44.7719713 C32.8948185,46.0196675 32.5387815,47.4438056 31.8267077,48.6899265 C31.4706708,49.4035709 31.2926523,50.4716745 31.2926523,51.1853189 C31.2926523,52.0769806 31.6486892,52.9670669 32.1827446,53.6791359 C32.3607631,54.0351704 31.6486892,54.7488148 31.6486892,54.7488148 L31.6486892,72.2055341 C31.6486892,73.275213 31.1146338,74.3433166 30.0449477,74.8773684 C29.1548554,75.4129955 28.0851692,75.2349783 27.3730954,74.3433166 C26.6610215,73.6312475 26.4830031,73.0956204 26.4830031,72.0290922 L26.4830031,62.942335 L26.4830031,54.9252567 L24.7012431,54.9252567 L24.7012431,56.885022 L24.7012431,72.2055341 C24.7012431,72.7411612 24.7012431,73.0956204 24.5216492,73.6312475 C24.1656123,74.8773684 22.9194831,75.76903 21.6717785,75.5910128 C20.4256492,75.4129955 19.5339815,74.3433166 19.3559631,72.9191785 L19.3559631,70.781396 L19.3559631,44.7719713 L19.3559631,44.2379196 L19.1779446,44.2379196 C18.9999262,44.4143614 18.9999262,44.5939541 18.8219077,44.7719713 C17.7537969,47.2657884 16.6841108,49.5815881 15.616,51.8973879 C15.0803692,53.1435087 14.1902769,53.6791359 13.1221662,53.3231014 C11.8744615,52.9670669 11.1608123,51.7193707 11.5184246,50.2952326 C11.8744615,49.4035709 12.2304985,48.5134846 12.7645538,47.6233983 C14.7243323,42.9902234 16.8621292,38.3586238 18.9999262,33.549007 C19.5339815,32.1232936 20.4256492,31.5892418 21.8513723,31.5892418 L30.0449477,31.5892418 C30.0449477,31.5892418 32.5387815,31.05519 33.0744123,32.4793281 C33.9645046,34.4390933 34.8561723,36.4004339 35.7462646,38.3586238 C35.9242831,38.894251 35.9242831,39.2487101 35.7462646,39.7843373 C35.0326154,41.388068 34.3205415,42.9902234 33.6084677,44.7719713" id="Fill-93"></path>
                <path d="M54.0953994,29.9859837 C54.8074732,28.2042357 55.343104,26.6020803 55.875584,24.8203323 C56.4112148,23.2166016 57.4793255,22.6809745 59.2610855,22.8605671 L65.4964578,22.8605671 C68.7023655,22.3265153 69.7720517,23.3946189 69.9500702,28.7382875 C71.7318302,32.4798007 73.1575532,35.6856868 74.9377378,39.4272 C77.0755348,41.208948 77.2535532,43.8807823 75.4717932,44.5928513 C74.225664,45.1284785 72.9779594,44.772444 72.443904,43.3467305 C71.3757932,40.8513381 70.3061071,38.5371137 69.2379963,36.0432967 C69.0599778,35.863704 69.0599778,35.6856868 68.7023655,35.5092449 L68.7023655,37.2909929 L68.7023655,63.6548766 C68.7023655,64.1905038 68.7023655,64.9025728 68.5243471,65.4366246 C68.1683102,66.8623381 67.1001994,67.5744071 65.4964578,67.3963899 C64.2487532,67.2183726 63.3586609,66.1486937 63.3586609,64.7245556 L63.3586609,57.4195464 L63.3586609,55.2833392 C63.3586609,54.3916776 63.3586609,53.6796085 63.8927163,52.7895222 C64.4283471,51.7198433 64.4283471,50.4721471 63.8927163,49.4040435 C61.3988825,43.702765 59.0830671,38.0030619 56.5892332,32.3017834 C56.2331963,31.0556626 55.343104,30.3435936 54.0953994,29.9859837" id="Fill-95"></path>
                <path d="M8.48927508,36.0428241 C7.42116431,38.1806066 6.52949662,40.3183891 5.28336738,42.4561716 C5.10534892,42.6341888 5.10534892,42.9902234 4.92575508,43.1682406 C4.39169969,44.4143614 3.14557046,44.7719713 1.89786585,44.2379196 C0.829755077,43.7022924 0.473718154,42.4561716 1.00619815,41.388068 C2.07588431,39.0722682 3.14557046,36.5768758 4.39169969,34.2610761 C5.63940431,31.5892418 6.88553354,28.9174075 8.31125662,26.2439978 C8.845312,25.1758942 9.55896123,24.6418425 10.8050905,24.6418425 L18.6442043,24.6418425 C19.1782597,24.6418425 19.5342966,24.8198597 19.7123151,25.5319288 C20.0699274,26.6016077 20.4259643,27.491694 20.9600197,28.561373 C21.1380382,29.0954247 21.3160566,29.273442 20.6024074,29.4514593 C19.5342966,29.8074938 18.6442043,30.6975801 18.1085735,31.767259 C15.2587028,37.4669621 12.7648689,43.1682406 9.91499815,48.6899265 C8.66729354,51.7193707 10.2710351,54.5707976 13.6549612,54.9252567 L13.6549612,55.1048494 L13.6549612,62.7643177 C13.6549612,64.0120139 12.5868505,64.9021002 11.5171643,65.0816929 C10.2710351,65.2581348 9.02333046,64.5460657 8.48927508,63.2999449 C8.31125662,62.7643177 8.31125662,62.2302659 8.31125662,61.872656 L8.31125662,37.112503 C8.48927508,36.7548931 8.48927508,36.4004339 8.48927508,36.0428241" id="Fill-97"></path>
                <path d="M31.4700406,23.9291433 C31.4700406,26.9570121 28.9762068,29.4524045 25.9483175,29.4524045 C22.9188529,29.4524045 20.4250191,26.9570121 20.4250191,23.9291433 C20.4250191,20.8996991 22.9188529,18.405882 25.9483175,18.405882 C28.9762068,18.2278648 31.4700406,20.7232572 31.4700406,23.9291433" id="Fill-99"></path>
                <path d="M63.3585034,21.0783465 C60.3306142,21.0783465 57.8367803,18.5845295 57.8367803,15.5566606 C57.8367803,12.5272165 60.3306142,10.0333994 63.3585034,10.0333994 C66.3863926,10.0333994 68.8818018,12.5272165 68.8818018,15.5566606 C68.8818018,18.7625467 66.3863926,21.2563638 63.3585034,21.0783465" id="Fill-101"></path>
                <path d="M42.6938683,24.2843901 C42.6938683,21.2565213 45.1877022,18.7627043 48.2155914,18.7627043 C51.245056,18.7627043 53.7388898,21.2565213 53.7388898,24.2843901 C53.7388898,27.3138343 51.245056,29.8076513 48.2155914,29.8076513 C45.1877022,29.8076513 42.6938683,27.3138343 42.6938683,24.2843901" id="Fill-103"></path>
                <path d="M45.8999335,15.0215061 L45.8999335,15.9115924 C45.7219151,16.6252368 45.5438966,16.9812713 44.8318228,17.3373059 C43.7621366,17.872933 42.6940258,18.5850021 41.9803766,19.4750884 C41.2683028,20.5447673 40.3782105,20.5447673 39.3085243,20.3667501 C36.636672,19.8326983 34.854912,17.3373059 35.0329305,14.3094371 C35.2109489,11.6376028 37.5283397,9.49824488 40.1986166,9.32180299 C42.8720443,9.14378573 45.3658782,11.103551 45.8999335,13.7753853 L45.8999335,15.0215061 Z" id="Fill-105"></path>
                <path d="M31.8268652,28.2043932 C32.5389391,26.4226452 33.2510129,24.8204899 33.9646622,23.0387419 C34.4987175,21.7910457 35.3888098,21.0789766 36.8145329,21.0789766 L41.2681452,21.0789766 C40.3780529,23.7508109 40.7340898,26.244628 42.6938683,28.5620031 C40.5560714,28.9164623 39.6659791,30.520193 38.9523298,32.301941 C38.4182745,33.5496372 37.8842191,34.6177407 37.3485883,36.0434542 C36.6365145,34.2617062 35.7464222,32.6579755 35.0327729,31.0558201 C34.3206991,29.8081239 33.4306068,28.5620031 31.8268652,28.2043932" id="Fill-107"></path>
                <path d="M18.9999262,18.2275497 C18.9999262,21.0789766 16.6841108,23.2167591 14.0122585,23.2167591 C11.1608123,23.2167591 9.02301538,20.899384 9.02301538,18.2275497 C9.02301538,15.3776982 11.3404062,13.2399157 14.0122585,13.2399157 C16.6841108,13.2399157 18.9999262,15.3776982 18.9999262,18.2275497" id="Fill-109"></path>
                <path d="M34.6768935,10.5676087 C33.073152,14.6667319 33.2511705,15.3788009 35.3889674,19.296756 C34.6768935,19.6543659 33.7868012,20.1868423 33.073152,20.7224695 C32.1830597,18.584687 30.5793182,16.802939 28.0854843,16.09087 C25.5916505,15.3788009 23.2758351,16.09087 21.1380382,17.6930253 C21.3160566,17.3369908 21.3160566,17.1605489 21.3160566,16.9809563 C22.0281305,15.3788009 22.9197982,13.5970529 23.631872,11.9933222 C24.3439458,10.5676087 25.2356135,10.033557 27.0173735,10.5676087 C29.3316135,10.5676087 31.2929674,10.3895915 33.6087828,10.3895915 C33.7868012,10.3895915 34.3208566,10.5676087 34.6768935,10.5676087" id="Fill-111"></path>
                <path d="M53.0261858,5.04608044 C56.0540751,5.04608044 58.3714658,7.71791473 58.0154289,10.7457835 C58.0154289,10.9238008 57.8358351,11.1033934 57.8358351,11.2798353 C57.4797982,11.9934797 56.9457428,12.7055488 56.5897058,13.4176178 C56.0540751,14.4872968 54.9859643,14.8433313 53.9162782,14.8433313 C51.2444258,15.1993658 48.750592,13.5972105 48.2165366,10.9238008 C47.6809058,8.25196651 49.2846474,5.75814948 51.7784812,5.04608044 L53.0261858,5.04608044 Z" id="Fill-113"></path>
                <path d="M29.8669292,9.85538216 C27.1950769,9.85538216 25.05728,7.53958239 25.05728,5.04576536 C25.05728,2.37393107 27.1950769,0.236148562 29.8669292,0.236148562 C32.5387815,0.236148562 34.6765785,2.37393107 34.6765785,5.04576536 C34.6765785,7.71759965 32.5387815,9.85538216 29.8669292,9.85538216" id="Fill-115"></path>
                <path d="M56.5892332,52.6104022 C58.0149563,54.5701674 59.6171225,55.2822365 61.9345132,54.7481847 L61.9345132,55.1042192 L61.9345132,64.1909764 C61.9345132,65.971149 60.5087902,67.2172699 58.7270302,66.8628107 C57.4793255,66.6847934 56.5892332,65.7931318 56.5892332,64.3674183 L56.5892332,53.144454 L56.5892332,52.6104022 Z" id="Fill-117"></path>
                <path d="M35.2115791,54.7488148 C37.1713575,54.3912049 38.5955052,54.2131877 40.5568591,54.0351704 L40.5568591,55.1048494 L40.5568591,64.724083 C40.5568591,66.3278137 39.4871729,67.2179 37.8834314,67.2179 C36.4592837,67.2179 35.0335606,66.3278137 35.2115791,64.3664731 C35.3895975,61.5181969 35.2115791,58.66677 35.2115791,55.8169184 L35.2115791,54.7488148 Z" id="Fill-119"></path>
                <path d="M55.8762142,15.5568182 C55.8762142,17.5150081 56.5898634,19.1187388 57.6579742,20.366435 C56.7663065,20.9004868 56.0542326,21.2565213 55.1641403,21.7905731 C54.6285095,20.5444522 53.7384172,19.296756 52.492288,18.4066697 C51.2445834,17.5150081 49.8188603,16.9809563 48.3947126,16.9809563 C48.2166942,15.7332601 48.3947126,15.5568182 49.4628234,15.5568182 C51.7786388,15.3788009 53.7384172,15.5568182 55.8762142,15.5568182" id="Fill-121"></path>
                <path d="M17.3969723,52.2534224 L17.3969723,64.724083 C15.9712492,64.5460657 14.9031385,63.654404 15.6152123,62.4082832 L15.6152123,54.5707976 C14.9031385,54.3912049 15.0811569,54.2131877 15.0811569,54.0351704 C15.7932308,53.3231014 16.50688,52.7890496 17.3969723,52.2534224" id="Fill-123"></path>
            </g>
            <g id="Group" transform="translate(591.000000, 296.000000)" fill="#000000">
                <path d="M54.8076308,44.2382346 L54.8076308,52.9673819 L54.8076308,73.2755281 C54.8076308,75.2352933 53.5599262,76.4829895 51.9561846,76.3033969 C50.7100554,76.1253796 49.6419446,75.0557007 49.4623508,73.8095799 L49.4623508,70.9597283 L49.4623508,57.5974061 L49.4623508,56.7073198 L47.6821662,56.7073198 L47.6821662,56.8853371 L47.6821662,72.7414763 C47.1465354,74.5232243 46.0784246,75.7693451 44.4746831,75.7693451 C42.8709415,75.7693451 40.5567015,72.9194936 40.5567015,72.9194936 L40.5567015,63.1206673 L40.5567015,45.1283209 C40.5567015,44.9503037 40.5567015,44.7722864 40.3771077,44.5942692 C40.1990892,44.7722864 40.1990892,44.9503037 40.0210708,45.3063382 C38.95296,47.8017306 37.7052554,50.115955 36.4591262,52.7893647 C35.9234954,54.0354855 34.4993477,54.5711127 33.4296615,54.2135028 C32.0039385,53.679451 31.2918646,52.2537375 32.0039385,50.8295994 C33.0736246,48.3357824 34.4993477,45.8419654 35.5674585,43.1685557 C36.9931815,40.1391115 38.5953477,37.1128181 40.0210708,33.7273394 C40.7331446,32.4796432 41.6248123,31.7675741 43.4065723,31.9455914 L51.7797415,31.9455914 C53.5599262,31.5895568 54.4515938,32.4796432 55.1636677,33.7273394 C57.83552,39.2490252 60.3293538,44.9503037 63.1808,50.6500068 C63.8928738,52.0772956 63.5368369,53.3234165 62.2907077,54.0354855 C61.0430031,54.7491299 59.4392615,54.2135028 58.7271877,52.7893647 C58.0151138,51.1856339 57.3014646,49.5819032 56.4113723,48.1561898 C55.8757415,46.5540344 55.5197046,45.4843555 54.8076308,44.2382346 C54.9856492,44.2382346 54.8076308,44.2382346 54.8076308,44.2382346" id="Fill-91"></path>
                <path d="M33.6084677,44.7719713 C33.2508554,44.2379196 33.0744123,43.7022924 32.8948185,44.2379196 L33.4304492,44.2379196 L33.6084677,44.7719713 C32.8948185,46.0196675 32.5387815,47.4438056 31.8267077,48.6899265 C31.4706708,49.4035709 31.2926523,50.4716745 31.2926523,51.1853189 C31.2926523,52.0769806 31.6486892,52.9670669 32.1827446,53.6791359 C32.3607631,54.0351704 31.6486892,54.7488148 31.6486892,54.7488148 L31.6486892,72.2055341 C31.6486892,73.275213 31.1146338,74.3433166 30.0449477,74.8773684 C29.1548554,75.4129955 28.0851692,75.2349783 27.3730954,74.3433166 C26.6610215,73.6312475 26.4830031,73.0956204 26.4830031,72.0290922 L26.4830031,62.942335 L26.4830031,54.9252567 L24.7012431,54.9252567 L24.7012431,56.885022 L24.7012431,72.2055341 C24.7012431,72.7411612 24.7012431,73.0956204 24.5216492,73.6312475 C24.1656123,74.8773684 22.9194831,75.76903 21.6717785,75.5910128 C20.4256492,75.4129955 19.5339815,74.3433166 19.3559631,72.9191785 L19.3559631,70.781396 L19.3559631,44.7719713 L19.3559631,44.2379196 L19.1779446,44.2379196 C18.9999262,44.4143614 18.9999262,44.5939541 18.8219077,44.7719713 C17.7537969,47.2657884 16.6841108,49.5815881 15.616,51.8973879 C15.0803692,53.1435087 14.1902769,53.6791359 13.1221662,53.3231014 C11.8744615,52.9670669 11.1608123,51.7193707 11.5184246,50.2952326 C11.8744615,49.4035709 12.2304985,48.5134846 12.7645538,47.6233983 C14.7243323,42.9902234 16.8621292,38.3586238 18.9999262,33.549007 C19.5339815,32.1232936 20.4256492,31.5892418 21.8513723,31.5892418 L30.0449477,31.5892418 C30.0449477,31.5892418 32.5387815,31.05519 33.0744123,32.4793281 C33.9645046,34.4390933 34.8561723,36.4004339 35.7462646,38.3586238 C35.9242831,38.894251 35.9242831,39.2487101 35.7462646,39.7843373 C35.0326154,41.388068 34.3205415,42.9902234 33.6084677,44.7719713" id="Fill-93"></path>
                <path d="M54.0953994,29.9859837 C54.8074732,28.2042357 55.343104,26.6020803 55.875584,24.8203323 C56.4112148,23.2166016 57.4793255,22.6809745 59.2610855,22.8605671 L65.4964578,22.8605671 C68.7023655,22.3265153 69.7720517,23.3946189 69.9500702,28.7382875 C71.7318302,32.4798007 73.1575532,35.6856868 74.9377378,39.4272 C77.0755348,41.208948 77.2535532,43.8807823 75.4717932,44.5928513 C74.225664,45.1284785 72.9779594,44.772444 72.443904,43.3467305 C71.3757932,40.8513381 70.3061071,38.5371137 69.2379963,36.0432967 C69.0599778,35.863704 69.0599778,35.6856868 68.7023655,35.5092449 L68.7023655,37.2909929 L68.7023655,63.6548766 C68.7023655,64.1905038 68.7023655,64.9025728 68.5243471,65.4366246 C68.1683102,66.8623381 67.1001994,67.5744071 65.4964578,67.3963899 C64.2487532,67.2183726 63.3586609,66.1486937 63.3586609,64.7245556 L63.3586609,57.4195464 L63.3586609,55.2833392 C63.3586609,54.3916776 63.3586609,53.6796085 63.8927163,52.7895222 C64.4283471,51.7198433 64.4283471,50.4721471 63.8927163,49.4040435 C61.3988825,43.702765 59.0830671,38.0030619 56.5892332,32.3017834 C56.2331963,31.0556626 55.343104,30.3435936 54.0953994,29.9859837" id="Fill-95"></path>
                <path d="M8.48927508,36.0428241 C7.42116431,38.1806066 6.52949662,40.3183891 5.28336738,42.4561716 C5.10534892,42.6341888 5.10534892,42.9902234 4.92575508,43.1682406 C4.39169969,44.4143614 3.14557046,44.7719713 1.89786585,44.2379196 C0.829755077,43.7022924 0.473718154,42.4561716 1.00619815,41.388068 C2.07588431,39.0722682 3.14557046,36.5768758 4.39169969,34.2610761 C5.63940431,31.5892418 6.88553354,28.9174075 8.31125662,26.2439978 C8.845312,25.1758942 9.55896123,24.6418425 10.8050905,24.6418425 L18.6442043,24.6418425 C19.1782597,24.6418425 19.5342966,24.8198597 19.7123151,25.5319288 C20.0699274,26.6016077 20.4259643,27.491694 20.9600197,28.561373 C21.1380382,29.0954247 21.3160566,29.273442 20.6024074,29.4514593 C19.5342966,29.8074938 18.6442043,30.6975801 18.1085735,31.767259 C15.2587028,37.4669621 12.7648689,43.1682406 9.91499815,48.6899265 C8.66729354,51.7193707 10.2710351,54.5707976 13.6549612,54.9252567 L13.6549612,55.1048494 L13.6549612,62.7643177 C13.6549612,64.0120139 12.5868505,64.9021002 11.5171643,65.0816929 C10.2710351,65.2581348 9.02333046,64.5460657 8.48927508,63.2999449 C8.31125662,62.7643177 8.31125662,62.2302659 8.31125662,61.872656 L8.31125662,37.112503 C8.48927508,36.7548931 8.48927508,36.4004339 8.48927508,36.0428241" id="Fill-97"></path>
                <path d="M31.4700406,23.9291433 C31.4700406,26.9570121 28.9762068,29.4524045 25.9483175,29.4524045 C22.9188529,29.4524045 20.4250191,26.9570121 20.4250191,23.9291433 C20.4250191,20.8996991 22.9188529,18.405882 25.9483175,18.405882 C28.9762068,18.2278648 31.4700406,20.7232572 31.4700406,23.9291433" id="Fill-99"></path>
                <path d="M63.3585034,21.0783465 C60.3306142,21.0783465 57.8367803,18.5845295 57.8367803,15.5566606 C57.8367803,12.5272165 60.3306142,10.0333994 63.3585034,10.0333994 C66.3863926,10.0333994 68.8818018,12.5272165 68.8818018,15.5566606 C68.8818018,18.7625467 66.3863926,21.2563638 63.3585034,21.0783465" id="Fill-101"></path>
                <path d="M42.6938683,24.2843901 C42.6938683,21.2565213 45.1877022,18.7627043 48.2155914,18.7627043 C51.245056,18.7627043 53.7388898,21.2565213 53.7388898,24.2843901 C53.7388898,27.3138343 51.245056,29.8076513 48.2155914,29.8076513 C45.1877022,29.8076513 42.6938683,27.3138343 42.6938683,24.2843901" id="Fill-103"></path>
                <path d="M45.8999335,15.0215061 L45.8999335,15.9115924 C45.7219151,16.6252368 45.5438966,16.9812713 44.8318228,17.3373059 C43.7621366,17.872933 42.6940258,18.5850021 41.9803766,19.4750884 C41.2683028,20.5447673 40.3782105,20.5447673 39.3085243,20.3667501 C36.636672,19.8326983 34.854912,17.3373059 35.0329305,14.3094371 C35.2109489,11.6376028 37.5283397,9.49824488 40.1986166,9.32180299 C42.8720443,9.14378573 45.3658782,11.103551 45.8999335,13.7753853 L45.8999335,15.0215061 Z" id="Fill-105"></path>
                <path d="M31.8268652,28.2043932 C32.5389391,26.4226452 33.2510129,24.8204899 33.9646622,23.0387419 C34.4987175,21.7910457 35.3888098,21.0789766 36.8145329,21.0789766 L41.2681452,21.0789766 C40.3780529,23.7508109 40.7340898,26.244628 42.6938683,28.5620031 C40.5560714,28.9164623 39.6659791,30.520193 38.9523298,32.301941 C38.4182745,33.5496372 37.8842191,34.6177407 37.3485883,36.0434542 C36.6365145,34.2617062 35.7464222,32.6579755 35.0327729,31.0558201 C34.3206991,29.8081239 33.4306068,28.5620031 31.8268652,28.2043932" id="Fill-107"></path>
                <path d="M18.9999262,18.2275497 C18.9999262,21.0789766 16.6841108,23.2167591 14.0122585,23.2167591 C11.1608123,23.2167591 9.02301538,20.899384 9.02301538,18.2275497 C9.02301538,15.3776982 11.3404062,13.2399157 14.0122585,13.2399157 C16.6841108,13.2399157 18.9999262,15.3776982 18.9999262,18.2275497" id="Fill-109"></path>
                <path d="M34.6768935,10.5676087 C33.073152,14.6667319 33.2511705,15.3788009 35.3889674,19.296756 C34.6768935,19.6543659 33.7868012,20.1868423 33.073152,20.7224695 C32.1830597,18.584687 30.5793182,16.802939 28.0854843,16.09087 C25.5916505,15.3788009 23.2758351,16.09087 21.1380382,17.6930253 C21.3160566,17.3369908 21.3160566,17.1605489 21.3160566,16.9809563 C22.0281305,15.3788009 22.9197982,13.5970529 23.631872,11.9933222 C24.3439458,10.5676087 25.2356135,10.033557 27.0173735,10.5676087 C29.3316135,10.5676087 31.2929674,10.3895915 33.6087828,10.3895915 C33.7868012,10.3895915 34.3208566,10.5676087 34.6768935,10.5676087" id="Fill-111"></path>
                <path d="M53.0261858,5.04608044 C56.0540751,5.04608044 58.3714658,7.71791473 58.0154289,10.7457835 C58.0154289,10.9238008 57.8358351,11.1033934 57.8358351,11.2798353 C57.4797982,11.9934797 56.9457428,12.7055488 56.5897058,13.4176178 C56.0540751,14.4872968 54.9859643,14.8433313 53.9162782,14.8433313 C51.2444258,15.1993658 48.750592,13.5972105 48.2165366,10.9238008 C47.6809058,8.25196651 49.2846474,5.75814948 51.7784812,5.04608044 L53.0261858,5.04608044 Z" id="Fill-113"></path>
                <path d="M29.8669292,9.85538216 C27.1950769,9.85538216 25.05728,7.53958239 25.05728,5.04576536 C25.05728,2.37393107 27.1950769,0.236148562 29.8669292,0.236148562 C32.5387815,0.236148562 34.6765785,2.37393107 34.6765785,5.04576536 C34.6765785,7.71759965 32.5387815,9.85538216 29.8669292,9.85538216" id="Fill-115"></path>
                <path d="M56.5892332,52.6104022 C58.0149563,54.5701674 59.6171225,55.2822365 61.9345132,54.7481847 L61.9345132,55.1042192 L61.9345132,64.1909764 C61.9345132,65.971149 60.5087902,67.2172699 58.7270302,66.8628107 C57.4793255,66.6847934 56.5892332,65.7931318 56.5892332,64.3674183 L56.5892332,53.144454 L56.5892332,52.6104022 Z" id="Fill-117"></path>
                <path d="M35.2115791,54.7488148 C37.1713575,54.3912049 38.5955052,54.2131877 40.5568591,54.0351704 L40.5568591,55.1048494 L40.5568591,64.724083 C40.5568591,66.3278137 39.4871729,67.2179 37.8834314,67.2179 C36.4592837,67.2179 35.0335606,66.3278137 35.2115791,64.3664731 C35.3895975,61.5181969 35.2115791,58.66677 35.2115791,55.8169184 L35.2115791,54.7488148 Z" id="Fill-119"></path>
                <path d="M55.8762142,15.5568182 C55.8762142,17.5150081 56.5898634,19.1187388 57.6579742,20.366435 C56.7663065,20.9004868 56.0542326,21.2565213 55.1641403,21.7905731 C54.6285095,20.5444522 53.7384172,19.296756 52.492288,18.4066697 C51.2445834,17.5150081 49.8188603,16.9809563 48.3947126,16.9809563 C48.2166942,15.7332601 48.3947126,15.5568182 49.4628234,15.5568182 C51.7786388,15.3788009 53.7384172,15.5568182 55.8762142,15.5568182" id="Fill-121"></path>
                <path d="M17.3969723,52.2534224 L17.3969723,64.724083 C15.9712492,64.5460657 14.9031385,63.654404 15.6152123,62.4082832 L15.6152123,54.5707976 C14.9031385,54.3912049 15.0811569,54.2131877 15.0811569,54.0351704 C15.7932308,53.3231014 16.50688,52.7890496 17.3969723,52.2534224" id="Fill-123"></path>
            </g>
            <text id="Le-calendrier-de-l'e-Copy" font-family="AvenirNext-Regular, Avenir Next" font-size="16" font-weight="normal" fill="#4A4A4A">
                <tspan x="27" y="703">Le calendrier de l'exposition </tspan>
                <tspan x="27" y="725">sera bientôt affiché. Vous </tspan>
                <tspan x="27" y="747">pourrez y laisser votre avis, qui </tspan>
                <tspan x="27" y="769">sera immédiatement transmis </tspan>
                <tspan x="27" y="791">au site web.</tspan>
            </text>
        </g>
    </g>
</svg>