<?xml version="1.0" encoding="UTF-8"?>
<svg width="521px" height="784px" viewBox="0 0 521 784" version="1.1" xmlns="http://www.w3.org/2000/svg" xmlns:xlink="http://www.w3.org/1999/xlink">
    <!-- Generator: Sketch 45.2 (43514) - http://www.bohemiancoding.com/sketch -->
    <title>Group 11</title>
    <desc>Created with Sketch.</desc>
    <defs></defs>
    <g id="Page-1" stroke="none" stroke-width="1" fill="none" fill-rule="evenodd">
        <g id="mobile/landing" transform="translate(-192.000000, -2440.000000)">
            <g id="Group-11" transform="translate(183.000000, 2393.000000)">
                <text id="L'engagement-civique" font-family="AvenirNext-Regular, Avenir Next" font-size="12" font-weight="normal" fill="#4A4A4A">
                    <tspan x="301" y="365">L'engagement civique est crucial. Vous </tspan>
                    <tspan x="301" y="381">pouvez donner votre avis sur l'avenir de </tspan>
                    <tspan x="301" y="397">votre ville durant des consultations </tspan>
                    <tspan x="301" y="413">publiques ou bien en utilisant ce site </tspan>
                    <tspan x="301" y="429">web initié par la municipalité de </tspan>
                    <tspan x="301" y="445">Nouméa. </tspan>
                </text>
                <path d="M293,323.733453 C291.619288,323.733453 290.5,324.852741 290.5,326.233453 L290.5,433.509212 C290.5,434.889924 291.619288,436.009212 293,436.009212 L298.004248,436.009212 C298.535424,436.009212 299.059633,436.130112 299.537154,436.362753 C301.274895,437.209353 301.997307,439.304376 301.150707,441.042117 L295.858601,451.904752 C295.44897,452.745565 295.542927,453.744705 296.102127,454.494411 C296.927642,455.601159 298.49405,455.829144 299.600798,455.003629 L324.135092,436.70369 C324.739596,436.252795 325.473568,436.009212 326.227709,436.009212 L527,436.009212 C528.380712,436.009212 529.5,434.889924 529.5,433.509212 L529.5,326.233453 C529.5,324.852741 528.380712,323.733453 527,323.733453 L293,323.733453 Z" id="Rectangle-26-Copy" stroke="#979797" transform="translate(410.000000, 389.616660) scale(1, -1) translate(-410.000000, -389.616660) "></path>
                <g id="timeline">
                    <path d="M242,645 L245,645" id="Stroke-175" stroke="#477393" stroke-width="0.972"></path>
                    <path d="M246.15072,337.024361 C247.362785,336.904822 247.362785,334.751002 245.787421,335.109619 C244.575356,335.349755 245.059754,337.024361 246.15072,337.024361 M245.666322,334.033767 C248.69595,333.554553 248.817049,338.340349 245.787421,337.980674 C243.363291,337.741596 243.485462,334.392385 245.666322,334.033767" id="Fill-311" fill="#A7A7A7" fill-rule="evenodd"></path>
                    <path d="M248,342 L248,348 L242.029115,348 C242.029115,346.000347 241.91214,343.882088 242.147125,342 L248,342 Z" id="Fill-313" fill="#A7A7A7" fill-rule="evenodd"></path>
                    <path d="M257,342 L257,348 L251.02912,348 C251.02912,346.000347 250.912125,343.882088 251.14715,342 L257,342 Z" id="Fill-315" fill="#A7A7A7" fill-rule="evenodd"></path>
                    <path d="M248,351 L248,357 L242.029115,357 C242.029115,355.000347 241.91214,352.883128 242.147125,351 L248,351 Z" id="Fill-317" fill="#A7A7A7" fill-rule="evenodd"></path>
                    <path d="M257,351 L257,357 L251.02912,357 C251.02912,355.000347 250.912125,352.883128 251.14715,351 L257,351 Z" id="Fill-319" fill="#A7A7A7" fill-rule="evenodd"></path>
                    <path d="M248,282 L248,318" id="Stroke-349" stroke="#477393" stroke-width="0.972" stroke-dasharray="4.861,4.861"></path>
                    <polygon id="Fill-351" fill="#477393" fill-rule="evenodd" points="244 312.340669 245.016403 312 247.500499 318.81841 249.983597 312 251 312.340669 247.500499 322"></polygon>
                    <path d="M164.5,127 C174.717735,127 183,135.283035 183,145.499504 C183,155.716965 174.717735,164 164.5,164 C154.282265,164 146,155.716965 146,145.499504 C146,135.283035 154.282265,127 164.5,127 Z" id="Stroke-1" stroke="#635D58" stroke-width="1.645"></path>
                    <path d="M164.5,328 C174.717735,328 183,336.283035 183,346.499504 C183,356.716965 174.717735,365 164.5,365 C154.282265,365 146,356.716965 146,346.499504 C146,336.283035 154.282265,328 164.5,328 Z" id="Stroke-3" stroke="#635D58" stroke-width="1.645"></path>
                    <path d="M192,347 C192,331.72689 179.491737,319.621255 164,319.621255 L164,173" id="Stroke-5" stroke="#020202" stroke-width="2"></path>
                    <path d="M192,347 C192,362.491737 179.636405,375 164.323842,375 C149.012282,375 136.647684,362.491737 136.647684,347 L94,347" id="Stroke-7" stroke="#020202" stroke-width="2"></path>
                    <path d="M164.5,762 C174.717735,762 183,770.283035 183,780.499504 C183,790.717957 174.717735,799 164.5,799 C154.282265,799 146,790.717957 146,780.499504 C146,770.283035 154.282265,762 164.5,762 Z" id="Stroke-9" stroke="#635D58" stroke-width="1.645"></path>
                    <path d="M221,347 L193,347" id="Stroke-11" stroke="#020202" stroke-width="2" stroke-linecap="square"></path>
                    <polyline id="Stroke-13" stroke="#020202" stroke-width="2" points="137 145 133.625398 145 92 145"></polyline>
                    <path d="M164.5,567 C174.717735,567 183,575.283035 183,585.499504 C183,595.716965 174.717735,604 164.5,604 C154.282265,604 146,595.716965 146,585.499504 C146,575.283035 154.282265,567 164.5,567 Z" id="Stroke-15" stroke="#635D58" stroke-width="1.645"></path>
                    <path d="M92,585.514215 L137.453815,585.514215 C137.453815,600.218845 149.386044,613 164.726907,613 C180.067771,613 192,600.557929 192,585.288159 C192,570.018389 180.067771,557.915402 164.726907,557.915402 L164.726907,374" id="Stroke-17" stroke="#000000" stroke-width="2"></path>
                    <polyline id="Stroke-19" stroke="#020202" stroke-width="2" points="93 291 109 291 109 346.635605 109 400 93 400"></polyline>
                    <path d="M165,173 C149.520382,173 137,160.479618 137,145" id="Stroke-21" stroke="#635D58" stroke-width="1.928" stroke-linecap="square"></path>
                    <path d="M164,173 C179.479618,173 192,160.616977 192,145.16683 C192,129.716683 179.479618,117.33366 164,117.33366 L164,92" id="Stroke-23" stroke="#020202" stroke-width="2" stroke-linecap="square"></path>
                    <path d="M164,808 C179.479618,808 192,795.581641 192,780.225928 C192,764.871214 179.479618,752.451857 164,752.451857 L164,753.129785 L164,612" id="Stroke-25" stroke="#020202" stroke-width="2" stroke-linecap="square"></path>
                    <path d="M168,808.090449 C168,802.636517 159,802.636517 159,808.090449 C159,814.636517 168,814.636517 168,808.090449" id="Fill-27" fill="#635D58" fill-rule="evenodd"></path>
                    <path d="M169,172.090843 C169,166.636386 160,166.636386 160,172.090843 C160,178.636386 169,178.636386 169,172.090843" id="Fill-29" fill="#635D58" fill-rule="evenodd"></path>
                    <path d="M169,92.0908433 C169,86.6363856 160,86.6363856 160,92.0908433 C160,98.6363856 169,98.6363856 169,92.0908433" id="Fill-31" fill="#635D58" fill-rule="evenodd"></path>
                    <path d="M169,374.090843 C169,368.636386 160,368.636386 160,374.090843 C160,380.636386 169,380.636386 169,374.090843" id="Fill-33" fill="#635D58" fill-rule="evenodd"></path>
                    <path d="M169,612.090449 C169,606.636517 160,606.636517 160,612.090449 C160,618.636517 169,618.636517 169,612.090449" id="Fill-35" fill="#635D58" fill-rule="evenodd"></path>
                    <path d="M95.594387,765.5777 C95.373499,765.233065 95.152611,764.889444 94.931723,764.661377 C94.931723,764.545823 94.710835,764.545823 94.710835,764.545823 C93.6054175,764.889444 92.831332,764.545823 92.0572466,763.628487 C91.8363586,763.973121 91.6154705,764.316742 91.3945825,764.545823 C91.5050265,764.774904 91.6154705,765.004998 91.7259145,765.119539 C91.8363586,765.233065 92.0572466,765.5777 92.168668,765.5777 L95.594387,765.5777 Z M99.7941916,764.661377 C99.2419715,764.545823 99.0210835,764.774904 98.5783301,765.5777 L99.2419715,765.5777 L99.6837476,765.5777 C99.4628595,766.724117 99.2419715,767.754981 98.9106395,768.786858 C98.5783301,770.047815 98.9106395,771.079692 99.7941916,771.882489 C100.789165,772.913352 101.784139,773.945229 102.667691,774.976092 C102.888579,775.206187 103,775.549808 103,775.778889 L103,781.739042 C103,782.541839 102.558224,783 101.894583,783 C100.568277,783 100.126501,781.16634 102.336359,778.415344 C101.230941,776.007969 101.673694,777.039846 100.678721,774.633485 L99.6837476,774.633485 L99.6837476,775.206187 L99.6837476,781.509962 C99.6837476,782.197204 99.4628595,782.541839 98.9106395,782.656379 C98.246998,782.770919 97.584334,782.427298 97.4729126,781.739042 L97.4729126,781.16634 L97.4729126,768.672317 C97.4729126,768.328696 97.2520246,767.985075 97.2520246,767.64044 L96.5893605,767.64044 C96.4789165,767.985075 96.3684725,768.328696 96.3684725,768.672317 L96.3684725,781.509962 C96.3684725,782.082663 96.2580285,782.541839 95.7048311,782.770919 C94.931723,783.115554 94.1576375,782.541839 94.1576375,781.739042 L94.1576375,775.206187 L94.1576375,774.517931 L93.0522201,774.517931 L93.0522201,775.091646 L93.0522201,781.739042 C93.0522201,782.541839 92.610444,783 91.8363586,783 C91.0632505,783 90.8423625,782.541839 90.8423625,781.739042 L90.8423625,780.936246 L90.8423625,769.818735 C90.8423625,769.130479 90.7309411,768.443237 90.289165,767.870535 C90.068277,767.64044 89.957833,767.41136 89.736945,767.296819 L89.736945,767.5259 L89.736945,780.478085 C89.736945,780.936246 89.736945,781.395421 89.2951689,781.624502 C88.9628595,781.739042 88.5210835,781.854596 88.0793075,781.739042 C87.8574421,781.624502 87.52611,781.16634 87.52611,780.822719 L87.52611,774.059769 L87.52611,773.487067 C87.194778,773.487067 87.8574421,773.487067 87.52611,773.487067 L87.52611,774.059769 L87.52611,780.708179 C87.52611,781.509962 87.084334,781.968123 86.5321139,782.082663 C85.8684725,782.082663 85.3152751,781.624502 85.3152751,780.708179 L85.3152751,767.182279 C85.3152751,767.182279 84.873499,766.379483 84.652611,766.035862 C83.8795029,764.774904 83.1054175,763.628487 82.331332,762.367529 C82.110444,762.023908 82,761.680287 82,761.222125 L82,756.063754 C82,755.260958 82.441776,754.802796 82.9949735,754.802796 C83.6586149,754.802796 84.210835,755.260958 84.210835,756.063754 L84.210835,761.335652 C84.210835,761.565746 84.321279,761.909367 84.431723,762.138448 C84.763055,762.826704 85.2058084,763.400419 85.7580285,763.973121 C85.8684725,764.086648 86.0893605,764.316742 86.3102485,764.316742 L87.52611,764.316742 L87.52611,762.826704 C86.3102485,762.826704 85.2058084,761.909367 85.4266965,760.419329 C85.5371405,758.92929 88.6315275,758.470115 88.6315275,758.470115 L88.6315275,757.210171 C88.6315275,757.210171 88.8524155,756.063754 89.4046356,756.063754 C89.957833,756.063754 89.736945,757.210171 89.736945,757.210171 L89.736945,762.138448 L90.8423625,760.76295 L90.8423625,755.491052 C90.8423625,754.573715 91.2841385,754 92.0572466,754 C92.831332,754 93.0522201,754.459175 93.0522201,755.491052 L93.0522201,759.616533 L93.0522201,760.190248 C93.4949735,760.190248 93.8263055,760.190248 94.1576375,760.075708 L94.1576375,757.095631 C94.1576375,756.407375 94.4889696,755.834673 95.042167,755.834673 C95.7048311,755.719119 96.2580285,756.179308 96.3684725,757.095631 L96.3684725,762.138448 C96.3684725,762.712164 96.4789165,763.170325 96.9206925,763.628487 C97.2520246,763.284865 97.4729126,762.941244 97.4729126,762.482069 L97.4729126,756.865537 C97.4729126,756.063754 97.915666,755.605592 98.4678861,755.605592 C99.1315275,755.605592 99.6837476,756.063754 99.6837476,756.865537 L99.6837476,759.731073 L100.789165,759.731073 L100.789165,758.470115 C100.789165,757.783887 101.230941,757.324712 101.784139,757.324712 C102.336359,757.324712 103,757.783887 103,758.356589 L103,762.138448 C101.452806,762.482069 100.347389,763.170325 99.7941916,764.661377 L99.7941916,764.661377 Z" id="Fill-37" fill="#000000" fill-rule="evenodd"></path>
                    <path d="M110.852953,787.024604 L107.303027,787.024604 C107.188579,787.024604 107.07413,787.138647 106.958669,787.138647 C106.043082,788.166043 105.126482,789.307482 104.209882,790.448921 C105.24093,791.361265 106.271979,792.274618 107.188579,793.186962 C107.875269,793.872229 107.989718,794.557496 107.646372,795.241754 C107.188579,796.155107 105.928634,796.497236 105.126482,795.811969 C103.63764,794.557496 102.263246,793.186962 100.659956,791.704403 C99.8588172,791.019136 99.8588172,790.105783 100.545508,789.307482 C102.263246,787.138647 103.980985,784.970821 105.813172,782.801986 C105.928634,782.5739 106.043082,782.344805 106.043082,782.117729 L106.043082,777.095801 C106.043082,776.867715 105.928634,776.525586 105.699737,776.410533 C104.096446,774.69888 102.377695,772.873183 100.659956,771.047486 C100.087714,770.477271 99.8588172,769.792004 100.087714,768.87966 C100.431059,767.623169 100.659956,766.482739 101.003301,765.226248 C101.232198,764.199861 102.148798,763.628637 103.065398,763.857732 C103.980985,764.085818 104.55424,764.998162 104.325343,765.911515 C104.096446,766.823859 103.866537,767.738221 103.63764,768.650565 C103.63764,768.87966 103.63764,769.22078 103.752088,769.335832 C104.438779,770.134133 105.24093,770.933443 106.043082,771.731744 C106.15753,771.845787 106.500876,771.95983 106.615324,771.95983 L112.800602,771.95983 C112.800602,771.95983 113.258395,771.617701 113.372844,771.389615 C114.174995,770.248176 114.861686,769.22078 115.549389,768.08035 C115.663837,767.851255 115.778286,767.623169 116.236079,767.28104 L116.236079,756.666969 C115.778286,755.868668 116.236079,755.297444 117.037218,755.069358 C117.83937,754.841272 118.641521,755.183401 118.984866,755.982711 C119.099315,756.210797 118.527073,756.781012 118.527073,756.781012 L118.527073,768.536522 C118.527073,768.992694 118.298176,769.448866 118.069279,769.792004 C116.694886,771.845787 115.433928,773.786536 114.174995,775.840319 C113.945086,776.069414 113.945086,776.525586 113.945086,776.752662 L113.945086,798.20889 C113.945086,799.464372 112.91505,800.262673 111.655105,799.920544 C110.967402,799.692458 110.509608,799.007191 110.509608,798.094847 L110.509608,787.594819 C110.852953,787.594819 110.852953,787.366733 110.852953,787.024604" id="Fill-39" fill="#000000" fill-rule="evenodd"></path>
                    <path d="M122.714105,766.486425 C123.742973,766.486425 124.77184,766.374059 125.68549,766.486425 C126.371739,766.59879 126.600152,766.149329 126.828564,765.698873 C127.056977,765.249412 126.600152,765.137047 126.485945,764.912316 C126.485945,764.799951 126.371739,764.686591 126.257533,764.57522 C125.571284,765.474143 124.656623,765.811238 123.51456,765.474143 C123.400354,765.474143 123.285137,765.474143 123.171941,765.587502 C123.056724,765.811238 122.943529,766.149329 122.714105,766.486425 M131.171436,774.470328 L130.143579,774.470328 L130.143579,775.14452 L130.143579,781.441949 L130.143579,782.003776 C130.028362,782.566597 129.571537,782.903692 128.885288,782.903692 C128.200051,782.903692 127.857432,782.454231 127.857432,782.003776 L127.857432,780.317302 L127.857432,768.286258 L127.857432,767.723437 C127.400606,768.397629 126.714358,768.959456 126.714358,769.972732 L126.714358,782.903692 C126.714358,782.903692 126.942771,783.802615 126.600152,783.91498 C126.257533,784.02834 125.799697,784.02834 125.571284,783.91498 C125.114459,783.803609 125.000253,783.353154 124.42821,782.903692 L124.42821,776.381533 L124.42821,775.593981 L124.42821,776.269167 L124.42821,782.790333 C123.971385,783.353154 123.857179,783.802615 123.285137,783.91498 C122.599899,784.140705 121,782.903692 121,782.903692 L121,779.642115 L121,769.634642 C121.800455,769.408917 121.800455,769.072816 121.685238,768.959456 C121.342619,768.62236 121,767.723437 121,767.723437 L121,765.698873 C121,765.698873 121.342619,764.574226 121.800455,764.124764 C121.91365,764.012399 122.143074,763.449578 122.143074,763.449578 L122.143074,758.277791 C122.143074,757.490239 122.599899,756.816047 123.400354,756.816047 C124.199798,756.816047 124.42821,757.378868 124.42821,758.277791 L124.42821,760.976547 C124.886046,760.976547 125.228665,761.088912 125.571284,761.088912 L125.571284,757.378868 L125.571284,756.028496 C125.571284,755.354304 126.028109,755.017208 126.828564,755.017208 C127.400606,755.017208 127.857432,755.466669 127.857432,756.253226 L127.857432,761.426008 L129.000505,762.887752 L129.000505,762.324931 L129.000505,758.277791 C128.200051,757.490239 128.656876,757.040778 129.343124,757.040778 C130.028362,757.040778 130.143579,758.277791 130.143579,758.277791 L130.143579,759.402438 C130.143579,759.402438 132.200303,759.290073 132.885541,760.07663 C133.343377,760.527086 133.457583,761.088912 133.457583,761.763104 C133.343377,763.112482 132.31451,763.787668 131.285642,763.787668 L131.285642,764.350489 L132.771335,764.350489 C132.885541,764.350489 133.114964,764.23713 133.114964,764.124764 C133.57179,763.449578 134.028615,762.776381 134.600657,762.101194 C134.82907,761.763104 134.600657,761.313643 134.714863,760.976547 L134.714863,756.591317 C134.600657,755.803765 134.943276,755.240944 135.628514,755.017208 C136.314762,754.904843 137,755.354304 137,756.028496 L137,762.324931 C137,762.550656 136.885794,762.887752 136.657381,763.225842 C135.743731,764.574226 134.82907,765.924598 133.914408,767.161611 C133.685996,767.385347 133.57179,767.834808 133.57179,768.172899 L133.57179,781.779045 C133.57179,782.454231 133.229171,782.903692 132.542922,783.016058 C131.857684,783.016058 131.399848,782.565602 131.285642,781.779045 L131.285642,775.256885 C131.171436,774.919789 131.171436,774.695059 131.171436,774.470328" id="Fill-41" fill="#000000" fill-rule="evenodd"></path>
                    <path d="M106,766.881909 C106,764.764599 107.764369,763 110,763 C112.235631,763 114,764.764599 114,766.99948 C114,769.11679 112.235631,771 110,771 C107.764369,770.882429 106,769.11679 106,766.881909" id="Fill-43" fill="#000000" fill-rule="evenodd"></path>
                    <path d="M117.250276,775.381812 L117.250276,778.017016 L117.250276,782.711163 C117.250276,783.51327 116.749503,783.856595 116,783.856595 L116,783.055502 L116,777.214909 C116,776.986025 116.124917,776.641686 116.249834,776.527244 C117.749945,774.466276 119.374972,772.289853 120.750166,770.228884 C120.750166,770.228884 120.875083,770.114442 121,770 L121,770.457768 L121,782.711163 C121,783.398828 120.625249,783.856595 120.000663,783.971037 C119.499889,784.086492 118.875304,783.856595 118.62547,783.284386 C118.500553,783.055502 118.500553,782.826618 118.500553,782.597734 L118.500553,776.069476 L118.500553,775.382825 C118.125801,775.381812 117.749945,775.381812 117.250276,775.381812" id="Fill-45" fill="#000000" fill-rule="evenodd"></path>
                    <path d="M105.989153,758.692381 C106.226646,758.692381 106.343824,758.584762 106.580271,758.584762 C107.290658,758.47619 107.763553,758.907619 108,759.445714 L108,759.661905 C108,760.522857 107.882823,761.277143 106.817764,761.707619 C106.226646,761.92381 105.752706,762.568571 105.279811,763 C104.924094,762.784762 104.4512,762.568571 104.096529,762.245714 C103.978306,762.138095 103.860082,762.030476 104.4512,761.92381 L104.4512,757.077143 C103.860082,756.430476 104.332976,756 105.043364,756 C105.634482,756 106.107376,756.430476 106.107376,757.077143 C105.989153,757.722857 105.989153,758.261905 105.989153,758.692381" id="Fill-47" fill="#000000" fill-rule="evenodd"></path>
                    <path d="M111.677154,758.132321 C111.909234,757.340397 112.374419,757 112.954617,757 C113.535842,757.113132 113.882934,757.452528 114,757.906057 L114,763 C112.838577,761.867679 111.561115,761.189888 110.051573,761.189888 C110.051573,760.396963 109.935534,759.490906 110.051573,758.697981 C110.051573,758.132321 110.747811,757.906057 111.677154,758.132321" id="Fill-49" fill="#000000" fill-rule="evenodd"></path>
                    <path d="M88.5744955,745 C88.6889306,745.106013 89.0322359,745.21392 89.146671,745.42784 C89.2621188,745.642706 89.146671,745.963586 88.9178008,746.176559 C88.5744955,746.605345 88.4600604,747.033185 88.6889306,747.461971 C89.0322359,747.99677 89.4909891,748.53157 89.9487295,749.067316 C90.2920348,749.495155 90.6363529,749.816981 90.7497753,750.244821 C91.2085284,751.1005 90.9796582,751.850166 90.5209051,752.598885 C90.2920348,753.026725 89.7198593,753.134631 89.376554,752.813752 C88.9178008,752.491925 88.9178008,752.171046 89.2621188,751.850166 C89.6054242,751.315366 89.4909891,750.77962 89.146671,750.350834 C88.6889306,749.816035 88.2311901,749.281235 87.772437,748.746436 C87.0858263,747.99677 86.8569561,747.141091 87.0858263,746.283519 C87.3146966,745.748719 87.8878848,745.10696 88.5744955,745" id="Fill-51" fill="#000000" fill-rule="evenodd"></path>
                    <path d="M131,746.911552 C130.89354,747.022825 130.786139,747.246355 130.57322,747.357627 C129.615083,747.691445 129.402164,748.136534 129.508624,749.138971 C129.615083,749.806606 129.721543,750.586498 129.721543,751.255118 C129.828003,752.367843 129.189245,753.481552 128.230167,753.927627 C127.909846,754.037915 127.590467,754.037915 127.271088,753.816354 C126.84525,753.482537 126.95171,752.92519 127.377548,752.702645 C128.016305,752.368827 128.336626,751.812465 128.230167,751.143845 C128.230167,750.363953 128.016305,749.695334 128.016305,748.916426 C127.910788,747.580172 128.762465,746.243918 129.934462,746.021373 C130.57322,745.909115 131,746.243918 131,746.911552" id="Fill-53" fill="#000000" fill-rule="evenodd"></path>
                    <path d="M104.018028,744 C105.235865,744 106.232456,744.902582 106.564326,746.14463 C106.674949,746.709742 106.785573,747.273855 106.896196,747.838967 C107.118422,748.741549 107.449314,749.419484 108.445904,749.532306 C108.889377,749.532306 109,749.870774 109,750.322065 C108.889377,750.774355 108.556527,751 108.114033,751 C107.118422,751 106.120853,750.209243 105.789962,749.19284 C105.567736,748.515904 105.457112,747.838967 105.346489,747.273855 C105.235865,746.822565 105.014618,746.370275 104.903995,746.031807 C104.682748,745.580516 104.349899,745.467694 103.907405,745.467694 C103.354288,745.467694 103.021438,745.353872 103.021438,744.902582 C102.910815,744.451291 103.242685,744.112823 103.686158,744 L104.018028,744 Z" id="Fill-55" fill="#000000" fill-rule="evenodd"></path>
                    <path d="M100.858142,752.224277 C100.743461,751.542465 100.743461,750.975125 100.62878,750.293313 C100.514098,749.839441 100.170055,749.499037 99.7103146,749.499037 C99.2515895,749.499037 98.9075457,749.272101 99.0222269,748.703757 C99.0222269,748.249885 99.480952,747.908476 100.054358,748.021944 C101.317882,748.136417 102.350014,749.272101 102.350014,750.633717 L102.350014,752.451213 C102.350014,753.359961 102.464695,754.267705 103.612522,754.608109 C103.956566,754.721577 104.072262,755.062985 103.956566,755.403389 C103.841885,755.857261 103.38316,756.085202 102.924435,755.970729 C101.891288,755.743793 101.202186,754.949517 100.972823,753.927301 C100.858142,753.359961 100.858142,752.905085 100.858142,752.224277 C100.743461,752.224277 100.858142,752.224277 100.858142,752.224277" id="Fill-57" fill="#000000" fill-rule="evenodd"></path>
                    <path d="M119.909756,746.737678 C119.909756,747.615994 119.54878,748.275703 118.825763,748.824651 C118.344462,749.264781 117.742835,749.703939 117.260469,750.143097 C116.779168,750.583227 116.418192,751.241964 116.779168,751.900701 C117.019818,752.340831 116.899493,752.6702 116.538517,752.889779 C116.056151,753.110329 115.57485,752.999568 115.334199,752.56041 C114.732572,751.682094 114.973223,750.362676 115.8155,749.593178 C116.297866,749.154019 116.899493,748.714861 117.502185,748.165913 C117.742835,747.945363 117.983486,747.615994 118.224137,747.286626 C118.464787,746.846496 118.344462,746.517127 118.103811,746.18873 C117.742835,745.85839 117.742835,745.529021 118.103811,745.199653 C118.464787,744.869312 119.066414,744.979102 119.308129,745.308471 C119.669105,745.7486 119.789431,746.29852 119.909756,746.737678 C120.030081,746.737678 120.030081,746.737678 119.909756,746.737678" id="Fill-59" fill="#000000" fill-rule="evenodd"></path>
                    <path d="M104,783 L104,777 C104.452,777.436013 104.905,777.763987 104.792,778.418006 C104.678,779.290997 104.678,780.27299 104.792,781.145016 C104.905,782.018006 104.678,782.563987 104,783" id="Fill-61" fill="#000000" fill-rule="evenodd"></path>
                    <path d="M134,751.080152 C134,750.431679 134.444226,750 135.000491,750 C135.555774,750 136,750.431679 136,750.972233 C136,751.511831 135.555774,751.94351 135.000491,751.94351 C134.444226,752.160304 134,751.727671 134,751.080152" id="Fill-63" fill="#000000" fill-rule="evenodd"></path>
                    <path d="M111,751 C111.55501,751 112,751.420857 112,751.947858 C112,752.579143 111.55501,753 111,753 C110.44499,753 110,752.579143 110,751.947858 C110,751.420857 110.44499,751 111,751" id="Fill-65" fill="#000000" fill-rule="evenodd"></path>
                    <path d="M122,748.947417 C122,748.421591 122.444226,748 123.000491,748 C123.555774,748 124,748.421591 124,749.052583 C124,749.683574 123.555774,750 122.888452,750 C122.33317,749.894835 122,749.473243 122,748.947417" id="Fill-67" fill="#000000" fill-rule="evenodd"></path>
                    <path d="M113,748 C112.44499,748 112,747.684358 112,747.052142 C112,746.420857 112.44499,746 113,746 C113.55501,746 114,746.420857 114,746.946927 C114,747.579143 113.55501,748 113,748" id="Fill-69" fill="#000000" fill-rule="evenodd"></path>
                    <path d="M95,752 C95.5550098,752 96,752.420857 96,752.947858 C96,753.473929 95.5550098,754 95,754 C94.4449902,754 94,753.579143 94,753.053073 C94,752.420857 94.4449902,752 95,752" id="Fill-71" fill="#000000" fill-rule="evenodd"></path>
                    <path d="M86,751.947417 C86,752.579339 85.5550098,753 85,753 C84.4449902,753 84,752.579339 84,752.052583 C84,751.526757 84.4449902,751 85,751 C85.5550098,751 86,751.315496 86,751.947417" id="Fill-73" fill="#000000" fill-rule="evenodd"></path>
                    <path d="M96,766 L92.7571702,766 C92.6491396,766 92.4330784,765.763911 92.3240918,765.529901 C92.2160612,765.412376 92.1080306,765.176287 92,764.941238 C92.2160612,764.588664 92.4330784,764.353614 92.6491396,764 C93.2973231,764.941238 94.1625239,765.293812 95.2428298,764.941238 C95.3518164,764.941238 95.459847,764.941238 95.459847,765.058762 C95.5678776,765.293812 95.7839388,765.529901 96,766" id="Fill-75" fill="#FFFFFF" fill-rule="evenodd"></path>
                    <path d="M122,766.981891 C122.213828,766.632327 122.426714,766.281733 122.532214,766.049721 C122.639599,765.932169 122.746042,765.932169 122.852485,765.932169 C123.917856,766.281733 124.662956,765.932169 125.408999,765 C125.515442,765.11549 125.621885,765.233042 125.621885,765.349563 C125.728327,765.583637 126.154099,765.815648 125.941213,766.166243 C125.728327,766.632327 125.515442,767.098412 124.875842,766.981891 C123.810471,766.865369 122.958928,766.981891 122,766.981891" id="Fill-77" fill="#FFFFFF" fill-rule="evenodd"></path>
                    <path d="M247,322 C260.806375,322 272,333.19262 272,347 C272,360.80738 260.806375,372 247,372 C233.19262,372 222,360.80738 222,347 C222,333.19262 233.19262,322 247,322 Z" id="Stroke-79" stroke="#000000" stroke-width="1.5"></path>
                    <path d="M70,322 C83.80738,322 95,333.19262 95,347 C95,360.80738 83.80738,372 70,372 C56.19262,372 45,360.80738 45,347 C45,333.19262 56.19262,322 70,322 Z" id="Stroke-81" stroke="#000000" stroke-width="1.5"></path>
                    <path d="M70,268 C83.80738,268 95,279.19262 95,293 C95,306.806375 83.80738,318 70,318 C56.19262,318 45,306.806375 45,293 C45,279.19262 56.19262,268 70,268 Z" id="Stroke-83" stroke="#000000" stroke-width="1.5"></path>
                    <path d="M67,120 C80.80738,120 92,131.193625 92,145 C92,158.80738 80.80738,170 67,170 C53.19262,170 42,158.80738 42,145 C42,131.193625 53.19262,120 67,120 Z" id="Stroke-85" stroke="#000000" stroke-width="1.5"></path>
                    <path d="M69,376 C82.80738,376 94,387.19262 94,401 C94,414.80738 82.80738,426 69,426 C55.19262,426 44,414.80738 44,401 C44,387.19262 55.19262,376 69,376 Z" id="Stroke-87" stroke="#000000" stroke-width="1.5"></path>
                    <path d="M69,560 C82.80738,560 94,571.193625 94,585 C94,598.80738 82.80738,610 69,610 C55.19262,610 44,598.80738 44,585 C44,571.193625 55.19262,560 69,560 Z" id="Stroke-89" stroke="#000000" stroke-width="1.5"></path>
                    <text id="1" font-family="AvenirNext-Bold, Avenir Next" font-size="33.9244" font-weight="bold" fill="#6390B1">
                        <tspan x="154" y="157">1</tspan>
                    </text>
                    <text id="2" font-family="AvenirNext-Bold, Avenir Next" font-size="33.9244" font-weight="bold" fill="#6390B1">
                        <tspan x="154" y="358">2</tspan>
                    </text>
                    <text id="4" font-family="AvenirNext-Bold, Avenir Next" font-size="33.9244" font-weight="bold" fill="#6390B1">
                        <tspan x="153" y="792">4</tspan>
                    </text>
                    <text id="3" font-family="AvenirNext-Bold, Avenir Next" font-size="33.9244" font-weight="bold" fill="#6390B1">
                        <tspan x="155" y="597">3</tspan>
                    </text>
                    <path d="M45,405 L42,405" id="Stroke-163" stroke="#000000" stroke-width="0.972"></path>
                    <path d="M36.0377147,400 L31.5029882,400 L29.3484166,400 C24.5871042,400 23,403.600088 23,407.999607 L23,408.999779 L23,416.000098 L23,428.000393 C23,432.399912 24.6993945,436 29.3484166,436 L33.6565572,436 L151,436" id="Stroke-165" stroke="#477393" stroke-width="0.972" stroke-dasharray="4.926,4.926"></path>
                    <path d="M153,435 L156,435" id="Stroke-167" stroke="#477393" stroke-width="0.972"></path>
                    <polygon id="Fill-169" fill="#477393" fill-rule="evenodd" points="149.341674 439 149 437.983597 155.81841 435.499501 149 433.015404 149.341674 432 159 435.499501"></polygon>
                    <path d="M45,589 L42,589" id="Stroke-171" stroke="#000000" stroke-width="0.972"></path>
                    <path d="M36.1062211,584 L31.4740307,584 L29.3267967,584.11347 C24.5816992,584.11347 23,590.24589 23,597.854429 L23,599.556484 L23,611.593379 L23,632.26105 C23,639.868584 24.6946063,646 29.3267967,646 L33.6202656,646 L237,646" id="Stroke-173" stroke="#477393" stroke-width="0.972" stroke-dasharray="4.842000000000001,4.842"></path>
                    <polygon id="Fill-177" fill="#477393" fill-rule="evenodd" points="236.340669 649 236 647.982744 242.817405 645.5 236 643.016258 236.340669 642 246 645.5"></polygon>
                    <path d="M45,351 L42,351" id="Stroke-179" stroke="#477393" stroke-width="0.972"></path>
                    <path d="M36,351 L31.4783913,351 L29.3300523,351 C24.5825131,351 23,355.05105 23,360.001671 L23,361.127129 L23,369.004337 L23,404" id="Stroke-181" stroke="#477393" stroke-width="0.972" stroke-dasharray="4.877,4.877"></path>
                    <path d="M23,407 L23,410" id="Stroke-183" stroke="#000000" stroke-width="0.972"></path>
                    <polygon id="Fill-185" fill="#477393" fill-rule="evenodd" points="20 403.340669 21.0164028 403 23.5004992 409.81841 25.9845956 403 27 403.340669 23.5004992 413"></polygon>
                    <path d="M45,297 L42,297" id="Stroke-187" stroke="#477393" stroke-width="0.972"></path>
                    <path d="M36,297 L31.2633393,297 L29.1697392,297 C24.5421912,297 23,301.036647 23,305.969666 L23,307.091122 L23,314.940324 L23,346" id="Stroke-189" stroke="#477393" stroke-width="0.972" stroke-dasharray="4.606,4.606"></path>
                    <path d="M23,349 L23,352" id="Stroke-191" stroke="#000000" stroke-width="0.972"></path>
                    <polygon id="Fill-193" fill="#477393" fill-rule="evenodd" points="20 345.340669 21.0164028 345 23.5004992 351.81841 25.9845956 345 27 345.340669 23.5004992 355"></polygon>
                    <path d="M67,179 L67,182" id="Stroke-195" stroke="#477393" stroke-width="1"></path>
                    <path d="M67,182 L67,190.943938 C67,195.924472 71.0825518,200 76.0716687,200 L155,200" id="Stroke-197" stroke="#477393" stroke-width="1" stroke-dasharray="5.143,5.143"></path>
                    <path d="M157,200 L160,200" id="Stroke-199" stroke="#000000" stroke-width="1"></path>
                    <polygon id="Fill-201" fill="#477393" fill-rule="evenodd" points="153.439261 204 153 202.906038 159.813411 200.499516 153 198.093962 153.439261 197 163 200.499516"></polygon>
                    <path d="M67.4744502,121.007458 C67.4783391,121.726764 67.2644533,122.807844 67.8156952,123.04443 C67.9255547,123.043369 68.0354143,123.043369 68.1452738,123.042308 C68.9142903,123.038064 68.4680468,121.841343 68.5740175,121.000032 C69.123315,120.996849 69.4548379,121.234496 69.8952481,121.352258 C69.8981648,121.951679 69.9020536,122.551101 70.0138575,123.030638 C70.6749589,123.146278 71.002593,122.784504 70.8888447,122.065198 C72.1041047,123.13673 73.0996457,124.330268 73.2211717,126.489246 C73.7724136,126.725832 74.2147682,127.202186 73.8890786,127.924674 C69.9312198,127.950137 66.0832206,127.974538 62.1253619,128 C61.9027263,127.40164 61.8978652,126.56245 62.7777134,126.677029 C62.7650747,124.277222 63.8588087,123.190837 64.841711,121.984568 C65.1732339,122.342099 64.9574038,123.183411 65.7264203,122.938338 C66.1639139,122.695386 66.0501655,121.856196 66.0462767,121.256775 C66.5965464,121.252531 66.9251527,121.010641 67.4744502,121.007458" id="Fill-203" fill="#A7A7A7" fill-rule="evenodd"></path>
                    <path d="M73.9097284,129.137361 C75.2622344,137.374035 60.9332076,136.539736 63.2550795,129.083699 C66.6886861,129.178874 70.7116588,128.812349 73.9097284,129.137361" id="Fill-205" fill="#A7A7A7" fill-rule="evenodd"></path>
                    <path d="M67.076595,139.141806 C67.8832382,139.704731 69.0297875,139.697707 69.8303427,139.125751 C69.7116292,138.445425 69.5919011,137.765098 69.3595473,137.199163 C67.5210097,136.75665 67.0684779,137.78015 67.076595,139.141806 M82,140.302776 C80.5084712,140.424192 79.2523402,141.453712 77.9891066,141.233961 C76.7268877,141.127597 76.1444812,139.768951 74.9959026,139.549199 C74.6549817,140.119148 75.0060491,141.251019 74.8964674,142.04674 C73.0609738,142.170162 71.6881585,142.85952 69.8526649,142.983945 C69.8465771,141.962452 69.4985537,141.283129 69.4914512,140.148248 C69.2611266,139.923479 67.8872967,140.385058 67.4256331,140.047905 C67.5473905,141.181782 67.093844,141.978507 67.0989172,143 C65.262409,142.896647 63.8824912,142.224348 62.045983,142.121998 C62.0409098,141.32728 62.0358366,140.419174 62.0307633,139.62546 C60.8852286,139.972647 60.0877173,140.884767 59.0578522,141.344338 C57.6799637,141.12559 56.3010606,140.906842 55.0368124,140.460315 C54.8054732,140.121155 55.7176395,139.208033 56.2888848,138.751471 C57.8869514,137.379781 61.6563592,134.521005 64.9864255,135.068878 C66.8239483,135.399007 69.3595473,137.085775 71.6414848,135.029744 C76.6893458,135.000645 79.9189622,137.81828 82,140.302776" id="Fill-207" fill="#A7A7A7" fill-rule="evenodd"></path>
                    <path d="M54,142.168164 C58.6046693,143.051279 62.9851561,144.163983 67.5898253,145.047098 C67.8239274,146.640128 67.1652673,149.149503 67.9568498,150.283353 C68.7404967,150.050743 68.3972792,148.800083 68.3913275,147.888773 C68.3863677,146.977464 68.379424,145.839585 68.3754561,145.042063 C72.8561307,143.990784 77.2247139,142.939505 81.9305629,142 C81.953378,145.985596 81.977185,149.971192 82,153.956788 C79.6470755,154.426037 77.4062423,154.895286 75.0533177,155.364535 C72.8124845,155.833784 70.4635278,156.98576 68.2207107,156.999858 C65.9769015,157.012948 63.2797676,156.118757 61.0339746,155.676696 C58.7871896,155.120848 56.5394126,154.451211 54.1825203,154.123945 C54.046622,150.139356 54.022815,146.15376 54,142.168164" id="Fill-209" fill="#A7A7A7" fill-rule="evenodd"></path>
                    <path d="M52.8342668,143 C53.172127,145.732341 52.867577,149.037949 52.9922522,152 C49.2205903,151.22624 51.7683417,144.829621 52.8342668,143" id="Fill-211" fill="#A7A7A7" fill-rule="evenodd"></path>
                    <path d="M62.1906761,161 C61.9590003,161.000931 61.9600254,161.212192 62.0789387,161.526757 C62.082014,162.052583 62.0840642,162.474174 62.0881647,163 L68,162.968357 C67.9979498,162.652862 67.9969247,162.442531 67.9948744,162.126105 C66.137367,161.715682 64.1640216,161.305258 62.1906761,161" id="Fill-213" fill="#A7A7A7" fill-rule="evenodd"></path>
                    <path d="M69,157.273728 C69.0010603,157.480972 69.0031808,157.791839 69.0053013,158 L75,157.968822 C74.9946987,157.242549 74.8706485,156.621733 74.7465983,156 C72.8307121,156.320954 70.7939565,156.642824 69,157.273728" id="Fill-215" fill="#A7A7A7" fill-rule="evenodd"></path>
                    <path d="M70.9463821,337.994371 C73.473191,338.107105 76,336.527826 76,333.143797 C76,331.56352 75.3403678,330.209709 74.3523768,329.195099 C73.3634143,328.179492 71.9353446,327.841288 70.3974982,328.066757 C69.1889821,328.179492 68.0902428,328.744162 67.3218053,329.533303 C66.5523964,330.323441 66.0035125,331.450786 66.0035125,332.804596 C65.8927642,336.076888 68.4195731,337.881636 70.9463821,337.994371" id="Fill-217" fill="#A7A7A7" fill-rule="evenodd"></path>
                    <path d="M82.0223503,336.889146 C81.1321932,336.889146 80.1297817,336.445035 79.4611791,335.777887 C78.7935612,335.111721 78.3484827,334.222518 78.5710219,333.333314 C78.9048309,332.222055 80.352321,332.556121 81.3547325,333.445324 C82.3561593,334.444573 83.0247618,335.888915 82.0223503,336.889146 M78.4597523,336.22298 C77.7911497,335.333776 77.4573408,334.222518 78.1249587,333.333314 C78.013689,334.222518 78.2362283,335.111721 78.7935612,335.888915 C79.3499095,336.667091 80.1297817,337.111201 81.2424781,337.111201 C80.2410513,337.556294 79.1273702,337.111201 78.4597523,336.22298 M79.3499095,332 L78.2362283,332 C77.7911497,332 77.4573408,332.11201 77.4573408,332.11201 C76.1211204,333.445324 74.227567,335.222749 72.2237287,337.111201 C70.3301753,338.999653 68.2150674,340.889088 66.545038,342.444457 C65.4313569,343.444688 64.3186604,344.221882 63.6500578,345.222113 C62.9814553,346.111317 62.758916,347.222575 63.3152642,349 C65.4313569,347.777714 67.5474495,346.222344 69.6625575,344.778003 C71.7786501,343.333661 74.0050277,341.778292 76.1211204,340.332967 C77.0122622,339.777829 78.1249587,338.889608 79.2386398,338.22246 C80.352321,337.667322 81.4660021,337.444284 82.6909529,338.111432 C83.2473011,336.556063 83.0247618,335.111721 82.2458743,334.000462 C81.5772718,332.889204 80.352321,332.11201 79.3499095,332" id="Fill-219" fill="#A7A7A7" fill-rule="evenodd"></path>
                    <path d="M63.1563856,349.064787 C63.5024959,347.938229 64.1957373,347.037779 65.0033278,346.361445 L65.0033278,347.488004 L65.0033278,348.614562 C65.9273094,347.938229 67.0820311,346.925222 68.1203618,345.91122 C69.2750835,344.897218 70.3144352,343.883216 71.3537868,342.982766 C71.699897,342.645097 72.1613773,342.306432 72.5085085,341.968763 C72.8546188,341.631095 73.0853589,341.29243 72.9699888,341.067317 C71.584527,341.29243 70.3144352,341.179873 69.1597134,341.067317 C68.0060127,340.954761 66.9656401,340.954761 65.8119393,341.29243 C63.9649971,341.856207 62.3477741,343.320434 61.0776823,345.12233 C59.9229606,347.037779 59.1153701,349.2899 59,351.543017 C59,353.344913 59.2307402,355.035249 59.6922205,356.612032 C60.1547217,358.188816 60.8469422,359.540487 61.5401836,360.892158 C64.1957373,361.342383 64.5418475,360.32838 64.3111074,358.864153 C63.9649971,357.28737 63.0410156,355.260361 62.8102754,353.457469 C62.5795353,351.655573 62.8102754,350.191346 63.1563856,349.064787" id="Fill-221" fill="#A7A7A7" fill-rule="evenodd"></path>
                    <path d="M80.1569019,339.043037 C80.3822003,339.158317 80.3822003,339.273596 80.2695511,339.388876 C80.1569019,339.619435 80.0442527,339.851015 80.0442527,340.081574 C80.0442527,340.889551 80.2695511,341.581229 80.7201479,342.273926 C81.1717416,342.965604 81.8476367,343.426722 82.5245288,343.657282 C81.5096891,343.888861 80.4948495,343.196163 80.0442527,342.157627 C79.5936559,341.12011 79.3673607,339.851015 80.1569019,339.043037 M81.9602859,338.812478 C82.637178,338.927758 83.4257223,339.619435 83.7636699,340.542692 C84.1026144,341.465949 84.2152636,342.618745 83.6510207,343.426722 C82.2982335,343.772561 81.1717416,342.618745 80.8327971,341.350669 C80.3822003,339.966294 80.6074987,338.697198 81.9602859,338.812478 M77.2260291,349.079503 C78.1272226,348.503105 79.5936559,347.810408 81.1717416,347.00345 C82.7498272,346.195473 84.1026144,345.272216 84.5532111,344.465259 C85.4544047,343.196163 84.8911587,341.23437 83.7636699,339.851015 C82.637178,338.466639 81.0580955,337.543382 79.8189543,338.23506 C78.352521,339.158317 76.8870846,340.081574 75.5342974,341.003811 C74.1815102,341.927067 72.828723,342.965604 71.4759357,344.004141 C70.1241454,345.041657 68.6577121,345.964914 67.3049249,346.887151 C65.9521377,347.810408 64.6003474,348.848944 63.2475601,350.00276 C63.8108061,351.156577 64.3740521,352.886791 64.2614029,354.271166 C64.2614029,355.655541 63.5855077,356.694078 61.7811268,356.347219 C60.8799333,356.231939 60.4283396,355.770821 60.090392,355.078123 C59.7524445,354.386446 59.5271461,353.463189 59.3018477,352.656232 C58.6249556,352.886791 58.0617097,353.232629 57.4984637,353.693748 C56.9342208,354.154866 56.3709749,354.732284 55.6940828,355.308682 C55.1308368,355.655541 54.3412956,356.00138 53.6654004,356.462499 C52.9885084,356.924637 52.3126132,357.385756 52.0863179,357.962154 C51.8610195,358.885411 52.0863179,359.923947 52.6505608,360.730904 C53.2138068,361.538882 54.003348,362 54.7928893,362 C55.1308368,362 55.4687844,361.88472 55.9203781,361.654161 L56.0320304,361.538882 L56.0320304,358.309013 L56.0320304,355.078123 C56.0320304,355.078123 56.3709749,354.732284 57.04687,354.501725 C57.610116,354.271166 58.5123064,354.271166 59.4144969,355.078123 C60.090392,355.770821 60.3166873,356.347219 60.2030412,356.809358 C60.2030412,357.270476 59.9777428,357.501035 59.9777428,357.501035 L61.5558285,357.501035 L62.3453697,357.501035 C64.1487537,356.347219 66.0657838,355.308682 67.8691678,354.271166 C71.025339,352.656232 74.0698579,350.809718 77.2260291,349.079503" id="Fill-223" fill="#A7A7A7" fill-rule="evenodd"></path>
                    <path d="M58.2496447,355 C57.4992894,356.2 56.4287068,356.963987 55.464235,357.836013 C54.4997631,358.709003 53.5352913,359.581994 53,361 C53.8574135,360.563023 54.9289436,359.909003 55.9995263,359.145016 C57.0710564,358.381029 58.1425865,357.618006 59,356.854019 C58.784936,356.636013 58.784936,356.2 58.784936,355.763987 C58.5708195,355.436013 58.4637613,355.109003 58.2496447,355" id="Fill-225" fill="#A7A7A7" fill-rule="evenodd"></path>
                    <path d="M77,350.115868 C77,350 77,350 77,350.115868 C77,350 76.8899886,350 76.8899886,350 C74.9088106,351.391438 72.9266591,352.551141 70.9445075,353.709818 C68.9633295,354.869521 66.8711666,356.029223 65,357.304794 L65,358 L70.5044621,358 L70.5044621,357.073058 C70.5044621,356.841323 70.3944508,356.260959 70.3944508,355.797488 C70.3944508,355.332992 70.5044621,354.986414 71.0554925,354.986414 C71.3855265,355.101256 71.6055492,355.564727 71.6055492,355.913356 C71.6055492,356.376826 71.4955379,356.841323 71.4955379,357.188926 L71.4955379,358 L71.9355833,358 L77,358 L77,350.115868 Z" id="Fill-227" fill="#A7A7A7" fill-rule="evenodd"></path>
                    <path d="M69.5093747,269 C69.5093747,269.723586 69.2896421,270.810032 69.8389735,271.051227 L70.1695446,271.051227 C70.9386086,271.051227 70.4991435,269.845251 70.6090098,269 C71.1583412,269 71.4889123,269.241195 71.9283774,269.361793 C71.9283774,269.965848 71.9283774,270.568837 72.0382437,271.051227 C72.6984137,271.171825 73.0280126,270.810032 72.9181463,270.086446 C74.1276477,271.171825 75.1174165,272.378869 75.2263105,274.551761 C75.7766142,274.792956 76.2160793,275.275347 75.8864805,276 L64.1220377,276 C63.9023051,275.395945 63.9023051,274.551761 64.7822076,274.672359 C64.7822076,272.258271 65.8818427,271.171825 66.8706393,269.965848 C67.2002382,270.327641 66.9805056,271.171825 67.7505418,270.93063 C68.190007,270.689434 68.0801407,269.845251 68.0801407,269.241195 C68.6304444,269.241195 68.9600432,269 69.5093747,269" id="Fill-229" fill="#A7A7A7" fill-rule="evenodd"></path>
                    <path d="M75.9161239,277.157499 C77.2180052,285.417179 62.8983573,284.499099 65.264558,277.042866 C68.6971711,277.157499 72.7210727,276.813599 75.9161239,277.157499" id="Fill-231" fill="#A7A7A7" fill-rule="evenodd"></path>
                    <path d="M69.0838208,287.150044 C69.8874133,287.715772 71.0339532,287.715772 71.8375457,287.150044 C71.7228917,286.470168 71.6082377,285.791294 71.3789298,285.225566 C69.5434514,284.771982 69.0838208,285.791294 69.0838208,287.150044 M84,288.395647 C82.5074689,288.508793 81.2462751,289.528105 79.9840666,289.300812 C78.7218581,289.187667 78.1485881,287.828918 77.0010336,287.602626 C76.6560571,288.169356 77.0010336,289.300812 76.885365,290.093833 C75.0498866,290.206979 73.6730241,290.885853 71.8375457,291 C71.8375457,289.980688 71.4935838,289.300812 71.4935838,288.169356 C71.2632611,287.943065 69.8874133,288.395647 69.4277827,288.05621 C69.5434514,289.187667 69.0838208,289.980688 69.0838208,291 C67.2483424,290.885853 65.8714799,290.206979 64.0349868,290.093833 L64.0349868,287.602626 C62.888447,287.943065 62.0848544,288.84823 61.0519539,289.300812 C59.6761061,289.074521 58.2992436,288.84823 57.0360205,288.395647 C56.8067125,288.05621 57.724959,287.150044 58.2992436,286.69646 C59.905414,285.33771 63.6910249,282.508068 67.0190344,283.073796 C68.8545128,283.413233 71.3789298,285.111419 73.6730241,283.073796 C78.7218581,283.073796 81.934199,285.90444 84,288.395647" id="Fill-233" fill="#A7A7A7" fill-rule="evenodd"></path>
                    <path d="M57,289 C61.6109809,289.915412 65.9962355,291.06069 70.606222,291.977115 C70.8309539,293.580099 70.1567583,296.099507 70.9433198,297.244785 C71.7308758,297.015932 71.393778,295.756228 71.393778,294.839803 L71.393778,291.977115 C75.8913985,290.946263 80.2766532,289.915412 85,289 L85,301.023898 C82.6383266,301.481604 80.3890191,301.93931 78.0273457,302.397016 C75.7790326,302.855735 73.4173592,304 71.1690461,304 C68.9197386,304 66.2209674,303.084588 63.9716599,302.626882 C61.7233468,302.053737 59.4740393,301.366165 57.1123659,301.023898 C57,297.015932 57,293.007966 57,289" id="Fill-235" fill="#A7A7A7" fill-rule="evenodd"></path>
                    <path d="M55.8534209,293 C56.1734769,295.734356 55.8534209,299.037949 55.9601062,302 C52.223287,301.203067 54.7856234,294.822568 55.8534209,293" id="Fill-237" fill="#A7A7A7" fill-rule="evenodd"></path>
                    <path d="M64.1923136,307 C63.9601705,307 63.9601705,307.210428 64.0762421,307.526071 L64.0762421,309 L70,309 L70,308.158287 C68.141828,307.73743 66.1665572,307.315642 64.1923136,307" id="Fill-239" fill="#A7A7A7" fill-rule="evenodd"></path>
                    <path d="M71,304.262913 L71,305 L77,305 C77,304.262913 76.8800849,303.630991 76.7601698,303 C74.8404669,303.315496 72.7997878,303.630991 71,304.262913" id="Fill-241" fill="#A7A7A7" fill-rule="evenodd"></path>
                    <path d="M58.7075334,302.077405 C59.5386964,301.784145 60,302.370666 60,303.055805 C59.9077393,304.327465 57.5995882,304.425219 58.0608918,302.664791 C58.0608918,302.566173 58.337674,302.175159 58.7075334,302.077405" id="Fill-243" fill="#A7A7A7" fill-rule="evenodd"></path>
                    <path d="M81.7467148,302.051442 C82.4934296,301.857755 82.8663744,302.245986 82.9596107,302.63336 C83.3325555,304.280556 81,304.474243 81,303.020734 C81,302.439673 81.2805337,302.148286 81.7467148,302.051442" id="Fill-245" fill="#A7A7A7" fill-rule="evenodd"></path>
                    <path d="M79.9030152,313.652681 C80.12968,313.322266 79.9030152,312.219908 79.7896828,311.558103 C79.4486826,310.015192 79.2220178,308.692558 78.8820206,307.259785 C78.7686882,306.487842 78.8820206,305.606735 78.3153585,305.165207 C73.5513855,304.944931 67.3140911,304.944931 62.6644535,305.165207 C62.2101209,305.716874 61.9834561,307.701313 61.7567912,309.244224 C61.6424559,310.015192 61.4157911,310.565884 61.3034616,311.337827 C61.1891263,311.999631 60.849129,313.211153 61.0767968,313.542543 C61.5301264,314.424624 63.3444479,313.652681 64.5921074,313.872958 C64.3654426,312.880738 64.1377748,311.558103 64.3654426,310.345607 C65.1587695,309.905054 67.0874263,309.794916 67.7674208,310.45672 C67.9940856,311.558103 67.7674208,312.990876 67.540756,313.872958 L73.4380531,313.872958 C73.2113883,312.990876 72.7570557,311.558103 73.2113883,310.345607 C74.0057181,309.905054 76.0467044,309.794916 76.6133665,310.45672 C76.9543667,311.779355 76.5000341,312.990876 76.2733692,313.762819 C77.6343611,313.652681 79.3363532,314.424624 79.9030152,313.652681" id="Fill-247" fill="#A7A7A7" fill-rule="evenodd"></path>
                    <path d="M59.4515151,310.989099 C56.2221681,311.211333 57.1645567,307.986974 57.0300998,305.762667 C57.4334707,304.872748 59.0481442,304.761631 59.5859721,305.429317 C60.5283607,306.763704 59.5859721,309.765829 59.4515151,310.989099" id="Fill-249" fill="#A7A7A7" fill-rule="evenodd"></path>
                    <path d="M81.3162208,310.989158 C81.0358667,309.551482 80.5677827,305.238455 81.8769292,305.017424 C82.531916,304.905931 82.7188188,305.34897 83,305.791031 C82.8122702,308.003291 83.467257,311.210188 81.3162208,310.989158" id="Fill-251" fill="#A7A7A7" fill-rule="evenodd"></path>
                    <path d="M55.9465238,292.128439 C56.4585686,294.551975 53.1280112,294.551975 53,292.532163 C53,290.781502 55.5624901,290.377778 55.9465238,292.128439" id="Fill-253" fill="#FFFFFF" fill-rule="evenodd"></path>
                    <path d="M55.9263832,301.091942 C56.5613667,303.746113 52.876215,303.480814 53.0032117,301.224592 C53.1302084,299.89692 55.5453932,299.36632 55.9263832,301.091942" id="Fill-255" fill="#FFFFFF" fill-rule="evenodd"></path>
                    <path d="M56.7075334,155.077405 C57.5386964,154.784145 58,155.370666 58,156.055805 C57.9077393,157.327465 55.5995882,157.425219 56.0608918,155.664791 C56.0608918,155.566173 56.3384905,155.175159 56.7075334,155.077405" id="Fill-257" fill="#A7A7A7" fill-rule="evenodd"></path>
                    <path d="M79.7461927,155.051511 C80.4932109,154.857831 80.8663073,155.245191 80.9595813,155.633408 C81.3326777,157.280546 79,157.474226 79,156.020769 C79,155.438871 79.2798223,155.148351 79.7461927,155.051511" id="Fill-259" fill="#A7A7A7" fill-rule="evenodd"></path>
                    <path d="M77.9030152,166.652643 C78.12968,166.322193 77.9030152,165.219715 77.7896828,164.558814 C77.4496856,163.015735 77.2220178,161.692958 76.8820206,160.259055 C76.7686882,159.488003 76.8820206,158.605826 76.3153585,158.165225 C71.5513855,157.944925 65.3140911,157.944925 60.6644535,158.165225 C60.2101209,158.715977 59.9834561,160.700631 59.7567912,162.243709 C59.6434588,163.015735 59.416794,163.566487 59.3034616,164.337538 C59.1891263,164.999415 58.849129,166.212042 59.0767968,166.542493 C59.5301264,167.42467 61.3444479,166.652643 62.5921074,166.872944 C62.3654426,165.880617 62.1387778,164.558814 62.3654426,163.346186 C63.1587695,162.90461 65.0874263,162.79446 65.7674208,163.456336 C65.9940856,164.558814 65.7674208,165.991742 65.540756,166.872944 L71.4380531,166.872944 C71.2113883,165.991742 70.7580586,164.558814 71.2113883,163.346186 C72.0057181,162.90461 74.0467044,162.79446 74.6143694,163.456336 C74.9543667,164.779114 74.5000341,165.991742 74.2733692,166.762793 C75.6343611,166.652643 77.3363532,167.42467 77.9030152,166.652643" id="Fill-261" fill="#A7A7A7" fill-rule="evenodd"></path>
                    <path d="M57.4520116,163.989098 C54.222475,164.211347 55.164919,160.986779 55.0292641,158.763313 C55.4338487,157.873337 57.048617,157.761229 57.5864764,158.428957 C58.5277305,159.76343 57.5864764,162.765749 57.4520116,163.989098" id="Fill-263" fill="#A7A7A7" fill-rule="evenodd"></path>
                    <path d="M79.3158883,163.989158 C79.0354787,162.551422 78.5681295,158.238215 79.8775346,158.017176 C80.5318236,157.906656 80.7187633,158.348735 81,158.791792 C80.8130603,161.003167 81.4673493,164.210197 79.3158883,163.989158" id="Fill-265" fill="#A7A7A7" fill-rule="evenodd"></path>
                    <path d="M64.1281043,165.053476 C66.5521101,164.541431 66.5521101,167.871989 64.5317084,168 C62.7815667,168 62.3779626,165.43751 64.1281043,165.053476" id="Fill-267" fill="#FFFFFF" fill-rule="evenodd"></path>
                    <path d="M72.091622,165.073617 C74.7461879,164.438633 74.480966,168.123785 72.224233,167.996788 C70.89695,167.869792 70.3665063,165.454607 72.091622,165.073617" id="Fill-269" fill="#FFFFFF" fill-rule="evenodd"></path>
                    <path d="M55.7075334,412.077405 C56.5386964,411.784145 57,412.370666 57,413.055805 C56.9077393,414.327465 54.5995882,414.425219 55.0608918,412.664791 C55.0608918,412.469284 55.3384905,412.175159 55.7075334,412.077405" id="Fill-271" fill="#A7A7A7" fill-rule="evenodd"></path>
                    <path d="M77.7467148,411.051442 C78.4934296,410.857755 78.8663744,411.245986 78.9596107,411.63336 C79.3325555,413.280556 77,413.474243 77,412.020734 C77,411.439673 77.2805337,411.148286 77.7467148,411.051442" id="Fill-273" fill="#A7A7A7" fill-rule="evenodd"></path>
                    <path d="M76.9025727,421.652681 C77.1302367,421.322266 76.9025727,420.219908 76.7892422,419.559078 C76.4492505,418.015192 76.2225894,416.692558 75.8815948,415.259785 C75.7692672,414.487842 75.8815948,413.606735 75.3149421,413.165207 C70.5510471,412.944931 64.313855,412.944931 59.6642936,413.165207 C59.2099684,413.716874 58.9833073,415.701313 58.7566462,417.244224 C58.6433157,418.015192 58.4166546,418.565884 58.303324,419.337827 C58.1899935,419.999631 57.8489989,421.212128 58.0766629,421.542543 C58.5299851,422.424624 60.3442769,421.652681 61.5919159,421.872958 C61.3652548,420.880738 61.1385937,419.559078 61.3652548,418.345607 C62.1595716,417.905054 64.0871939,417.794916 64.7671772,418.45672 C64.9938383,419.559078 64.7671772,420.990876 64.5405161,421.872958 L70.4387195,421.872958 C70.2120584,420.990876 69.7577333,419.559078 70.2120584,418.345607 C71.0053723,417.905054 73.0463251,417.794916 73.6139808,418.45672 C73.9539725,419.779355 73.5006503,420.990876 73.2739892,421.762819 C74.6349587,421.652681 76.33592,422.424624 76.9025727,421.652681" id="Fill-275" fill="#A7A7A7" fill-rule="evenodd"></path>
                    <path d="M57.4515795,420.989099 C54.222612,421.211333 55.1648899,417.986974 55.029259,415.762667 C55.4337722,414.872748 57.048256,414.761631 57.5860207,415.429317 C58.5282986,416.652587 57.5860207,419.765829 57.4515795,420.989099" id="Fill-277" fill="#A7A7A7" fill-rule="evenodd"></path>
                    <path d="M78.3163517,419.989158 C78.0358815,418.551482 77.5676039,414.238455 78.877292,414.017424 C79.5325497,413.905931 79.7195298,414.34897 80,414.791031 C79.8130199,417.003291 80.4682776,420.210188 78.3163517,419.989158" id="Fill-279" fill="#A7A7A7" fill-rule="evenodd"></path>
                    <path d="M62.1284395,420.053476 C64.5519745,419.541431 64.5519745,422.871989 62.5321635,423 C60.7815018,423 60.3777778,420.43751 62.1284395,420.053476" id="Fill-281" fill="#FFFFFF" fill-rule="evenodd"></path>
                    <path d="M71.09178,420.073617 C73.74673,419.438633 73.480296,423.123785 71.2244101,422.996788 C69.8969351,422.742795 69.3664146,420.454607 71.09178,420.073617" id="Fill-283" fill="#FFFFFF" fill-rule="evenodd"></path>
                    <path d="M58.7075334,358.077405 C59.5386964,357.784145 60,358.370666 60,359.055805 C59.9077393,360.327465 57.5995882,360.425219 58.0608918,358.664791 C58.0608918,358.566173 58.3384905,358.175159 58.7075334,358.077405" id="Fill-285" fill="#A7A7A7" fill-rule="evenodd"></path>
                    <path d="M80.7467148,355.051511 C81.4934296,354.857831 81.8663744,355.245191 81.9596107,355.633408 C82.3325555,357.280546 80,357.474226 80,356.020769 C80,355.438871 80.2805337,355.148351 80.7467148,355.051511" id="Fill-287" fill="#A7A7A7" fill-rule="evenodd"></path>
                    <path d="M78.9025727,366.652643 C79.1302367,366.322193 78.9025727,365.219715 78.7892422,364.558814 C78.4492505,363.015735 78.2225894,361.692958 77.8815948,360.259055 C77.7692672,359.488003 77.8815948,358.605826 77.3149421,358.165225 C72.5510471,357.944925 66.313855,357.944925 61.6642936,358.165225 C61.2099684,358.715977 60.9833073,360.700631 60.7566462,362.243709 C60.6433157,363.015735 60.4166546,363.566487 60.303324,364.337538 C60.1899935,364.999415 59.8489989,366.212042 60.0766629,366.542493 C60.5299851,367.42467 62.3442769,366.652643 63.5919159,366.872944 C63.3652548,365.880617 63.1385937,364.558814 63.3652548,363.346186 C64.1595716,362.90461 66.0871939,362.79446 66.7671772,363.456336 C66.9938383,364.558814 66.7671772,365.991742 66.5405161,366.872944 L72.4387195,366.872944 C72.2120584,365.991742 71.7577333,364.558814 72.2120584,363.346186 C73.0053723,362.90461 75.0463251,362.79446 75.6139808,363.456336 C75.9539725,364.779114 75.5006503,365.991742 75.2739892,366.762793 C76.6349587,366.652643 78.33592,367.42467 78.9025727,366.652643" id="Fill-289" fill="#A7A7A7" fill-rule="evenodd"></path>
                    <path d="M59.4515795,366.989098 C56.222612,367.211344 57.1648899,363.986818 57.029259,361.762397 C57.4337722,360.873415 59.048256,360.761309 59.5860207,361.429029 C60.5282986,362.763485 59.5860207,365.765765 59.4515795,366.989098" id="Fill-291" fill="#A7A7A7" fill-rule="evenodd"></path>
                    <path d="M80.3163517,363.989158 C80.0358815,362.551422 79.5676039,358.238215 80.877292,358.017176 C81.5325497,357.906656 81.7195298,358.348735 82,358.791792 C81.8130199,361.003167 82.4682776,364.210197 80.3163517,363.989158" id="Fill-293" fill="#A7A7A7" fill-rule="evenodd"></path>
                    <path d="M65.1284395,365.053476 C67.5519745,364.541431 67.5519745,367.871989 65.5321635,368 C63.7815018,368 63.3777778,365.43751 65.1284395,365.053476" id="Fill-295" fill="#FFFFFF" fill-rule="evenodd"></path>
                    <path d="M74.09178,360.073617 C76.74673,359.438633 76.480296,363.123785 74.2244101,362.996788 C72.8969351,362.869792 72.3664146,360.454607 74.09178,360.073617" id="Fill-297" fill="#FFFFFF" fill-rule="evenodd"></path>
                    <path d="M71.4109721,384.59226 C70.4049021,381.440322 65.152189,380.739318 62.5816703,383.074622 C62.0232916,383.54127 61.7999401,384.358936 61.1298857,384.59226 C61.7999401,383.307946 62.8060101,382.256956 63.4760646,380.972642 C62.1349674,380.972642 60.5705187,381.089304 59.1177457,380.972642 C58.7827185,380.972642 58,381.206998 58,380.622656 C58,379.922684 59.2294215,380.156008 59.9004642,380.156008 C64.4821345,380.156008 69.5114961,379.80499 74.2048422,380.156008 C74.4281937,380.156008 75.0992365,379.922684 74.9875607,380.505994 C75.0992365,381.206998 74.2048422,380.85598 73.869815,380.972642 C72.6403935,381.089304 70.8525934,380.972642 69.6231719,380.972642 C70.0698749,382.023632 71.1876206,383.307946 71.857675,384.357903 C72.0820148,384.59226 71.7459993,384.475598 71.6343236,384.708922 C73.7581393,388.911849 71.1876206,393.464763 67.4993562,393.931411 C62.5816703,394.632415 59.2294215,389.845145 61.3532372,384.825584 C61.3532372,384.59226 61.4649129,384.59226 61.5765886,384.475598 C64.705486,384.59226 68.0577349,384.59226 71.4109721,384.59226" id="Fill-299" fill="#A7A7A7" fill-rule="evenodd"></path>
                    <path d="M74.4163596,381 L74.6661754,381 C74.6661754,382.80809 74.5829035,384.829727 75,386 L74,386 C74.4996315,384.829727 74.2498158,382.595484 74.4163596,381" id="Fill-301" fill="#A7A7A7" fill-rule="evenodd"></path>
                    <path d="M65.7902786,395.182798 C67.3949483,396.741898 68.0822295,399.526216 68.1977901,395.405386 C72.2099712,393.95758 76.1065919,396.853192 79.8896793,396.853192 C82.7553782,396.853192 86.6530125,393.846286 88.486776,395.851546 C90.8942874,398.635864 84.2455011,400.194964 80.6915074,400.64014 C78.6286502,400.862728 76.2211387,400.417552 74.616469,400.64014 C74.2728284,404.2045 74.1582816,408.102743 74.1582816,412 L60.746162,412 C61.31991,410.107018 59.6006934,409.216667 59.2560391,407.433994 C58.5677443,404.2045 59.4851328,400.528846 59.4851328,397.188058 C60.746162,395.739267 63.3827672,395.51668 65.7902786,395.182798" id="Fill-303" fill="#A7A7A7" fill-rule="evenodd"></path>
                    <path d="M236.92929,357.905383 C236.81475,357.332681 234.063754,357.102587 234.063754,358.134463 C234.177281,358.134463 234.177281,358.249004 234.177281,358.249004 C234.750996,358.592625 237.042817,358.821706 236.92929,357.905383 M236.92929,355.498008 C236.81475,354.925306 234.063754,354.695211 234.063754,355.727088 C234.177281,355.727088 234.177281,355.841629 234.177281,355.841629 C234.750996,356.186264 237.042817,356.415344 236.92929,355.498008 M236.92929,353.090633 C236.81475,352.517931 234.063754,352.28885 234.063754,353.320727 C234.177281,353.320727 234.177281,353.435267 234.177281,353.435267 C234.750996,353.778889 237.042817,354.007969 236.92929,353.090633 M250.454177,358.019923 L258.134463,358.019923 L258.134463,350.34065 L250.454177,350.34065 C250.339636,352.747012 250.454177,355.498008 250.454177,358.019923 M240.826704,358.019923 L248.505977,358.019923 L248.505977,350.34065 L240.826704,350.34065 C240.71115,352.747012 240.826704,355.498008 240.826704,358.019923 M236.92929,350.683258 C236.81475,350.110556 234.063754,349.881475 234.063754,350.913352 C234.177281,350.913352 234.177281,351.027892 234.177281,351.027892 C234.750996,351.256973 237.042817,351.600594 236.92929,350.683258 M236.92929,348.276896 C236.81475,347.704194 234.063754,347.4741 234.063754,348.505977 C234.177281,348.505977 234.177281,348.620517 234.177281,348.620517 C234.750996,348.849598 237.042817,349.194233 236.92929,348.276896 M236.92929,345.869521 C236.81475,345.296819 234.063754,345.066725 234.063754,346.099616 C234.177281,346.099616 234.177281,346.213142 234.177281,346.213142 C234.750996,346.443237 237.042817,346.786858 236.92929,345.869521 M236.92929,343.462146 C236.81475,342.889444 234.063754,342.660364 234.063754,343.69224 C234.177281,343.69224 234.177281,343.806781 234.177281,343.806781 C234.750996,344.035862 237.042817,344.379483 236.92929,343.462146 M250.454177,348.391437 L258.134463,348.391437 L258.134463,340.712164 L250.454177,340.712164 C250.339636,343.118525 250.454177,345.869521 250.454177,348.391437 M240.826704,348.391437 L248.505977,348.391437 L248.505977,340.712164 L240.826704,340.712164 C240.71115,343.118525 240.826704,345.869521 240.826704,348.391437 M236.92929,341.055785 C236.81475,340.483083 234.063754,340.252988 234.063754,341.284865 C234.177281,341.284865 234.177281,341.399406 234.177281,341.399406 C234.750996,341.628487 237.042817,341.973121 236.92929,341.055785 M232.11454,332 L261,332 L261,361 L238.76295,361 L238.76295,337.845613 L259.968123,337.845613 C260.197204,336.356589 259.968123,334.636456 260.082663,333.031877 L233.030863,333.031877 L233.030863,337.845613 L237.845613,337.845613 L237.845613,361 L232,361 L232,332.344635 C232.11454,332.115554 232.11454,332 232.11454,332" id="Fill-305" fill="#A7A7A7" fill-rule="evenodd"></path>
                    <path d="M236.110596,337.024361 C237.349234,336.904822 237.349234,334.751002 235.739333,335.109619 C234.500695,335.349755 234.995712,337.024361 236.110596,337.024361 M235.615579,334.033767 C238.711626,333.554553 238.834285,338.340349 235.739333,337.980674 C233.63332,337.741596 233.262057,334.392385 235.615579,334.033767" id="Fill-307" fill="#A7A7A7" fill-rule="evenodd"></path>
                    <path d="M240.110375,337.024361 C241.348883,336.904822 241.348883,334.751002 239.739151,335.109619 C238.500643,335.349755 238.995608,337.024361 240.110375,337.024361 M239.61541,334.033767 C242.711133,333.554553 242.834874,338.340349 239.739151,337.980674 C237.633358,337.741596 237.262134,334.392385 239.61541,334.033767" id="Fill-309" fill="#A7A7A7" fill-rule="evenodd"></path>
                    <path d="M69.8923088,572.915812 C70.2278735,572.915812 70.564428,572.915812 70.7881378,573.017494 C71.0118476,573.220858 71.0118476,573.526804 71.0118476,573.933531 L81.0857165,573.933531 C82.2052553,573.933531 83.8840684,573.729268 83.9969132,574.340259 C84.1077782,575.256296 81.1975714,574.95125 80.8620067,574.95125 L58.3633365,574.95125 C57.4675075,574.95125 55.1165751,575.153714 55.0047202,574.544523 C54.8928653,573.729268 56.7963782,573.933531 57.8030722,573.933531 L67.877931,573.933531 C68.1016407,573.831849 67.877931,573.32254 68.1016407,573.119176 C68.3253505,572.915812 68.6609152,572.915812 69.1083347,572.915812 C68.4372054,571.694729 70.3407182,571.694729 69.8923088,572.915812" id="Fill-321" fill="#A7A7A7" fill-rule="evenodd"></path>
                    <path d="M56.1124212,577 L83,577 L83,593 L56,593 L56,577.333108 C56.1124212,577.111036 56.1124212,577 56.1124212,577" id="Fill-323" fill="#A7A7A7" fill-rule="evenodd"></path>
                    <path d="M73.6992966,595.085456 C73.9230743,595.702078 74.5953974,596.21593 75.1548416,596.936232 C75.6023969,597.553763 76.4984977,598.273156 76.1628312,598.993458 C75.1548416,599.096228 74.5953974,597.964845 74.0349631,597.244543 C73.475519,596.52515 72.9150847,595.702078 72.2437517,595.085456 C70.2287626,595.393767 68.2127834,594.673465 66.6453496,595.085456 C65.8611377,595.290997 65.3016935,596.627011 64.7422494,597.244543 C64.0699262,597.964845 63.6223709,598.993458 62.6143813,598.993458 C62.2787148,598.170385 63.1738255,597.553763 63.6223709,596.936232 C64.1818151,596.3187 64.7422494,595.702078 65.1898047,595.085456 L57.2397569,595.085456 C56.4555449,595.085456 55.4485455,595.290997 55,594.776236 C55,594.571605 55,594.365154 55.2247678,594.262384 C63.1738255,593.954073 72.3556405,594.056843 80.9770213,594.056843 C81.4255668,594.056843 84,593.747623 84,594.571605 C84,595.393767 80.1937995,595.085456 79.1858099,595.085456 L73.6992966,595.085456 Z" id="Fill-325" fill="#A7A7A7" fill-rule="evenodd"></path>
                    <text id="Phases-Concertation" font-family="AvenirNext-Bold, Avenir Next" font-size="16" font-weight="bold" fill="#000000">
                        <tspan x="163" y="59">Phases</tspan>
                        <tspan x="163" y="81">Concertation</tspan>
                    </text>
                    <text id="Workshop-1" font-family="AvenirNext-Bold, Avenir Next" font-size="12" font-weight="bold" letter-spacing="-0.432000041" fill="#6390B1">
                        <tspan x="23" y="99">Workshop 1</tspan>
                    </text>
                    <text id="(techniciens)" font-family="AvenirNext-Bold, Avenir Next" font-size="12" font-weight="bold" fill="#000000">
                        <tspan x="30" y="112">(techniciens)</tspan>
                    </text>
                    <text id="Workshop-2" font-family="AvenirNext-Bold, Avenir Next" font-size="12" font-weight="bold" letter-spacing="-0.432000041" fill="#6390B1">
                        <tspan x="30" y="233">Workshop 2</tspan>
                    </text>
                    <text id="(techniciens,-archit" font-family="AvenirNext-Bold, Avenir Next" font-size="12" font-weight="bold" fill="#000000">
                        <tspan x="36.5656975" y="248">(techniciens</tspan>
                        <tspan x="106.465698" y="248" letter-spacing="-0.271395">,</tspan>
                        <tspan x="109.434303" y="248"> </tspan>
                        <tspan x="9.047116" y="264">a</tspan>
                        <tspan x="15.839116" y="264" letter-spacing="-0.162837">r</tspan>
                        <tspan x="20.212279" y="264">chitectes</tspan>
                        <tspan x="72.136279" y="264" letter-spacing="-0.271395">,</tspan>
                        <tspan x="75.104884" y="264"> étudiants)</tspan>
                    </text>
                    <text id="Exposition-" font-family="AvenirNext-Bold, Avenir Next" font-size="12" font-weight="bold" fill="#6390B1">
                        <tspan x="34" y="624">Exposition </tspan>
                    </text>
                    <text id="interactive" font-family="AvenirNext-Bold, Avenir Next" font-size="12" font-weight="bold" fill="#6390B1">
                        <tspan x="33" y="641">inte</tspan>
                        <tspan x="55.56" y="641" letter-spacing="-0.199024">r</tspan>
                        <tspan x="59.920976" y="641">active</tspan>
                    </text>
                    <text id="Geste-urbain-" font-family="AvenirNext-Bold, Avenir Next" font-size="12" font-weight="bold" fill="#6390B1">
                        <tspan x="71" y="815">Geste urbain </tspan>
                    </text>
                    <text id="de-l’entrée-nord-ﬁnalisé" font-family="AvenirNext-Bold, Avenir Next" font-size="12" font-weight="bold" fill="#6390B1">
                        <tspan x="39" y="830">de l</tspan>
                        <tspan x="60.624" y="830" letter-spacing="-0.74634">’</tspan>
                        <tspan x="62.75766" y="830">ent</tspan>
                        <tspan x="81.76566" y="830" letter-spacing="-0.2226581">r</tspan>
                        <tspan x="86.0790019" y="830">ée no</tspan>
                        <tspan x="118.359002" y="830" letter-spacing="-0.223902">r</tspan>
                        <tspan x="122.6711" y="830">d ﬁnalisé</tspan>
                    </text>
                    <text id="Suggestions" font-family="AvenirNext-Regular, Avenir Next" font-size="10" font-weight="normal" fill="#477393">
                        <tspan x="68" y="211">Suggestions</tspan>
                    </text>
                    <text id="Suggestions" font-family="AvenirNext-Regular, Avenir Next" font-size="10" font-weight="normal" fill="#477393">
                        <tspan x="23" y="448">Suggestions</tspan>
                    </text>
                    <text id="Suggestions" font-family="AvenirNext-Regular, Avenir Next" font-size="10" font-weight="normal" fill="#477393">
                        <tspan x="23" y="661">Suggestions</tspan>
                    </text>
                    <polyline id="Stroke-341" stroke="#477393" stroke-width="0.972" stroke-dasharray="4.861,4.861" points="247 390 247 686 166 686"></polyline>
                    <polygon id="Fill-343" fill="#477393" fill-rule="evenodd" points="172.659331 682 173 682.964781 166.18159 685.499466 173 688.034152 172.659331 689 163 685.499466"></polygon>
                    <text id="Web-App" font-family="AvenirNext-Bold, Avenir Next" font-size="12" font-weight="bold" letter-spacing="-0.432000041" fill="#6390B1">
                        <tspan x="221" y="383">Web App</tspan>
                    </text>
                    <g id="Group-347" stroke-width="1" fill-rule="evenodd" transform="translate(192.000000, 201.000000)" font-size="12" font-family="AvenirNext-Bold, Avenir Next" letter-spacing="-0.527999997" fill="#000000" font-weight="bold">
                        <text id="Public-+-Parties">
                            <tspan x="13.04486" y="12">P</tspan>
                            <tspan x="19.68086" y="12" letter-spacing="-0.700381339">ublic + Parties</tspan>
                        </text>
                    </g>
                    <text id="prenantes" font-family="AvenirNext-Bold, Avenir Next" font-size="12" font-weight="bold" fill="#000000">
                        <tspan x="215" y="224">p</tspan>
                        <tspan x="222.884" y="224" letter-spacing="-0.162837">r</tspan>
                        <tspan x="227.257163" y="224">enantes</tspan>
                    </text>
                    <path d="M70,526 L70,562" id="Stroke-353" stroke="#000000" stroke-width="0.972" stroke-dasharray="4.861,4.861"></path>
                    <polygon id="Fill-355" fill="#000000" fill-rule="evenodd" points="66 555.341674 67.0164028 555 69.4995008 561.81841 71.9835972 555 73 555.341674 69.4995008 565"></polygon>
                    <text id="Suggestions" font-family="AvenirNext-Regular, Avenir Next" font-size="10" font-weight="normal" fill="#477393">
                        <tspan x="181" y="700">Suggestions</tspan>
                    </text>
                    <text id="Public-+-Parties" font-family="AvenirNext-Bold, Avenir Next" font-size="12" font-weight="bold" letter-spacing="-0.527999997" fill="#000000">
                        <tspan x="29" y="470">Public + Parties</tspan>
                    </text>
                    <text id="prenantes" font-family="AvenirNext-Bold, Avenir Next" font-size="12" font-weight="bold" fill="#000000">
                        <tspan x="38" y="480">p</tspan>
                        <tspan x="45.884" y="480" letter-spacing="-0.162837">r</tspan>
                        <tspan x="50.257163" y="480">enantes</tspan>
                    </text>
                    <g id="Group" stroke-width="1" fill-rule="evenodd" transform="translate(44.000000, 484.000000)" fill="#000000">
                        <path d="M34.79,28.0811 L34.79,33.6221 L34.79,46.5131 C34.79,47.7571 33.998,48.5491 32.98,48.4351 C32.189,48.3221 31.511,47.6431 31.397,46.8521 L31.397,45.0431 L31.397,36.5611 L31.397,35.9961 L30.267,35.9961 L30.267,36.1091 L30.267,46.1741 C29.927,47.3051 29.249,48.0961 28.231,48.0961 C27.213,48.0961 25.744,46.2871 25.744,46.2871 L25.744,40.0671 L25.744,28.6461 C25.744,28.5331 25.744,28.4201 25.63,28.3071 C25.517,28.4201 25.517,28.5331 25.404,28.7591 C24.726,30.3431 23.934,31.8121 23.143,33.5091 C22.803,34.3001 21.899,34.6401 21.22,34.4131 C20.315,34.0741 19.863,33.1691 20.315,32.2651 C20.994,30.6821 21.899,29.0991 22.577,27.4021 C23.482,25.4791 24.499,23.5581 25.404,21.4091 C25.856,20.6171 26.422,20.1651 27.553,20.2781 L32.868,20.2781 C33.998,20.0521 34.564,20.6171 35.016,21.4091 C36.712,24.9141 38.295,28.5331 40.105,32.1511 C40.557,33.0571 40.331,33.8481 39.54,34.3001 C38.748,34.7531 37.73,34.4131 37.278,33.5091 C36.826,32.4911 36.373,31.4731 35.808,30.5681 C35.468,29.5511 35.242,28.8721 34.79,28.0811 C34.903,28.0811 34.79,28.0811 34.79,28.0811" id="Fill-91"></path>
                        <path d="M21.3335,28.4199 C21.1065,28.0809 20.9945,27.7409 20.8805,28.0809 L21.2205,28.0809 L21.3335,28.4199 C20.8805,29.2119 20.6545,30.1159 20.2025,30.9069 C19.9765,31.3599 19.8635,32.0379 19.8635,32.4909 C19.8635,33.0569 20.0895,33.6219 20.4285,34.0739 C20.5415,34.2999 20.0895,34.7529 20.0895,34.7529 L20.0895,45.8339 C20.0895,46.5129 19.7505,47.1909 19.0715,47.5299 C18.5065,47.8699 17.8275,47.7569 17.3755,47.1909 C16.9235,46.7389 16.8105,46.3989 16.8105,45.7219 L16.8105,39.9539 L16.8105,34.8649 L15.6795,34.8649 L15.6795,36.1089 L15.6795,45.8339 C15.6795,46.1739 15.6795,46.3989 15.5655,46.7389 C15.3395,47.5299 14.5485,48.0959 13.7565,47.9829 C12.9655,47.8699 12.3995,47.1909 12.2865,46.2869 L12.2865,44.9299 L12.2865,28.4199 L12.2865,28.0809 L12.1735,28.0809 C12.0605,28.1929 12.0605,28.3069 11.9475,28.4199 C11.2695,30.0029 10.5905,31.4729 9.9125,32.9429 C9.5725,33.7339 9.0075,34.0739 8.3295,33.8479 C7.5375,33.6219 7.0845,32.8299 7.3115,31.9259 C7.5375,31.3599 7.7635,30.7949 8.1025,30.2299 C9.3465,27.2889 10.7035,24.3489 12.0605,21.2959 C12.3995,20.3909 12.9655,20.0519 13.8705,20.0519 L19.0715,20.0519 C19.0715,20.0519 20.6545,19.7129 20.9945,20.6169 C21.5595,21.8609 22.1255,23.1059 22.6905,24.3489 C22.8035,24.6889 22.8035,24.9139 22.6905,25.2539 C22.2375,26.2719 21.7855,27.2889 21.3335,28.4199" id="Fill-93"></path>
                        <path d="M34.3379,19.0342 C34.7899,17.9032 35.1299,16.8862 35.4679,15.7552 C35.8079,14.7372 36.4859,14.3972 37.6169,14.5112 L41.5749,14.5112 C43.6099,14.1722 44.2889,14.8502 44.4019,18.2422 C45.5329,20.6172 46.4379,22.6522 47.5679,25.0272 C48.9249,26.1582 49.0379,27.8542 47.9069,28.3062 C47.1159,28.6462 46.3239,28.4202 45.9849,27.5152 C45.3069,25.9312 44.6279,24.4622 43.9499,22.8792 C43.8369,22.7652 43.8369,22.6522 43.6099,22.5402 L43.6099,23.6712 L43.6099,40.4062 C43.6099,40.7462 43.6099,41.1982 43.4969,41.5372 C43.2709,42.4422 42.5929,42.8942 41.5749,42.7812 C40.7829,42.6682 40.2179,41.9892 40.2179,41.0852 L40.2179,36.4482 L40.2179,35.0922 C40.2179,34.5262 40.2179,34.0742 40.5569,33.5092 C40.8969,32.8302 40.8969,32.0382 40.5569,31.3602 C38.9739,27.7412 37.5039,24.1232 35.9209,20.5042 C35.6949,19.7132 35.1299,19.2612 34.3379,19.0342" id="Fill-95"></path>
                        <path d="M5.3887,22.8789 C4.7107,24.2359 4.1447,25.5929 3.3537,26.9499 C3.2407,27.0629 3.2407,27.2889 3.1267,27.4019 C2.7877,28.1929 1.9967,28.4199 1.2047,28.0809 C0.5267,27.7409 0.3007,26.9499 0.6387,26.2719 C1.3177,24.8019 1.9967,23.2179 2.7877,21.7479 C3.5797,20.0519 4.3707,18.3559 5.2757,16.6589 C5.6147,15.9809 6.0677,15.6419 6.8587,15.6419 L11.8347,15.6419 C12.1737,15.6419 12.3997,15.7549 12.5127,16.2069 C12.7397,16.8859 12.9657,17.4509 13.3047,18.1299 C13.4177,18.4689 13.5307,18.5819 13.0777,18.6949 C12.3997,18.9209 11.8347,19.4859 11.4947,20.1649 C9.6857,23.7829 8.1027,27.4019 6.2937,30.9069 C5.5017,32.8299 6.5197,34.6399 8.6677,34.8649 L8.6677,34.9789 L8.6677,39.8409 C8.6677,40.6329 7.9897,41.1979 7.3107,41.3119 C6.5197,41.4239 5.7277,40.9719 5.3887,40.1809 C5.2757,39.8409 5.2757,39.5019 5.2757,39.2749 L5.2757,23.5579 C5.3887,23.3309 5.3887,23.1059 5.3887,22.8789" id="Fill-97"></path>
                        <path d="M19.9761,15.1895 C19.9761,17.1115 18.3931,18.6955 16.4711,18.6955 C14.5481,18.6955 12.9651,17.1115 12.9651,15.1895 C12.9651,13.2665 14.5481,11.6835 16.4711,11.6835 C18.3931,11.5705 19.9761,13.1545 19.9761,15.1895" id="Fill-99"></path>
                        <path d="M40.2178,13.3799 C38.2958,13.3799 36.7128,11.7969 36.7128,9.8749 C36.7128,7.9519 38.2958,6.3689 40.2178,6.3689 C42.1398,6.3689 43.7238,7.9519 43.7238,9.8749 C43.7238,11.9099 42.1398,13.4929 40.2178,13.3799" id="Fill-101"></path>
                        <path d="M27.1006,15.415 C27.1006,13.493 28.6836,11.91 30.6056,11.91 C32.5286,11.91 34.1116,13.493 34.1116,15.415 C34.1116,17.338 32.5286,18.921 30.6056,18.921 C28.6836,18.921 27.1006,17.338 27.1006,15.415" id="Fill-103"></path>
                        <path d="M29.1357,9.5352 L29.1357,10.1002 C29.0227,10.5532 28.9097,10.7792 28.4577,11.0052 C27.7787,11.3452 27.1007,11.7972 26.6477,12.3622 C26.1957,13.0412 25.6307,13.0412 24.9517,12.9282 C23.2557,12.5892 22.1247,11.0052 22.2377,9.0832 C22.3507,7.3872 23.8217,6.0292 25.5167,5.9172 C27.2137,5.8042 28.7967,7.0482 29.1357,8.7442 L29.1357,9.5352 Z" id="Fill-105"></path>
                        <path d="M20.2026,17.9033 C20.6546,16.7723 21.1066,15.7553 21.5596,14.6243 C21.8986,13.8323 22.4636,13.3803 23.3686,13.3803 L26.1956,13.3803 C25.6306,15.0763 25.8566,16.6593 27.1006,18.1303 C25.7436,18.3553 25.1786,19.3733 24.7256,20.5043 C24.3866,21.2963 24.0476,21.9743 23.7076,22.8793 C23.2556,21.7483 22.6906,20.7303 22.2376,19.7133 C21.7856,18.9213 21.2206,18.1303 20.2026,17.9033" id="Fill-107"></path>
                        <path d="M12.0605,11.5703 C12.0605,13.3803 10.5905,14.7373 8.8945,14.7373 C7.0845,14.7373 5.7275,13.2663 5.7275,11.5703 C5.7275,9.7613 7.1985,8.4043 8.8945,8.4043 C10.5905,8.4043 12.0605,9.7613 12.0605,11.5703" id="Fill-109"></path>
                        <path d="M22.0117,6.708 C20.9937,9.31 21.1067,9.762 22.4637,12.249 C22.0117,12.476 21.4467,12.814 20.9937,13.154 C20.4287,11.797 19.4107,10.666 17.8277,10.214 C16.2447,9.762 14.7747,10.214 13.4177,11.231 C13.5307,11.005 13.5307,10.893 13.5307,10.779 C13.9827,9.762 14.5487,8.631 15.0007,7.613 C15.4527,6.708 16.0187,6.369 17.1497,6.708 C18.6187,6.708 19.8637,6.595 21.3337,6.595 C21.4467,6.595 21.7857,6.708 22.0117,6.708" id="Fill-111"></path>
                        <path d="M33.6592,3.2031 C35.5812,3.2031 37.0522,4.8991 36.8262,6.8211 C36.8262,6.9341 36.7122,7.0481 36.7122,7.1601 C36.4862,7.6131 36.1472,8.0651 35.9212,8.5171 C35.5812,9.1961 34.9032,9.4221 34.2242,9.4221 C32.5282,9.6481 30.9452,8.6311 30.6062,6.9341 C30.2662,5.2381 31.2842,3.6551 32.8672,3.2031 L33.6592,3.2031 Z" id="Fill-113"></path>
                        <path d="M18.9585,6.2559 C17.2625,6.2559 15.9055,4.7859 15.9055,3.2029 C15.9055,1.5069 17.2625,0.1499 18.9585,0.1499 C20.6545,0.1499 22.0115,1.5069 22.0115,3.2029 C22.0115,4.8989 20.6545,6.2559 18.9585,6.2559" id="Fill-115"></path>
                        <path d="M35.9209,33.3955 C36.8259,34.6395 37.8429,35.0915 39.3139,34.7525 L39.3139,34.9785 L39.3139,40.7465 C39.3139,41.8765 38.4089,42.6675 37.2779,42.4425 C36.4859,42.3295 35.9209,41.7635 35.9209,40.8585 L35.9209,33.7345 L35.9209,33.3955 Z" id="Fill-117"></path>
                        <path d="M22.3511,34.7529 C23.5951,34.5259 24.4991,34.4129 25.7441,34.2999 L25.7441,34.9789 L25.7441,41.0849 C25.7441,42.1029 25.0651,42.6679 24.0471,42.6679 C23.1431,42.6679 22.2381,42.1029 22.3511,40.8579 C22.4641,39.0499 22.3511,37.2399 22.3511,35.4309 L22.3511,34.7529 Z" id="Fill-119"></path>
                        <path d="M35.4683,9.875 C35.4683,11.118 35.9213,12.136 36.5993,12.928 C36.0333,13.267 35.5813,13.493 35.0163,13.832 C34.6763,13.041 34.1113,12.249 33.3203,11.684 C32.5283,11.118 31.6233,10.779 30.7193,10.779 C30.6063,9.987 30.7193,9.875 31.3973,9.875 C32.8673,9.762 34.1113,9.875 35.4683,9.875" id="Fill-121"></path>
                        <path d="M11.043,33.1689 L11.043,41.0849 C10.138,40.9719 9.46,40.4059 9.912,39.6149 L9.912,34.6399 C9.46,34.5259 9.573,34.4129 9.573,34.2999 C10.025,33.8479 10.478,33.5089 11.043,33.1689" id="Fill-123"></path>
                    </g>
                    <g id="Group" stroke-width="1" fill-rule="evenodd" transform="translate(223.000000, 229.000000)" fill="#000000">
                        <path d="M34.79,28.0811 L34.79,33.6221 L34.79,46.5131 C34.79,47.7571 33.998,48.5491 32.98,48.4351 C32.189,48.3221 31.511,47.6431 31.397,46.8521 L31.397,45.0431 L31.397,36.5611 L31.397,35.9961 L30.267,35.9961 L30.267,36.1091 L30.267,46.1741 C29.927,47.3051 29.249,48.0961 28.231,48.0961 C27.213,48.0961 25.744,46.2871 25.744,46.2871 L25.744,40.0671 L25.744,28.6461 C25.744,28.5331 25.744,28.4201 25.63,28.3071 C25.517,28.4201 25.517,28.5331 25.404,28.7591 C24.726,30.3431 23.934,31.8121 23.143,33.5091 C22.803,34.3001 21.899,34.6401 21.22,34.4131 C20.315,34.0741 19.863,33.1691 20.315,32.2651 C20.994,30.6821 21.899,29.0991 22.577,27.4021 C23.482,25.4791 24.499,23.5581 25.404,21.4091 C25.856,20.6171 26.422,20.1651 27.553,20.2781 L32.868,20.2781 C33.998,20.0521 34.564,20.6171 35.016,21.4091 C36.712,24.9141 38.295,28.5331 40.105,32.1511 C40.557,33.0571 40.331,33.8481 39.54,34.3001 C38.748,34.7531 37.73,34.4131 37.278,33.5091 C36.826,32.4911 36.373,31.4731 35.808,30.5681 C35.468,29.5511 35.242,28.8721 34.79,28.0811 C34.903,28.0811 34.79,28.0811 34.79,28.0811" id="Fill-91"></path>
                        <path d="M21.3335,28.4199 C21.1065,28.0809 20.9945,27.7409 20.8805,28.0809 L21.2205,28.0809 L21.3335,28.4199 C20.8805,29.2119 20.6545,30.1159 20.2025,30.9069 C19.9765,31.3599 19.8635,32.0379 19.8635,32.4909 C19.8635,33.0569 20.0895,33.6219 20.4285,34.0739 C20.5415,34.2999 20.0895,34.7529 20.0895,34.7529 L20.0895,45.8339 C20.0895,46.5129 19.7505,47.1909 19.0715,47.5299 C18.5065,47.8699 17.8275,47.7569 17.3755,47.1909 C16.9235,46.7389 16.8105,46.3989 16.8105,45.7219 L16.8105,39.9539 L16.8105,34.8649 L15.6795,34.8649 L15.6795,36.1089 L15.6795,45.8339 C15.6795,46.1739 15.6795,46.3989 15.5655,46.7389 C15.3395,47.5299 14.5485,48.0959 13.7565,47.9829 C12.9655,47.8699 12.3995,47.1909 12.2865,46.2869 L12.2865,44.9299 L12.2865,28.4199 L12.2865,28.0809 L12.1735,28.0809 C12.0605,28.1929 12.0605,28.3069 11.9475,28.4199 C11.2695,30.0029 10.5905,31.4729 9.9125,32.9429 C9.5725,33.7339 9.0075,34.0739 8.3295,33.8479 C7.5375,33.6219 7.0845,32.8299 7.3115,31.9259 C7.5375,31.3599 7.7635,30.7949 8.1025,30.2299 C9.3465,27.2889 10.7035,24.3489 12.0605,21.2959 C12.3995,20.3909 12.9655,20.0519 13.8705,20.0519 L19.0715,20.0519 C19.0715,20.0519 20.6545,19.7129 20.9945,20.6169 C21.5595,21.8609 22.1255,23.1059 22.6905,24.3489 C22.8035,24.6889 22.8035,24.9139 22.6905,25.2539 C22.2375,26.2719 21.7855,27.2889 21.3335,28.4199" id="Fill-93"></path>
                        <path d="M34.3379,19.0342 C34.7899,17.9032 35.1299,16.8862 35.4679,15.7552 C35.8079,14.7372 36.4859,14.3972 37.6169,14.5112 L41.5749,14.5112 C43.6099,14.1722 44.2889,14.8502 44.4019,18.2422 C45.5329,20.6172 46.4379,22.6522 47.5679,25.0272 C48.9249,26.1582 49.0379,27.8542 47.9069,28.3062 C47.1159,28.6462 46.3239,28.4202 45.9849,27.5152 C45.3069,25.9312 44.6279,24.4622 43.9499,22.8792 C43.8369,22.7652 43.8369,22.6522 43.6099,22.5402 L43.6099,23.6712 L43.6099,40.4062 C43.6099,40.7462 43.6099,41.1982 43.4969,41.5372 C43.2709,42.4422 42.5929,42.8942 41.5749,42.7812 C40.7829,42.6682 40.2179,41.9892 40.2179,41.0852 L40.2179,36.4482 L40.2179,35.0922 C40.2179,34.5262 40.2179,34.0742 40.5569,33.5092 C40.8969,32.8302 40.8969,32.0382 40.5569,31.3602 C38.9739,27.7412 37.5039,24.1232 35.9209,20.5042 C35.6949,19.7132 35.1299,19.2612 34.3379,19.0342" id="Fill-95"></path>
                        <path d="M5.3887,22.8789 C4.7107,24.2359 4.1447,25.5929 3.3537,26.9499 C3.2407,27.0629 3.2407,27.2889 3.1267,27.4019 C2.7877,28.1929 1.9967,28.4199 1.2047,28.0809 C0.5267,27.7409 0.3007,26.9499 0.6387,26.2719 C1.3177,24.8019 1.9967,23.2179 2.7877,21.7479 C3.5797,20.0519 4.3707,18.3559 5.2757,16.6589 C5.6147,15.9809 6.0677,15.6419 6.8587,15.6419 L11.8347,15.6419 C12.1737,15.6419 12.3997,15.7549 12.5127,16.2069 C12.7397,16.8859 12.9657,17.4509 13.3047,18.1299 C13.4177,18.4689 13.5307,18.5819 13.0777,18.6949 C12.3997,18.9209 11.8347,19.4859 11.4947,20.1649 C9.6857,23.7829 8.1027,27.4019 6.2937,30.9069 C5.5017,32.8299 6.5197,34.6399 8.6677,34.8649 L8.6677,34.9789 L8.6677,39.8409 C8.6677,40.6329 7.9897,41.1979 7.3107,41.3119 C6.5197,41.4239 5.7277,40.9719 5.3887,40.1809 C5.2757,39.8409 5.2757,39.5019 5.2757,39.2749 L5.2757,23.5579 C5.3887,23.3309 5.3887,23.1059 5.3887,22.8789" id="Fill-97"></path>
                        <path d="M19.9761,15.1895 C19.9761,17.1115 18.3931,18.6955 16.4711,18.6955 C14.5481,18.6955 12.9651,17.1115 12.9651,15.1895 C12.9651,13.2665 14.5481,11.6835 16.4711,11.6835 C18.3931,11.5705 19.9761,13.1545 19.9761,15.1895" id="Fill-99"></path>
                        <path d="M40.2178,13.3799 C38.2958,13.3799 36.7128,11.7969 36.7128,9.8749 C36.7128,7.9519 38.2958,6.3689 40.2178,6.3689 C42.1398,6.3689 43.7238,7.9519 43.7238,9.8749 C43.7238,11.9099 42.1398,13.4929 40.2178,13.3799" id="Fill-101"></path>
                        <path d="M27.1006,15.415 C27.1006,13.493 28.6836,11.91 30.6056,11.91 C32.5286,11.91 34.1116,13.493 34.1116,15.415 C34.1116,17.338 32.5286,18.921 30.6056,18.921 C28.6836,18.921 27.1006,17.338 27.1006,15.415" id="Fill-103"></path>
                        <path d="M29.1357,9.5352 L29.1357,10.1002 C29.0227,10.5532 28.9097,10.7792 28.4577,11.0052 C27.7787,11.3452 27.1007,11.7972 26.6477,12.3622 C26.1957,13.0412 25.6307,13.0412 24.9517,12.9282 C23.2557,12.5892 22.1247,11.0052 22.2377,9.0832 C22.3507,7.3872 23.8217,6.0292 25.5167,5.9172 C27.2137,5.8042 28.7967,7.0482 29.1357,8.7442 L29.1357,9.5352 Z" id="Fill-105"></path>
                        <path d="M20.2026,17.9033 C20.6546,16.7723 21.1066,15.7553 21.5596,14.6243 C21.8986,13.8323 22.4636,13.3803 23.3686,13.3803 L26.1956,13.3803 C25.6306,15.0763 25.8566,16.6593 27.1006,18.1303 C25.7436,18.3553 25.1786,19.3733 24.7256,20.5043 C24.3866,21.2963 24.0476,21.9743 23.7076,22.8793 C23.2556,21.7483 22.6906,20.7303 22.2376,19.7133 C21.7856,18.9213 21.2206,18.1303 20.2026,17.9033" id="Fill-107"></path>
                        <path d="M12.0605,11.5703 C12.0605,13.3803 10.5905,14.7373 8.8945,14.7373 C7.0845,14.7373 5.7275,13.2663 5.7275,11.5703 C5.7275,9.7613 7.1985,8.4043 8.8945,8.4043 C10.5905,8.4043 12.0605,9.7613 12.0605,11.5703" id="Fill-109"></path>
                        <path d="M22.0117,6.708 C20.9937,9.31 21.1067,9.762 22.4637,12.249 C22.0117,12.476 21.4467,12.814 20.9937,13.154 C20.4287,11.797 19.4107,10.666 17.8277,10.214 C16.2447,9.762 14.7747,10.214 13.4177,11.231 C13.5307,11.005 13.5307,10.893 13.5307,10.779 C13.9827,9.762 14.5487,8.631 15.0007,7.613 C15.4527,6.708 16.0187,6.369 17.1497,6.708 C18.6187,6.708 19.8637,6.595 21.3337,6.595 C21.4467,6.595 21.7857,6.708 22.0117,6.708" id="Fill-111"></path>
                        <path d="M33.6592,3.2031 C35.5812,3.2031 37.0522,4.8991 36.8262,6.8211 C36.8262,6.9341 36.7122,7.0481 36.7122,7.1601 C36.4862,7.6131 36.1472,8.0651 35.9212,8.5171 C35.5812,9.1961 34.9032,9.4221 34.2242,9.4221 C32.5282,9.6481 30.9452,8.6311 30.6062,6.9341 C30.2662,5.2381 31.2842,3.6551 32.8672,3.2031 L33.6592,3.2031 Z" id="Fill-113"></path>
                        <path d="M18.9585,6.2559 C17.2625,6.2559 15.9055,4.7859 15.9055,3.2029 C15.9055,1.5069 17.2625,0.1499 18.9585,0.1499 C20.6545,0.1499 22.0115,1.5069 22.0115,3.2029 C22.0115,4.8989 20.6545,6.2559 18.9585,6.2559" id="Fill-115"></path>
                        <path d="M35.9209,33.3955 C36.8259,34.6395 37.8429,35.0915 39.3139,34.7525 L39.3139,34.9785 L39.3139,40.7465 C39.3139,41.8765 38.4089,42.6675 37.2779,42.4425 C36.4859,42.3295 35.9209,41.7635 35.9209,40.8585 L35.9209,33.7345 L35.9209,33.3955 Z" id="Fill-117"></path>
                        <path d="M22.3511,34.7529 C23.5951,34.5259 24.4991,34.4129 25.7441,34.2999 L25.7441,34.9789 L25.7441,41.0849 C25.7441,42.1029 25.0651,42.6679 24.0471,42.6679 C23.1431,42.6679 22.2381,42.1029 22.3511,40.8579 C22.4641,39.0499 22.3511,37.2399 22.3511,35.4309 L22.3511,34.7529 Z" id="Fill-119"></path>
                        <path d="M35.4683,9.875 C35.4683,11.118 35.9213,12.136 36.5993,12.928 C36.0333,13.267 35.5813,13.493 35.0163,13.832 C34.6763,13.041 34.1113,12.249 33.3203,11.684 C32.5283,11.118 31.6233,10.779 30.7193,10.779 C30.6063,9.987 30.7193,9.875 31.3973,9.875 C32.8673,9.762 34.1113,9.875 35.4683,9.875" id="Fill-121"></path>
                        <path d="M11.043,33.1689 L11.043,41.0849 C10.138,40.9719 9.46,40.4059 9.912,39.6149 L9.912,34.6399 C9.46,34.5259 9.573,34.4129 9.573,34.2999 C10.025,33.8479 10.478,33.5089 11.043,33.1689" id="Fill-123"></path>
                    </g>
                </g>
            </g>
        </g>
    </g>
</svg>