<?xml version="1.0" encoding="UTF-8" standalone="no"?>
<svg width="32px" height="32px" viewBox="0 0 32 32" version="1.1" xmlns="http://www.w3.org/2000/svg" xmlns:xlink="http://www.w3.org/1999/xlink">
    <!-- Generator: Sketch 39.1 (31720) - http://www.bohemiancoding.com/sketch -->
    <title>Fill 40</title>
    <desc>Created with Sketch.</desc>
    <defs></defs>
    <g id="Page-1" stroke="none" stroke-width="1" fill="none" fill-rule="evenodd">
        <g id="Icon-Set" transform="translate(-277.000000, -1025.000000)" fill="#FFFFFF">
            <path d="M297.95,1036.05 C297.559,1035.66 296.926,1035.66 296.536,1036.05 L293,1039.59 L289.464,1036.05 C289.074,1035.66 288.441,1035.66 288.05,1036.05 C287.66,1036.44 287.66,1037.07 288.05,1037.46 L291.586,1041 L288.05,1044.54 C287.66,1044.93 287.66,1045.56 288.05,1045.95 C288.441,1046.34 289.074,1046.34 289.464,1045.95 L293,1042.41 L296.536,1045.95 C296.926,1046.34 297.559,1046.34 297.95,1045.95 C298.34,1045.56 298.34,1044.93 297.95,1044.54 L294.414,1041 L297.95,1037.46 C298.34,1037.07 298.34,1036.44 297.95,1036.05 L297.95,1036.05 Z M307,1053 C307,1054.1 306.104,1055 305,1055 L281,1055 C279.896,1055 279,1054.1 279,1053 L279,1029 C279,1027.9 279.896,1027 281,1027 L305,1027 C306.104,1027 307,1027.9 307,1029 L307,1053 L307,1053 Z M305,1025 L281,1025 C278.791,1025 277,1026.79 277,1029 L277,1053 C277,1055.21 278.791,1057 281,1057 L305,1057 C307.209,1057 309,1055.21 309,1053 L309,1029 C309,1026.79 307.209,1025 305,1025 L305,1025 Z" id="Fill-40"></path>
        </g>
    </g>
</svg>