<?xml version="1.0" encoding="UTF-8" standalone="no"?>
<svg width="28px" height="28px" viewBox="0 0 28 28" version="1.1" xmlns="http://www.w3.org/2000/svg" xmlns:xlink="http://www.w3.org/1999/xlink">
    <!-- Generator: Sketch 39.1 (31720) - http://www.bohemiancoding.com/sketch -->
    <title>Fill 58</title>
    <desc>Created with Sketch.</desc>
    <defs></defs>
    <g id="Page-1" stroke="none" stroke-width="1" fill="none" fill-rule="evenodd">
        <g id="Icon-Set" transform="translate(-383.000000, -923.000000)" fill="#FFFFFF">
            <path d="M409,947 C409,948.087 408.087,949 407,949 L386.935,949.033 C385.848,949.033 384.967,948.152 384.967,947.065 L385,927 C385,925.913 385.913,925 387,925 L398,925 L398,923 L387,923 C384.827,923 383,925.221 383,927.394 L383,947.065 C383,949.238 384.762,951 386.935,951 L406.606,951 C408.779,951 411,949.173 411,947 L411,936 L409,936 L409,947 L409,947 Z M409.979,923 L403,923 C402.433,923.001 402.001,923.459 402,924 C401.999,924.541 402.433,925.001 403,925 L407.395,924.968 L392.308,939.357 C391.908,939.738 391.908,940.355 392.308,940.736 C392.706,941.117 393.354,941.117 393.753,940.736 L408.971,926.222 L409,931 C408.999,931.541 409.433,932.001 410,932 C410.567,931.999 410.999,931.541 411,931 L411,923.975 C411.001,923.434 410.546,922.999 409.979,923 L409.979,923 Z" id="Fill-58"></path>
        </g>
    </g>
</svg>