<?xml version="1.0" encoding="UTF-8" standalone="no"?>
<svg width="28px" height="20px" viewBox="0 0 28 20" version="1.1" xmlns="http://www.w3.org/2000/svg" xmlns:xlink="http://www.w3.org/1999/xlink">
    <!-- Generator: Sketch 39.1 (31720) - http://www.bohemiancoding.com/sketch -->
    <title>Fill 186</title>
    <desc>Created with Sketch.</desc>
    <defs></defs>
    <g id="Page-1" stroke="none" stroke-width="1" fill="none" fill-rule="evenodd">
        <g id="Icon-Set" transform="translate(-487.000000, -251.000000)" fill="#FFFFFF">
            <path d="M515,269 C515,269.203 514.961,269.395 514.905,269.578 L506,260 L515,253 L515,269 L515,269 Z M488.556,270.946 L497.58,261.33 L501,263.915 L504.272,261.314 L513.444,270.946 C513.301,270.979 488.699,270.979 488.556,270.946 L488.556,270.946 Z M487,269 L487,253 L496,260 L487.095,269.578 C487.039,269.395 487,269.203 487,269 L487,269 Z M514,251 L501,261 L488,251 L514,251 Z" id="Fill-186"></path>
        </g>
    </g>
</svg>