<?xml version="1.0" encoding="UTF-8" standalone="no"?>
<svg width="24px" height="32px" viewBox="0 0 24 32" version="1.1" xmlns="http://www.w3.org/2000/svg" xmlns:xlink="http://www.w3.org/1999/xlink">
    <!-- Generator: Sketch 39.1 (31720) - http://www.bohemiancoding.com/sketch -->
    <title>Fill 162</title>
    <desc>Created with Sketch.</desc>
    <defs></defs>
    <g id="Page-1" stroke="none" stroke-width="1" fill="none" fill-rule="evenodd">
        <g id="Icon-Set" transform="translate(-177.000000, -401.000000)" fill="#D0D0D0">
            <path d="M189,416 C187.343,416 186,414.657 186,413 C186,411.343 187.343,410 189,410 C190.657,410 192,411.343 192,413 C192,414.657 190.657,416 189,416 L189,416 Z M189,408 C186.239,408 184,410.238 184,413 C184,415.762 186.239,418 189,418 C191.761,418 194,415.762 194,413 C194,410.238 191.761,408 189,408 L189,408 Z M189,430 C187.337,430.009 179,417.181 179,413 C179,407.478 183.477,403 189,403 C194.523,403 199,407.478 199,413 C199,417.125 190.637,430.009 189,430 L189,430 Z M189,401 C182.373,401 177,406.373 177,413 C177,418.018 187.005,433.011 189,433 C190.964,433.011 201,417.95 201,413 C201,406.373 195.627,401 189,401 L189,401 Z" id="Fill-162"></path>
        </g>
    </g>
</svg>