<svg xmlns="http://www.w3.org/2000/svg" viewBox="0 0 50.85723 60"><title>open but not in comment period</title><g id="Layer_2" data-name="Layer 2"><g id="Layer_1-2" data-name="Layer 1"><path d="M25.4301.69767a24.55728,24.55728,0,0,0-17.47751,7.233l-.02051.01909A24.73082,24.73082,0,0,0,22.77973,50.01642v6.63552a2.64931,2.64931,0,0,0,4.52405,1.8737l15.597-15.59976a.22712.22712,0,0,0,.034-.03474A24.7266,24.7266,0,0,0,25.4301.69767Z" style="fill:#a3c1b1"/><path d="M25.42725,60a3.34977,3.34977,0,0,1-3.34533-3.34806V50.63579A25.436,25.436,0,1,1,43.428,43.38508l-.12673.11174L27.79692,59.01888A3.33735,3.33735,0,0,1,25.42725,60ZM25.43,1.39536a24.0325,24.0325,0,0,0-2.57543,47.92683l.62274.06677v7.263a1.95212,1.95212,0,0,0,3.33307,1.379l15.597-15.59838A24.02942,24.02942,0,0,0,25.43,1.39536Z" style="fill:#020202"/><path d="M37.18421,22.31738v15.22h-23.04v-15.22l11.52-8.93Zm-1.92,13.3v-12.36l-9.6-7.45-9.6,7.45v12.36Z" style="fill:#231f20"/><polygon points="35.264 23.257 35.264 35.617 16.064 35.617 16.064 23.257 25.664 15.807 35.264 23.257" style="fill:#fff"/><rect x="17.47494" y="24.87702" width="14.59179" height="1.8989" style="fill:#231f20"/><rect x="17.47494" y="28.19982" width="14.59179" height="1.8989" style="fill:#231f20"/><rect x="17.47494" y="31.52252" width="9.64059" height="1.8994" style="fill:#231f20"/></g></g></svg>