<svg xmlns="http://www.w3.org/2000/svg" viewBox="0 0 50.85413 60"><title>in comment period</title><g id="Layer_2" data-name="Layer 2"><g id="Layer_1-2" data-name="Layer 1"><g id="_Group_" data-name="&lt;Group&gt;"><path d="M50.157,25.427a24.55268,24.55268,0,0,1-7.22781,17.47212l-.01072.008-.00268.00268-.00268.00268L27.30016,58.52549a2.64834,2.64834,0,0,1-4.52207-1.87259V50.01446A24.73048,24.73048,0,0,1,7.94206,7.93885l.008-.008A24.73015,24.73015,0,0,1,50.157,25.427Z" style="fill:#a3c1b1"/><path d="M25.42775,60a3.34755,3.34755,0,0,1-3.34794-3.34658V50.63475a25.42766,25.42766,0,1,1,21.34263-7.2423L27.79325,59.01892A3.367,3.367,0,0,1,25.42775,60Zm.00273-58.60468A24.03219,24.03219,0,0,0,22.851,49.32119l.62408.06677v7.26546a1.94894,1.94894,0,0,0,1.20728,1.8041,1.99141,1.99141,0,0,0,2.12432-.42514l15.69868-15.696A24.03323,24.03323,0,0,0,25.43047,1.39532Z" style="fill:#020202"/></g><circle cx="19.15143" cy="19.25002" r="2.38342"/><circle cx="25.42757" cy="27.13921" r="10.27261" style="fill:#231f20"/><circle cx="25.42757" cy="27.13921" r="8.65955" style="fill:#fff"/><rect x="22.88064" y="15.67804" width="5.09386" height="2.37713"/><path d="M29.75735,14.74416a.93387.93387,0,0,1-.93387.93387H21.89041a.93387.93387,0,0,1-.93387-.93387h0a.93387.93387,0,0,1,.93387-.93387h6.93306a.93387.93387,0,0,1,.93387.93387Z"/><path d="M18.42919,26.85914c0,.03557.00475-.03541.00531,0h6.206V20.352A6.51746,6.51746,0,0,0,18.42919,26.85914Z" style="stroke:#000;stroke-miterlimit:10"/></g></g></svg>