<svg xmlns="http://www.w3.org/2000/svg" xmlns:xlink="http://www.w3.org/1999/xlink" viewBox="0 0 50.85723 60"><defs><clipPath id="clip-path"><path d="M19.5162,12.03725l-1.07543-1.07543a.76381.76381,0,0,0-1.07553,0l-5.1875,5.19546L9.85285,13.82443a.76381.76381,0,0,0-1.07553,0L7.70189,14.89986a.76381.76381,0,0,0,0,1.07553L10.5645,18.838,11.64,19.91343a.76369.76369,0,0,0,1.07543,0L13.791,18.838l5.72521-5.72521a.76381.76381,0,0,0,0-1.07553Z" style="fill:#a3c1b1;clip-rule:evenodd"/></clipPath><clipPath id="clip-path-2"><rect x="7.39712" y="10.68171" width="12.42375" height="9.51194" style="fill:#a3c1b1"/></clipPath><clipPath id="clip-path-3"><path d="M39.29489,15.20966l2.212-2.212a.72662.72662,0,0,0,0-1.02323L40.4837,10.95108a.72662.72662,0,0,0-1.02323,0l-2.212,2.212-2.212-2.212a.72662.72662,0,0,0-1.02323,0l-1.02332,1.02332a.72662.72662,0,0,0,0,1.02323l2.212,2.212-2.212,2.212a.72662.72662,0,0,0,0,1.02323l1.02332,1.02323a.72662.72662,0,0,0,1.02323,0l2.212-2.212,2.21213,2.212a.72662.72662,0,0,0,1.02323,0l1.02314-1.02323a.72662.72662,0,0,0,0-1.02323Z" style="fill:#f66;clip-rule:evenodd"/></clipPath><clipPath id="clip-path-4"><rect x="32.72333" y="10.68456" width="9.0502" height="9.0502" style="fill:#f66"/></clipPath></defs><title>review</title><g id="Layer_2" data-name="Layer 2"><g id="Layer_1-2" data-name="Layer 1"><path d="M25.4301.69767a24.55728,24.55728,0,0,0-17.47751,7.233l-.02051.01909A24.73082,24.73082,0,0,0,22.77973,50.01642v6.63552a2.64931,2.64931,0,0,0,4.52405,1.8737l15.597-15.59976a.22712.22712,0,0,0,.034-.03474A24.7266,24.7266,0,0,0,25.4301.69767Z" style="fill:#fff"/><path d="M25.42725,60a3.34977,3.34977,0,0,1-3.34533-3.34806V50.63579A25.436,25.436,0,1,1,43.428,43.38508l-.12673.11174L27.79692,59.01888A3.33735,3.33735,0,0,1,25.42725,60ZM25.43,1.39536a24.0325,24.0325,0,0,0-2.57543,47.92683l.62274.06677v7.263a1.95212,1.95212,0,0,0,3.33307,1.379l15.597-15.59838A24.02942,24.02942,0,0,0,25.43,1.39536Z" style="fill:#020202"/><path d="M25.43167,24.64324a7.67942,7.67942,0,0,1,3.09,14.71v-.14h-1.58v.64a7.50839,7.50839,0,0,1-1.51.15,7.6079,7.6079,0,0,1-1.52-.15v-.64h-1.57v.14a7.67942,7.67942,0,0,1,3.09-14.71Zm6.1,7.68a6.105,6.105,0,1,0-6.1,6.1A6.1136,6.1136,0,0,0,31.53167,32.32324Z" style="fill:#231f20"/><path d="M25.43167,26.21324a6.105,6.105,0,1,1-6.11,6.11A6.1136,6.1136,0,0,1,25.43167,26.21324Z" style="fill:#fff"/><path d="M28.52167,39.35324v3.11a3.09,3.09,0,1,1-6.18,0v-3.11a7.75988,7.75988,0,0,0,1.57.5v2.61a1.515,1.515,0,0,0,3.03,0v-2.61A7.65363,7.65363,0,0,0,28.52167,39.35324Z" style="fill:#231f20"/><path d="M28.52167,39.21324v.14a7.65363,7.65363,0,0,1-1.58.5v-.64Z" style="fill:#231f20"/><path d="M26.94167,39.85324v2.61a1.515,1.515,0,0,1-3.03,0v-2.61a7.6079,7.6079,0,0,0,1.52.15A7.50839,7.50839,0,0,0,26.94167,39.85324Z" style="fill:#fff"/><path d="M23.91167,39.21324v.64a7.75988,7.75988,0,0,1-1.57-.5v-.14Z" style="fill:#231f20"/><rect x="23.12619" y="41.67433" width="4.60485" height="1.57571" style="fill:#231f20"/><rect x="24.64059" y="38.44966" width="1.57604" height="4.60588" transform="translate(-21.27623 51.97967) rotate(-71.55336)" style="fill:#231f20"/><rect x="24.64032" y="20.94873" width="1.57571" height="2.42028" style="fill:#231f20"/><rect x="17.74815" y="23.36158" width="1.57617" height="2.42021" transform="translate(-11.94512 20.30013) rotate(-44.99276)" style="fill:#231f20"/><rect x="31.11093" y="23.78363" width="2.42021" height="1.57611" transform="translate(-7.90622 30.06574) rotate(-45.02056)" style="fill:#231f20"/><path d="M19.5162,12.03725l-1.07543-1.07543a.76381.76381,0,0,0-1.07553,0l-5.1875,5.19546L9.85285,13.82443a.76381.76381,0,0,0-1.07553,0L7.70189,14.89986a.76381.76381,0,0,0,0,1.07553L10.5645,18.838,11.64,19.91343a.76369.76369,0,0,0,1.07543,0L13.791,18.838l5.72521-5.72521a.76381.76381,0,0,0,0-1.07553Z" style="fill:#a3c1b1;fill-rule:evenodd"/><g style="clip-path:url(#clip-path)"><rect x="7.39712" y="10.68171" width="12.42375" height="9.51194" style="fill:#a3c1b1"/><g style="clip-path:url(#clip-path-2)"><rect x="6.99519" y="10.25512" width="13.2277" height="10.365" style="fill:#a3c1b1"/></g></g><path d="M39.29489,15.20966l2.212-2.212a.72662.72662,0,0,0,0-1.02323L40.4837,10.95108a.72662.72662,0,0,0-1.02323,0l-2.212,2.212-2.212-2.212a.72662.72662,0,0,0-1.02323,0l-1.02332,1.02332a.72662.72662,0,0,0,0,1.02323l2.212,2.212-2.212,2.212a.72662.72662,0,0,0,0,1.02323l1.02332,1.02323a.72662.72662,0,0,0,1.02323,0l2.212-2.212,2.21213,2.212a.72662.72662,0,0,0,1.02323,0l1.02314-1.02323a.72662.72662,0,0,0,0-1.02323Z" style="fill:#f66;fill-rule:evenodd"/><g style="clip-path:url(#clip-path-3)"><rect x="32.72333" y="10.68456" width="9.0502" height="9.0502" style="fill:#f66"/><g style="clip-path:url(#clip-path-4)"><rect x="32.31746" y="10.27868" width="9.86186" height="9.86186" style="fill:#f66"/></g></g></g></g></svg>