<svg xmlns="http://www.w3.org/2000/svg" viewBox="0 0 50.85723 60"><title>siteplan</title><g id="Layer_2" data-name="Layer 2"><g id="Layer_1-2" data-name="Layer 1"><path d="M25.4301.69767a24.55728,24.55728,0,0,0-17.47751,7.233l-.02051.01909A24.73082,24.73082,0,0,0,22.77973,50.01642v6.63552a2.64931,2.64931,0,0,0,4.52405,1.8737l15.597-15.59976a.22712.22712,0,0,0,.034-.03474A24.7266,24.7266,0,0,0,25.4301.69767Z" style="fill:#fff"/><path d="M25.42725,60a3.34977,3.34977,0,0,1-3.34533-3.34806V50.63579A25.436,25.436,0,1,1,43.428,43.38508l-.12673.11174L27.79692,59.01888A3.33735,3.33735,0,0,1,25.42725,60ZM25.43,1.39536a24.0325,24.0325,0,0,0-2.57543,47.92683l.62274.06677v7.263a1.95212,1.95212,0,0,0,3.33307,1.379l15.597-15.59838A24.02942,24.02942,0,0,0,25.43,1.39536Z" style="fill:#020202"/><polygon points="13.674 14.407 13.4 14.162 13.414 14.147 13.674 14.407" style="fill:#231f20"/><polygon points="13.674 14.407 13.4 14.162 13.414 14.147 13.674 14.407" style="fill:#231f20"/><polygon points="10.197 34.171 7.778 32.96 8.836 30.471 10.217 31.058 9.709 32.25 10.869 32.829 10.197 34.171" style="fill:#a3c1b1"/><path d="M11.83445,27.25391,10.45359,26.667l1.61816-3.8042,1.38086.58691Zm3.23535-7.6084-1.38086-.58691,1.61816-3.80371,1.38086.58691Z" style="fill:#a3c1b1"/><polygon points="18.305 12.038 16.924 11.451 18.003 8.916 20.531 10.01 19.935 11.387 18.792 10.892 18.305 12.038" style="fill:#a3c1b1"/><path d="M33.897,17.43262l-3.49121-1.51123.5957-1.377,3.49121,1.51123Zm-6.98145-3.02295-3.49023-1.51123.5957-1.377,3.49023,1.51123Z" style="fill:#a3c1b1"/><polygon points="39.544 21.187 38.134 20.676 38.575 19.458 37.387 18.944 37.983 17.568 40.465 18.643 39.544 21.187" style="fill:#a3c1b1"/><rect x="35.23293" y="25.21079" width="3.56632" height="1.4998" transform="translate(0.0016 51.92367) rotate(-70.0902)" style="fill:#a3c1b1"/><polygon points="35.676 34.66 33.617 33.142 34.488 30.734 35.898 31.245 35.408 32.599 36.567 33.452 35.676 34.66" style="fill:#a3c1b1"/><polygon points="38.37 38.197 37.163 37.308 37.904 36.301 36.897 35.56 37.788 34.352 40.001 35.983 38.37 38.197" style="fill:#a3c1b1"/><rect x="34.75141" y="39.62283" width="2.17" height="1.49947" transform="translate(-17.92455 45.26649) rotate(-53.60774)" style="fill:#a3c1b1"/><polygon points="32.949 45.556 30.594 44.379 31.266 43.037 32.49 43.65 33.302 42.548 34.509 43.438 32.949 45.556" style="fill:#a3c1b1"/><path d="M26.51512,42.3374,22.436,40.2959l.67188-1.3418,4.0791,2.0415Zm-8.15918-4.083-4.0791-2.042.67188-1.3418,4.0791,2.042Z" style="fill:#a3c1b1"/><path d="M25.42861,30.48261C20.86479,25.91879,17.612,20.151,17.612,15.834a7.8166,7.8166,0,1,1,15.63319,0c0,4.317-3.97615,10.80815-7.8166,14.64859" style="fill:#a3c1b1"/><path d="M25.4282,31.543l-.53027-.53027C20.01609,26.13086,16.8618,20.17285,16.8618,15.834a8.56689,8.56689,0,0,1,17.13379,0c0,4.63916-4.14062,11.2832-8.03711,15.17871Zm0-22.77539A7.07434,7.07434,0,0,0,18.3618,15.834c0,3.80713,2.75391,9.07324,7.06445,13.57373,3.56152-3.77832,7.06934-9.68408,7.06934-13.57373A7.07517,7.07517,0,0,0,25.4282,8.76758Z" style="fill:#231f20"/><circle cx="25.42861" cy="15.67804" r="2.12244" style="fill:#fff"/></g></g></svg>